%TF.GenerationSoftware,KiCad,Pcbnew,7.0.8*%
%TF.CreationDate,2024-01-29T20:53:27-05:00*%
%TF.ProjectId,lightlink,6c696768-746c-4696-9e6b-2e6b69636164,rev?*%
%TF.SameCoordinates,Original*%
%TF.FileFunction,Paste,Top*%
%TF.FilePolarity,Positive*%
%FSLAX46Y46*%
G04 Gerber Fmt 4.6, Leading zero omitted, Abs format (unit mm)*
G04 Created by KiCad (PCBNEW 7.0.8) date 2024-01-29 20:53:27*
%MOMM*%
%LPD*%
G01*
G04 APERTURE LIST*
G04 Aperture macros list*
%AMRoundRect*
0 Rectangle with rounded corners*
0 $1 Rounding radius*
0 $2 $3 $4 $5 $6 $7 $8 $9 X,Y pos of 4 corners*
0 Add a 4 corners polygon primitive as box body*
4,1,4,$2,$3,$4,$5,$6,$7,$8,$9,$2,$3,0*
0 Add four circle primitives for the rounded corners*
1,1,$1+$1,$2,$3*
1,1,$1+$1,$4,$5*
1,1,$1+$1,$6,$7*
1,1,$1+$1,$8,$9*
0 Add four rect primitives between the rounded corners*
20,1,$1+$1,$2,$3,$4,$5,0*
20,1,$1+$1,$4,$5,$6,$7,0*
20,1,$1+$1,$6,$7,$8,$9,0*
20,1,$1+$1,$8,$9,$2,$3,0*%
G04 Aperture macros list end*
%ADD10RoundRect,0.250000X0.550000X-1.500000X0.550000X1.500000X-0.550000X1.500000X-0.550000X-1.500000X0*%
%ADD11RoundRect,0.250000X0.475000X-0.337500X0.475000X0.337500X-0.475000X0.337500X-0.475000X-0.337500X0*%
%ADD12RoundRect,0.250000X0.337500X0.475000X-0.337500X0.475000X-0.337500X-0.475000X0.337500X-0.475000X0*%
%ADD13R,4.600000X5.700000*%
%ADD14RoundRect,0.150000X0.150000X-0.587500X0.150000X0.587500X-0.150000X0.587500X-0.150000X-0.587500X0*%
%ADD15RoundRect,0.250000X-0.337500X-0.475000X0.337500X-0.475000X0.337500X0.475000X-0.337500X0.475000X0*%
%ADD16RoundRect,0.250000X0.650000X-0.412500X0.650000X0.412500X-0.650000X0.412500X-0.650000X-0.412500X0*%
%ADD17RoundRect,0.250000X-0.475000X0.337500X-0.475000X-0.337500X0.475000X-0.337500X0.475000X0.337500X0*%
%ADD18R,1.170000X2.000000*%
%ADD19R,1.520000X2.000000*%
%ADD20RoundRect,0.250000X-0.250000X0.250000X-0.250000X-0.250000X0.250000X-0.250000X0.250000X0.250000X0*%
%ADD21RoundRect,0.250000X1.500000X0.650000X-1.500000X0.650000X-1.500000X-0.650000X1.500000X-0.650000X0*%
%ADD22RoundRect,0.125000X-0.825000X-0.125000X0.825000X-0.125000X0.825000X0.125000X-0.825000X0.125000X0*%
%ADD23R,0.650000X2.000000*%
G04 APERTURE END LIST*
D10*
%TO.C,C4*%
X121640000Y-100600000D03*
X121640000Y-95200000D03*
%TD*%
D11*
%TO.C,R11*%
X132840000Y-112437500D03*
X132840000Y-110362500D03*
%TD*%
D12*
%TO.C,C12*%
X149877500Y-113400000D03*
X147802500Y-113400000D03*
%TD*%
%TO.C,C11*%
X149877500Y-115400000D03*
X147802500Y-115400000D03*
%TD*%
D10*
%TO.C,C9*%
X129240000Y-100700000D03*
X129240000Y-95300000D03*
%TD*%
D13*
%TO.C,J4*%
X145465000Y-78850000D03*
%TD*%
D14*
%TO.C,Q1*%
X122940000Y-111262500D03*
X121990000Y-113137500D03*
X123890000Y-113137500D03*
%TD*%
D15*
%TO.C,R19*%
X147802500Y-111400000D03*
X149877500Y-111400000D03*
%TD*%
D16*
%TO.C,C3*%
X143240000Y-106125000D03*
X143240000Y-103000000D03*
%TD*%
D12*
%TO.C,C15*%
X141777500Y-131200000D03*
X139702500Y-131200000D03*
%TD*%
D13*
%TO.C,J5*%
X125240000Y-79100000D03*
%TD*%
D15*
%TO.C,R18*%
X143802500Y-111400000D03*
X145877500Y-111400000D03*
%TD*%
D11*
%TO.C,R8*%
X148440000Y-107800000D03*
X148440000Y-105725000D03*
%TD*%
D17*
%TO.C,R16*%
X141840000Y-112362500D03*
X141840000Y-114437500D03*
%TD*%
D18*
%TO.C,U3*%
X148630000Y-102900000D03*
D19*
X151170000Y-102900000D03*
X153710000Y-102900000D03*
D18*
X156250000Y-102900000D03*
X156250000Y-94300000D03*
D19*
X151170000Y-94300000D03*
D18*
X148630000Y-94300000D03*
%TD*%
D15*
%TO.C,R17*%
X121902500Y-108300000D03*
X123977500Y-108300000D03*
%TD*%
D20*
%TO.C,D5*%
X146440000Y-121150000D03*
X146440000Y-123650000D03*
%TD*%
D12*
%TO.C,C2*%
X153477500Y-105800000D03*
X151402500Y-105800000D03*
%TD*%
%TO.C,R1*%
X120077500Y-131300000D03*
X118002500Y-131300000D03*
%TD*%
%TO.C,R7*%
X145077500Y-108100000D03*
X143002500Y-108100000D03*
%TD*%
D11*
%TO.C,C13*%
X144290000Y-123087500D03*
X144290000Y-121012500D03*
%TD*%
D21*
%TO.C,D2*%
X142740000Y-95400000D03*
X137740000Y-95400000D03*
%TD*%
D12*
%TO.C,C14*%
X138377500Y-117400000D03*
X136302500Y-117400000D03*
%TD*%
D22*
%TO.C,U1*%
X133840000Y-119475000D03*
X133840000Y-120125000D03*
X133840000Y-120775000D03*
X133840000Y-121425000D03*
X133840000Y-122075000D03*
X133840000Y-122725000D03*
X133840000Y-123375000D03*
X133840000Y-124025000D03*
X133840000Y-124675000D03*
X133840000Y-125325000D03*
X140840000Y-125325000D03*
X140840000Y-124675000D03*
X140840000Y-124025000D03*
X140840000Y-123375000D03*
X140840000Y-122725000D03*
X140840000Y-122075000D03*
X140840000Y-121425000D03*
X140840000Y-120775000D03*
X140840000Y-120125000D03*
X140840000Y-119475000D03*
%TD*%
D23*
%TO.C,U5*%
X143890000Y-118110000D03*
X144840000Y-118110000D03*
X145790000Y-118110000D03*
X145790000Y-114690000D03*
X143890000Y-114690000D03*
%TD*%
M02*
