%TF.GenerationSoftware,KiCad,Pcbnew,7.0.8*%
%TF.CreationDate,2024-01-29T20:53:27-05:00*%
%TF.ProjectId,lightlink,6c696768-746c-4696-9e6b-2e6b69636164,rev?*%
%TF.SameCoordinates,Original*%
%TF.FileFunction,Legend,Bot*%
%TF.FilePolarity,Positive*%
%FSLAX46Y46*%
G04 Gerber Fmt 4.6, Leading zero omitted, Abs format (unit mm)*
G04 Created by KiCad (PCBNEW 7.0.8) date 2024-01-29 20:53:27*
%MOMM*%
%LPD*%
G01*
G04 APERTURE LIST*
%ADD10C,0.150000*%
%ADD11C,0.100000*%
%ADD12C,0.120000*%
%ADD13C,0.550000*%
G04 APERTURE END LIST*
D10*
X130506666Y-104759580D02*
X130554285Y-104807200D01*
X130554285Y-104807200D02*
X130697142Y-104854819D01*
X130697142Y-104854819D02*
X130792380Y-104854819D01*
X130792380Y-104854819D02*
X130935237Y-104807200D01*
X130935237Y-104807200D02*
X131030475Y-104711961D01*
X131030475Y-104711961D02*
X131078094Y-104616723D01*
X131078094Y-104616723D02*
X131125713Y-104426247D01*
X131125713Y-104426247D02*
X131125713Y-104283390D01*
X131125713Y-104283390D02*
X131078094Y-104092914D01*
X131078094Y-104092914D02*
X131030475Y-103997676D01*
X131030475Y-103997676D02*
X130935237Y-103902438D01*
X130935237Y-103902438D02*
X130792380Y-103854819D01*
X130792380Y-103854819D02*
X130697142Y-103854819D01*
X130697142Y-103854819D02*
X130554285Y-103902438D01*
X130554285Y-103902438D02*
X130506666Y-103950057D01*
X130173332Y-103854819D02*
X129506666Y-103854819D01*
X129506666Y-103854819D02*
X129935237Y-104854819D01*
X144359580Y-110607142D02*
X144407200Y-110559523D01*
X144407200Y-110559523D02*
X144454819Y-110416666D01*
X144454819Y-110416666D02*
X144454819Y-110321428D01*
X144454819Y-110321428D02*
X144407200Y-110178571D01*
X144407200Y-110178571D02*
X144311961Y-110083333D01*
X144311961Y-110083333D02*
X144216723Y-110035714D01*
X144216723Y-110035714D02*
X144026247Y-109988095D01*
X144026247Y-109988095D02*
X143883390Y-109988095D01*
X143883390Y-109988095D02*
X143692914Y-110035714D01*
X143692914Y-110035714D02*
X143597676Y-110083333D01*
X143597676Y-110083333D02*
X143502438Y-110178571D01*
X143502438Y-110178571D02*
X143454819Y-110321428D01*
X143454819Y-110321428D02*
X143454819Y-110416666D01*
X143454819Y-110416666D02*
X143502438Y-110559523D01*
X143502438Y-110559523D02*
X143550057Y-110607142D01*
X144454819Y-111559523D02*
X144454819Y-110988095D01*
X144454819Y-111273809D02*
X143454819Y-111273809D01*
X143454819Y-111273809D02*
X143597676Y-111178571D01*
X143597676Y-111178571D02*
X143692914Y-111083333D01*
X143692914Y-111083333D02*
X143740533Y-110988095D01*
X143454819Y-111892857D02*
X143454819Y-112559523D01*
X143454819Y-112559523D02*
X144454819Y-112130952D01*
X129044819Y-113888095D02*
X129854342Y-113888095D01*
X129854342Y-113888095D02*
X129949580Y-113935714D01*
X129949580Y-113935714D02*
X129997200Y-113983333D01*
X129997200Y-113983333D02*
X130044819Y-114078571D01*
X130044819Y-114078571D02*
X130044819Y-114269047D01*
X130044819Y-114269047D02*
X129997200Y-114364285D01*
X129997200Y-114364285D02*
X129949580Y-114411904D01*
X129949580Y-114411904D02*
X129854342Y-114459523D01*
X129854342Y-114459523D02*
X129044819Y-114459523D01*
X129140057Y-114888095D02*
X129092438Y-114935714D01*
X129092438Y-114935714D02*
X129044819Y-115030952D01*
X129044819Y-115030952D02*
X129044819Y-115269047D01*
X129044819Y-115269047D02*
X129092438Y-115364285D01*
X129092438Y-115364285D02*
X129140057Y-115411904D01*
X129140057Y-115411904D02*
X129235295Y-115459523D01*
X129235295Y-115459523D02*
X129330533Y-115459523D01*
X129330533Y-115459523D02*
X129473390Y-115411904D01*
X129473390Y-115411904D02*
X130044819Y-114840476D01*
X130044819Y-114840476D02*
X130044819Y-115459523D01*
X123044819Y-95007142D02*
X122568628Y-94673809D01*
X123044819Y-94435714D02*
X122044819Y-94435714D01*
X122044819Y-94435714D02*
X122044819Y-94816666D01*
X122044819Y-94816666D02*
X122092438Y-94911904D01*
X122092438Y-94911904D02*
X122140057Y-94959523D01*
X122140057Y-94959523D02*
X122235295Y-95007142D01*
X122235295Y-95007142D02*
X122378152Y-95007142D01*
X122378152Y-95007142D02*
X122473390Y-94959523D01*
X122473390Y-94959523D02*
X122521009Y-94911904D01*
X122521009Y-94911904D02*
X122568628Y-94816666D01*
X122568628Y-94816666D02*
X122568628Y-94435714D01*
X123044819Y-95959523D02*
X123044819Y-95388095D01*
X123044819Y-95673809D02*
X122044819Y-95673809D01*
X122044819Y-95673809D02*
X122187676Y-95578571D01*
X122187676Y-95578571D02*
X122282914Y-95483333D01*
X122282914Y-95483333D02*
X122330533Y-95388095D01*
X122044819Y-96864285D02*
X122044819Y-96388095D01*
X122044819Y-96388095D02*
X122521009Y-96340476D01*
X122521009Y-96340476D02*
X122473390Y-96388095D01*
X122473390Y-96388095D02*
X122425771Y-96483333D01*
X122425771Y-96483333D02*
X122425771Y-96721428D01*
X122425771Y-96721428D02*
X122473390Y-96816666D01*
X122473390Y-96816666D02*
X122521009Y-96864285D01*
X122521009Y-96864285D02*
X122616247Y-96911904D01*
X122616247Y-96911904D02*
X122854342Y-96911904D01*
X122854342Y-96911904D02*
X122949580Y-96864285D01*
X122949580Y-96864285D02*
X122997200Y-96816666D01*
X122997200Y-96816666D02*
X123044819Y-96721428D01*
X123044819Y-96721428D02*
X123044819Y-96483333D01*
X123044819Y-96483333D02*
X122997200Y-96388095D01*
X122997200Y-96388095D02*
X122949580Y-96340476D01*
X155794819Y-123483333D02*
X155318628Y-123150000D01*
X155794819Y-122911905D02*
X154794819Y-122911905D01*
X154794819Y-122911905D02*
X154794819Y-123292857D01*
X154794819Y-123292857D02*
X154842438Y-123388095D01*
X154842438Y-123388095D02*
X154890057Y-123435714D01*
X154890057Y-123435714D02*
X154985295Y-123483333D01*
X154985295Y-123483333D02*
X155128152Y-123483333D01*
X155128152Y-123483333D02*
X155223390Y-123435714D01*
X155223390Y-123435714D02*
X155271009Y-123388095D01*
X155271009Y-123388095D02*
X155318628Y-123292857D01*
X155318628Y-123292857D02*
X155318628Y-122911905D01*
X155128152Y-124340476D02*
X155794819Y-124340476D01*
X154747200Y-124102381D02*
X155461485Y-123864286D01*
X155461485Y-123864286D02*
X155461485Y-124483333D01*
X120199580Y-97533333D02*
X120247200Y-97485714D01*
X120247200Y-97485714D02*
X120294819Y-97342857D01*
X120294819Y-97342857D02*
X120294819Y-97247619D01*
X120294819Y-97247619D02*
X120247200Y-97104762D01*
X120247200Y-97104762D02*
X120151961Y-97009524D01*
X120151961Y-97009524D02*
X120056723Y-96961905D01*
X120056723Y-96961905D02*
X119866247Y-96914286D01*
X119866247Y-96914286D02*
X119723390Y-96914286D01*
X119723390Y-96914286D02*
X119532914Y-96961905D01*
X119532914Y-96961905D02*
X119437676Y-97009524D01*
X119437676Y-97009524D02*
X119342438Y-97104762D01*
X119342438Y-97104762D02*
X119294819Y-97247619D01*
X119294819Y-97247619D02*
X119294819Y-97342857D01*
X119294819Y-97342857D02*
X119342438Y-97485714D01*
X119342438Y-97485714D02*
X119390057Y-97533333D01*
X119294819Y-98438095D02*
X119294819Y-97961905D01*
X119294819Y-97961905D02*
X119771009Y-97914286D01*
X119771009Y-97914286D02*
X119723390Y-97961905D01*
X119723390Y-97961905D02*
X119675771Y-98057143D01*
X119675771Y-98057143D02*
X119675771Y-98295238D01*
X119675771Y-98295238D02*
X119723390Y-98390476D01*
X119723390Y-98390476D02*
X119771009Y-98438095D01*
X119771009Y-98438095D02*
X119866247Y-98485714D01*
X119866247Y-98485714D02*
X120104342Y-98485714D01*
X120104342Y-98485714D02*
X120199580Y-98438095D01*
X120199580Y-98438095D02*
X120247200Y-98390476D01*
X120247200Y-98390476D02*
X120294819Y-98295238D01*
X120294819Y-98295238D02*
X120294819Y-98057143D01*
X120294819Y-98057143D02*
X120247200Y-97961905D01*
X120247200Y-97961905D02*
X120199580Y-97914286D01*
X127351904Y-99104819D02*
X127351904Y-99914342D01*
X127351904Y-99914342D02*
X127304285Y-100009580D01*
X127304285Y-100009580D02*
X127256666Y-100057200D01*
X127256666Y-100057200D02*
X127161428Y-100104819D01*
X127161428Y-100104819D02*
X126970952Y-100104819D01*
X126970952Y-100104819D02*
X126875714Y-100057200D01*
X126875714Y-100057200D02*
X126828095Y-100009580D01*
X126828095Y-100009580D02*
X126780476Y-99914342D01*
X126780476Y-99914342D02*
X126780476Y-99104819D01*
X125875714Y-99438152D02*
X125875714Y-100104819D01*
X126113809Y-99057200D02*
X126351904Y-99771485D01*
X126351904Y-99771485D02*
X125732857Y-99771485D01*
X129482857Y-111009580D02*
X129530476Y-111057200D01*
X129530476Y-111057200D02*
X129673333Y-111104819D01*
X129673333Y-111104819D02*
X129768571Y-111104819D01*
X129768571Y-111104819D02*
X129911428Y-111057200D01*
X129911428Y-111057200D02*
X130006666Y-110961961D01*
X130006666Y-110961961D02*
X130054285Y-110866723D01*
X130054285Y-110866723D02*
X130101904Y-110676247D01*
X130101904Y-110676247D02*
X130101904Y-110533390D01*
X130101904Y-110533390D02*
X130054285Y-110342914D01*
X130054285Y-110342914D02*
X130006666Y-110247676D01*
X130006666Y-110247676D02*
X129911428Y-110152438D01*
X129911428Y-110152438D02*
X129768571Y-110104819D01*
X129768571Y-110104819D02*
X129673333Y-110104819D01*
X129673333Y-110104819D02*
X129530476Y-110152438D01*
X129530476Y-110152438D02*
X129482857Y-110200057D01*
X128530476Y-111104819D02*
X129101904Y-111104819D01*
X128816190Y-111104819D02*
X128816190Y-110104819D01*
X128816190Y-110104819D02*
X128911428Y-110247676D01*
X128911428Y-110247676D02*
X129006666Y-110342914D01*
X129006666Y-110342914D02*
X129101904Y-110390533D01*
X127911428Y-110104819D02*
X127816190Y-110104819D01*
X127816190Y-110104819D02*
X127720952Y-110152438D01*
X127720952Y-110152438D02*
X127673333Y-110200057D01*
X127673333Y-110200057D02*
X127625714Y-110295295D01*
X127625714Y-110295295D02*
X127578095Y-110485771D01*
X127578095Y-110485771D02*
X127578095Y-110723866D01*
X127578095Y-110723866D02*
X127625714Y-110914342D01*
X127625714Y-110914342D02*
X127673333Y-111009580D01*
X127673333Y-111009580D02*
X127720952Y-111057200D01*
X127720952Y-111057200D02*
X127816190Y-111104819D01*
X127816190Y-111104819D02*
X127911428Y-111104819D01*
X127911428Y-111104819D02*
X128006666Y-111057200D01*
X128006666Y-111057200D02*
X128054285Y-111009580D01*
X128054285Y-111009580D02*
X128101904Y-110914342D01*
X128101904Y-110914342D02*
X128149523Y-110723866D01*
X128149523Y-110723866D02*
X128149523Y-110485771D01*
X128149523Y-110485771D02*
X128101904Y-110295295D01*
X128101904Y-110295295D02*
X128054285Y-110200057D01*
X128054285Y-110200057D02*
X128006666Y-110152438D01*
X128006666Y-110152438D02*
X127911428Y-110104819D01*
X131982857Y-99354819D02*
X132316190Y-98878628D01*
X132554285Y-99354819D02*
X132554285Y-98354819D01*
X132554285Y-98354819D02*
X132173333Y-98354819D01*
X132173333Y-98354819D02*
X132078095Y-98402438D01*
X132078095Y-98402438D02*
X132030476Y-98450057D01*
X132030476Y-98450057D02*
X131982857Y-98545295D01*
X131982857Y-98545295D02*
X131982857Y-98688152D01*
X131982857Y-98688152D02*
X132030476Y-98783390D01*
X132030476Y-98783390D02*
X132078095Y-98831009D01*
X132078095Y-98831009D02*
X132173333Y-98878628D01*
X132173333Y-98878628D02*
X132554285Y-98878628D01*
X131030476Y-99354819D02*
X131601904Y-99354819D01*
X131316190Y-99354819D02*
X131316190Y-98354819D01*
X131316190Y-98354819D02*
X131411428Y-98497676D01*
X131411428Y-98497676D02*
X131506666Y-98592914D01*
X131506666Y-98592914D02*
X131601904Y-98640533D01*
X130697142Y-98354819D02*
X130078095Y-98354819D01*
X130078095Y-98354819D02*
X130411428Y-98735771D01*
X130411428Y-98735771D02*
X130268571Y-98735771D01*
X130268571Y-98735771D02*
X130173333Y-98783390D01*
X130173333Y-98783390D02*
X130125714Y-98831009D01*
X130125714Y-98831009D02*
X130078095Y-98926247D01*
X130078095Y-98926247D02*
X130078095Y-99164342D01*
X130078095Y-99164342D02*
X130125714Y-99259580D01*
X130125714Y-99259580D02*
X130173333Y-99307200D01*
X130173333Y-99307200D02*
X130268571Y-99354819D01*
X130268571Y-99354819D02*
X130554285Y-99354819D01*
X130554285Y-99354819D02*
X130649523Y-99307200D01*
X130649523Y-99307200D02*
X130697142Y-99259580D01*
X154199580Y-113957142D02*
X154247200Y-113909523D01*
X154247200Y-113909523D02*
X154294819Y-113766666D01*
X154294819Y-113766666D02*
X154294819Y-113671428D01*
X154294819Y-113671428D02*
X154247200Y-113528571D01*
X154247200Y-113528571D02*
X154151961Y-113433333D01*
X154151961Y-113433333D02*
X154056723Y-113385714D01*
X154056723Y-113385714D02*
X153866247Y-113338095D01*
X153866247Y-113338095D02*
X153723390Y-113338095D01*
X153723390Y-113338095D02*
X153532914Y-113385714D01*
X153532914Y-113385714D02*
X153437676Y-113433333D01*
X153437676Y-113433333D02*
X153342438Y-113528571D01*
X153342438Y-113528571D02*
X153294819Y-113671428D01*
X153294819Y-113671428D02*
X153294819Y-113766666D01*
X153294819Y-113766666D02*
X153342438Y-113909523D01*
X153342438Y-113909523D02*
X153390057Y-113957142D01*
X154294819Y-114909523D02*
X154294819Y-114338095D01*
X154294819Y-114623809D02*
X153294819Y-114623809D01*
X153294819Y-114623809D02*
X153437676Y-114528571D01*
X153437676Y-114528571D02*
X153532914Y-114433333D01*
X153532914Y-114433333D02*
X153580533Y-114338095D01*
X153294819Y-115766666D02*
X153294819Y-115576190D01*
X153294819Y-115576190D02*
X153342438Y-115480952D01*
X153342438Y-115480952D02*
X153390057Y-115433333D01*
X153390057Y-115433333D02*
X153532914Y-115338095D01*
X153532914Y-115338095D02*
X153723390Y-115290476D01*
X153723390Y-115290476D02*
X154104342Y-115290476D01*
X154104342Y-115290476D02*
X154199580Y-115338095D01*
X154199580Y-115338095D02*
X154247200Y-115385714D01*
X154247200Y-115385714D02*
X154294819Y-115480952D01*
X154294819Y-115480952D02*
X154294819Y-115671428D01*
X154294819Y-115671428D02*
X154247200Y-115766666D01*
X154247200Y-115766666D02*
X154199580Y-115814285D01*
X154199580Y-115814285D02*
X154104342Y-115861904D01*
X154104342Y-115861904D02*
X153866247Y-115861904D01*
X153866247Y-115861904D02*
X153771009Y-115814285D01*
X153771009Y-115814285D02*
X153723390Y-115766666D01*
X153723390Y-115766666D02*
X153675771Y-115671428D01*
X153675771Y-115671428D02*
X153675771Y-115480952D01*
X153675771Y-115480952D02*
X153723390Y-115385714D01*
X153723390Y-115385714D02*
X153771009Y-115338095D01*
X153771009Y-115338095D02*
X153866247Y-115290476D01*
X132949580Y-109733333D02*
X132997200Y-109685714D01*
X132997200Y-109685714D02*
X133044819Y-109542857D01*
X133044819Y-109542857D02*
X133044819Y-109447619D01*
X133044819Y-109447619D02*
X132997200Y-109304762D01*
X132997200Y-109304762D02*
X132901961Y-109209524D01*
X132901961Y-109209524D02*
X132806723Y-109161905D01*
X132806723Y-109161905D02*
X132616247Y-109114286D01*
X132616247Y-109114286D02*
X132473390Y-109114286D01*
X132473390Y-109114286D02*
X132282914Y-109161905D01*
X132282914Y-109161905D02*
X132187676Y-109209524D01*
X132187676Y-109209524D02*
X132092438Y-109304762D01*
X132092438Y-109304762D02*
X132044819Y-109447619D01*
X132044819Y-109447619D02*
X132044819Y-109542857D01*
X132044819Y-109542857D02*
X132092438Y-109685714D01*
X132092438Y-109685714D02*
X132140057Y-109733333D01*
X132473390Y-110304762D02*
X132425771Y-110209524D01*
X132425771Y-110209524D02*
X132378152Y-110161905D01*
X132378152Y-110161905D02*
X132282914Y-110114286D01*
X132282914Y-110114286D02*
X132235295Y-110114286D01*
X132235295Y-110114286D02*
X132140057Y-110161905D01*
X132140057Y-110161905D02*
X132092438Y-110209524D01*
X132092438Y-110209524D02*
X132044819Y-110304762D01*
X132044819Y-110304762D02*
X132044819Y-110495238D01*
X132044819Y-110495238D02*
X132092438Y-110590476D01*
X132092438Y-110590476D02*
X132140057Y-110638095D01*
X132140057Y-110638095D02*
X132235295Y-110685714D01*
X132235295Y-110685714D02*
X132282914Y-110685714D01*
X132282914Y-110685714D02*
X132378152Y-110638095D01*
X132378152Y-110638095D02*
X132425771Y-110590476D01*
X132425771Y-110590476D02*
X132473390Y-110495238D01*
X132473390Y-110495238D02*
X132473390Y-110304762D01*
X132473390Y-110304762D02*
X132521009Y-110209524D01*
X132521009Y-110209524D02*
X132568628Y-110161905D01*
X132568628Y-110161905D02*
X132663866Y-110114286D01*
X132663866Y-110114286D02*
X132854342Y-110114286D01*
X132854342Y-110114286D02*
X132949580Y-110161905D01*
X132949580Y-110161905D02*
X132997200Y-110209524D01*
X132997200Y-110209524D02*
X133044819Y-110304762D01*
X133044819Y-110304762D02*
X133044819Y-110495238D01*
X133044819Y-110495238D02*
X132997200Y-110590476D01*
X132997200Y-110590476D02*
X132949580Y-110638095D01*
X132949580Y-110638095D02*
X132854342Y-110685714D01*
X132854342Y-110685714D02*
X132663866Y-110685714D01*
X132663866Y-110685714D02*
X132568628Y-110638095D01*
X132568628Y-110638095D02*
X132521009Y-110590476D01*
X132521009Y-110590476D02*
X132473390Y-110495238D01*
X140578094Y-105167319D02*
X140578094Y-104167319D01*
X140578094Y-104167319D02*
X140339999Y-104167319D01*
X140339999Y-104167319D02*
X140197142Y-104214938D01*
X140197142Y-104214938D02*
X140101904Y-104310176D01*
X140101904Y-104310176D02*
X140054285Y-104405414D01*
X140054285Y-104405414D02*
X140006666Y-104595890D01*
X140006666Y-104595890D02*
X140006666Y-104738747D01*
X140006666Y-104738747D02*
X140054285Y-104929223D01*
X140054285Y-104929223D02*
X140101904Y-105024461D01*
X140101904Y-105024461D02*
X140197142Y-105119700D01*
X140197142Y-105119700D02*
X140339999Y-105167319D01*
X140339999Y-105167319D02*
X140578094Y-105167319D01*
X139673332Y-104167319D02*
X139054285Y-104167319D01*
X139054285Y-104167319D02*
X139387618Y-104548271D01*
X139387618Y-104548271D02*
X139244761Y-104548271D01*
X139244761Y-104548271D02*
X139149523Y-104595890D01*
X139149523Y-104595890D02*
X139101904Y-104643509D01*
X139101904Y-104643509D02*
X139054285Y-104738747D01*
X139054285Y-104738747D02*
X139054285Y-104976842D01*
X139054285Y-104976842D02*
X139101904Y-105072080D01*
X139101904Y-105072080D02*
X139149523Y-105119700D01*
X139149523Y-105119700D02*
X139244761Y-105167319D01*
X139244761Y-105167319D02*
X139530475Y-105167319D01*
X139530475Y-105167319D02*
X139625713Y-105119700D01*
X139625713Y-105119700D02*
X139673332Y-105072080D01*
X128282857Y-96824819D02*
X128616190Y-96348628D01*
X128854285Y-96824819D02*
X128854285Y-95824819D01*
X128854285Y-95824819D02*
X128473333Y-95824819D01*
X128473333Y-95824819D02*
X128378095Y-95872438D01*
X128378095Y-95872438D02*
X128330476Y-95920057D01*
X128330476Y-95920057D02*
X128282857Y-96015295D01*
X128282857Y-96015295D02*
X128282857Y-96158152D01*
X128282857Y-96158152D02*
X128330476Y-96253390D01*
X128330476Y-96253390D02*
X128378095Y-96301009D01*
X128378095Y-96301009D02*
X128473333Y-96348628D01*
X128473333Y-96348628D02*
X128854285Y-96348628D01*
X127330476Y-96824819D02*
X127901904Y-96824819D01*
X127616190Y-96824819D02*
X127616190Y-95824819D01*
X127616190Y-95824819D02*
X127711428Y-95967676D01*
X127711428Y-95967676D02*
X127806666Y-96062914D01*
X127806666Y-96062914D02*
X127901904Y-96110533D01*
X126473333Y-96158152D02*
X126473333Y-96824819D01*
X126711428Y-95777200D02*
X126949523Y-96491485D01*
X126949523Y-96491485D02*
X126330476Y-96491485D01*
X117778094Y-116954819D02*
X117778094Y-115954819D01*
X117778094Y-115954819D02*
X117539999Y-115954819D01*
X117539999Y-115954819D02*
X117397142Y-116002438D01*
X117397142Y-116002438D02*
X117301904Y-116097676D01*
X117301904Y-116097676D02*
X117254285Y-116192914D01*
X117254285Y-116192914D02*
X117206666Y-116383390D01*
X117206666Y-116383390D02*
X117206666Y-116526247D01*
X117206666Y-116526247D02*
X117254285Y-116716723D01*
X117254285Y-116716723D02*
X117301904Y-116811961D01*
X117301904Y-116811961D02*
X117397142Y-116907200D01*
X117397142Y-116907200D02*
X117539999Y-116954819D01*
X117539999Y-116954819D02*
X117778094Y-116954819D01*
X116349523Y-115954819D02*
X116539999Y-115954819D01*
X116539999Y-115954819D02*
X116635237Y-116002438D01*
X116635237Y-116002438D02*
X116682856Y-116050057D01*
X116682856Y-116050057D02*
X116778094Y-116192914D01*
X116778094Y-116192914D02*
X116825713Y-116383390D01*
X116825713Y-116383390D02*
X116825713Y-116764342D01*
X116825713Y-116764342D02*
X116778094Y-116859580D01*
X116778094Y-116859580D02*
X116730475Y-116907200D01*
X116730475Y-116907200D02*
X116635237Y-116954819D01*
X116635237Y-116954819D02*
X116444761Y-116954819D01*
X116444761Y-116954819D02*
X116349523Y-116907200D01*
X116349523Y-116907200D02*
X116301904Y-116859580D01*
X116301904Y-116859580D02*
X116254285Y-116764342D01*
X116254285Y-116764342D02*
X116254285Y-116526247D01*
X116254285Y-116526247D02*
X116301904Y-116431009D01*
X116301904Y-116431009D02*
X116349523Y-116383390D01*
X116349523Y-116383390D02*
X116444761Y-116335771D01*
X116444761Y-116335771D02*
X116635237Y-116335771D01*
X116635237Y-116335771D02*
X116730475Y-116383390D01*
X116730475Y-116383390D02*
X116778094Y-116431009D01*
X116778094Y-116431009D02*
X116825713Y-116526247D01*
D11*
X145124405Y-74230080D02*
X145124405Y-75230080D01*
X145124405Y-75230080D02*
X145362500Y-75230080D01*
X145362500Y-75230080D02*
X145505357Y-75182461D01*
X145505357Y-75182461D02*
X145600595Y-75087223D01*
X145600595Y-75087223D02*
X145648214Y-74991985D01*
X145648214Y-74991985D02*
X145695833Y-74801509D01*
X145695833Y-74801509D02*
X145695833Y-74658652D01*
X145695833Y-74658652D02*
X145648214Y-74468176D01*
X145648214Y-74468176D02*
X145600595Y-74372938D01*
X145600595Y-74372938D02*
X145505357Y-74277700D01*
X145505357Y-74277700D02*
X145362500Y-74230080D01*
X145362500Y-74230080D02*
X145124405Y-74230080D01*
X146648214Y-74230080D02*
X146076786Y-74230080D01*
X146362500Y-74230080D02*
X146362500Y-75230080D01*
X146362500Y-75230080D02*
X146267262Y-75087223D01*
X146267262Y-75087223D02*
X146172024Y-74991985D01*
X146172024Y-74991985D02*
X146076786Y-74944366D01*
D10*
X120794819Y-109683333D02*
X120794819Y-109207143D01*
X120794819Y-109207143D02*
X119794819Y-109207143D01*
X119890057Y-109969048D02*
X119842438Y-110016667D01*
X119842438Y-110016667D02*
X119794819Y-110111905D01*
X119794819Y-110111905D02*
X119794819Y-110350000D01*
X119794819Y-110350000D02*
X119842438Y-110445238D01*
X119842438Y-110445238D02*
X119890057Y-110492857D01*
X119890057Y-110492857D02*
X119985295Y-110540476D01*
X119985295Y-110540476D02*
X120080533Y-110540476D01*
X120080533Y-110540476D02*
X120223390Y-110492857D01*
X120223390Y-110492857D02*
X120794819Y-109921429D01*
X120794819Y-109921429D02*
X120794819Y-110540476D01*
X155794819Y-120983333D02*
X155318628Y-120650000D01*
X155794819Y-120411905D02*
X154794819Y-120411905D01*
X154794819Y-120411905D02*
X154794819Y-120792857D01*
X154794819Y-120792857D02*
X154842438Y-120888095D01*
X154842438Y-120888095D02*
X154890057Y-120935714D01*
X154890057Y-120935714D02*
X154985295Y-120983333D01*
X154985295Y-120983333D02*
X155128152Y-120983333D01*
X155128152Y-120983333D02*
X155223390Y-120935714D01*
X155223390Y-120935714D02*
X155271009Y-120888095D01*
X155271009Y-120888095D02*
X155318628Y-120792857D01*
X155318628Y-120792857D02*
X155318628Y-120411905D01*
X154794819Y-121888095D02*
X154794819Y-121411905D01*
X154794819Y-121411905D02*
X155271009Y-121364286D01*
X155271009Y-121364286D02*
X155223390Y-121411905D01*
X155223390Y-121411905D02*
X155175771Y-121507143D01*
X155175771Y-121507143D02*
X155175771Y-121745238D01*
X155175771Y-121745238D02*
X155223390Y-121840476D01*
X155223390Y-121840476D02*
X155271009Y-121888095D01*
X155271009Y-121888095D02*
X155366247Y-121935714D01*
X155366247Y-121935714D02*
X155604342Y-121935714D01*
X155604342Y-121935714D02*
X155699580Y-121888095D01*
X155699580Y-121888095D02*
X155747200Y-121840476D01*
X155747200Y-121840476D02*
X155794819Y-121745238D01*
X155794819Y-121745238D02*
X155794819Y-121507143D01*
X155794819Y-121507143D02*
X155747200Y-121411905D01*
X155747200Y-121411905D02*
X155699580Y-121364286D01*
X122699580Y-98733333D02*
X122747200Y-98685714D01*
X122747200Y-98685714D02*
X122794819Y-98542857D01*
X122794819Y-98542857D02*
X122794819Y-98447619D01*
X122794819Y-98447619D02*
X122747200Y-98304762D01*
X122747200Y-98304762D02*
X122651961Y-98209524D01*
X122651961Y-98209524D02*
X122556723Y-98161905D01*
X122556723Y-98161905D02*
X122366247Y-98114286D01*
X122366247Y-98114286D02*
X122223390Y-98114286D01*
X122223390Y-98114286D02*
X122032914Y-98161905D01*
X122032914Y-98161905D02*
X121937676Y-98209524D01*
X121937676Y-98209524D02*
X121842438Y-98304762D01*
X121842438Y-98304762D02*
X121794819Y-98447619D01*
X121794819Y-98447619D02*
X121794819Y-98542857D01*
X121794819Y-98542857D02*
X121842438Y-98685714D01*
X121842438Y-98685714D02*
X121890057Y-98733333D01*
X121794819Y-99590476D02*
X121794819Y-99400000D01*
X121794819Y-99400000D02*
X121842438Y-99304762D01*
X121842438Y-99304762D02*
X121890057Y-99257143D01*
X121890057Y-99257143D02*
X122032914Y-99161905D01*
X122032914Y-99161905D02*
X122223390Y-99114286D01*
X122223390Y-99114286D02*
X122604342Y-99114286D01*
X122604342Y-99114286D02*
X122699580Y-99161905D01*
X122699580Y-99161905D02*
X122747200Y-99209524D01*
X122747200Y-99209524D02*
X122794819Y-99304762D01*
X122794819Y-99304762D02*
X122794819Y-99495238D01*
X122794819Y-99495238D02*
X122747200Y-99590476D01*
X122747200Y-99590476D02*
X122699580Y-99638095D01*
X122699580Y-99638095D02*
X122604342Y-99685714D01*
X122604342Y-99685714D02*
X122366247Y-99685714D01*
X122366247Y-99685714D02*
X122271009Y-99638095D01*
X122271009Y-99638095D02*
X122223390Y-99590476D01*
X122223390Y-99590476D02*
X122175771Y-99495238D01*
X122175771Y-99495238D02*
X122175771Y-99304762D01*
X122175771Y-99304762D02*
X122223390Y-99209524D01*
X122223390Y-99209524D02*
X122271009Y-99161905D01*
X122271009Y-99161905D02*
X122366247Y-99114286D01*
X155794819Y-118733333D02*
X155318628Y-118400000D01*
X155794819Y-118161905D02*
X154794819Y-118161905D01*
X154794819Y-118161905D02*
X154794819Y-118542857D01*
X154794819Y-118542857D02*
X154842438Y-118638095D01*
X154842438Y-118638095D02*
X154890057Y-118685714D01*
X154890057Y-118685714D02*
X154985295Y-118733333D01*
X154985295Y-118733333D02*
X155128152Y-118733333D01*
X155128152Y-118733333D02*
X155223390Y-118685714D01*
X155223390Y-118685714D02*
X155271009Y-118638095D01*
X155271009Y-118638095D02*
X155318628Y-118542857D01*
X155318628Y-118542857D02*
X155318628Y-118161905D01*
X154794819Y-119590476D02*
X154794819Y-119400000D01*
X154794819Y-119400000D02*
X154842438Y-119304762D01*
X154842438Y-119304762D02*
X154890057Y-119257143D01*
X154890057Y-119257143D02*
X155032914Y-119161905D01*
X155032914Y-119161905D02*
X155223390Y-119114286D01*
X155223390Y-119114286D02*
X155604342Y-119114286D01*
X155604342Y-119114286D02*
X155699580Y-119161905D01*
X155699580Y-119161905D02*
X155747200Y-119209524D01*
X155747200Y-119209524D02*
X155794819Y-119304762D01*
X155794819Y-119304762D02*
X155794819Y-119495238D01*
X155794819Y-119495238D02*
X155747200Y-119590476D01*
X155747200Y-119590476D02*
X155699580Y-119638095D01*
X155699580Y-119638095D02*
X155604342Y-119685714D01*
X155604342Y-119685714D02*
X155366247Y-119685714D01*
X155366247Y-119685714D02*
X155271009Y-119638095D01*
X155271009Y-119638095D02*
X155223390Y-119590476D01*
X155223390Y-119590476D02*
X155175771Y-119495238D01*
X155175771Y-119495238D02*
X155175771Y-119304762D01*
X155175771Y-119304762D02*
X155223390Y-119209524D01*
X155223390Y-119209524D02*
X155271009Y-119161905D01*
X155271009Y-119161905D02*
X155366247Y-119114286D01*
X153482857Y-108104819D02*
X153816190Y-107628628D01*
X154054285Y-108104819D02*
X154054285Y-107104819D01*
X154054285Y-107104819D02*
X153673333Y-107104819D01*
X153673333Y-107104819D02*
X153578095Y-107152438D01*
X153578095Y-107152438D02*
X153530476Y-107200057D01*
X153530476Y-107200057D02*
X153482857Y-107295295D01*
X153482857Y-107295295D02*
X153482857Y-107438152D01*
X153482857Y-107438152D02*
X153530476Y-107533390D01*
X153530476Y-107533390D02*
X153578095Y-107581009D01*
X153578095Y-107581009D02*
X153673333Y-107628628D01*
X153673333Y-107628628D02*
X154054285Y-107628628D01*
X152530476Y-108104819D02*
X153101904Y-108104819D01*
X152816190Y-108104819D02*
X152816190Y-107104819D01*
X152816190Y-107104819D02*
X152911428Y-107247676D01*
X152911428Y-107247676D02*
X153006666Y-107342914D01*
X153006666Y-107342914D02*
X153101904Y-107390533D01*
X152149523Y-107200057D02*
X152101904Y-107152438D01*
X152101904Y-107152438D02*
X152006666Y-107104819D01*
X152006666Y-107104819D02*
X151768571Y-107104819D01*
X151768571Y-107104819D02*
X151673333Y-107152438D01*
X151673333Y-107152438D02*
X151625714Y-107200057D01*
X151625714Y-107200057D02*
X151578095Y-107295295D01*
X151578095Y-107295295D02*
X151578095Y-107390533D01*
X151578095Y-107390533D02*
X151625714Y-107533390D01*
X151625714Y-107533390D02*
X152197142Y-108104819D01*
X152197142Y-108104819D02*
X151578095Y-108104819D01*
X116594819Y-101507142D02*
X116118628Y-101173809D01*
X116594819Y-100935714D02*
X115594819Y-100935714D01*
X115594819Y-100935714D02*
X115594819Y-101316666D01*
X115594819Y-101316666D02*
X115642438Y-101411904D01*
X115642438Y-101411904D02*
X115690057Y-101459523D01*
X115690057Y-101459523D02*
X115785295Y-101507142D01*
X115785295Y-101507142D02*
X115928152Y-101507142D01*
X115928152Y-101507142D02*
X116023390Y-101459523D01*
X116023390Y-101459523D02*
X116071009Y-101411904D01*
X116071009Y-101411904D02*
X116118628Y-101316666D01*
X116118628Y-101316666D02*
X116118628Y-100935714D01*
X116594819Y-102459523D02*
X116594819Y-101888095D01*
X116594819Y-102173809D02*
X115594819Y-102173809D01*
X115594819Y-102173809D02*
X115737676Y-102078571D01*
X115737676Y-102078571D02*
X115832914Y-101983333D01*
X115832914Y-101983333D02*
X115880533Y-101888095D01*
X115594819Y-103078571D02*
X115594819Y-103173809D01*
X115594819Y-103173809D02*
X115642438Y-103269047D01*
X115642438Y-103269047D02*
X115690057Y-103316666D01*
X115690057Y-103316666D02*
X115785295Y-103364285D01*
X115785295Y-103364285D02*
X115975771Y-103411904D01*
X115975771Y-103411904D02*
X116213866Y-103411904D01*
X116213866Y-103411904D02*
X116404342Y-103364285D01*
X116404342Y-103364285D02*
X116499580Y-103316666D01*
X116499580Y-103316666D02*
X116547200Y-103269047D01*
X116547200Y-103269047D02*
X116594819Y-103173809D01*
X116594819Y-103173809D02*
X116594819Y-103078571D01*
X116594819Y-103078571D02*
X116547200Y-102983333D01*
X116547200Y-102983333D02*
X116499580Y-102935714D01*
X116499580Y-102935714D02*
X116404342Y-102888095D01*
X116404342Y-102888095D02*
X116213866Y-102840476D01*
X116213866Y-102840476D02*
X115975771Y-102840476D01*
X115975771Y-102840476D02*
X115785295Y-102888095D01*
X115785295Y-102888095D02*
X115690057Y-102935714D01*
X115690057Y-102935714D02*
X115642438Y-102983333D01*
X115642438Y-102983333D02*
X115594819Y-103078571D01*
X155794819Y-125983333D02*
X155318628Y-125650000D01*
X155794819Y-125411905D02*
X154794819Y-125411905D01*
X154794819Y-125411905D02*
X154794819Y-125792857D01*
X154794819Y-125792857D02*
X154842438Y-125888095D01*
X154842438Y-125888095D02*
X154890057Y-125935714D01*
X154890057Y-125935714D02*
X154985295Y-125983333D01*
X154985295Y-125983333D02*
X155128152Y-125983333D01*
X155128152Y-125983333D02*
X155223390Y-125935714D01*
X155223390Y-125935714D02*
X155271009Y-125888095D01*
X155271009Y-125888095D02*
X155318628Y-125792857D01*
X155318628Y-125792857D02*
X155318628Y-125411905D01*
X154794819Y-126316667D02*
X154794819Y-126935714D01*
X154794819Y-126935714D02*
X155175771Y-126602381D01*
X155175771Y-126602381D02*
X155175771Y-126745238D01*
X155175771Y-126745238D02*
X155223390Y-126840476D01*
X155223390Y-126840476D02*
X155271009Y-126888095D01*
X155271009Y-126888095D02*
X155366247Y-126935714D01*
X155366247Y-126935714D02*
X155604342Y-126935714D01*
X155604342Y-126935714D02*
X155699580Y-126888095D01*
X155699580Y-126888095D02*
X155747200Y-126840476D01*
X155747200Y-126840476D02*
X155794819Y-126745238D01*
X155794819Y-126745238D02*
X155794819Y-126459524D01*
X155794819Y-126459524D02*
X155747200Y-126364286D01*
X155747200Y-126364286D02*
X155699580Y-126316667D01*
D12*
%TO.C,C7*%
X129938752Y-103535000D02*
X129416248Y-103535000D01*
X129938752Y-102065000D02*
X129416248Y-102065000D01*
%TO.C,C17*%
X146735000Y-111488748D02*
X146735000Y-112011252D01*
X145265000Y-111488748D02*
X145265000Y-112011252D01*
D11*
%TO.C,U2*%
X147040000Y-114850000D02*
X147040000Y-115350000D01*
X146640000Y-114850000D02*
X147040000Y-114850000D01*
X130640000Y-114850000D02*
X131040000Y-114850000D01*
X130640000Y-114850000D02*
X130640000Y-124850000D01*
X147040000Y-134450000D02*
X147040000Y-134950000D01*
X130640000Y-134450000D02*
X130640000Y-134950000D01*
X146640000Y-134950000D02*
X147040000Y-134950000D01*
X130640000Y-134950000D02*
X131040000Y-134950000D01*
D12*
%TO.C,R15*%
X123305000Y-97661252D02*
X123305000Y-97138748D01*
X124775000Y-97661252D02*
X124775000Y-97138748D01*
%TO.C,R4*%
X153101252Y-124435000D02*
X152578748Y-124435000D01*
X153101252Y-122965000D02*
X152578748Y-122965000D01*
%TO.C,C5*%
X119230000Y-101911252D02*
X119230000Y-100488748D01*
X121050000Y-101911252D02*
X121050000Y-100488748D01*
%TO.C,U4*%
X123980000Y-102312500D02*
X123980000Y-103112500D01*
X123980000Y-102312500D02*
X123980000Y-101512500D01*
X127100000Y-102312500D02*
X127100000Y-104112500D01*
X127100000Y-102312500D02*
X127100000Y-101512500D01*
%TO.C,C10*%
X127605000Y-108311252D02*
X127605000Y-107788748D01*
X129075000Y-108311252D02*
X129075000Y-107788748D01*
%TO.C,R13*%
X129378748Y-99815000D02*
X129901252Y-99815000D01*
X129378748Y-101285000D02*
X129901252Y-101285000D01*
%TO.C,C16*%
X156016248Y-114865000D02*
X156538752Y-114865000D01*
X156016248Y-116335000D02*
X156538752Y-116335000D01*
%TO.C,C8*%
X129905000Y-108311252D02*
X129905000Y-107788748D01*
X131375000Y-108311252D02*
X131375000Y-107788748D01*
%TO.C,D3*%
X143950000Y-108900000D02*
X136940000Y-108900000D01*
X143950000Y-105600000D02*
X143950000Y-108900000D01*
X143950000Y-105600000D02*
X136940000Y-105600000D01*
%TO.C,R14*%
X127901252Y-98785000D02*
X127378748Y-98785000D01*
X127901252Y-97315000D02*
X127378748Y-97315000D01*
%TO.C,D6*%
X112530000Y-112350000D02*
X119540000Y-112350000D01*
X112530000Y-115650000D02*
X112530000Y-112350000D01*
X112530000Y-115650000D02*
X119540000Y-115650000D01*
%TO.C,D1*%
D13*
X151887500Y-80937500D02*
G75*
G03*
X151887500Y-80937500I-275000J0D01*
G01*
D11*
%TO.C,L2*%
X127240000Y-104900000D02*
X127240000Y-111400000D01*
X125740000Y-104900000D02*
X127240000Y-104900000D01*
X121240000Y-104900000D02*
X122740000Y-104900000D01*
X127240000Y-111400000D02*
X126240000Y-111400000D01*
X126240000Y-111400000D02*
X125740000Y-111400000D01*
X122740000Y-111400000D02*
X121240000Y-111400000D01*
X121240000Y-111400000D02*
X121240000Y-104900000D01*
D12*
%TO.C,R5*%
X153101252Y-121935000D02*
X152578748Y-121935000D01*
X153101252Y-120465000D02*
X152578748Y-120465000D01*
%TO.C,C6*%
X121705000Y-102061252D02*
X121705000Y-101538748D01*
X123175000Y-102061252D02*
X123175000Y-101538748D01*
%TO.C,R6*%
X153101252Y-119435000D02*
X152578748Y-119435000D01*
X153101252Y-117965000D02*
X152578748Y-117965000D01*
%TO.C,R12*%
X155941248Y-107265000D02*
X156463752Y-107265000D01*
X155941248Y-108735000D02*
X156463752Y-108735000D01*
%TO.C,R10*%
X117105000Y-101761252D02*
X117105000Y-101238748D01*
X118575000Y-101761252D02*
X118575000Y-101238748D01*
%TO.C,R3*%
X153101252Y-126935000D02*
X152578748Y-126935000D01*
X153101252Y-125465000D02*
X152578748Y-125465000D01*
%TD*%
M02*
