M48
; DRILL file {KiCad 7.0.8} date Tue Jan 23 00:11:52 2024
; FORMAT={-:-/ absolute / inch / decimal}
; #@! TF.CreationDate,2024-01-23T00:11:52-05:00
; #@! TF.GenerationSoftware,Kicad,Pcbnew,7.0.8
; #@! TF.FileFunction,Plated,1,2,PTH
FMAT,2
INCH
; #@! TA.AperFunction,Plated,PTH,ViaDrill
T1C0.0118
; #@! TA.AperFunction,Plated,PTH,ViaDrill
T2C0.0197
; #@! TA.AperFunction,Plated,PTH,ComponentDrill
T3C0.0236
; #@! TA.AperFunction,Plated,PTH,ComponentDrill
T4C0.0276
; #@! TA.AperFunction,Plated,PTH,ViaDrill
T5C0.0295
; #@! TA.AperFunction,Plated,PTH,ComponentDrill
T6C0.0315
; #@! TA.AperFunction,Plated,PTH,ComponentDrill
T7C0.0354
; #@! TA.AperFunction,Plated,PTH,ComponentDrill
T8C0.0394
; #@! TA.AperFunction,Plated,PTH,ComponentDrill
T9C0.0433
; #@! TA.AperFunction,Plated,PTH,ComponentDrill
T10C0.0512
; #@! TA.AperFunction,Plated,PTH,ComponentDrill
T11C0.0669
%
G90
G05
T1
X2.8602Y-4.8858
X2.8602Y-5.1575
X2.8839Y-4.8366
X3.0039Y-5.0817
X3.0079Y-4.8583
X3.0413Y-5.0098
X3.0551Y-5.1339
X3.0591Y-4.9823
X3.0787Y-5.1831
X3.0866Y-4.8642
X3.1024Y-5.2146
X3.1201Y-4.8661
X3.1555Y-5.0374
X3.1663Y-4.9587
X3.1693Y-4.9016
X3.1988Y-4.7443
X3.2224Y-4.7677
X3.2854Y-5.0728
X3.3012Y-4.9685
X3.3031Y-4.8976
X3.3031Y-4.9331
X3.3228Y-5.0472
X3.3307Y-5.1339
X3.3858Y-4.8228
T2
X2.3543Y-4.2047
X2.378Y-4.248
X2.4016Y-4.2047
X2.4252Y-4.248
X2.4488Y-4.2047
X2.5472Y-3.7874
X2.5945Y-3.7402
X2.5945Y-3.7874
X2.6417Y-3.7402
X2.6417Y-3.7874
X2.6575Y-4.5817
X2.6732Y-4.2835
X2.6929Y-3.7402
X2.6929Y-3.7874
X2.7362Y-4.5197
X2.7402Y-3.7402
X2.75Y-4.2067
X2.8268Y-4.5197
X2.8346Y-3.748
X2.8661Y-3.811
X2.8976Y-4.2441
X2.8976Y-4.3622
X2.937Y-4.752
X2.9903Y-5.1554
X3.0118Y-4.5669
X3.1102Y-5.2677
X3.1102Y-5.2677
X3.3465Y-5.2756
X3.3484Y-4.5531
X3.3661Y-5.0197
X3.3969Y-4.2818
X3.4488Y-5.0157
X3.5827Y-4.4252
X3.6417Y-4.5531
X3.7402Y-4.4291
X3.7416Y-4.6949
X3.8819Y-4.7087
T3
X2.9173Y-2.9587
X3.1142Y-3.0098
T4
X3.811Y-4.4311
X3.811Y-4.4764
X3.811Y-4.5217
X3.811Y-4.5669
T5
X3.253Y-2.9281
X3.5591Y-3.0079
T6
X2.3228Y-3.1087
X2.3228Y-3.2087
X3.4804Y-3.563
X3.5433Y-5.378
X3.563Y-4.7717
X3.563Y-4.8717
X3.563Y-4.9717
X3.563Y-5.0717
X3.622Y-5.378
X3.6773Y-3.563
X3.863Y-4.7717
X3.863Y-4.8717
X3.863Y-4.9717
X3.863Y-5.0717
T7
X3.0093Y-4.4606
X3.1093Y-4.4606
T8
X2.2165Y-5.3937
X2.3165Y-5.3937
X2.4165Y-5.3937
X2.5165Y-5.3937
X2.6165Y-5.3937
X2.7165Y-5.3937
X3.8976Y-4.436
X3.8976Y-4.562
T9
X2.2224Y-4.3465
X2.2224Y-4.7992
X2.2224Y-5.0748
X2.4075Y-4.3465
T10
X2.3209Y-3.5906
X2.9882Y-4.1324
X3.185Y-4.1324
X3.2067Y-3.5906
T11
X2.6535Y-4.8756
X2.6535Y-5.0315
T0
M30
