%TF.GenerationSoftware,KiCad,Pcbnew,7.0.8*%
%TF.CreationDate,2024-01-23T00:11:49-05:00*%
%TF.ProjectId,RemoteOutlet,52656d6f-7465-44f7-9574-6c65742e6b69,rev?*%
%TF.SameCoordinates,Original*%
%TF.FileFunction,Copper,L1,Top*%
%TF.FilePolarity,Positive*%
%FSLAX46Y46*%
G04 Gerber Fmt 4.6, Leading zero omitted, Abs format (unit mm)*
G04 Created by KiCad (PCBNEW 7.0.8) date 2024-01-23 00:11:49*
%MOMM*%
%LPD*%
G01*
G04 APERTURE LIST*
G04 Aperture macros list*
%AMRoundRect*
0 Rectangle with rounded corners*
0 $1 Rounding radius*
0 $2 $3 $4 $5 $6 $7 $8 $9 X,Y pos of 4 corners*
0 Add a 4 corners polygon primitive as box body*
4,1,4,$2,$3,$4,$5,$6,$7,$8,$9,$2,$3,0*
0 Add four circle primitives for the rounded corners*
1,1,$1+$1,$2,$3*
1,1,$1+$1,$4,$5*
1,1,$1+$1,$6,$7*
1,1,$1+$1,$8,$9*
0 Add four rect primitives between the rounded corners*
20,1,$1+$1,$2,$3,$4,$5,0*
20,1,$1+$1,$4,$5,$6,$7,0*
20,1,$1+$1,$6,$7,$8,$9,0*
20,1,$1+$1,$8,$9,$2,$3,0*%
G04 Aperture macros list end*
%TA.AperFunction,ComponentPad*%
%ADD10C,1.200000*%
%TD*%
%TA.AperFunction,ComponentPad*%
%ADD11C,0.900000*%
%TD*%
%TA.AperFunction,ComponentPad*%
%ADD12RoundRect,0.250001X-1.099999X1.099999X-1.099999X-1.099999X1.099999X-1.099999X1.099999X1.099999X0*%
%TD*%
%TA.AperFunction,ComponentPad*%
%ADD13C,2.700000*%
%TD*%
%TA.AperFunction,ComponentPad*%
%ADD14C,1.800000*%
%TD*%
%TA.AperFunction,ComponentPad*%
%ADD15C,2.000000*%
%TD*%
%TA.AperFunction,SMDPad,CuDef*%
%ADD16R,4.600000X5.700000*%
%TD*%
%TA.AperFunction,ComponentPad*%
%ADD17C,2.600000*%
%TD*%
%TA.AperFunction,ComponentPad*%
%ADD18R,1.600000X1.600000*%
%TD*%
%TA.AperFunction,ComponentPad*%
%ADD19C,1.600000*%
%TD*%
%TA.AperFunction,SMDPad,CuDef*%
%ADD20R,0.650000X2.000000*%
%TD*%
%TA.AperFunction,SMDPad,CuDef*%
%ADD21R,1.170000X2.000000*%
%TD*%
%TA.AperFunction,SMDPad,CuDef*%
%ADD22R,1.520000X2.000000*%
%TD*%
%TA.AperFunction,SMDPad,CuDef*%
%ADD23RoundRect,0.125000X-0.825000X-0.125000X0.825000X-0.125000X0.825000X0.125000X-0.825000X0.125000X0*%
%TD*%
%TA.AperFunction,ComponentPad*%
%ADD24O,1.600000X1.600000*%
%TD*%
%TA.AperFunction,SMDPad,CuDef*%
%ADD25RoundRect,0.250000X-0.337500X-0.475000X0.337500X-0.475000X0.337500X0.475000X-0.337500X0.475000X0*%
%TD*%
%TA.AperFunction,SMDPad,CuDef*%
%ADD26RoundRect,0.250000X-0.475000X0.337500X-0.475000X-0.337500X0.475000X-0.337500X0.475000X0.337500X0*%
%TD*%
%TA.AperFunction,SMDPad,CuDef*%
%ADD27RoundRect,0.250000X0.475000X-0.337500X0.475000X0.337500X-0.475000X0.337500X-0.475000X-0.337500X0*%
%TD*%
%TA.AperFunction,SMDPad,CuDef*%
%ADD28RoundRect,0.250000X0.337500X0.475000X-0.337500X0.475000X-0.337500X-0.475000X0.337500X-0.475000X0*%
%TD*%
%TA.AperFunction,SMDPad,CuDef*%
%ADD29RoundRect,0.150000X0.150000X-0.587500X0.150000X0.587500X-0.150000X0.587500X-0.150000X-0.587500X0*%
%TD*%
%TA.AperFunction,ComponentPad*%
%ADD30R,1.350000X1.350000*%
%TD*%
%TA.AperFunction,ComponentPad*%
%ADD31O,1.350000X1.350000*%
%TD*%
%TA.AperFunction,ComponentPad*%
%ADD32R,1.700000X1.700000*%
%TD*%
%TA.AperFunction,ComponentPad*%
%ADD33O,1.700000X1.700000*%
%TD*%
%TA.AperFunction,SMDPad,CuDef*%
%ADD34RoundRect,0.250000X-0.250000X0.250000X-0.250000X-0.250000X0.250000X-0.250000X0.250000X0.250000X0*%
%TD*%
%TA.AperFunction,ComponentPad*%
%ADD35R,1.800000X1.800000*%
%TD*%
%TA.AperFunction,SMDPad,CuDef*%
%ADD36RoundRect,0.250000X1.500000X0.650000X-1.500000X0.650000X-1.500000X-0.650000X1.500000X-0.650000X0*%
%TD*%
%TA.AperFunction,SMDPad,CuDef*%
%ADD37RoundRect,0.250000X0.550000X-1.500000X0.550000X1.500000X-0.550000X1.500000X-0.550000X-1.500000X0*%
%TD*%
%TA.AperFunction,SMDPad,CuDef*%
%ADD38RoundRect,0.250000X0.650000X-0.412500X0.650000X0.412500X-0.650000X0.412500X-0.650000X-0.412500X0*%
%TD*%
%TA.AperFunction,ViaPad*%
%ADD39C,1.000000*%
%TD*%
%TA.AperFunction,ViaPad*%
%ADD40C,0.500000*%
%TD*%
%TA.AperFunction,ViaPad*%
%ADD41C,1.500000*%
%TD*%
%TA.AperFunction,Conductor*%
%ADD42C,0.500000*%
%TD*%
%TA.AperFunction,Conductor*%
%ADD43C,0.250000*%
%TD*%
%TA.AperFunction,Conductor*%
%ADD44C,1.500000*%
%TD*%
%TA.AperFunction,Conductor*%
%ADD45C,1.000000*%
%TD*%
%TA.AperFunction,Conductor*%
%ADD46C,2.000000*%
%TD*%
G04 APERTURE END LIST*
D10*
%TO.P,SW2,*%
%TO.N,*%
X99000000Y-112675000D03*
X99000000Y-115875000D03*
D11*
%TO.P,SW2,1,S1*%
%TO.N,/microcontroller_logic/BUTTON_IN*%
X96800000Y-113700000D03*
%TO.P,SW2,2,L1*%
%TO.N,unconnected-(SW2-L1-Pad2)*%
X96800000Y-112550000D03*
%TO.P,SW2,3,L2*%
%TO.N,unconnected-(SW2-L2-Pad3)*%
X96800000Y-116000000D03*
%TO.P,SW2,4,S2*%
%TO.N,GND*%
X96800000Y-114850000D03*
%TD*%
D12*
%TO.P,J3,1,AC_P*%
%TO.N,LIVE_OUT*%
X67400000Y-123840000D03*
D13*
%TO.P,J3,2,AC_N*%
%TO.N,NEUTRAL_IN*%
X67400000Y-127800000D03*
%TD*%
D14*
%TO.P,K1,13*%
%TO.N,LIVE_IN_FUSED*%
X56450000Y-121900000D03*
%TO.P,K1,14*%
%TO.N,LIVE_OUT*%
X56450000Y-128900000D03*
%TO.P,K1,A1*%
%TO.N,+12V*%
X56450000Y-110400000D03*
%TO.P,K1,A2*%
%TO.N,Net-(D6-A)*%
X61150000Y-110400000D03*
%TD*%
D15*
%TO.P,F1,1*%
%TO.N,LIVE_IN*%
X81450000Y-91200000D03*
%TO.P,F1,2*%
%TO.N,LIVE_IN_FUSED*%
X58950000Y-91200000D03*
%TD*%
D16*
%TO.P,J5,1,Pin_1*%
%TO.N,NEUTRAL_IN*%
X66400000Y-81700000D03*
%TD*%
%TO.P,J4,1,Pin_1*%
%TO.N,LIVE_IN*%
X86625000Y-81450000D03*
%TD*%
D17*
%TO.P,L1,1,1*%
%TO.N,/power/12V_SW*%
X80900000Y-104962500D03*
%TO.P,L1,2,2*%
%TO.N,+12V*%
X75900000Y-104962500D03*
%TD*%
D18*
%TO.P,C1,1*%
%TO.N,/power/LNK_IN*%
X93402651Y-90500000D03*
D19*
%TO.P,C1,2*%
%TO.N,GND*%
X88402651Y-90500000D03*
%TD*%
D20*
%TO.P,U5,5,V+*%
%TO.N,+3.3V*%
X85050000Y-117290000D03*
%TO.P,U5,4,-*%
%TO.N,/power/PLI_SENSE*%
X86950000Y-117290000D03*
%TO.P,U5,3,+*%
%TO.N,/power/PLI_VREF*%
X86950000Y-120710000D03*
%TO.P,U5,2,V-*%
%TO.N,GND*%
X86000000Y-120710000D03*
%TO.P,U5,1*%
%TO.N,POWER_LOSS_INT*%
X85050000Y-120710000D03*
%TD*%
D21*
%TO.P,U3,8,S*%
%TO.N,/power/12V_SW*%
X89790000Y-96900000D03*
D22*
%TO.P,U3,7,S*%
X92330000Y-96900000D03*
D21*
%TO.P,U3,5,D*%
%TO.N,/power/LNK_IN*%
X97410000Y-96900000D03*
%TO.P,U3,4,FB*%
%TO.N,/power/12V_FB*%
X97410000Y-105500000D03*
D22*
%TO.P,U3,3,BP*%
%TO.N,Net-(U3-BP)*%
X94870000Y-105500000D03*
%TO.P,U3,2,S*%
%TO.N,/power/12V_SW*%
X92330000Y-105500000D03*
D21*
%TO.P,U3,1,S*%
X89790000Y-105500000D03*
%TD*%
D23*
%TO.P,U1,1,VDD*%
%TO.N,+3.3V*%
X75000000Y-122075000D03*
%TO.P,U1,2,RA5*%
%TO.N,/microcontroller_logic/RF_INT*%
X75000000Y-122725000D03*
%TO.P,U1,3,RA4*%
%TO.N,POWER_LOSS_INT*%
X75000000Y-123375000D03*
%TO.P,U1,4,RA3/~{MCLR}/VPP*%
%TO.N,/microcontroller_logic/VPP*%
X75000000Y-124025000D03*
%TO.P,U1,5,RC5*%
%TO.N,/microcontroller_logic/RF_RESET*%
X75000000Y-124675000D03*
%TO.P,U1,6,RC4*%
%TO.N,/microcontroller_logic/LOAD_SW0*%
X75000000Y-125325000D03*
%TO.P,U1,7,RC3*%
%TO.N,/microcontroller_logic/CHAN_SEL3*%
X75000000Y-125975000D03*
%TO.P,U1,8,RC6*%
%TO.N,unconnected-(U1-RC6-Pad8)*%
X75000000Y-126625000D03*
%TO.P,U1,9,RC7*%
%TO.N,/microcontroller_logic/BUTTON_IN*%
X75000000Y-127275000D03*
%TO.P,U1,10,RB7*%
%TO.N,/microcontroller_logic/SPI_CS*%
X75000000Y-127925000D03*
%TO.P,U1,11,RB6*%
%TO.N,/microcontroller_logic/SPI_MISO*%
X82000000Y-127925000D03*
%TO.P,U1,12,RB5*%
%TO.N,/microcontroller_logic/SPI_MOSI*%
X82000000Y-127275000D03*
%TO.P,U1,13,RB4*%
%TO.N,/microcontroller_logic/SPI_CLK*%
X82000000Y-126625000D03*
%TO.P,U1,14,RC2*%
%TO.N,/microcontroller_logic/CHAN_SEL2*%
X82000000Y-125975000D03*
%TO.P,U1,15,RC1*%
%TO.N,/microcontroller_logic/CHAN_SEL1*%
X82000000Y-125325000D03*
%TO.P,U1,16,RC0*%
%TO.N,/microcontroller_logic/CHAN_SEL0*%
X82000000Y-124675000D03*
%TO.P,U1,17,RA2*%
%TO.N,/microcontroller_logic/DIAG_LED*%
X82000000Y-124025000D03*
%TO.P,U1,18,RA1/ICSPCLK*%
%TO.N,/microcontroller_logic/ICSPCLK*%
X82000000Y-123375000D03*
%TO.P,U1,19,RA0/ICSPDAT*%
%TO.N,/microcontroller_logic/ICSPDAT*%
X82000000Y-122725000D03*
%TO.P,U1,20,VSS*%
%TO.N,GND*%
X82000000Y-122075000D03*
%TD*%
D18*
%TO.P,SW1,1*%
%TO.N,/microcontroller_logic/CHAN_SEL0*%
X90500000Y-121200000D03*
D24*
%TO.P,SW1,2*%
%TO.N,/microcontroller_logic/CHAN_SEL1*%
X90500000Y-123740000D03*
%TO.P,SW1,3*%
%TO.N,/microcontroller_logic/CHAN_SEL2*%
X90500000Y-126280000D03*
%TO.P,SW1,4*%
%TO.N,/microcontroller_logic/CHAN_SEL3*%
X90500000Y-128820000D03*
%TO.P,SW1,5*%
%TO.N,GND*%
X98120000Y-128820000D03*
%TO.P,SW1,6*%
X98120000Y-126280000D03*
%TO.P,SW1,7*%
X98120000Y-123740000D03*
%TO.P,SW1,8*%
X98120000Y-121200000D03*
%TD*%
D19*
%TO.P,RV1,1*%
%TO.N,/power/live_fbr_in*%
X74100000Y-75150000D03*
%TO.P,RV1,2*%
%TO.N,NEUTRAL_IN*%
X79100000Y-76450000D03*
%TD*%
D25*
%TO.P,R19,2*%
%TO.N,GND*%
X91037500Y-114000000D03*
%TO.P,R19,1*%
%TO.N,/power/PLI_SENSE*%
X88962500Y-114000000D03*
%TD*%
%TO.P,R18,1*%
%TO.N,+12V*%
X84962500Y-114000000D03*
%TO.P,R18,2*%
%TO.N,/power/PLI_SENSE*%
X87037500Y-114000000D03*
%TD*%
%TO.P,R17,1*%
%TO.N,Net-(D6-A)*%
X63062500Y-110900000D03*
%TO.P,R17,2*%
%TO.N,Net-(Q1-D)*%
X65137500Y-110900000D03*
%TD*%
D26*
%TO.P,R16,2*%
%TO.N,/power/PLI_VREF*%
X83000000Y-117037500D03*
%TO.P,R16,1*%
%TO.N,+12V*%
X83000000Y-114962500D03*
%TD*%
D27*
%TO.P,R11,1*%
%TO.N,/microcontroller_logic/DIAG_LED*%
X74000000Y-115037500D03*
%TO.P,R11,2*%
%TO.N,Net-(D4-A)*%
X74000000Y-112962500D03*
%TD*%
D19*
%TO.P,R9,1*%
%TO.N,LIVE_IN_FUSED*%
X59000000Y-81500000D03*
D24*
%TO.P,R9,2*%
%TO.N,/power/live_fbr_in*%
X59000000Y-78960000D03*
%TD*%
D27*
%TO.P,R8,2*%
%TO.N,/power/12V_SW*%
X89600000Y-108325000D03*
%TO.P,R8,1*%
%TO.N,/power/12V_FB*%
X89600000Y-110400000D03*
%TD*%
D28*
%TO.P,R7,2*%
%TO.N,/power/12V_FB_DIODE*%
X84162500Y-110700000D03*
%TO.P,R7,1*%
%TO.N,/power/12V_FB*%
X86237500Y-110700000D03*
%TD*%
%TO.P,R1,1*%
%TO.N,+3.3V*%
X61237500Y-133900000D03*
%TO.P,R1,2*%
%TO.N,/microcontroller_logic/VPP*%
X59162500Y-133900000D03*
%TD*%
D29*
%TO.P,Q1,1,D*%
%TO.N,Net-(Q1-D)*%
X64100000Y-113862500D03*
%TO.P,Q1,2,G*%
%TO.N,/microcontroller_logic/LOAD_SW0*%
X63150000Y-115737500D03*
%TO.P,Q1,3,S*%
%TO.N,GND*%
X65050000Y-115737500D03*
%TD*%
D30*
%TO.P,J2,1,Pin_1*%
%TO.N,/microcontroller_logic/RF_ANT*%
X90000000Y-136600000D03*
D31*
%TO.P,J2,2,Pin_2*%
%TO.N,GND*%
X92000000Y-136600000D03*
%TD*%
D32*
%TO.P,J1,1,Pin_1*%
%TO.N,/microcontroller_logic/VPP*%
X56300000Y-137000000D03*
D33*
%TO.P,J1,2,Pin_2*%
%TO.N,+3.3V*%
X58840000Y-137000000D03*
%TO.P,J1,3,Pin_3*%
%TO.N,GND*%
X61380000Y-137000000D03*
%TO.P,J1,4,Pin_4*%
%TO.N,/microcontroller_logic/ICSPDAT*%
X63920000Y-137000000D03*
%TO.P,J1,5,Pin_5*%
%TO.N,/microcontroller_logic/ICSPCLK*%
X66460000Y-137000000D03*
%TO.P,J1,6,Pin_6*%
%TO.N,unconnected-(J1-Pin_6-Pad6)*%
X69000000Y-137000000D03*
%TD*%
D34*
%TO.P,D5,1,K*%
%TO.N,/power/PLI_VREF*%
X87600000Y-123750000D03*
%TO.P,D5,2,A*%
%TO.N,GND*%
X87600000Y-126250000D03*
%TD*%
D35*
%TO.P,D4,1,K*%
%TO.N,GND*%
X78975000Y-113300000D03*
D14*
%TO.P,D4,2,A*%
%TO.N,Net-(D4-A)*%
X76435000Y-113300000D03*
%TD*%
D36*
%TO.P,D2,2,A*%
%TO.N,GND*%
X78900000Y-98000000D03*
%TO.P,D2,1,K*%
%TO.N,/power/12V_SW*%
X83900000Y-98000000D03*
%TD*%
D28*
%TO.P,C15,1*%
%TO.N,GND*%
X82937500Y-133800000D03*
%TO.P,C15,2*%
%TO.N,+3.3V*%
X80862500Y-133800000D03*
%TD*%
%TO.P,C14,1*%
%TO.N,GND*%
X79537500Y-120000000D03*
%TO.P,C14,2*%
%TO.N,+3.3V*%
X77462500Y-120000000D03*
%TD*%
D27*
%TO.P,C13,1*%
%TO.N,GND*%
X85450000Y-125687500D03*
%TO.P,C13,2*%
%TO.N,POWER_LOSS_INT*%
X85450000Y-123612500D03*
%TD*%
D28*
%TO.P,C12,2*%
%TO.N,/power/PLI_SENSE*%
X88962500Y-116000000D03*
%TO.P,C12,1*%
%TO.N,GND*%
X91037500Y-116000000D03*
%TD*%
%TO.P,C11,1*%
%TO.N,GND*%
X91037500Y-118000000D03*
%TO.P,C11,2*%
%TO.N,/power/PLI_VREF*%
X88962500Y-118000000D03*
%TD*%
D37*
%TO.P,C9,2*%
%TO.N,GND*%
X70400000Y-97900000D03*
%TO.P,C9,1*%
%TO.N,+12V*%
X70400000Y-103300000D03*
%TD*%
%TO.P,C4,2*%
%TO.N,GND*%
X62800000Y-97800000D03*
%TO.P,C4,1*%
%TO.N,+12V*%
X62800000Y-103200000D03*
%TD*%
D38*
%TO.P,C3,1*%
%TO.N,/power/12V_FB_DIODE*%
X84400000Y-108725000D03*
%TO.P,C3,2*%
%TO.N,/power/12V_SW*%
X84400000Y-105600000D03*
%TD*%
D28*
%TO.P,C2,2*%
%TO.N,/power/12V_SW*%
X92562500Y-108400000D03*
%TO.P,C2,1*%
%TO.N,Net-(U3-BP)*%
X94637500Y-108400000D03*
%TD*%
D39*
%TO.N,+12V*%
X60400000Y-107900000D03*
X61600000Y-107900000D03*
D40*
%TO.N,/microcontroller_logic/RF_RESET*%
X80500000Y-124500000D03*
%TO.N,POWER_LOSS_INT*%
X84400000Y-128200000D03*
X84600000Y-130400000D03*
X77600000Y-130400000D03*
X76400000Y-123400000D03*
D39*
%TO.N,GND*%
X91000000Y-112400000D03*
%TO.N,+3.3V*%
X71800000Y-114800000D03*
%TO.N,/microcontroller_logic/BUTTON_IN*%
X98600000Y-119600000D03*
%TO.N,GND*%
X67500000Y-116375500D03*
X87600000Y-127400000D03*
X85500000Y-127500000D03*
%TO.N,+3.3V*%
X95037500Y-119250000D03*
X95000000Y-112500000D03*
X92500000Y-115650000D03*
X76500000Y-116000000D03*
X85050000Y-115650000D03*
D40*
%TO.N,/microcontroller_logic/SPI_MISO*%
X76300000Y-129075500D03*
%TO.N,/microcontroller_logic/SPI_CLK*%
X77700000Y-126550000D03*
%TO.N,/microcontroller_logic/SPI_MOSI*%
X77250000Y-127250000D03*
%TO.N,/microcontroller_logic/CHAN_SEL3*%
X83450000Y-128850000D03*
X80424500Y-125950000D03*
%TO.N,/microcontroller_logic/CHAN_SEL2*%
X83850000Y-126200000D03*
%TO.N,/microcontroller_logic/CHAN_SEL1*%
X83900000Y-125300000D03*
%TO.N,/microcontroller_logic/CHAN_SEL0*%
X83900000Y-124400000D03*
%TO.N,GND*%
X81250000Y-120506233D03*
X81850000Y-121100000D03*
%TO.N,/microcontroller_logic/SPI_CS*%
X80150000Y-127950000D03*
D39*
%TO.N,+3.3V*%
X75953249Y-130946751D03*
D40*
%TO.N,/microcontroller_logic/VPP*%
X72650000Y-131000000D03*
X72650000Y-124100000D03*
%TO.N,/microcontroller_logic/ICSPDAT*%
X78400000Y-123550000D03*
X78200000Y-131650000D03*
%TO.N,/microcontroller_logic/ICSPCLK*%
X78800000Y-132450000D03*
X79250000Y-123600000D03*
%TO.N,/microcontroller_logic/RF_INT*%
X73250000Y-122850000D03*
%TO.N,GND*%
X86000000Y-122500000D03*
D39*
%TO.N,+12V*%
X61000000Y-106800000D03*
X62200000Y-106800000D03*
X59800000Y-106800000D03*
%TO.N,GND*%
X85000000Y-134000000D03*
%TO.N,+3.3V*%
X79000000Y-133800000D03*
X74600000Y-120700000D03*
X79000000Y-133800000D03*
X69500000Y-114800000D03*
%TO.N,GND*%
X72000000Y-95200000D03*
X72800000Y-96800000D03*
X69600000Y-95000000D03*
X65900000Y-95000000D03*
X67100000Y-95000000D03*
X68400000Y-95000000D03*
X68400000Y-96200000D03*
X67100000Y-96200000D03*
X65900000Y-96200000D03*
X64700000Y-96200000D03*
%TO.N,+3.3V*%
X73600000Y-107800000D03*
X73600000Y-110800000D03*
%TO.N,/power/3v3_SW*%
X67900000Y-108800000D03*
X69850000Y-106850000D03*
%TO.N,/power/12V_FB_DIODE*%
X86282134Y-108758614D03*
D41*
%TO.N,NEUTRAL_IN*%
X90400000Y-76400000D03*
%TO.N,/power/live_fbr_in*%
X82625000Y-74375000D03*
%TD*%
D42*
%TO.N,/power/PLI_SENSE*%
X87700000Y-116000000D02*
X88962500Y-116000000D01*
%TO.N,+3.3V*%
X95037500Y-119250000D02*
X95037500Y-118037500D01*
X92650000Y-115650000D02*
X92500000Y-115650000D01*
X95037500Y-118037500D02*
X92650000Y-115650000D01*
X95000000Y-113150000D02*
X95000000Y-112500000D01*
X92500000Y-115650000D02*
X95000000Y-113150000D01*
%TO.N,GND*%
X91037500Y-112437500D02*
X91000000Y-112400000D01*
X91037500Y-118000000D02*
X91037500Y-112437500D01*
%TO.N,+3.3V*%
X85100000Y-115600000D02*
X85050000Y-115650000D01*
X85050000Y-117290000D02*
X85050000Y-115650000D01*
D43*
%TO.N,/power/3v3_SW*%
X69850000Y-106850000D02*
X67900000Y-108800000D01*
D42*
%TO.N,/power/PLI_SENSE*%
X88962500Y-116000000D02*
X88962500Y-114000000D01*
D43*
%TO.N,/microcontroller_logic/RF_RESET*%
X77800000Y-124500000D02*
X80500000Y-124500000D01*
X77625000Y-124675000D02*
X77800000Y-124500000D01*
X75000000Y-124675000D02*
X77625000Y-124675000D01*
%TO.N,POWER_LOSS_INT*%
X86600000Y-124762500D02*
X85450000Y-123612500D01*
X86600000Y-127700000D02*
X86600000Y-124762500D01*
X86000000Y-128300000D02*
X86600000Y-127700000D01*
X84400000Y-128200000D02*
X84500000Y-128300000D01*
X84500000Y-128300000D02*
X86000000Y-128300000D01*
X77600000Y-130400000D02*
X84600000Y-130400000D01*
X76375000Y-123375000D02*
X76400000Y-123400000D01*
X75000000Y-123375000D02*
X76375000Y-123375000D01*
%TO.N,/microcontroller_logic/DIAG_LED*%
X83600000Y-120350000D02*
X78287500Y-115037500D01*
X83600000Y-123375000D02*
X83600000Y-120350000D01*
X78287500Y-115037500D02*
X74000000Y-115037500D01*
X82950000Y-124025000D02*
X83600000Y-123375000D01*
X82000000Y-124025000D02*
X82950000Y-124025000D01*
%TO.N,/microcontroller_logic/BUTTON_IN*%
X97400000Y-119600000D02*
X98600000Y-119600000D01*
X96650000Y-120350000D02*
X97400000Y-119600000D01*
X96650000Y-130050000D02*
X96650000Y-120350000D01*
D44*
%TO.N,NEUTRAL_IN*%
X61600000Y-127800000D02*
X67400000Y-127800000D01*
X58800000Y-125000000D02*
X61600000Y-127800000D01*
X58800000Y-109400000D02*
X58800000Y-125000000D01*
X56800000Y-107400000D02*
X58800000Y-109400000D01*
X66500000Y-87300000D02*
X56800000Y-97000000D01*
X56800000Y-97000000D02*
X56800000Y-107400000D01*
X67700000Y-87300000D02*
X66500000Y-87300000D01*
%TO.N,LIVE_IN_FUSED*%
X54250000Y-119700000D02*
X56450000Y-121900000D01*
X55800000Y-91200000D02*
X54250000Y-92750000D01*
X54250000Y-92750000D02*
X54250000Y-119700000D01*
X58950000Y-91200000D02*
X55800000Y-91200000D01*
D42*
%TO.N,Net-(D6-A)*%
X63062500Y-110900000D02*
X61650000Y-110900000D01*
X61650000Y-110900000D02*
X61150000Y-110400000D01*
%TO.N,Net-(D4-A)*%
X76097500Y-112962500D02*
X76435000Y-113300000D01*
X74000000Y-112962500D02*
X76097500Y-112962500D01*
D45*
%TO.N,GND*%
X87600000Y-127400000D02*
X87600000Y-126250000D01*
D43*
X80500000Y-120000000D02*
X79537500Y-120000000D01*
X82000000Y-121500000D02*
X80500000Y-120000000D01*
X82000000Y-122075000D02*
X82000000Y-121500000D01*
D44*
%TO.N,/power/live_fbr_in*%
X82500000Y-74250000D02*
X75000000Y-74250000D01*
X75000000Y-74250000D02*
X74100000Y-75150000D01*
X82625000Y-74375000D02*
X82500000Y-74250000D01*
D42*
%TO.N,+12V*%
X75000000Y-107000000D02*
X71300000Y-103300000D01*
X75000000Y-110000000D02*
X75000000Y-107000000D01*
X71300000Y-103300000D02*
X70400000Y-103300000D01*
X80136396Y-111500000D02*
X76500000Y-111500000D01*
X76500000Y-111500000D02*
X75000000Y-110000000D01*
X82100000Y-114062500D02*
X82100000Y-113463604D01*
X82100000Y-113463604D02*
X80136396Y-111500000D01*
X83000000Y-114962500D02*
X82100000Y-114062500D01*
%TO.N,GND*%
X66862000Y-115737500D02*
X67500000Y-116375500D01*
X65050000Y-115737500D02*
X66862000Y-115737500D01*
D45*
%TO.N,+3.3V*%
X76981250Y-119518750D02*
X76981250Y-120481250D01*
X75231250Y-117768750D02*
X76981250Y-119518750D01*
%TO.N,GND*%
X85450000Y-127450000D02*
X85500000Y-127500000D01*
X85450000Y-125687500D02*
X85450000Y-127450000D01*
D42*
%TO.N,+3.3V*%
X75231250Y-117268750D02*
X75231250Y-117768750D01*
X76500000Y-116000000D02*
X75231250Y-117268750D01*
D45*
X74562500Y-117100000D02*
X75231250Y-117768750D01*
X61237500Y-134602500D02*
X61237500Y-133900000D01*
X58840000Y-137000000D02*
X61237500Y-134602500D01*
X75953249Y-130946751D02*
X73850000Y-133050000D01*
X73850000Y-133050000D02*
X62087500Y-133050000D01*
X62087500Y-133050000D02*
X61237500Y-133900000D01*
D43*
%TO.N,/microcontroller_logic/SPI_MISO*%
X80849500Y-129075500D02*
X76300000Y-129075500D01*
X82000000Y-127925000D02*
X80849500Y-129075500D01*
%TO.N,/microcontroller_logic/SPI_CLK*%
X77775000Y-126625000D02*
X77700000Y-126550000D01*
X82000000Y-126625000D02*
X77775000Y-126625000D01*
%TO.N,/microcontroller_logic/BUTTON_IN*%
X96150000Y-130550000D02*
X96650000Y-130050000D01*
X89600000Y-130550000D02*
X96150000Y-130550000D01*
X88700000Y-129650000D02*
X89600000Y-130550000D01*
X73450000Y-129650000D02*
X88700000Y-129650000D01*
X72950000Y-129150000D02*
X73450000Y-129650000D01*
X73475000Y-127275000D02*
X72950000Y-127800000D01*
X72950000Y-127800000D02*
X72950000Y-129150000D01*
X75000000Y-127275000D02*
X73475000Y-127275000D01*
%TO.N,/microcontroller_logic/SPI_MOSI*%
X77275000Y-127275000D02*
X77250000Y-127250000D01*
X82000000Y-127275000D02*
X77275000Y-127275000D01*
%TO.N,/microcontroller_logic/CHAN_SEL3*%
X83480000Y-128820000D02*
X90500000Y-128820000D01*
X83450000Y-128850000D02*
X83480000Y-128820000D01*
X80399500Y-125975000D02*
X80424500Y-125950000D01*
X75000000Y-125975000D02*
X80399500Y-125975000D01*
%TO.N,/microcontroller_logic/CHAN_SEL2*%
X83625000Y-125975000D02*
X83850000Y-126200000D01*
X82000000Y-125975000D02*
X83625000Y-125975000D01*
%TO.N,/microcontroller_logic/CHAN_SEL1*%
X83875000Y-125325000D02*
X83900000Y-125300000D01*
X82000000Y-125325000D02*
X83875000Y-125325000D01*
%TO.N,/microcontroller_logic/CHAN_SEL0*%
X83625000Y-124675000D02*
X83900000Y-124400000D01*
X82000000Y-124675000D02*
X83625000Y-124675000D01*
%TO.N,/microcontroller_logic/SPI_CS*%
X80125000Y-127925000D02*
X80150000Y-127950000D01*
X75000000Y-127925000D02*
X80125000Y-127925000D01*
D42*
%TO.N,Net-(D6-A)*%
X61450000Y-110900000D02*
X60800000Y-110250000D01*
%TO.N,Net-(Q1-D)*%
X65137500Y-111912500D02*
X65137500Y-110900000D01*
X64100000Y-112950000D02*
X65137500Y-111912500D01*
X64100000Y-113862500D02*
X64100000Y-112950000D01*
D43*
X64100000Y-113862500D02*
X64100000Y-113200000D01*
%TO.N,/microcontroller_logic/LOAD_SW0*%
X64350000Y-117200000D02*
X63150000Y-116000000D01*
X71750000Y-119100000D02*
X69850000Y-117200000D01*
X71750000Y-124900000D02*
X71750000Y-119100000D01*
X69850000Y-117200000D02*
X64350000Y-117200000D01*
X72175000Y-125325000D02*
X71750000Y-124900000D01*
X63150000Y-116000000D02*
X63150000Y-115737500D01*
X75000000Y-125325000D02*
X72175000Y-125325000D01*
%TO.N,/microcontroller_logic/VPP*%
X61112500Y-131950000D02*
X59162500Y-133900000D01*
X72650000Y-131150000D02*
X71850000Y-131950000D01*
X71850000Y-131950000D02*
X61112500Y-131950000D01*
X72650000Y-131000000D02*
X72650000Y-131150000D01*
X59162500Y-134137500D02*
X56300000Y-137000000D01*
X59162500Y-133900000D02*
X59162500Y-134137500D01*
X72725000Y-124025000D02*
X72650000Y-124100000D01*
X75000000Y-124025000D02*
X72725000Y-124025000D01*
%TO.N,/microcontroller_logic/ICSPDAT*%
X66870000Y-134050000D02*
X63920000Y-137000000D01*
X78200000Y-131750000D02*
X75900000Y-134050000D01*
X78200000Y-131650000D02*
X78200000Y-131750000D01*
X75900000Y-134050000D02*
X66870000Y-134050000D01*
X79225000Y-122725000D02*
X78400000Y-123550000D01*
X82000000Y-122725000D02*
X79225000Y-122725000D01*
%TO.N,/microcontroller_logic/ICSPCLK*%
X68839946Y-135500000D02*
X66950000Y-135500000D01*
X69639946Y-134700000D02*
X68839946Y-135500000D01*
X66460000Y-135990000D02*
X66460000Y-137000000D01*
X76400000Y-134700000D02*
X69639946Y-134700000D01*
X78650000Y-132450000D02*
X76400000Y-134700000D01*
X66950000Y-135500000D02*
X66460000Y-135990000D01*
X78800000Y-132450000D02*
X78650000Y-132450000D01*
X79475000Y-123375000D02*
X79250000Y-123600000D01*
X82000000Y-123375000D02*
X79475000Y-123375000D01*
%TO.N,/microcontroller_logic/RF_INT*%
X73375000Y-122725000D02*
X73250000Y-122850000D01*
X75000000Y-122725000D02*
X73375000Y-122725000D01*
D45*
%TO.N,/power/12V_FB*%
X89300000Y-110700000D02*
X89600000Y-110400000D01*
X86237500Y-110700000D02*
X89300000Y-110700000D01*
%TO.N,/power/12V_FB_DIODE*%
X84162500Y-108962500D02*
X84400000Y-108725000D01*
X84162500Y-110700000D02*
X84162500Y-108962500D01*
D42*
%TO.N,+12V*%
X84962500Y-114000000D02*
X83962500Y-114000000D01*
X83962500Y-114000000D02*
X83000000Y-114962500D01*
%TO.N,GND*%
X86000000Y-120710000D02*
X86000000Y-122500000D01*
%TO.N,/power/PLI_VREF*%
X86251396Y-119000000D02*
X86950000Y-119698604D01*
X83000000Y-118100000D02*
X83900000Y-119000000D01*
X83900000Y-119000000D02*
X86251396Y-119000000D01*
X86950000Y-119698604D02*
X86950000Y-120710000D01*
X83000000Y-117037500D02*
X83000000Y-118100000D01*
%TO.N,/power/PLI_SENSE*%
X87037500Y-114000000D02*
X88962500Y-114000000D01*
X86950000Y-116750000D02*
X86950000Y-117290000D01*
X87700000Y-116000000D02*
X86950000Y-116750000D01*
%TO.N,/power/PLI_VREF*%
X88962500Y-119537500D02*
X87790000Y-120710000D01*
X87790000Y-120710000D02*
X86950000Y-120710000D01*
X88962500Y-118000000D02*
X88962500Y-119537500D01*
X86950000Y-122250000D02*
X86950000Y-120710000D01*
X87600000Y-123750000D02*
X87600000Y-122900000D01*
X87600000Y-122900000D02*
X86950000Y-122250000D01*
%TO.N,POWER_LOSS_INT*%
X85000000Y-120760000D02*
X85050000Y-120710000D01*
X85000000Y-123962500D02*
X85000000Y-120760000D01*
D45*
%TO.N,GND*%
X85000000Y-134000000D02*
X83137500Y-134000000D01*
X83137500Y-134000000D02*
X82937500Y-133800000D01*
%TO.N,+3.3V*%
X80862500Y-133800000D02*
X79000000Y-133800000D01*
X74600000Y-120700000D02*
X76762500Y-120700000D01*
X76762500Y-120700000D02*
X77462500Y-120000000D01*
X71800000Y-115000000D02*
X70750000Y-116050000D01*
X70750000Y-116050000D02*
X71800000Y-117100000D01*
X69500000Y-114800000D02*
X70750000Y-116050000D01*
X71800000Y-114800000D02*
X71800000Y-115000000D01*
X71800000Y-117100000D02*
X74562500Y-117100000D01*
%TO.N,Net-(U3-BP)*%
X94637500Y-105732500D02*
X94870000Y-105500000D01*
X94637500Y-108400000D02*
X94637500Y-105732500D01*
D44*
%TO.N,GND*%
X69600000Y-95000000D02*
X70400000Y-95600000D01*
D43*
%TO.N,+3.3V*%
X73600000Y-110800000D02*
X73600000Y-107800000D01*
D44*
%TO.N,GND*%
X70400000Y-95600000D02*
X70400000Y-97900000D01*
X70800000Y-95200000D02*
X69600000Y-95000000D01*
X83702651Y-95200000D02*
X70800000Y-95200000D01*
X88402651Y-90500000D02*
X83702651Y-95200000D01*
D42*
%TO.N,/power/12V_SW*%
X88565000Y-98000000D02*
X83900000Y-98000000D01*
X88627500Y-98062500D02*
X88565000Y-98000000D01*
D46*
%TO.N,/power/LNK_IN*%
X97410000Y-94410000D02*
X97410000Y-96900000D01*
X93500000Y-90500000D02*
X97410000Y-94410000D01*
X93402651Y-90500000D02*
X93500000Y-90500000D01*
D45*
%TO.N,/power/12V_FB*%
X97410000Y-108390000D02*
X97410000Y-105500000D01*
X95400000Y-110400000D02*
X97410000Y-108390000D01*
X89600000Y-110400000D02*
X95400000Y-110400000D01*
D42*
%TO.N,/power/12V_SW*%
X88627500Y-98062500D02*
X89790000Y-96900000D01*
D45*
%TO.N,/power/12V_FB_DIODE*%
X84033614Y-108758614D02*
X84000000Y-108725000D01*
X86282134Y-108758614D02*
X84033614Y-108758614D01*
D44*
%TO.N,NEUTRAL_IN*%
X67700000Y-87300000D02*
X69000000Y-88600000D01*
X66400000Y-86000000D02*
X67700000Y-87300000D01*
D42*
%TO.N,/power/12V_SW*%
X81037500Y-105600000D02*
X80400000Y-104962500D01*
X84000000Y-105600000D02*
X81037500Y-105600000D01*
X84137500Y-105462500D02*
X84000000Y-105600000D01*
X89962500Y-105902500D02*
X89560000Y-105500000D01*
X89962500Y-108400000D02*
X89962500Y-105902500D01*
X89560000Y-96900000D02*
X89560000Y-105500000D01*
D45*
X92037500Y-105562500D02*
X92100000Y-105500000D01*
D44*
%TO.N,NEUTRAL_IN*%
X82600000Y-76400000D02*
X90400000Y-76400000D01*
X82500000Y-76500000D02*
X82600000Y-76400000D01*
X75800000Y-88600000D02*
X79100000Y-85300000D01*
X79100000Y-85300000D02*
X79100000Y-76450000D01*
X69000000Y-88600000D02*
X75800000Y-88600000D01*
X66400000Y-81700000D02*
X66400000Y-86000000D01*
%TO.N,LIVE_IN*%
X86625000Y-86025000D02*
X81450000Y-91200000D01*
X86625000Y-81450000D02*
X86625000Y-86025000D01*
%TO.N,NEUTRAL_IN*%
X79100000Y-76450000D02*
X82450000Y-76450000D01*
X82450000Y-76450000D02*
X82500000Y-76500000D01*
D46*
%TO.N,/power/live_fbr_in*%
X62810000Y-75150000D02*
X74100000Y-75150000D01*
X59000000Y-78960000D02*
X62810000Y-75150000D01*
%TO.N,LIVE_IN_FUSED*%
X60000000Y-83500000D02*
X59000000Y-82500000D01*
X60000000Y-90150000D02*
X60000000Y-83500000D01*
X58950000Y-91200000D02*
X60000000Y-90150000D01*
X59000000Y-82500000D02*
X59000000Y-81500000D01*
%TD*%
%TA.AperFunction,Conductor*%
%TO.N,NEUTRAL_IN*%
G36*
X79315677Y-76519685D02*
G01*
X79336319Y-76536319D01*
X79763681Y-76963681D01*
X79797166Y-77025004D01*
X79800000Y-77051362D01*
X79800000Y-84974905D01*
X79790242Y-85023120D01*
X79451521Y-85825688D01*
X79423783Y-85866315D01*
X76375210Y-88834663D01*
X76336366Y-88860296D01*
X75521942Y-89199367D01*
X75476383Y-89208874D01*
X68665888Y-89324306D01*
X64751896Y-89390645D01*
X64684536Y-89372101D01*
X64662863Y-89355085D01*
X64237065Y-88936442D01*
X64203061Y-88875405D01*
X64200000Y-88848021D01*
X64200000Y-84551362D01*
X64219685Y-84484323D01*
X64236319Y-84463681D01*
X64663681Y-84036319D01*
X64725004Y-84002834D01*
X64751362Y-84000000D01*
X66698638Y-84000000D01*
X66765677Y-84019685D01*
X66786319Y-84036319D01*
X67213681Y-84463681D01*
X67247166Y-84525004D01*
X67250000Y-84551362D01*
X67250000Y-86000000D01*
X68250000Y-87000000D01*
X73750000Y-87000000D01*
X74250000Y-87000000D01*
X76000000Y-85000000D01*
X76000000Y-78274665D01*
X76009439Y-78227212D01*
X76344115Y-77419230D01*
X76370991Y-77379008D01*
X76879008Y-76870991D01*
X76919230Y-76844115D01*
X77727212Y-76509438D01*
X77774665Y-76500000D01*
X79248638Y-76500000D01*
X79315677Y-76519685D01*
G37*
%TD.AperFunction*%
%TD*%
%TA.AperFunction,Conductor*%
%TO.N,LIVE_IN*%
G36*
X85125000Y-82875000D02*
G01*
X85459211Y-82922744D01*
X85522791Y-82951711D01*
X85535343Y-82964246D01*
X85832260Y-83306594D01*
X85969676Y-83465036D01*
X85998730Y-83528579D01*
X86000000Y-83546281D01*
X86000000Y-87274412D01*
X85989871Y-87323496D01*
X85646619Y-88119817D01*
X85617890Y-88160881D01*
X82763507Y-90856687D01*
X82763506Y-90856688D01*
X82400000Y-91200000D01*
X82400000Y-91699999D01*
X82400000Y-91848638D01*
X82380315Y-91915677D01*
X82363681Y-91936319D01*
X81936319Y-92363681D01*
X81874996Y-92397166D01*
X81848638Y-92400000D01*
X80350520Y-92400000D01*
X80283481Y-92380315D01*
X80263864Y-92364695D01*
X80262826Y-92363681D01*
X80050430Y-92156166D01*
X79824510Y-91935439D01*
X79790314Y-91874509D01*
X79787200Y-91849627D01*
X79787177Y-91848638D01*
X79762215Y-90775269D01*
X79771074Y-90726278D01*
X80094102Y-89920035D01*
X80121523Y-89878476D01*
X83896447Y-86103553D01*
X84250000Y-85750000D01*
X84250000Y-83306594D01*
X84269685Y-83239555D01*
X84292752Y-83212921D01*
X84702221Y-82857790D01*
X84765762Y-82828738D01*
X84800996Y-82828714D01*
X85125000Y-82875000D01*
G37*
%TD.AperFunction*%
%TD*%
%TA.AperFunction,Conductor*%
%TO.N,/power/12V_SW*%
G36*
X91304833Y-95619685D02*
G01*
X91350588Y-95672489D01*
X91360532Y-95741647D01*
X91340896Y-95792891D01*
X91334504Y-95802455D01*
X91334503Y-95802459D01*
X91320000Y-95875371D01*
X91320000Y-96650000D01*
X92456000Y-96650000D01*
X92523039Y-96669685D01*
X92568794Y-96722489D01*
X92580000Y-96774000D01*
X92580000Y-98150000D01*
X93114626Y-98150000D01*
X93114628Y-98149999D01*
X93187540Y-98135496D01*
X93187541Y-98135496D01*
X93207108Y-98122422D01*
X93273786Y-98101544D01*
X93341166Y-98120028D01*
X93387856Y-98172006D01*
X93400000Y-98225524D01*
X93400000Y-104174475D01*
X93380315Y-104241514D01*
X93327511Y-104287269D01*
X93258353Y-104297213D01*
X93207111Y-104277578D01*
X93187546Y-104264505D01*
X93187540Y-104264503D01*
X93114627Y-104250000D01*
X92580000Y-104250000D01*
X92580000Y-106750000D01*
X93114626Y-106750000D01*
X93114628Y-106749999D01*
X93187540Y-106735496D01*
X93187541Y-106735496D01*
X93207108Y-106722422D01*
X93273786Y-106701544D01*
X93341166Y-106720028D01*
X93387856Y-106772006D01*
X93400000Y-106825524D01*
X93400000Y-107426997D01*
X93380315Y-107494036D01*
X93327511Y-107539791D01*
X93258353Y-107549735D01*
X93201689Y-107526263D01*
X93142093Y-107481649D01*
X93142086Y-107481645D01*
X93007379Y-107431403D01*
X93007372Y-107431401D01*
X92947844Y-107425000D01*
X92812500Y-107425000D01*
X92812500Y-108526000D01*
X92792815Y-108593039D01*
X92740011Y-108638794D01*
X92688500Y-108650000D01*
X91725000Y-108650000D01*
X91725000Y-108876000D01*
X91705315Y-108943039D01*
X91652511Y-108988794D01*
X91601000Y-109000000D01*
X90661360Y-109000000D01*
X90594321Y-108980315D01*
X90548566Y-108927511D01*
X90538622Y-108858353D01*
X90545178Y-108832666D01*
X90568597Y-108769876D01*
X90568598Y-108769872D01*
X90574999Y-108710344D01*
X90575000Y-108710327D01*
X90575000Y-108575000D01*
X88625000Y-108575000D01*
X88625000Y-108710344D01*
X88631401Y-108769872D01*
X88631402Y-108769876D01*
X88654822Y-108832666D01*
X88659806Y-108902358D01*
X88626322Y-108963681D01*
X88564999Y-108997166D01*
X88538640Y-109000000D01*
X87951362Y-109000000D01*
X87884323Y-108980315D01*
X87863681Y-108963681D01*
X87436319Y-108536319D01*
X87402834Y-108474996D01*
X87400000Y-108448638D01*
X87400000Y-108150000D01*
X91725000Y-108150000D01*
X92312500Y-108150000D01*
X92312500Y-107425000D01*
X92177155Y-107425000D01*
X92117627Y-107431401D01*
X92117620Y-107431403D01*
X91982913Y-107481645D01*
X91982906Y-107481649D01*
X91867812Y-107567809D01*
X91867809Y-107567812D01*
X91781649Y-107682906D01*
X91781645Y-107682913D01*
X91731403Y-107817620D01*
X91731401Y-107817627D01*
X91725000Y-107877155D01*
X91725000Y-108150000D01*
X87400000Y-108150000D01*
X87400000Y-108075000D01*
X88625000Y-108075000D01*
X89350000Y-108075000D01*
X89350000Y-107487500D01*
X89850000Y-107487500D01*
X89850000Y-108075000D01*
X90575000Y-108075000D01*
X90575000Y-107939672D01*
X90574999Y-107939655D01*
X90568598Y-107880127D01*
X90568596Y-107880120D01*
X90518354Y-107745413D01*
X90518350Y-107745406D01*
X90432190Y-107630312D01*
X90432187Y-107630309D01*
X90317093Y-107544149D01*
X90317086Y-107544145D01*
X90182379Y-107493903D01*
X90182372Y-107493901D01*
X90122844Y-107487500D01*
X89850000Y-107487500D01*
X89350000Y-107487500D01*
X89077155Y-107487500D01*
X89017627Y-107493901D01*
X89017620Y-107493903D01*
X88882913Y-107544145D01*
X88882906Y-107544149D01*
X88767812Y-107630309D01*
X88767809Y-107630312D01*
X88681649Y-107745406D01*
X88681645Y-107745413D01*
X88631403Y-107880120D01*
X88631401Y-107880127D01*
X88625000Y-107939655D01*
X88625000Y-108075000D01*
X87400000Y-108075000D01*
X87400000Y-106900000D01*
X87400000Y-106400000D01*
X86900000Y-106400000D01*
X85617712Y-106400000D01*
X85550673Y-106380315D01*
X85504918Y-106327511D01*
X85494974Y-106258353D01*
X85501530Y-106232667D01*
X85543596Y-106119879D01*
X85543598Y-106119872D01*
X85549999Y-106060344D01*
X85550000Y-106060327D01*
X85550000Y-105850000D01*
X83250000Y-105850000D01*
X83250000Y-106060344D01*
X83256401Y-106119872D01*
X83256403Y-106119879D01*
X83298470Y-106232667D01*
X83303454Y-106302359D01*
X83269969Y-106363682D01*
X83208645Y-106397166D01*
X83182288Y-106400000D01*
X81926652Y-106400000D01*
X81859613Y-106380315D01*
X81813858Y-106327511D01*
X81803512Y-106261425D01*
X81807942Y-106223994D01*
X81147534Y-105563586D01*
X81215629Y-105536626D01*
X81348492Y-105440095D01*
X81453175Y-105313555D01*
X81501631Y-105210579D01*
X82161494Y-105870442D01*
X82235302Y-105750000D01*
X88955000Y-105750000D01*
X88955000Y-106524628D01*
X88969503Y-106597540D01*
X88969505Y-106597544D01*
X89024760Y-106680239D01*
X89107455Y-106735494D01*
X89107459Y-106735496D01*
X89180371Y-106749999D01*
X89180374Y-106750000D01*
X89540000Y-106750000D01*
X89540000Y-105750000D01*
X90040000Y-105750000D01*
X90040000Y-106750000D01*
X90399626Y-106750000D01*
X90399628Y-106749999D01*
X90472540Y-106735496D01*
X90472544Y-106735494D01*
X90555239Y-106680239D01*
X90610494Y-106597544D01*
X90610496Y-106597540D01*
X90624999Y-106524628D01*
X90625000Y-106524626D01*
X90625000Y-105750000D01*
X91320000Y-105750000D01*
X91320000Y-106524628D01*
X91334503Y-106597540D01*
X91334505Y-106597544D01*
X91389760Y-106680239D01*
X91472455Y-106735494D01*
X91472459Y-106735496D01*
X91545371Y-106749999D01*
X91545374Y-106750000D01*
X92080000Y-106750000D01*
X92080000Y-105750000D01*
X91320000Y-105750000D01*
X90625000Y-105750000D01*
X90040000Y-105750000D01*
X89540000Y-105750000D01*
X88955000Y-105750000D01*
X82235302Y-105750000D01*
X82285331Y-105668361D01*
X82378696Y-105442957D01*
X82401013Y-105350000D01*
X83250000Y-105350000D01*
X84150000Y-105350000D01*
X84150000Y-104687500D01*
X84650000Y-104687500D01*
X84650000Y-105350000D01*
X85550000Y-105350000D01*
X85550000Y-105250000D01*
X88955000Y-105250000D01*
X89540000Y-105250000D01*
X89540000Y-104250000D01*
X90040000Y-104250000D01*
X90040000Y-105250000D01*
X90625000Y-105250000D01*
X91320000Y-105250000D01*
X92080000Y-105250000D01*
X92080000Y-104250000D01*
X91545373Y-104250000D01*
X91472459Y-104264503D01*
X91472455Y-104264505D01*
X91389760Y-104319760D01*
X91334505Y-104402455D01*
X91334503Y-104402459D01*
X91320000Y-104475371D01*
X91320000Y-105250000D01*
X90625000Y-105250000D01*
X90625000Y-104475373D01*
X90624999Y-104475371D01*
X90610496Y-104402459D01*
X90610494Y-104402455D01*
X90555239Y-104319760D01*
X90472544Y-104264505D01*
X90472540Y-104264503D01*
X90399627Y-104250000D01*
X90040000Y-104250000D01*
X89540000Y-104250000D01*
X89180373Y-104250000D01*
X89107459Y-104264503D01*
X89107455Y-104264505D01*
X89024760Y-104319760D01*
X88969505Y-104402455D01*
X88969503Y-104402459D01*
X88955000Y-104475371D01*
X88955000Y-105250000D01*
X85550000Y-105250000D01*
X85550000Y-105139672D01*
X85549999Y-105139655D01*
X85543598Y-105080127D01*
X85543596Y-105080120D01*
X85493354Y-104945413D01*
X85493350Y-104945406D01*
X85407190Y-104830312D01*
X85407187Y-104830309D01*
X85292093Y-104744149D01*
X85292086Y-104744145D01*
X85157379Y-104693903D01*
X85157372Y-104693901D01*
X85097844Y-104687500D01*
X84650000Y-104687500D01*
X84150000Y-104687500D01*
X83702155Y-104687500D01*
X83642627Y-104693901D01*
X83642620Y-104693903D01*
X83507913Y-104744145D01*
X83507906Y-104744149D01*
X83392812Y-104830309D01*
X83392809Y-104830312D01*
X83306649Y-104945406D01*
X83306645Y-104945413D01*
X83256403Y-105080120D01*
X83256401Y-105080127D01*
X83250000Y-105139655D01*
X83250000Y-105350000D01*
X82401013Y-105350000D01*
X82435651Y-105205719D01*
X82454792Y-104962500D01*
X82435651Y-104719280D01*
X82378696Y-104482042D01*
X82285331Y-104256638D01*
X82161494Y-104054556D01*
X81502546Y-104713504D01*
X81492812Y-104683544D01*
X81404814Y-104544881D01*
X81285097Y-104432460D01*
X81150488Y-104358457D01*
X81807942Y-103701004D01*
X81605861Y-103577168D01*
X81380457Y-103483803D01*
X81143219Y-103426848D01*
X81143220Y-103426848D01*
X80900000Y-103407707D01*
X80656779Y-103426848D01*
X80552947Y-103451776D01*
X80483164Y-103448285D01*
X80426347Y-103407621D01*
X80400534Y-103342694D01*
X80400000Y-103331202D01*
X80400000Y-102529272D01*
X80413091Y-102473818D01*
X80786910Y-101726179D01*
X80823414Y-101682439D01*
X81600000Y-101100000D01*
X82000000Y-100800000D01*
X82000000Y-99213049D01*
X82019685Y-99146010D01*
X82072489Y-99100255D01*
X82141647Y-99090311D01*
X82167334Y-99096867D01*
X82292623Y-99143597D01*
X82292627Y-99143598D01*
X82352155Y-99149999D01*
X82352172Y-99150000D01*
X83650000Y-99150000D01*
X83650000Y-98250000D01*
X84150000Y-98250000D01*
X84150000Y-99150000D01*
X85447828Y-99150000D01*
X85447844Y-99149999D01*
X85507372Y-99143598D01*
X85507379Y-99143596D01*
X85642086Y-99093354D01*
X85642093Y-99093350D01*
X85757187Y-99007190D01*
X85757190Y-99007187D01*
X85843350Y-98892093D01*
X85843354Y-98892086D01*
X85893596Y-98757379D01*
X85893598Y-98757372D01*
X85899999Y-98697844D01*
X85900000Y-98697827D01*
X85900000Y-98250000D01*
X84150000Y-98250000D01*
X83650000Y-98250000D01*
X83650000Y-97874000D01*
X83669685Y-97806961D01*
X83722489Y-97761206D01*
X83774000Y-97750000D01*
X85900000Y-97750000D01*
X85900000Y-97302172D01*
X85899999Y-97302155D01*
X85893598Y-97242627D01*
X85893597Y-97242623D01*
X85865516Y-97167334D01*
X85864276Y-97150000D01*
X88955000Y-97150000D01*
X88955000Y-97924628D01*
X88969503Y-97997540D01*
X88969505Y-97997544D01*
X89024760Y-98080239D01*
X89107455Y-98135494D01*
X89107459Y-98135496D01*
X89180371Y-98149999D01*
X89180374Y-98150000D01*
X89540000Y-98150000D01*
X89540000Y-97150000D01*
X90040000Y-97150000D01*
X90040000Y-98150000D01*
X90399626Y-98150000D01*
X90399628Y-98149999D01*
X90472540Y-98135496D01*
X90472544Y-98135494D01*
X90555239Y-98080239D01*
X90610494Y-97997544D01*
X90610496Y-97997540D01*
X90624999Y-97924628D01*
X90625000Y-97924626D01*
X90625000Y-97150000D01*
X91320000Y-97150000D01*
X91320000Y-97924628D01*
X91334503Y-97997540D01*
X91334505Y-97997544D01*
X91389760Y-98080239D01*
X91472455Y-98135494D01*
X91472459Y-98135496D01*
X91545371Y-98149999D01*
X91545374Y-98150000D01*
X92080000Y-98150000D01*
X92080000Y-97150000D01*
X91320000Y-97150000D01*
X90625000Y-97150000D01*
X90040000Y-97150000D01*
X89540000Y-97150000D01*
X88955000Y-97150000D01*
X85864276Y-97150000D01*
X85860532Y-97097642D01*
X85894017Y-97036319D01*
X85955340Y-97002834D01*
X85981698Y-97000000D01*
X87299998Y-97000000D01*
X87300000Y-97000000D01*
X87800000Y-97000000D01*
X88749347Y-96169320D01*
X88812760Y-96139991D01*
X88881966Y-96149600D01*
X88934990Y-96195099D01*
X88954999Y-96262043D01*
X88955000Y-96262642D01*
X88955000Y-96650000D01*
X90625000Y-96650000D01*
X90625000Y-95875373D01*
X90624999Y-95875371D01*
X90610496Y-95802459D01*
X90610495Y-95802455D01*
X90604104Y-95792891D01*
X90583226Y-95726214D01*
X90601710Y-95658834D01*
X90653689Y-95612143D01*
X90707206Y-95600000D01*
X91237794Y-95600000D01*
X91304833Y-95619685D01*
G37*
%TD.AperFunction*%
%TD*%
%TA.AperFunction,Conductor*%
%TO.N,GND*%
G36*
X89715677Y-88819685D02*
G01*
X89736319Y-88836319D01*
X90163681Y-89263681D01*
X90197166Y-89325004D01*
X90200000Y-89351362D01*
X90200000Y-91674548D01*
X90189974Y-91723394D01*
X89847956Y-92521434D01*
X89819499Y-92562381D01*
X86377817Y-95840173D01*
X86342158Y-95863915D01*
X85521016Y-96224516D01*
X85479407Y-96234705D01*
X85091375Y-96260574D01*
X81248893Y-96516739D01*
X81248892Y-96516740D01*
X80750000Y-96550000D01*
X80757349Y-96968893D01*
X80735386Y-96968249D01*
X80699485Y-96949614D01*
X80642089Y-96906647D01*
X80642086Y-96906645D01*
X80507379Y-96856403D01*
X80507372Y-96856401D01*
X80447844Y-96850000D01*
X79275000Y-96850000D01*
X79275000Y-99150000D01*
X80249964Y-99150000D01*
X80317003Y-99169685D01*
X80362758Y-99222489D01*
X80372702Y-99291647D01*
X80343677Y-99355203D01*
X80338416Y-99360904D01*
X80336451Y-99362904D01*
X80275426Y-99396929D01*
X80247999Y-99400000D01*
X71574000Y-99400000D01*
X71506961Y-99380315D01*
X71461206Y-99327511D01*
X71450000Y-99276000D01*
X71450000Y-98375000D01*
X76900000Y-98375000D01*
X76900000Y-98697844D01*
X76906401Y-98757372D01*
X76906403Y-98757379D01*
X76956645Y-98892086D01*
X76956649Y-98892093D01*
X77042809Y-99007187D01*
X77042812Y-99007190D01*
X77157906Y-99093350D01*
X77157913Y-99093354D01*
X77292620Y-99143596D01*
X77292627Y-99143598D01*
X77352155Y-99149999D01*
X77352172Y-99150000D01*
X78525000Y-99150000D01*
X78525000Y-98375000D01*
X76900000Y-98375000D01*
X71450000Y-98375000D01*
X71450000Y-98275000D01*
X69350000Y-98275000D01*
X69350000Y-99276000D01*
X69330315Y-99343039D01*
X69277511Y-99388794D01*
X69226000Y-99400000D01*
X63974000Y-99400000D01*
X63906961Y-99380315D01*
X63861206Y-99327511D01*
X63850000Y-99276000D01*
X63850000Y-98175000D01*
X62549000Y-98175000D01*
X62481961Y-98155315D01*
X62436206Y-98102511D01*
X62425000Y-98051000D01*
X62425000Y-97625000D01*
X76900000Y-97625000D01*
X78525000Y-97625000D01*
X78525000Y-96850000D01*
X77352155Y-96850000D01*
X77292627Y-96856401D01*
X77292620Y-96856403D01*
X77157913Y-96906645D01*
X77157906Y-96906649D01*
X77042812Y-96992809D01*
X77042809Y-96992812D01*
X76956649Y-97107906D01*
X76956645Y-97107913D01*
X76906403Y-97242620D01*
X76906401Y-97242627D01*
X76900000Y-97302155D01*
X76900000Y-97625000D01*
X62425000Y-97625000D01*
X62425000Y-97525000D01*
X69350000Y-97525000D01*
X70025000Y-97525000D01*
X70025000Y-95900000D01*
X70775000Y-95900000D01*
X70775000Y-97525000D01*
X71450000Y-97525000D01*
X71450000Y-96352172D01*
X71449999Y-96352155D01*
X71443598Y-96292627D01*
X71443596Y-96292620D01*
X71393354Y-96157913D01*
X71393350Y-96157906D01*
X71307190Y-96042812D01*
X71307187Y-96042809D01*
X71192093Y-95956649D01*
X71192086Y-95956645D01*
X71057379Y-95906403D01*
X71057372Y-95906401D01*
X70997844Y-95900000D01*
X70775000Y-95900000D01*
X70025000Y-95900000D01*
X69802155Y-95900000D01*
X69742627Y-95906401D01*
X69742620Y-95906403D01*
X69607913Y-95956645D01*
X69607906Y-95956649D01*
X69492812Y-96042809D01*
X69492809Y-96042812D01*
X69406649Y-96157906D01*
X69406645Y-96157913D01*
X69356403Y-96292620D01*
X69356401Y-96292627D01*
X69350000Y-96352155D01*
X69350000Y-97525000D01*
X62425000Y-97525000D01*
X62425000Y-95800000D01*
X63175000Y-95800000D01*
X63175000Y-97425000D01*
X63850000Y-97425000D01*
X63850000Y-96252172D01*
X63849999Y-96252155D01*
X63843598Y-96192627D01*
X63843596Y-96192620D01*
X63793354Y-96057913D01*
X63793350Y-96057906D01*
X63707190Y-95942812D01*
X63707187Y-95942809D01*
X63592093Y-95856649D01*
X63592086Y-95856645D01*
X63457379Y-95806403D01*
X63457372Y-95806401D01*
X63397844Y-95800000D01*
X63175000Y-95800000D01*
X62425000Y-95800000D01*
X62202155Y-95800000D01*
X62142627Y-95806401D01*
X62142620Y-95806403D01*
X62007913Y-95856645D01*
X62007906Y-95856649D01*
X61892812Y-95942809D01*
X61823266Y-96035710D01*
X61767332Y-96077580D01*
X61697640Y-96082564D01*
X61636318Y-96049078D01*
X61602833Y-95987754D01*
X61600000Y-95961398D01*
X61600000Y-95751362D01*
X61619685Y-95684323D01*
X61636319Y-95663681D01*
X62063681Y-95236319D01*
X62125004Y-95202834D01*
X62151362Y-95200000D01*
X63299996Y-95200000D01*
X63300000Y-95200000D01*
X63800000Y-95200000D01*
X65168701Y-94287532D01*
X65201546Y-94272029D01*
X66082426Y-94005321D01*
X66118359Y-94000000D01*
X82299998Y-94000000D01*
X82300000Y-94000000D01*
X82800000Y-94000000D01*
X85437070Y-91460599D01*
X87972380Y-91460599D01*
X87998886Y-91474766D01*
X88196816Y-91534808D01*
X88402651Y-91555080D01*
X88608485Y-91534808D01*
X88806414Y-91474767D01*
X88832919Y-91460598D01*
X88832920Y-91460598D01*
X88402652Y-91030330D01*
X88402651Y-91030330D01*
X87972380Y-91460599D01*
X85437070Y-91460599D01*
X86434615Y-90500000D01*
X87347570Y-90500000D01*
X87367842Y-90705833D01*
X87427885Y-90903765D01*
X87442051Y-90930268D01*
X87442052Y-90930269D01*
X87872321Y-90500000D01*
X87997665Y-90500000D01*
X88017486Y-90625148D01*
X88075010Y-90738045D01*
X88164606Y-90827641D01*
X88277503Y-90885165D01*
X88371170Y-90900000D01*
X88434132Y-90900000D01*
X88527799Y-90885165D01*
X88640696Y-90827641D01*
X88730292Y-90738045D01*
X88787816Y-90625148D01*
X88807637Y-90500001D01*
X88932981Y-90500001D01*
X89363249Y-90930269D01*
X89363249Y-90930268D01*
X89377418Y-90903763D01*
X89437459Y-90705834D01*
X89457731Y-90500000D01*
X89437459Y-90294165D01*
X89377417Y-90096235D01*
X89363250Y-90069730D01*
X88932981Y-90499999D01*
X88932981Y-90500001D01*
X88807637Y-90500001D01*
X88807637Y-90500000D01*
X88787816Y-90374852D01*
X88730292Y-90261955D01*
X88640696Y-90172359D01*
X88527799Y-90114835D01*
X88434132Y-90100000D01*
X88371170Y-90100000D01*
X88277503Y-90114835D01*
X88164606Y-90172359D01*
X88075010Y-90261955D01*
X88017486Y-90374852D01*
X87997665Y-90500000D01*
X87872321Y-90500000D01*
X87872321Y-90499999D01*
X87442052Y-90069730D01*
X87442051Y-90069730D01*
X87427882Y-90096239D01*
X87367842Y-90294165D01*
X87347570Y-90500000D01*
X86434615Y-90500000D01*
X87432160Y-89539401D01*
X87972381Y-89539401D01*
X88402651Y-89969670D01*
X88402652Y-89969670D01*
X88832920Y-89539401D01*
X88832919Y-89539400D01*
X88806416Y-89525234D01*
X88608484Y-89465191D01*
X88402651Y-89444919D01*
X88196816Y-89465191D01*
X87998890Y-89525231D01*
X87972381Y-89539400D01*
X87972381Y-89539401D01*
X87432160Y-89539401D01*
X87822513Y-89163505D01*
X87862149Y-89137825D01*
X88677689Y-88808996D01*
X88724059Y-88800000D01*
X89648638Y-88800000D01*
X89715677Y-88819685D01*
G37*
%TD.AperFunction*%
%TD*%
%TA.AperFunction,Conductor*%
%TO.N,+12V*%
G36*
X62075761Y-101019685D02*
G01*
X62121516Y-101072489D01*
X62131460Y-101141647D01*
X62102435Y-101205203D01*
X62052055Y-101240182D01*
X62007913Y-101256645D01*
X62007906Y-101256649D01*
X61892812Y-101342809D01*
X61892809Y-101342812D01*
X61806649Y-101457906D01*
X61806645Y-101457913D01*
X61756403Y-101592620D01*
X61756401Y-101592627D01*
X61750000Y-101652155D01*
X61750000Y-102825000D01*
X63850000Y-102825000D01*
X63850000Y-101652172D01*
X63849999Y-101652155D01*
X63843598Y-101592627D01*
X63843596Y-101592620D01*
X63793354Y-101457913D01*
X63793350Y-101457906D01*
X63707190Y-101342812D01*
X63707187Y-101342809D01*
X63592093Y-101256649D01*
X63592086Y-101256645D01*
X63547945Y-101240182D01*
X63492011Y-101198311D01*
X63467594Y-101132847D01*
X63482445Y-101064574D01*
X63531851Y-101015168D01*
X63591278Y-101000000D01*
X76648638Y-101000000D01*
X76715677Y-101019685D01*
X76736319Y-101036319D01*
X77163681Y-101463681D01*
X77197166Y-101525004D01*
X77200000Y-101551362D01*
X77200000Y-104192830D01*
X76544125Y-104848704D01*
X76543561Y-104839734D01*
X76492812Y-104683544D01*
X76404814Y-104544881D01*
X76285097Y-104432460D01*
X76141183Y-104353342D01*
X76011997Y-104320172D01*
X76698333Y-103633836D01*
X76605861Y-103577168D01*
X76380457Y-103483803D01*
X76143219Y-103426848D01*
X76143220Y-103426848D01*
X75900000Y-103407707D01*
X75656780Y-103426848D01*
X75419542Y-103483803D01*
X75194146Y-103577165D01*
X75194141Y-103577168D01*
X75101665Y-103633836D01*
X75789165Y-104321335D01*
X75737067Y-104327917D01*
X75584371Y-104388374D01*
X75451508Y-104484905D01*
X75346825Y-104611445D01*
X75276900Y-104760043D01*
X75259328Y-104852157D01*
X74571336Y-104164165D01*
X74514668Y-104256641D01*
X74514665Y-104256646D01*
X74421303Y-104482042D01*
X74364348Y-104719280D01*
X74345207Y-104962500D01*
X74364348Y-105205719D01*
X74421303Y-105442957D01*
X74514668Y-105668361D01*
X74571336Y-105760833D01*
X75255874Y-105076295D01*
X75256439Y-105085266D01*
X75307188Y-105241456D01*
X75395186Y-105380119D01*
X75514903Y-105492540D01*
X75658817Y-105571658D01*
X75788002Y-105604827D01*
X75101665Y-106291162D01*
X75101665Y-106291163D01*
X75194138Y-106347831D01*
X75419542Y-106441196D01*
X75656780Y-106498151D01*
X75656779Y-106498151D01*
X75900000Y-106517292D01*
X76143219Y-106498151D01*
X76380457Y-106441196D01*
X76605857Y-106347832D01*
X76698332Y-106291162D01*
X76010834Y-105603664D01*
X76062933Y-105597083D01*
X76215629Y-105536626D01*
X76348492Y-105440095D01*
X76453175Y-105313555D01*
X76523100Y-105164957D01*
X76540671Y-105072841D01*
X77200000Y-105732170D01*
X77200000Y-105911099D01*
X77200000Y-106448638D01*
X77180315Y-106515677D01*
X77163681Y-106536319D01*
X76736319Y-106963681D01*
X76674996Y-106997166D01*
X76648638Y-107000000D01*
X74246662Y-107000000D01*
X74179623Y-106980315D01*
X74167995Y-106971851D01*
X74158540Y-106964091D01*
X74158532Y-106964086D01*
X73984733Y-106871188D01*
X73984727Y-106871186D01*
X73796132Y-106813976D01*
X73796129Y-106813975D01*
X73600000Y-106794659D01*
X73403870Y-106813975D01*
X73215266Y-106871188D01*
X73041467Y-106964086D01*
X73041459Y-106964091D01*
X73032005Y-106971851D01*
X72967696Y-106999166D01*
X72953338Y-107000000D01*
X70977380Y-107000000D01*
X70910341Y-106980315D01*
X70864586Y-106927511D01*
X70853977Y-106863845D01*
X70855341Y-106850000D01*
X70836024Y-106653868D01*
X70778814Y-106465273D01*
X70778811Y-106465269D01*
X70778811Y-106465266D01*
X70685913Y-106291467D01*
X70685909Y-106291460D01*
X70560883Y-106139116D01*
X70408539Y-106014090D01*
X70408532Y-106014086D01*
X70234733Y-105921188D01*
X70234727Y-105921186D01*
X70046132Y-105863976D01*
X70046129Y-105863975D01*
X69850000Y-105844659D01*
X69653870Y-105863975D01*
X69465266Y-105921188D01*
X69291467Y-106014086D01*
X69291460Y-106014090D01*
X69139116Y-106139116D01*
X69014090Y-106291460D01*
X69014086Y-106291467D01*
X68921188Y-106465266D01*
X68863975Y-106653870D01*
X68844659Y-106849998D01*
X68846023Y-106863845D01*
X68833005Y-106932491D01*
X68784940Y-106983202D01*
X68722620Y-107000000D01*
X63600000Y-107000000D01*
X61000000Y-105000000D01*
X61000000Y-103575000D01*
X61750000Y-103575000D01*
X61750000Y-104747844D01*
X61756401Y-104807372D01*
X61756403Y-104807379D01*
X61806645Y-104942086D01*
X61806649Y-104942093D01*
X61892809Y-105057187D01*
X61892812Y-105057190D01*
X62007906Y-105143350D01*
X62007913Y-105143354D01*
X62142620Y-105193596D01*
X62142627Y-105193598D01*
X62202155Y-105199999D01*
X62202172Y-105200000D01*
X62425000Y-105200000D01*
X62425000Y-103575000D01*
X63175000Y-103575000D01*
X63175000Y-105200000D01*
X63397828Y-105200000D01*
X63397844Y-105199999D01*
X63457372Y-105193598D01*
X63457379Y-105193596D01*
X63592086Y-105143354D01*
X63592093Y-105143350D01*
X63707187Y-105057190D01*
X63707190Y-105057187D01*
X63793350Y-104942093D01*
X63793354Y-104942086D01*
X63843596Y-104807379D01*
X63843598Y-104807372D01*
X63849999Y-104747844D01*
X63850000Y-104747827D01*
X63850000Y-103675000D01*
X69350000Y-103675000D01*
X69350000Y-104847844D01*
X69356401Y-104907372D01*
X69356403Y-104907379D01*
X69406645Y-105042086D01*
X69406649Y-105042093D01*
X69492809Y-105157187D01*
X69492812Y-105157190D01*
X69607906Y-105243350D01*
X69607913Y-105243354D01*
X69742620Y-105293596D01*
X69742627Y-105293598D01*
X69802155Y-105299999D01*
X69802172Y-105300000D01*
X70025000Y-105300000D01*
X70025000Y-103675000D01*
X70775000Y-103675000D01*
X70775000Y-105300000D01*
X70997828Y-105300000D01*
X70997844Y-105299999D01*
X71057372Y-105293598D01*
X71057379Y-105293596D01*
X71192086Y-105243354D01*
X71192093Y-105243350D01*
X71307187Y-105157190D01*
X71307190Y-105157187D01*
X71393350Y-105042093D01*
X71393354Y-105042086D01*
X71443596Y-104907379D01*
X71443598Y-104907372D01*
X71449999Y-104847844D01*
X71450000Y-104847827D01*
X71450000Y-103675000D01*
X70775000Y-103675000D01*
X70025000Y-103675000D01*
X69350000Y-103675000D01*
X63850000Y-103675000D01*
X63850000Y-103575000D01*
X63175000Y-103575000D01*
X62425000Y-103575000D01*
X61750000Y-103575000D01*
X61000000Y-103575000D01*
X61000000Y-103000000D01*
X61000000Y-102925000D01*
X69350000Y-102925000D01*
X70025000Y-102925000D01*
X70025000Y-101300000D01*
X70775000Y-101300000D01*
X70775000Y-102925000D01*
X71450000Y-102925000D01*
X71450000Y-101752172D01*
X71449999Y-101752155D01*
X71443598Y-101692627D01*
X71443596Y-101692620D01*
X71393354Y-101557913D01*
X71393350Y-101557906D01*
X71307190Y-101442812D01*
X71307187Y-101442809D01*
X71192093Y-101356649D01*
X71192086Y-101356645D01*
X71057379Y-101306403D01*
X71057372Y-101306401D01*
X70997844Y-101300000D01*
X70775000Y-101300000D01*
X70025000Y-101300000D01*
X69802155Y-101300000D01*
X69742627Y-101306401D01*
X69742620Y-101306403D01*
X69607913Y-101356645D01*
X69607906Y-101356649D01*
X69492812Y-101442809D01*
X69492809Y-101442812D01*
X69406649Y-101557906D01*
X69406645Y-101557913D01*
X69356403Y-101692620D01*
X69356401Y-101692627D01*
X69350000Y-101752155D01*
X69350000Y-102925000D01*
X61000000Y-102925000D01*
X61000000Y-101551362D01*
X61019685Y-101484323D01*
X61036319Y-101463681D01*
X61463681Y-101036319D01*
X61525004Y-101002834D01*
X61551362Y-101000000D01*
X62008722Y-101000000D01*
X62075761Y-101019685D01*
G37*
%TD.AperFunction*%
%TD*%
%TA.AperFunction,Conductor*%
%TO.N,+3.3V*%
G36*
X72343039Y-113819685D02*
G01*
X72388794Y-113872489D01*
X72400000Y-113924000D01*
X72400000Y-116676000D01*
X72380315Y-116743039D01*
X72327511Y-116788794D01*
X72276000Y-116800000D01*
X70751362Y-116800000D01*
X70684323Y-116780315D01*
X70663681Y-116763681D01*
X68836319Y-114936319D01*
X68802834Y-114874996D01*
X68800000Y-114848638D01*
X68800000Y-113924000D01*
X68819685Y-113856961D01*
X68872489Y-113811206D01*
X68924000Y-113800000D01*
X72276000Y-113800000D01*
X72343039Y-113819685D01*
G37*
%TD.AperFunction*%
%TD*%
%TA.AperFunction,Conductor*%
%TO.N,+3.3V*%
G36*
X75415677Y-116619685D02*
G01*
X75436319Y-116636319D01*
X77663319Y-118863319D01*
X77696804Y-118924642D01*
X77691820Y-118994334D01*
X77649948Y-119050267D01*
X77629669Y-119057830D01*
X77612500Y-119075000D01*
X77612500Y-120026000D01*
X77592815Y-120093039D01*
X77540011Y-120138794D01*
X77488500Y-120150000D01*
X76675001Y-120150000D01*
X76675001Y-120529196D01*
X76677852Y-120559607D01*
X76677852Y-120559608D01*
X76694251Y-120606475D01*
X76697812Y-120676253D01*
X76664890Y-120735109D01*
X76000000Y-121399999D01*
X76000000Y-121501630D01*
X75980315Y-121568669D01*
X75927511Y-121614424D01*
X75867255Y-121623464D01*
X75867137Y-121625266D01*
X75863078Y-121625000D01*
X75150000Y-121625000D01*
X75150000Y-122101000D01*
X75130315Y-122168039D01*
X75077511Y-122213794D01*
X75026000Y-122225000D01*
X73850001Y-122225000D01*
X73813682Y-122261319D01*
X73811610Y-122259247D01*
X73777512Y-122288794D01*
X73726001Y-122300000D01*
X73524000Y-122300000D01*
X73456961Y-122280315D01*
X73411206Y-122227511D01*
X73400000Y-122176000D01*
X73400000Y-121925000D01*
X73850000Y-121925000D01*
X74850000Y-121925000D01*
X74850000Y-121625000D01*
X74136913Y-121625000D01*
X74089589Y-121631230D01*
X74089582Y-121631232D01*
X73985711Y-121679668D01*
X73904668Y-121760711D01*
X73856232Y-121864582D01*
X73856230Y-121864590D01*
X73850001Y-121911904D01*
X73850000Y-121911921D01*
X73850000Y-121925000D01*
X73400000Y-121925000D01*
X73400000Y-119850000D01*
X76675000Y-119850000D01*
X77312500Y-119850000D01*
X77312500Y-119075000D01*
X77070804Y-119075000D01*
X77040393Y-119077851D01*
X76912354Y-119122653D01*
X76803207Y-119203207D01*
X76722653Y-119312354D01*
X76677850Y-119440395D01*
X76677850Y-119440399D01*
X76675000Y-119470793D01*
X76675000Y-119850000D01*
X73400000Y-119850000D01*
X73400000Y-116724000D01*
X73419685Y-116656961D01*
X73472489Y-116611206D01*
X73524000Y-116600000D01*
X75348638Y-116600000D01*
X75415677Y-116619685D01*
G37*
%TD.AperFunction*%
%TD*%
%TA.AperFunction,Conductor*%
%TO.N,+12V*%
G36*
X61000000Y-105000000D02*
G01*
X63600000Y-107000000D01*
X62045592Y-108360107D01*
X62035063Y-108369320D01*
X61971648Y-108398651D01*
X61953408Y-108400000D01*
X60254292Y-108400000D01*
X60187253Y-108380315D01*
X60163176Y-108360107D01*
X59032884Y-107135624D01*
X59001877Y-107073011D01*
X59000000Y-107051517D01*
X59000000Y-105444893D01*
X59019685Y-105377854D01*
X59028736Y-105365516D01*
X61000000Y-103000000D01*
X61000000Y-105000000D01*
G37*
%TD.AperFunction*%
%TD*%
%TA.AperFunction,Conductor*%
%TO.N,GND*%
G36*
X80466107Y-119230501D02*
G01*
X80508093Y-119258093D01*
X80800000Y-119550000D01*
X82498544Y-121248544D01*
X82501349Y-121251543D01*
X82648176Y-121419345D01*
X82677508Y-121482760D01*
X82667899Y-121551966D01*
X82622400Y-121604990D01*
X82555456Y-121624999D01*
X82554857Y-121625000D01*
X82250000Y-121625000D01*
X82250000Y-122201000D01*
X82235612Y-122250000D01*
X80374000Y-122250000D01*
X80306961Y-122230315D01*
X80261206Y-122177511D01*
X80250000Y-122126000D01*
X80250000Y-121825000D01*
X80874690Y-121825000D01*
X81750000Y-121825000D01*
X81750000Y-121625000D01*
X81136913Y-121625000D01*
X81089589Y-121631230D01*
X81089582Y-121631232D01*
X80985711Y-121679668D01*
X80904668Y-121760711D01*
X80874690Y-121824999D01*
X80874690Y-121825000D01*
X80250000Y-121825000D01*
X80250000Y-121500000D01*
X80000000Y-121250000D01*
X79024000Y-121250000D01*
X78956961Y-121230315D01*
X78911206Y-121177511D01*
X78900000Y-121126000D01*
X78900000Y-121021540D01*
X78919685Y-120954501D01*
X78972489Y-120908746D01*
X79041647Y-120898802D01*
X79064955Y-120904499D01*
X79115395Y-120922149D01*
X79137499Y-120924221D01*
X79137500Y-120924220D01*
X79137500Y-120400000D01*
X79937500Y-120400000D01*
X79937500Y-120924221D01*
X79959602Y-120922149D01*
X80087645Y-120877346D01*
X80196792Y-120796792D01*
X80277346Y-120687645D01*
X80322149Y-120559604D01*
X80322149Y-120559600D01*
X80325000Y-120529206D01*
X80325000Y-120400000D01*
X79937500Y-120400000D01*
X79137500Y-120400000D01*
X79137500Y-119724000D01*
X79157185Y-119656961D01*
X79209989Y-119611206D01*
X79261500Y-119600000D01*
X80324999Y-119600000D01*
X80324999Y-119470803D01*
X80322148Y-119440393D01*
X80303370Y-119386728D01*
X80299809Y-119316949D01*
X80334538Y-119256322D01*
X80396532Y-119224095D01*
X80466107Y-119230501D01*
G37*
%TD.AperFunction*%
%TD*%
%TA.AperFunction,Conductor*%
%TO.N,LIVE_IN_FUSED*%
G36*
X60943039Y-88819685D02*
G01*
X60988794Y-88872489D01*
X61000000Y-88924000D01*
X61000000Y-89744775D01*
X60980315Y-89811814D01*
X60958954Y-89836940D01*
X60346557Y-90388099D01*
X60145792Y-90568787D01*
X60082793Y-90599002D01*
X60013460Y-90590362D01*
X59963886Y-90551345D01*
X59840608Y-90388099D01*
X59676261Y-90238278D01*
X59487179Y-90121202D01*
X59487177Y-90121201D01*
X59279799Y-90040864D01*
X59200000Y-90025946D01*
X59200000Y-90595689D01*
X59191183Y-90590842D01*
X59032114Y-90550000D01*
X58909106Y-90550000D01*
X58787067Y-90565417D01*
X58700000Y-90599889D01*
X58700000Y-90025946D01*
X58620200Y-90040864D01*
X58412822Y-90121201D01*
X58412820Y-90121202D01*
X58223738Y-90238278D01*
X58059391Y-90388099D01*
X57925368Y-90565574D01*
X57826239Y-90764650D01*
X57773505Y-90950000D01*
X58349272Y-90950000D01*
X58326900Y-90997543D01*
X58296127Y-91158862D01*
X58306439Y-91322766D01*
X58347780Y-91450000D01*
X57773505Y-91450000D01*
X57826239Y-91635349D01*
X57925368Y-91834425D01*
X58059391Y-92011899D01*
X58198145Y-92138390D01*
X58234427Y-92198101D01*
X58232666Y-92267948D01*
X58197559Y-92322195D01*
X55035369Y-95168168D01*
X54972370Y-95198384D01*
X54952417Y-95200000D01*
X53724000Y-95200000D01*
X53656961Y-95180315D01*
X53611206Y-95127511D01*
X53600000Y-95076000D01*
X53600000Y-90051362D01*
X53619685Y-89984323D01*
X53636319Y-89963681D01*
X54763681Y-88836319D01*
X54825004Y-88802834D01*
X54851362Y-88800000D01*
X60876000Y-88800000D01*
X60943039Y-88819685D01*
G37*
%TD.AperFunction*%
%TD*%
M02*
