%TF.GenerationSoftware,KiCad,Pcbnew,7.0.8*%
%TF.CreationDate,2024-01-29T20:53:27-05:00*%
%TF.ProjectId,lightlink,6c696768-746c-4696-9e6b-2e6b69636164,rev?*%
%TF.SameCoordinates,Original*%
%TF.FileFunction,Paste,Bot*%
%TF.FilePolarity,Positive*%
%FSLAX46Y46*%
G04 Gerber Fmt 4.6, Leading zero omitted, Abs format (unit mm)*
G04 Created by KiCad (PCBNEW 7.0.8) date 2024-01-29 20:53:27*
%MOMM*%
%LPD*%
G01*
G04 APERTURE LIST*
G04 Aperture macros list*
%AMRoundRect*
0 Rectangle with rounded corners*
0 $1 Rounding radius*
0 $2 $3 $4 $5 $6 $7 $8 $9 X,Y pos of 4 corners*
0 Add a 4 corners polygon primitive as box body*
4,1,4,$2,$3,$4,$5,$6,$7,$8,$9,$2,$3,0*
0 Add four circle primitives for the rounded corners*
1,1,$1+$1,$2,$3*
1,1,$1+$1,$4,$5*
1,1,$1+$1,$6,$7*
1,1,$1+$1,$8,$9*
0 Add four rect primitives between the rounded corners*
20,1,$1+$1,$2,$3,$4,$5,0*
20,1,$1+$1,$4,$5,$6,$7,0*
20,1,$1+$1,$6,$7,$8,$9,0*
20,1,$1+$1,$8,$9,$2,$3,0*%
G04 Aperture macros list end*
%ADD10RoundRect,0.250000X0.337500X0.475000X-0.337500X0.475000X-0.337500X-0.475000X0.337500X-0.475000X0*%
%ADD11RoundRect,0.250000X-0.475000X0.337500X-0.475000X-0.337500X0.475000X-0.337500X0.475000X0.337500X0*%
%ADD12R,1.000000X2.500000*%
%ADD13RoundRect,0.250000X0.475000X-0.337500X0.475000X0.337500X-0.475000X0.337500X-0.475000X-0.337500X0*%
%ADD14RoundRect,0.250000X0.650000X-0.412500X0.650000X0.412500X-0.650000X0.412500X-0.650000X-0.412500X0*%
%ADD15RoundRect,0.150000X0.150000X-0.512500X0.150000X0.512500X-0.150000X0.512500X-0.150000X-0.512500X0*%
%ADD16RoundRect,0.250000X-0.337500X-0.475000X0.337500X-0.475000X0.337500X0.475000X-0.337500X0.475000X0*%
%ADD17RoundRect,0.250000X1.500000X0.650000X-1.500000X0.650000X-1.500000X-0.650000X1.500000X-0.650000X0*%
%ADD18RoundRect,0.250000X-1.500000X-0.650000X1.500000X-0.650000X1.500000X0.650000X-1.500000X0.650000X0*%
%ADD19R,1.450000X1.000000*%
%ADD20R,4.000000X2.000000*%
G04 APERTURE END LIST*
D10*
%TO.C,C7*%
X130715000Y-102800000D03*
X128640000Y-102800000D03*
%TD*%
D11*
%TO.C,C17*%
X146000000Y-110712500D03*
X146000000Y-112787500D03*
%TD*%
D12*
%TO.C,U2*%
X131840000Y-115800000D03*
X133840000Y-115800000D03*
X135840000Y-115800000D03*
X137840000Y-115800000D03*
X139840000Y-115800000D03*
X141840000Y-115800000D03*
X143840000Y-115800000D03*
X145840000Y-115800000D03*
X145840000Y-134000000D03*
X143840000Y-134000000D03*
X141840000Y-134000000D03*
X139840000Y-134000000D03*
X137840000Y-134000000D03*
X135840000Y-134000000D03*
X133840000Y-134000000D03*
X131840000Y-134000000D03*
%TD*%
D13*
%TO.C,R15*%
X124040000Y-98437500D03*
X124040000Y-96362500D03*
%TD*%
D10*
%TO.C,R4*%
X153877500Y-123700000D03*
X151802500Y-123700000D03*
%TD*%
D14*
%TO.C,C5*%
X120140000Y-102762500D03*
X120140000Y-99637500D03*
%TD*%
D15*
%TO.C,U4*%
X126490000Y-103450000D03*
X125540000Y-103450000D03*
X124590000Y-103450000D03*
X124590000Y-101175000D03*
X125540000Y-101175000D03*
X126490000Y-101175000D03*
%TD*%
D13*
%TO.C,C10*%
X128340000Y-109087500D03*
X128340000Y-107012500D03*
%TD*%
D16*
%TO.C,R13*%
X128602500Y-100550000D03*
X130677500Y-100550000D03*
%TD*%
%TO.C,C16*%
X155240000Y-115600000D03*
X157315000Y-115600000D03*
%TD*%
D13*
%TO.C,C8*%
X130640000Y-109087500D03*
X130640000Y-107012500D03*
%TD*%
D17*
%TO.C,D3*%
X141940000Y-107250000D03*
X136940000Y-107250000D03*
%TD*%
D10*
%TO.C,R14*%
X128677500Y-98050000D03*
X126602500Y-98050000D03*
%TD*%
D18*
%TO.C,D6*%
X114540000Y-114000000D03*
X119540000Y-114000000D03*
%TD*%
D19*
%TO.C,D1*%
X150112500Y-80437500D03*
X150112500Y-76437500D03*
X144662500Y-80437500D03*
X144662500Y-76437500D03*
%TD*%
D20*
%TO.C,L2*%
X124240000Y-106400000D03*
X124240000Y-109900000D03*
%TD*%
D10*
%TO.C,R5*%
X153877500Y-121200000D03*
X151802500Y-121200000D03*
%TD*%
D13*
%TO.C,C6*%
X122440000Y-102837500D03*
X122440000Y-100762500D03*
%TD*%
D10*
%TO.C,R6*%
X153877500Y-118700000D03*
X151802500Y-118700000D03*
%TD*%
D16*
%TO.C,R12*%
X155165000Y-108000000D03*
X157240000Y-108000000D03*
%TD*%
D13*
%TO.C,R10*%
X117840000Y-102537500D03*
X117840000Y-100462500D03*
%TD*%
D10*
%TO.C,R3*%
X153877500Y-126200000D03*
X151802500Y-126200000D03*
%TD*%
M02*
