%TF.GenerationSoftware,KiCad,Pcbnew,7.0.8*%
%TF.CreationDate,2024-01-23T00:11:49-05:00*%
%TF.ProjectId,RemoteOutlet,52656d6f-7465-44f7-9574-6c65742e6b69,rev?*%
%TF.SameCoordinates,Original*%
%TF.FileFunction,Paste,Bot*%
%TF.FilePolarity,Positive*%
%FSLAX46Y46*%
G04 Gerber Fmt 4.6, Leading zero omitted, Abs format (unit mm)*
G04 Created by KiCad (PCBNEW 7.0.8) date 2024-01-23 00:11:49*
%MOMM*%
%LPD*%
G01*
G04 APERTURE LIST*
G04 Aperture macros list*
%AMRoundRect*
0 Rectangle with rounded corners*
0 $1 Rounding radius*
0 $2 $3 $4 $5 $6 $7 $8 $9 X,Y pos of 4 corners*
0 Add a 4 corners polygon primitive as box body*
4,1,4,$2,$3,$4,$5,$6,$7,$8,$9,$2,$3,0*
0 Add four circle primitives for the rounded corners*
1,1,$1+$1,$2,$3*
1,1,$1+$1,$4,$5*
1,1,$1+$1,$6,$7*
1,1,$1+$1,$8,$9*
0 Add four rect primitives between the rounded corners*
20,1,$1+$1,$2,$3,$4,$5,0*
20,1,$1+$1,$4,$5,$6,$7,0*
20,1,$1+$1,$6,$7,$8,$9,0*
20,1,$1+$1,$8,$9,$2,$3,0*%
G04 Aperture macros list end*
%ADD10RoundRect,0.150000X0.150000X-0.512500X0.150000X0.512500X-0.150000X0.512500X-0.150000X-0.512500X0*%
%ADD11R,1.000000X2.500000*%
%ADD12RoundRect,0.250000X0.475000X-0.337500X0.475000X0.337500X-0.475000X0.337500X-0.475000X-0.337500X0*%
%ADD13RoundRect,0.250000X0.337500X0.475000X-0.337500X0.475000X-0.337500X-0.475000X0.337500X-0.475000X0*%
%ADD14RoundRect,0.250000X-0.337500X-0.475000X0.337500X-0.475000X0.337500X0.475000X-0.337500X0.475000X0*%
%ADD15R,4.000000X2.000000*%
%ADD16RoundRect,0.250000X-1.500000X-0.650000X1.500000X-0.650000X1.500000X0.650000X-1.500000X0.650000X0*%
%ADD17RoundRect,0.250000X1.500000X0.650000X-1.500000X0.650000X-1.500000X-0.650000X1.500000X-0.650000X0*%
%ADD18R,1.450000X1.000000*%
%ADD19RoundRect,0.250000X0.650000X-0.412500X0.650000X0.412500X-0.650000X0.412500X-0.650000X-0.412500X0*%
G04 APERTURE END LIST*
D10*
%TO.C,U4*%
X67650000Y-103775000D03*
X66700000Y-103775000D03*
X65750000Y-103775000D03*
X65750000Y-106050000D03*
X66700000Y-106050000D03*
X67650000Y-106050000D03*
%TD*%
D11*
%TO.C,U2*%
X73000000Y-136600000D03*
X75000000Y-136600000D03*
X77000000Y-136600000D03*
X79000000Y-136600000D03*
X81000000Y-136600000D03*
X83000000Y-136600000D03*
X85000000Y-136600000D03*
X87000000Y-136600000D03*
X87000000Y-118400000D03*
X85000000Y-118400000D03*
X83000000Y-118400000D03*
X81000000Y-118400000D03*
X79000000Y-118400000D03*
X77000000Y-118400000D03*
X75000000Y-118400000D03*
X73000000Y-118400000D03*
%TD*%
D12*
%TO.C,R15*%
X65200000Y-98962500D03*
X65200000Y-101037500D03*
%TD*%
D13*
%TO.C,R14*%
X67762500Y-100650000D03*
X69837500Y-100650000D03*
%TD*%
D14*
%TO.C,R13*%
X71837500Y-103150000D03*
X69762500Y-103150000D03*
%TD*%
%TO.C,R12*%
X98400000Y-110600000D03*
X96325000Y-110600000D03*
%TD*%
D12*
%TO.C,R10*%
X59000000Y-103062500D03*
X59000000Y-105137500D03*
%TD*%
D13*
%TO.C,R6*%
X95037500Y-121300000D03*
X92962500Y-121300000D03*
%TD*%
%TO.C,R5*%
X95037500Y-123800000D03*
X92962500Y-123800000D03*
%TD*%
%TO.C,R4*%
X95037500Y-126300000D03*
X92962500Y-126300000D03*
%TD*%
%TO.C,R3*%
X95037500Y-128800000D03*
X92962500Y-128800000D03*
%TD*%
D15*
%TO.C,L2*%
X65400000Y-112500000D03*
X65400000Y-109000000D03*
%TD*%
D16*
%TO.C,D6*%
X55700000Y-116600000D03*
X60700000Y-116600000D03*
%TD*%
D17*
%TO.C,D3*%
X83100000Y-110000000D03*
X78100000Y-110000000D03*
%TD*%
D18*
%TO.C,D1*%
X92737500Y-81887500D03*
X92737500Y-77887500D03*
X87287500Y-81887500D03*
X87287500Y-77887500D03*
%TD*%
D14*
%TO.C,C16*%
X96400000Y-118200000D03*
X98475000Y-118200000D03*
%TD*%
D12*
%TO.C,C10*%
X69500000Y-109612500D03*
X69500000Y-111687500D03*
%TD*%
%TO.C,C8*%
X71800000Y-109612500D03*
X71800000Y-111687500D03*
%TD*%
D13*
%TO.C,C7*%
X69800000Y-105400000D03*
X71875000Y-105400000D03*
%TD*%
D12*
%TO.C,C6*%
X63600000Y-103362500D03*
X63600000Y-105437500D03*
%TD*%
D19*
%TO.C,C5*%
X61300000Y-102237500D03*
X61300000Y-105362500D03*
%TD*%
M02*
