%TF.GenerationSoftware,KiCad,Pcbnew,7.0.8*%
%TF.CreationDate,2024-01-23T00:11:49-05:00*%
%TF.ProjectId,RemoteOutlet,52656d6f-7465-44f7-9574-6c65742e6b69,rev?*%
%TF.SameCoordinates,Original*%
%TF.FileFunction,Legend,Top*%
%TF.FilePolarity,Positive*%
%FSLAX46Y46*%
G04 Gerber Fmt 4.6, Leading zero omitted, Abs format (unit mm)*
G04 Created by KiCad (PCBNEW 7.0.8) date 2024-01-23 00:11:49*
%MOMM*%
%LPD*%
G01*
G04 APERTURE LIST*
%ADD10C,0.150000*%
%ADD11C,0.120000*%
%ADD12C,0.100000*%
G04 APERTURE END LIST*
D10*
X96666667Y-110507200D02*
X96809524Y-110554819D01*
X96809524Y-110554819D02*
X97047619Y-110554819D01*
X97047619Y-110554819D02*
X97142857Y-110507200D01*
X97142857Y-110507200D02*
X97190476Y-110459580D01*
X97190476Y-110459580D02*
X97238095Y-110364342D01*
X97238095Y-110364342D02*
X97238095Y-110269104D01*
X97238095Y-110269104D02*
X97190476Y-110173866D01*
X97190476Y-110173866D02*
X97142857Y-110126247D01*
X97142857Y-110126247D02*
X97047619Y-110078628D01*
X97047619Y-110078628D02*
X96857143Y-110031009D01*
X96857143Y-110031009D02*
X96761905Y-109983390D01*
X96761905Y-109983390D02*
X96714286Y-109935771D01*
X96714286Y-109935771D02*
X96666667Y-109840533D01*
X96666667Y-109840533D02*
X96666667Y-109745295D01*
X96666667Y-109745295D02*
X96714286Y-109650057D01*
X96714286Y-109650057D02*
X96761905Y-109602438D01*
X96761905Y-109602438D02*
X96857143Y-109554819D01*
X96857143Y-109554819D02*
X97095238Y-109554819D01*
X97095238Y-109554819D02*
X97238095Y-109602438D01*
X97571429Y-109554819D02*
X97809524Y-110554819D01*
X97809524Y-110554819D02*
X98000000Y-109840533D01*
X98000000Y-109840533D02*
X98190476Y-110554819D01*
X98190476Y-110554819D02*
X98428572Y-109554819D01*
X98761905Y-109650057D02*
X98809524Y-109602438D01*
X98809524Y-109602438D02*
X98904762Y-109554819D01*
X98904762Y-109554819D02*
X99142857Y-109554819D01*
X99142857Y-109554819D02*
X99238095Y-109602438D01*
X99238095Y-109602438D02*
X99285714Y-109650057D01*
X99285714Y-109650057D02*
X99333333Y-109745295D01*
X99333333Y-109745295D02*
X99333333Y-109840533D01*
X99333333Y-109840533D02*
X99285714Y-109983390D01*
X99285714Y-109983390D02*
X98714286Y-110554819D01*
X98714286Y-110554819D02*
X99333333Y-110554819D01*
X71754819Y-126153333D02*
X72469104Y-126153333D01*
X72469104Y-126153333D02*
X72611961Y-126200952D01*
X72611961Y-126200952D02*
X72707200Y-126296190D01*
X72707200Y-126296190D02*
X72754819Y-126439047D01*
X72754819Y-126439047D02*
X72754819Y-126534285D01*
X71754819Y-125772380D02*
X71754819Y-125153333D01*
X71754819Y-125153333D02*
X72135771Y-125486666D01*
X72135771Y-125486666D02*
X72135771Y-125343809D01*
X72135771Y-125343809D02*
X72183390Y-125248571D01*
X72183390Y-125248571D02*
X72231009Y-125200952D01*
X72231009Y-125200952D02*
X72326247Y-125153333D01*
X72326247Y-125153333D02*
X72564342Y-125153333D01*
X72564342Y-125153333D02*
X72659580Y-125200952D01*
X72659580Y-125200952D02*
X72707200Y-125248571D01*
X72707200Y-125248571D02*
X72754819Y-125343809D01*
X72754819Y-125343809D02*
X72754819Y-125629523D01*
X72754819Y-125629523D02*
X72707200Y-125724761D01*
X72707200Y-125724761D02*
X72659580Y-125772380D01*
X54045180Y-118511905D02*
X55045180Y-118511905D01*
X54045180Y-119083333D02*
X54616609Y-118654762D01*
X55045180Y-119083333D02*
X54473752Y-118511905D01*
X54045180Y-120035714D02*
X54045180Y-119464286D01*
X54045180Y-119750000D02*
X55045180Y-119750000D01*
X55045180Y-119750000D02*
X54902323Y-119654762D01*
X54902323Y-119654762D02*
X54807085Y-119559524D01*
X54807085Y-119559524D02*
X54759466Y-119464286D01*
X57666666Y-93931009D02*
X57333333Y-93931009D01*
X57333333Y-94454819D02*
X57333333Y-93454819D01*
X57333333Y-93454819D02*
X57809523Y-93454819D01*
X58714285Y-94454819D02*
X58142857Y-94454819D01*
X58428571Y-94454819D02*
X58428571Y-93454819D01*
X58428571Y-93454819D02*
X58333333Y-93597676D01*
X58333333Y-93597676D02*
X58238095Y-93692914D01*
X58238095Y-93692914D02*
X58142857Y-93740533D01*
X66833333Y-78045180D02*
X66833333Y-77330895D01*
X66833333Y-77330895D02*
X66880952Y-77188038D01*
X66880952Y-77188038D02*
X66976190Y-77092800D01*
X66976190Y-77092800D02*
X67119047Y-77045180D01*
X67119047Y-77045180D02*
X67214285Y-77045180D01*
X65880952Y-78045180D02*
X66357142Y-78045180D01*
X66357142Y-78045180D02*
X66404761Y-77568990D01*
X66404761Y-77568990D02*
X66357142Y-77616609D01*
X66357142Y-77616609D02*
X66261904Y-77664228D01*
X66261904Y-77664228D02*
X66023809Y-77664228D01*
X66023809Y-77664228D02*
X65928571Y-77616609D01*
X65928571Y-77616609D02*
X65880952Y-77568990D01*
X65880952Y-77568990D02*
X65833333Y-77473752D01*
X65833333Y-77473752D02*
X65833333Y-77235657D01*
X65833333Y-77235657D02*
X65880952Y-77140419D01*
X65880952Y-77140419D02*
X65928571Y-77092800D01*
X65928571Y-77092800D02*
X66023809Y-77045180D01*
X66023809Y-77045180D02*
X66261904Y-77045180D01*
X66261904Y-77045180D02*
X66357142Y-77092800D01*
X66357142Y-77092800D02*
X66404761Y-77140419D01*
X86191666Y-85104819D02*
X86191666Y-85819104D01*
X86191666Y-85819104D02*
X86144047Y-85961961D01*
X86144047Y-85961961D02*
X86048809Y-86057200D01*
X86048809Y-86057200D02*
X85905952Y-86104819D01*
X85905952Y-86104819D02*
X85810714Y-86104819D01*
X87096428Y-85438152D02*
X87096428Y-86104819D01*
X86858333Y-85057200D02*
X86620238Y-85771485D01*
X86620238Y-85771485D02*
X87239285Y-85771485D01*
X75033333Y-109854819D02*
X74557143Y-109854819D01*
X74557143Y-109854819D02*
X74557143Y-108854819D01*
X75890476Y-109854819D02*
X75319048Y-109854819D01*
X75604762Y-109854819D02*
X75604762Y-108854819D01*
X75604762Y-108854819D02*
X75509524Y-108997676D01*
X75509524Y-108997676D02*
X75414286Y-109092914D01*
X75414286Y-109092914D02*
X75319048Y-109140533D01*
X96359580Y-90416666D02*
X96407200Y-90464285D01*
X96407200Y-90464285D02*
X96454819Y-90607142D01*
X96454819Y-90607142D02*
X96454819Y-90702380D01*
X96454819Y-90702380D02*
X96407200Y-90845237D01*
X96407200Y-90845237D02*
X96311961Y-90940475D01*
X96311961Y-90940475D02*
X96216723Y-90988094D01*
X96216723Y-90988094D02*
X96026247Y-91035713D01*
X96026247Y-91035713D02*
X95883390Y-91035713D01*
X95883390Y-91035713D02*
X95692914Y-90988094D01*
X95692914Y-90988094D02*
X95597676Y-90940475D01*
X95597676Y-90940475D02*
X95502438Y-90845237D01*
X95502438Y-90845237D02*
X95454819Y-90702380D01*
X95454819Y-90702380D02*
X95454819Y-90607142D01*
X95454819Y-90607142D02*
X95502438Y-90464285D01*
X95502438Y-90464285D02*
X95550057Y-90416666D01*
X96454819Y-89464285D02*
X96454819Y-90035713D01*
X96454819Y-89749999D02*
X95454819Y-89749999D01*
X95454819Y-89749999D02*
X95597676Y-89845237D01*
X95597676Y-89845237D02*
X95692914Y-89940475D01*
X95692914Y-89940475D02*
X95740533Y-90035713D01*
X83004819Y-119761904D02*
X83814342Y-119761904D01*
X83814342Y-119761904D02*
X83909580Y-119714285D01*
X83909580Y-119714285D02*
X83957200Y-119666666D01*
X83957200Y-119666666D02*
X84004819Y-119571428D01*
X84004819Y-119571428D02*
X84004819Y-119380952D01*
X84004819Y-119380952D02*
X83957200Y-119285714D01*
X83957200Y-119285714D02*
X83909580Y-119238095D01*
X83909580Y-119238095D02*
X83814342Y-119190476D01*
X83814342Y-119190476D02*
X83004819Y-119190476D01*
X83004819Y-118238095D02*
X83004819Y-118714285D01*
X83004819Y-118714285D02*
X83481009Y-118761904D01*
X83481009Y-118761904D02*
X83433390Y-118714285D01*
X83433390Y-118714285D02*
X83385771Y-118619047D01*
X83385771Y-118619047D02*
X83385771Y-118380952D01*
X83385771Y-118380952D02*
X83433390Y-118285714D01*
X83433390Y-118285714D02*
X83481009Y-118238095D01*
X83481009Y-118238095D02*
X83576247Y-118190476D01*
X83576247Y-118190476D02*
X83814342Y-118190476D01*
X83814342Y-118190476D02*
X83909580Y-118238095D01*
X83909580Y-118238095D02*
X83957200Y-118285714D01*
X83957200Y-118285714D02*
X84004819Y-118380952D01*
X84004819Y-118380952D02*
X84004819Y-118619047D01*
X84004819Y-118619047D02*
X83957200Y-118714285D01*
X83957200Y-118714285D02*
X83909580Y-118761904D01*
X87314819Y-101924404D02*
X88124342Y-101924404D01*
X88124342Y-101924404D02*
X88219580Y-101876785D01*
X88219580Y-101876785D02*
X88267200Y-101829166D01*
X88267200Y-101829166D02*
X88314819Y-101733928D01*
X88314819Y-101733928D02*
X88314819Y-101543452D01*
X88314819Y-101543452D02*
X88267200Y-101448214D01*
X88267200Y-101448214D02*
X88219580Y-101400595D01*
X88219580Y-101400595D02*
X88124342Y-101352976D01*
X88124342Y-101352976D02*
X87314819Y-101352976D01*
X87314819Y-100972023D02*
X87314819Y-100352976D01*
X87314819Y-100352976D02*
X87695771Y-100686309D01*
X87695771Y-100686309D02*
X87695771Y-100543452D01*
X87695771Y-100543452D02*
X87743390Y-100448214D01*
X87743390Y-100448214D02*
X87791009Y-100400595D01*
X87791009Y-100400595D02*
X87886247Y-100352976D01*
X87886247Y-100352976D02*
X88124342Y-100352976D01*
X88124342Y-100352976D02*
X88219580Y-100400595D01*
X88219580Y-100400595D02*
X88267200Y-100448214D01*
X88267200Y-100448214D02*
X88314819Y-100543452D01*
X88314819Y-100543452D02*
X88314819Y-100829166D01*
X88314819Y-100829166D02*
X88267200Y-100924404D01*
X88267200Y-100924404D02*
X88219580Y-100972023D01*
X72654819Y-122161904D02*
X73464342Y-122161904D01*
X73464342Y-122161904D02*
X73559580Y-122114285D01*
X73559580Y-122114285D02*
X73607200Y-122066666D01*
X73607200Y-122066666D02*
X73654819Y-121971428D01*
X73654819Y-121971428D02*
X73654819Y-121780952D01*
X73654819Y-121780952D02*
X73607200Y-121685714D01*
X73607200Y-121685714D02*
X73559580Y-121638095D01*
X73559580Y-121638095D02*
X73464342Y-121590476D01*
X73464342Y-121590476D02*
X72654819Y-121590476D01*
X73654819Y-120590476D02*
X73654819Y-121161904D01*
X73654819Y-120876190D02*
X72654819Y-120876190D01*
X72654819Y-120876190D02*
X72797676Y-120971428D01*
X72797676Y-120971428D02*
X72892914Y-121066666D01*
X72892914Y-121066666D02*
X72940533Y-121161904D01*
X92566667Y-131607200D02*
X92709524Y-131654819D01*
X92709524Y-131654819D02*
X92947619Y-131654819D01*
X92947619Y-131654819D02*
X93042857Y-131607200D01*
X93042857Y-131607200D02*
X93090476Y-131559580D01*
X93090476Y-131559580D02*
X93138095Y-131464342D01*
X93138095Y-131464342D02*
X93138095Y-131369104D01*
X93138095Y-131369104D02*
X93090476Y-131273866D01*
X93090476Y-131273866D02*
X93042857Y-131226247D01*
X93042857Y-131226247D02*
X92947619Y-131178628D01*
X92947619Y-131178628D02*
X92757143Y-131131009D01*
X92757143Y-131131009D02*
X92661905Y-131083390D01*
X92661905Y-131083390D02*
X92614286Y-131035771D01*
X92614286Y-131035771D02*
X92566667Y-130940533D01*
X92566667Y-130940533D02*
X92566667Y-130845295D01*
X92566667Y-130845295D02*
X92614286Y-130750057D01*
X92614286Y-130750057D02*
X92661905Y-130702438D01*
X92661905Y-130702438D02*
X92757143Y-130654819D01*
X92757143Y-130654819D02*
X92995238Y-130654819D01*
X92995238Y-130654819D02*
X93138095Y-130702438D01*
X93471429Y-130654819D02*
X93709524Y-131654819D01*
X93709524Y-131654819D02*
X93900000Y-130940533D01*
X93900000Y-130940533D02*
X94090476Y-131654819D01*
X94090476Y-131654819D02*
X94328572Y-130654819D01*
X95233333Y-131654819D02*
X94661905Y-131654819D01*
X94947619Y-131654819D02*
X94947619Y-130654819D01*
X94947619Y-130654819D02*
X94852381Y-130797676D01*
X94852381Y-130797676D02*
X94757143Y-130892914D01*
X94757143Y-130892914D02*
X94661905Y-130940533D01*
X76004761Y-78954819D02*
X75671428Y-78478628D01*
X75433333Y-78954819D02*
X75433333Y-77954819D01*
X75433333Y-77954819D02*
X75814285Y-77954819D01*
X75814285Y-77954819D02*
X75909523Y-78002438D01*
X75909523Y-78002438D02*
X75957142Y-78050057D01*
X75957142Y-78050057D02*
X76004761Y-78145295D01*
X76004761Y-78145295D02*
X76004761Y-78288152D01*
X76004761Y-78288152D02*
X75957142Y-78383390D01*
X75957142Y-78383390D02*
X75909523Y-78431009D01*
X75909523Y-78431009D02*
X75814285Y-78478628D01*
X75814285Y-78478628D02*
X75433333Y-78478628D01*
X76290476Y-77954819D02*
X76623809Y-78954819D01*
X76623809Y-78954819D02*
X76957142Y-77954819D01*
X77814285Y-78954819D02*
X77242857Y-78954819D01*
X77528571Y-78954819D02*
X77528571Y-77954819D01*
X77528571Y-77954819D02*
X77433333Y-78097676D01*
X77433333Y-78097676D02*
X77338095Y-78192914D01*
X77338095Y-78192914D02*
X77242857Y-78240533D01*
X89357142Y-112774819D02*
X89023809Y-112298628D01*
X88785714Y-112774819D02*
X88785714Y-111774819D01*
X88785714Y-111774819D02*
X89166666Y-111774819D01*
X89166666Y-111774819D02*
X89261904Y-111822438D01*
X89261904Y-111822438D02*
X89309523Y-111870057D01*
X89309523Y-111870057D02*
X89357142Y-111965295D01*
X89357142Y-111965295D02*
X89357142Y-112108152D01*
X89357142Y-112108152D02*
X89309523Y-112203390D01*
X89309523Y-112203390D02*
X89261904Y-112251009D01*
X89261904Y-112251009D02*
X89166666Y-112298628D01*
X89166666Y-112298628D02*
X88785714Y-112298628D01*
X90309523Y-112774819D02*
X89738095Y-112774819D01*
X90023809Y-112774819D02*
X90023809Y-111774819D01*
X90023809Y-111774819D02*
X89928571Y-111917676D01*
X89928571Y-111917676D02*
X89833333Y-112012914D01*
X89833333Y-112012914D02*
X89738095Y-112060533D01*
X90785714Y-112774819D02*
X90976190Y-112774819D01*
X90976190Y-112774819D02*
X91071428Y-112727200D01*
X91071428Y-112727200D02*
X91119047Y-112679580D01*
X91119047Y-112679580D02*
X91214285Y-112536723D01*
X91214285Y-112536723D02*
X91261904Y-112346247D01*
X91261904Y-112346247D02*
X91261904Y-111965295D01*
X91261904Y-111965295D02*
X91214285Y-111870057D01*
X91214285Y-111870057D02*
X91166666Y-111822438D01*
X91166666Y-111822438D02*
X91071428Y-111774819D01*
X91071428Y-111774819D02*
X90880952Y-111774819D01*
X90880952Y-111774819D02*
X90785714Y-111822438D01*
X90785714Y-111822438D02*
X90738095Y-111870057D01*
X90738095Y-111870057D02*
X90690476Y-111965295D01*
X90690476Y-111965295D02*
X90690476Y-112203390D01*
X90690476Y-112203390D02*
X90738095Y-112298628D01*
X90738095Y-112298628D02*
X90785714Y-112346247D01*
X90785714Y-112346247D02*
X90880952Y-112393866D01*
X90880952Y-112393866D02*
X91071428Y-112393866D01*
X91071428Y-112393866D02*
X91166666Y-112346247D01*
X91166666Y-112346247D02*
X91214285Y-112298628D01*
X91214285Y-112298628D02*
X91261904Y-112203390D01*
X81857142Y-113454819D02*
X81523809Y-112978628D01*
X81285714Y-113454819D02*
X81285714Y-112454819D01*
X81285714Y-112454819D02*
X81666666Y-112454819D01*
X81666666Y-112454819D02*
X81761904Y-112502438D01*
X81761904Y-112502438D02*
X81809523Y-112550057D01*
X81809523Y-112550057D02*
X81857142Y-112645295D01*
X81857142Y-112645295D02*
X81857142Y-112788152D01*
X81857142Y-112788152D02*
X81809523Y-112883390D01*
X81809523Y-112883390D02*
X81761904Y-112931009D01*
X81761904Y-112931009D02*
X81666666Y-112978628D01*
X81666666Y-112978628D02*
X81285714Y-112978628D01*
X82809523Y-113454819D02*
X82238095Y-113454819D01*
X82523809Y-113454819D02*
X82523809Y-112454819D01*
X82523809Y-112454819D02*
X82428571Y-112597676D01*
X82428571Y-112597676D02*
X82333333Y-112692914D01*
X82333333Y-112692914D02*
X82238095Y-112740533D01*
X83380952Y-112883390D02*
X83285714Y-112835771D01*
X83285714Y-112835771D02*
X83238095Y-112788152D01*
X83238095Y-112788152D02*
X83190476Y-112692914D01*
X83190476Y-112692914D02*
X83190476Y-112645295D01*
X83190476Y-112645295D02*
X83238095Y-112550057D01*
X83238095Y-112550057D02*
X83285714Y-112502438D01*
X83285714Y-112502438D02*
X83380952Y-112454819D01*
X83380952Y-112454819D02*
X83571428Y-112454819D01*
X83571428Y-112454819D02*
X83666666Y-112502438D01*
X83666666Y-112502438D02*
X83714285Y-112550057D01*
X83714285Y-112550057D02*
X83761904Y-112645295D01*
X83761904Y-112645295D02*
X83761904Y-112692914D01*
X83761904Y-112692914D02*
X83714285Y-112788152D01*
X83714285Y-112788152D02*
X83666666Y-112835771D01*
X83666666Y-112835771D02*
X83571428Y-112883390D01*
X83571428Y-112883390D02*
X83380952Y-112883390D01*
X83380952Y-112883390D02*
X83285714Y-112931009D01*
X83285714Y-112931009D02*
X83238095Y-112978628D01*
X83238095Y-112978628D02*
X83190476Y-113073866D01*
X83190476Y-113073866D02*
X83190476Y-113264342D01*
X83190476Y-113264342D02*
X83238095Y-113359580D01*
X83238095Y-113359580D02*
X83285714Y-113407200D01*
X83285714Y-113407200D02*
X83380952Y-113454819D01*
X83380952Y-113454819D02*
X83571428Y-113454819D01*
X83571428Y-113454819D02*
X83666666Y-113407200D01*
X83666666Y-113407200D02*
X83714285Y-113359580D01*
X83714285Y-113359580D02*
X83761904Y-113264342D01*
X83761904Y-113264342D02*
X83761904Y-113073866D01*
X83761904Y-113073866D02*
X83714285Y-112978628D01*
X83714285Y-112978628D02*
X83666666Y-112931009D01*
X83666666Y-112931009D02*
X83571428Y-112883390D01*
X63457142Y-109674819D02*
X63123809Y-109198628D01*
X62885714Y-109674819D02*
X62885714Y-108674819D01*
X62885714Y-108674819D02*
X63266666Y-108674819D01*
X63266666Y-108674819D02*
X63361904Y-108722438D01*
X63361904Y-108722438D02*
X63409523Y-108770057D01*
X63409523Y-108770057D02*
X63457142Y-108865295D01*
X63457142Y-108865295D02*
X63457142Y-109008152D01*
X63457142Y-109008152D02*
X63409523Y-109103390D01*
X63409523Y-109103390D02*
X63361904Y-109151009D01*
X63361904Y-109151009D02*
X63266666Y-109198628D01*
X63266666Y-109198628D02*
X62885714Y-109198628D01*
X64409523Y-109674819D02*
X63838095Y-109674819D01*
X64123809Y-109674819D02*
X64123809Y-108674819D01*
X64123809Y-108674819D02*
X64028571Y-108817676D01*
X64028571Y-108817676D02*
X63933333Y-108912914D01*
X63933333Y-108912914D02*
X63838095Y-108960533D01*
X64742857Y-108674819D02*
X65409523Y-108674819D01*
X65409523Y-108674819D02*
X64980952Y-109674819D01*
X81854819Y-116242857D02*
X81378628Y-116576190D01*
X81854819Y-116814285D02*
X80854819Y-116814285D01*
X80854819Y-116814285D02*
X80854819Y-116433333D01*
X80854819Y-116433333D02*
X80902438Y-116338095D01*
X80902438Y-116338095D02*
X80950057Y-116290476D01*
X80950057Y-116290476D02*
X81045295Y-116242857D01*
X81045295Y-116242857D02*
X81188152Y-116242857D01*
X81188152Y-116242857D02*
X81283390Y-116290476D01*
X81283390Y-116290476D02*
X81331009Y-116338095D01*
X81331009Y-116338095D02*
X81378628Y-116433333D01*
X81378628Y-116433333D02*
X81378628Y-116814285D01*
X81854819Y-115290476D02*
X81854819Y-115861904D01*
X81854819Y-115576190D02*
X80854819Y-115576190D01*
X80854819Y-115576190D02*
X80997676Y-115671428D01*
X80997676Y-115671428D02*
X81092914Y-115766666D01*
X81092914Y-115766666D02*
X81140533Y-115861904D01*
X80854819Y-114433333D02*
X80854819Y-114623809D01*
X80854819Y-114623809D02*
X80902438Y-114719047D01*
X80902438Y-114719047D02*
X80950057Y-114766666D01*
X80950057Y-114766666D02*
X81092914Y-114861904D01*
X81092914Y-114861904D02*
X81283390Y-114909523D01*
X81283390Y-114909523D02*
X81664342Y-114909523D01*
X81664342Y-114909523D02*
X81759580Y-114861904D01*
X81759580Y-114861904D02*
X81807200Y-114814285D01*
X81807200Y-114814285D02*
X81854819Y-114719047D01*
X81854819Y-114719047D02*
X81854819Y-114528571D01*
X81854819Y-114528571D02*
X81807200Y-114433333D01*
X81807200Y-114433333D02*
X81759580Y-114385714D01*
X81759580Y-114385714D02*
X81664342Y-114338095D01*
X81664342Y-114338095D02*
X81426247Y-114338095D01*
X81426247Y-114338095D02*
X81331009Y-114385714D01*
X81331009Y-114385714D02*
X81283390Y-114433333D01*
X81283390Y-114433333D02*
X81235771Y-114528571D01*
X81235771Y-114528571D02*
X81235771Y-114719047D01*
X81235771Y-114719047D02*
X81283390Y-114814285D01*
X81283390Y-114814285D02*
X81331009Y-114861904D01*
X81331009Y-114861904D02*
X81426247Y-114909523D01*
X72654819Y-113442857D02*
X72178628Y-113776190D01*
X72654819Y-114014285D02*
X71654819Y-114014285D01*
X71654819Y-114014285D02*
X71654819Y-113633333D01*
X71654819Y-113633333D02*
X71702438Y-113538095D01*
X71702438Y-113538095D02*
X71750057Y-113490476D01*
X71750057Y-113490476D02*
X71845295Y-113442857D01*
X71845295Y-113442857D02*
X71988152Y-113442857D01*
X71988152Y-113442857D02*
X72083390Y-113490476D01*
X72083390Y-113490476D02*
X72131009Y-113538095D01*
X72131009Y-113538095D02*
X72178628Y-113633333D01*
X72178628Y-113633333D02*
X72178628Y-114014285D01*
X72654819Y-112490476D02*
X72654819Y-113061904D01*
X72654819Y-112776190D02*
X71654819Y-112776190D01*
X71654819Y-112776190D02*
X71797676Y-112871428D01*
X71797676Y-112871428D02*
X71892914Y-112966666D01*
X71892914Y-112966666D02*
X71940533Y-113061904D01*
X72654819Y-111538095D02*
X72654819Y-112109523D01*
X72654819Y-111823809D02*
X71654819Y-111823809D01*
X71654819Y-111823809D02*
X71797676Y-111919047D01*
X71797676Y-111919047D02*
X71892914Y-112014285D01*
X71892914Y-112014285D02*
X71940533Y-112109523D01*
X57084819Y-80396666D02*
X56608628Y-80729999D01*
X57084819Y-80968094D02*
X56084819Y-80968094D01*
X56084819Y-80968094D02*
X56084819Y-80587142D01*
X56084819Y-80587142D02*
X56132438Y-80491904D01*
X56132438Y-80491904D02*
X56180057Y-80444285D01*
X56180057Y-80444285D02*
X56275295Y-80396666D01*
X56275295Y-80396666D02*
X56418152Y-80396666D01*
X56418152Y-80396666D02*
X56513390Y-80444285D01*
X56513390Y-80444285D02*
X56561009Y-80491904D01*
X56561009Y-80491904D02*
X56608628Y-80587142D01*
X56608628Y-80587142D02*
X56608628Y-80968094D01*
X57084819Y-79920475D02*
X57084819Y-79729999D01*
X57084819Y-79729999D02*
X57037200Y-79634761D01*
X57037200Y-79634761D02*
X56989580Y-79587142D01*
X56989580Y-79587142D02*
X56846723Y-79491904D01*
X56846723Y-79491904D02*
X56656247Y-79444285D01*
X56656247Y-79444285D02*
X56275295Y-79444285D01*
X56275295Y-79444285D02*
X56180057Y-79491904D01*
X56180057Y-79491904D02*
X56132438Y-79539523D01*
X56132438Y-79539523D02*
X56084819Y-79634761D01*
X56084819Y-79634761D02*
X56084819Y-79825237D01*
X56084819Y-79825237D02*
X56132438Y-79920475D01*
X56132438Y-79920475D02*
X56180057Y-79968094D01*
X56180057Y-79968094D02*
X56275295Y-80015713D01*
X56275295Y-80015713D02*
X56513390Y-80015713D01*
X56513390Y-80015713D02*
X56608628Y-79968094D01*
X56608628Y-79968094D02*
X56656247Y-79920475D01*
X56656247Y-79920475D02*
X56703866Y-79825237D01*
X56703866Y-79825237D02*
X56703866Y-79634761D01*
X56703866Y-79634761D02*
X56656247Y-79539523D01*
X56656247Y-79539523D02*
X56608628Y-79491904D01*
X56608628Y-79491904D02*
X56513390Y-79444285D01*
X88374819Y-109529166D02*
X87898628Y-109862499D01*
X88374819Y-110100594D02*
X87374819Y-110100594D01*
X87374819Y-110100594D02*
X87374819Y-109719642D01*
X87374819Y-109719642D02*
X87422438Y-109624404D01*
X87422438Y-109624404D02*
X87470057Y-109576785D01*
X87470057Y-109576785D02*
X87565295Y-109529166D01*
X87565295Y-109529166D02*
X87708152Y-109529166D01*
X87708152Y-109529166D02*
X87803390Y-109576785D01*
X87803390Y-109576785D02*
X87851009Y-109624404D01*
X87851009Y-109624404D02*
X87898628Y-109719642D01*
X87898628Y-109719642D02*
X87898628Y-110100594D01*
X87803390Y-108957737D02*
X87755771Y-109052975D01*
X87755771Y-109052975D02*
X87708152Y-109100594D01*
X87708152Y-109100594D02*
X87612914Y-109148213D01*
X87612914Y-109148213D02*
X87565295Y-109148213D01*
X87565295Y-109148213D02*
X87470057Y-109100594D01*
X87470057Y-109100594D02*
X87422438Y-109052975D01*
X87422438Y-109052975D02*
X87374819Y-108957737D01*
X87374819Y-108957737D02*
X87374819Y-108767261D01*
X87374819Y-108767261D02*
X87422438Y-108672023D01*
X87422438Y-108672023D02*
X87470057Y-108624404D01*
X87470057Y-108624404D02*
X87565295Y-108576785D01*
X87565295Y-108576785D02*
X87612914Y-108576785D01*
X87612914Y-108576785D02*
X87708152Y-108624404D01*
X87708152Y-108624404D02*
X87755771Y-108672023D01*
X87755771Y-108672023D02*
X87803390Y-108767261D01*
X87803390Y-108767261D02*
X87803390Y-108957737D01*
X87803390Y-108957737D02*
X87851009Y-109052975D01*
X87851009Y-109052975D02*
X87898628Y-109100594D01*
X87898628Y-109100594D02*
X87993866Y-109148213D01*
X87993866Y-109148213D02*
X88184342Y-109148213D01*
X88184342Y-109148213D02*
X88279580Y-109100594D01*
X88279580Y-109100594D02*
X88327200Y-109052975D01*
X88327200Y-109052975D02*
X88374819Y-108957737D01*
X88374819Y-108957737D02*
X88374819Y-108767261D01*
X88374819Y-108767261D02*
X88327200Y-108672023D01*
X88327200Y-108672023D02*
X88279580Y-108624404D01*
X88279580Y-108624404D02*
X88184342Y-108576785D01*
X88184342Y-108576785D02*
X87993866Y-108576785D01*
X87993866Y-108576785D02*
X87898628Y-108624404D01*
X87898628Y-108624404D02*
X87851009Y-108672023D01*
X87851009Y-108672023D02*
X87803390Y-108767261D01*
X82333333Y-110954819D02*
X82000000Y-110478628D01*
X81761905Y-110954819D02*
X81761905Y-109954819D01*
X81761905Y-109954819D02*
X82142857Y-109954819D01*
X82142857Y-109954819D02*
X82238095Y-110002438D01*
X82238095Y-110002438D02*
X82285714Y-110050057D01*
X82285714Y-110050057D02*
X82333333Y-110145295D01*
X82333333Y-110145295D02*
X82333333Y-110288152D01*
X82333333Y-110288152D02*
X82285714Y-110383390D01*
X82285714Y-110383390D02*
X82238095Y-110431009D01*
X82238095Y-110431009D02*
X82142857Y-110478628D01*
X82142857Y-110478628D02*
X81761905Y-110478628D01*
X82666667Y-109954819D02*
X83333333Y-109954819D01*
X83333333Y-109954819D02*
X82904762Y-110954819D01*
X58833333Y-132454819D02*
X58500000Y-131978628D01*
X58261905Y-132454819D02*
X58261905Y-131454819D01*
X58261905Y-131454819D02*
X58642857Y-131454819D01*
X58642857Y-131454819D02*
X58738095Y-131502438D01*
X58738095Y-131502438D02*
X58785714Y-131550057D01*
X58785714Y-131550057D02*
X58833333Y-131645295D01*
X58833333Y-131645295D02*
X58833333Y-131788152D01*
X58833333Y-131788152D02*
X58785714Y-131883390D01*
X58785714Y-131883390D02*
X58738095Y-131931009D01*
X58738095Y-131931009D02*
X58642857Y-131978628D01*
X58642857Y-131978628D02*
X58261905Y-131978628D01*
X59785714Y-132454819D02*
X59214286Y-132454819D01*
X59500000Y-132454819D02*
X59500000Y-131454819D01*
X59500000Y-131454819D02*
X59404762Y-131597676D01*
X59404762Y-131597676D02*
X59309524Y-131692914D01*
X59309524Y-131692914D02*
X59214286Y-131740533D01*
X67150057Y-114895238D02*
X67102438Y-114990476D01*
X67102438Y-114990476D02*
X67007200Y-115085714D01*
X67007200Y-115085714D02*
X66864342Y-115228571D01*
X66864342Y-115228571D02*
X66816723Y-115323809D01*
X66816723Y-115323809D02*
X66816723Y-115419047D01*
X67054819Y-115371428D02*
X67007200Y-115466666D01*
X67007200Y-115466666D02*
X66911961Y-115561904D01*
X66911961Y-115561904D02*
X66721485Y-115609523D01*
X66721485Y-115609523D02*
X66388152Y-115609523D01*
X66388152Y-115609523D02*
X66197676Y-115561904D01*
X66197676Y-115561904D02*
X66102438Y-115466666D01*
X66102438Y-115466666D02*
X66054819Y-115371428D01*
X66054819Y-115371428D02*
X66054819Y-115180952D01*
X66054819Y-115180952D02*
X66102438Y-115085714D01*
X66102438Y-115085714D02*
X66197676Y-114990476D01*
X66197676Y-114990476D02*
X66388152Y-114942857D01*
X66388152Y-114942857D02*
X66721485Y-114942857D01*
X66721485Y-114942857D02*
X66911961Y-114990476D01*
X66911961Y-114990476D02*
X67007200Y-115085714D01*
X67007200Y-115085714D02*
X67054819Y-115180952D01*
X67054819Y-115180952D02*
X67054819Y-115371428D01*
X67054819Y-113990476D02*
X67054819Y-114561904D01*
X67054819Y-114276190D02*
X66054819Y-114276190D01*
X66054819Y-114276190D02*
X66197676Y-114371428D01*
X66197676Y-114371428D02*
X66292914Y-114466666D01*
X66292914Y-114466666D02*
X66340533Y-114561904D01*
X89166666Y-133954819D02*
X89166666Y-134669104D01*
X89166666Y-134669104D02*
X89119047Y-134811961D01*
X89119047Y-134811961D02*
X89023809Y-134907200D01*
X89023809Y-134907200D02*
X88880952Y-134954819D01*
X88880952Y-134954819D02*
X88785714Y-134954819D01*
X89595238Y-134050057D02*
X89642857Y-134002438D01*
X89642857Y-134002438D02*
X89738095Y-133954819D01*
X89738095Y-133954819D02*
X89976190Y-133954819D01*
X89976190Y-133954819D02*
X90071428Y-134002438D01*
X90071428Y-134002438D02*
X90119047Y-134050057D01*
X90119047Y-134050057D02*
X90166666Y-134145295D01*
X90166666Y-134145295D02*
X90166666Y-134240533D01*
X90166666Y-134240533D02*
X90119047Y-134383390D01*
X90119047Y-134383390D02*
X89547619Y-134954819D01*
X89547619Y-134954819D02*
X90166666Y-134954819D01*
X53424819Y-137333333D02*
X54139104Y-137333333D01*
X54139104Y-137333333D02*
X54281961Y-137380952D01*
X54281961Y-137380952D02*
X54377200Y-137476190D01*
X54377200Y-137476190D02*
X54424819Y-137619047D01*
X54424819Y-137619047D02*
X54424819Y-137714285D01*
X54424819Y-136333333D02*
X54424819Y-136904761D01*
X54424819Y-136619047D02*
X53424819Y-136619047D01*
X53424819Y-136619047D02*
X53567676Y-136714285D01*
X53567676Y-136714285D02*
X53662914Y-136809523D01*
X53662914Y-136809523D02*
X53710533Y-136904761D01*
X89204819Y-122738094D02*
X88204819Y-122738094D01*
X88204819Y-122738094D02*
X88204819Y-122499999D01*
X88204819Y-122499999D02*
X88252438Y-122357142D01*
X88252438Y-122357142D02*
X88347676Y-122261904D01*
X88347676Y-122261904D02*
X88442914Y-122214285D01*
X88442914Y-122214285D02*
X88633390Y-122166666D01*
X88633390Y-122166666D02*
X88776247Y-122166666D01*
X88776247Y-122166666D02*
X88966723Y-122214285D01*
X88966723Y-122214285D02*
X89061961Y-122261904D01*
X89061961Y-122261904D02*
X89157200Y-122357142D01*
X89157200Y-122357142D02*
X89204819Y-122499999D01*
X89204819Y-122499999D02*
X89204819Y-122738094D01*
X88204819Y-121261904D02*
X88204819Y-121738094D01*
X88204819Y-121738094D02*
X88681009Y-121785713D01*
X88681009Y-121785713D02*
X88633390Y-121738094D01*
X88633390Y-121738094D02*
X88585771Y-121642856D01*
X88585771Y-121642856D02*
X88585771Y-121404761D01*
X88585771Y-121404761D02*
X88633390Y-121309523D01*
X88633390Y-121309523D02*
X88681009Y-121261904D01*
X88681009Y-121261904D02*
X88776247Y-121214285D01*
X88776247Y-121214285D02*
X89014342Y-121214285D01*
X89014342Y-121214285D02*
X89109580Y-121261904D01*
X89109580Y-121261904D02*
X89157200Y-121309523D01*
X89157200Y-121309523D02*
X89204819Y-121404761D01*
X89204819Y-121404761D02*
X89204819Y-121642856D01*
X89204819Y-121642856D02*
X89157200Y-121738094D01*
X89157200Y-121738094D02*
X89109580Y-121785713D01*
X77661905Y-116714819D02*
X77661905Y-115714819D01*
X77661905Y-115714819D02*
X77900000Y-115714819D01*
X77900000Y-115714819D02*
X78042857Y-115762438D01*
X78042857Y-115762438D02*
X78138095Y-115857676D01*
X78138095Y-115857676D02*
X78185714Y-115952914D01*
X78185714Y-115952914D02*
X78233333Y-116143390D01*
X78233333Y-116143390D02*
X78233333Y-116286247D01*
X78233333Y-116286247D02*
X78185714Y-116476723D01*
X78185714Y-116476723D02*
X78138095Y-116571961D01*
X78138095Y-116571961D02*
X78042857Y-116667200D01*
X78042857Y-116667200D02*
X77900000Y-116714819D01*
X77900000Y-116714819D02*
X77661905Y-116714819D01*
X79090476Y-116048152D02*
X79090476Y-116714819D01*
X78852381Y-115667200D02*
X78614286Y-116381485D01*
X78614286Y-116381485D02*
X79233333Y-116381485D01*
X81061905Y-100917319D02*
X81061905Y-99917319D01*
X81061905Y-99917319D02*
X81300000Y-99917319D01*
X81300000Y-99917319D02*
X81442857Y-99964938D01*
X81442857Y-99964938D02*
X81538095Y-100060176D01*
X81538095Y-100060176D02*
X81585714Y-100155414D01*
X81585714Y-100155414D02*
X81633333Y-100345890D01*
X81633333Y-100345890D02*
X81633333Y-100488747D01*
X81633333Y-100488747D02*
X81585714Y-100679223D01*
X81585714Y-100679223D02*
X81538095Y-100774461D01*
X81538095Y-100774461D02*
X81442857Y-100869700D01*
X81442857Y-100869700D02*
X81300000Y-100917319D01*
X81300000Y-100917319D02*
X81061905Y-100917319D01*
X82014286Y-100012557D02*
X82061905Y-99964938D01*
X82061905Y-99964938D02*
X82157143Y-99917319D01*
X82157143Y-99917319D02*
X82395238Y-99917319D01*
X82395238Y-99917319D02*
X82490476Y-99964938D01*
X82490476Y-99964938D02*
X82538095Y-100012557D01*
X82538095Y-100012557D02*
X82585714Y-100107795D01*
X82585714Y-100107795D02*
X82585714Y-100203033D01*
X82585714Y-100203033D02*
X82538095Y-100345890D01*
X82538095Y-100345890D02*
X81966667Y-100917319D01*
X81966667Y-100917319D02*
X82585714Y-100917319D01*
X81057142Y-132559580D02*
X81009523Y-132607200D01*
X81009523Y-132607200D02*
X80866666Y-132654819D01*
X80866666Y-132654819D02*
X80771428Y-132654819D01*
X80771428Y-132654819D02*
X80628571Y-132607200D01*
X80628571Y-132607200D02*
X80533333Y-132511961D01*
X80533333Y-132511961D02*
X80485714Y-132416723D01*
X80485714Y-132416723D02*
X80438095Y-132226247D01*
X80438095Y-132226247D02*
X80438095Y-132083390D01*
X80438095Y-132083390D02*
X80485714Y-131892914D01*
X80485714Y-131892914D02*
X80533333Y-131797676D01*
X80533333Y-131797676D02*
X80628571Y-131702438D01*
X80628571Y-131702438D02*
X80771428Y-131654819D01*
X80771428Y-131654819D02*
X80866666Y-131654819D01*
X80866666Y-131654819D02*
X81009523Y-131702438D01*
X81009523Y-131702438D02*
X81057142Y-131750057D01*
X82009523Y-132654819D02*
X81438095Y-132654819D01*
X81723809Y-132654819D02*
X81723809Y-131654819D01*
X81723809Y-131654819D02*
X81628571Y-131797676D01*
X81628571Y-131797676D02*
X81533333Y-131892914D01*
X81533333Y-131892914D02*
X81438095Y-131940533D01*
X82914285Y-131654819D02*
X82438095Y-131654819D01*
X82438095Y-131654819D02*
X82390476Y-132131009D01*
X82390476Y-132131009D02*
X82438095Y-132083390D01*
X82438095Y-132083390D02*
X82533333Y-132035771D01*
X82533333Y-132035771D02*
X82771428Y-132035771D01*
X82771428Y-132035771D02*
X82866666Y-132083390D01*
X82866666Y-132083390D02*
X82914285Y-132131009D01*
X82914285Y-132131009D02*
X82961904Y-132226247D01*
X82961904Y-132226247D02*
X82961904Y-132464342D01*
X82961904Y-132464342D02*
X82914285Y-132559580D01*
X82914285Y-132559580D02*
X82866666Y-132607200D01*
X82866666Y-132607200D02*
X82771428Y-132654819D01*
X82771428Y-132654819D02*
X82533333Y-132654819D01*
X82533333Y-132654819D02*
X82438095Y-132607200D01*
X82438095Y-132607200D02*
X82390476Y-132559580D01*
X79357142Y-118759580D02*
X79309523Y-118807200D01*
X79309523Y-118807200D02*
X79166666Y-118854819D01*
X79166666Y-118854819D02*
X79071428Y-118854819D01*
X79071428Y-118854819D02*
X78928571Y-118807200D01*
X78928571Y-118807200D02*
X78833333Y-118711961D01*
X78833333Y-118711961D02*
X78785714Y-118616723D01*
X78785714Y-118616723D02*
X78738095Y-118426247D01*
X78738095Y-118426247D02*
X78738095Y-118283390D01*
X78738095Y-118283390D02*
X78785714Y-118092914D01*
X78785714Y-118092914D02*
X78833333Y-117997676D01*
X78833333Y-117997676D02*
X78928571Y-117902438D01*
X78928571Y-117902438D02*
X79071428Y-117854819D01*
X79071428Y-117854819D02*
X79166666Y-117854819D01*
X79166666Y-117854819D02*
X79309523Y-117902438D01*
X79309523Y-117902438D02*
X79357142Y-117950057D01*
X80309523Y-118854819D02*
X79738095Y-118854819D01*
X80023809Y-118854819D02*
X80023809Y-117854819D01*
X80023809Y-117854819D02*
X79928571Y-117997676D01*
X79928571Y-117997676D02*
X79833333Y-118092914D01*
X79833333Y-118092914D02*
X79738095Y-118140533D01*
X81166666Y-118188152D02*
X81166666Y-118854819D01*
X80928571Y-117807200D02*
X80690476Y-118521485D01*
X80690476Y-118521485D02*
X81309523Y-118521485D01*
X84359580Y-123642857D02*
X84407200Y-123690476D01*
X84407200Y-123690476D02*
X84454819Y-123833333D01*
X84454819Y-123833333D02*
X84454819Y-123928571D01*
X84454819Y-123928571D02*
X84407200Y-124071428D01*
X84407200Y-124071428D02*
X84311961Y-124166666D01*
X84311961Y-124166666D02*
X84216723Y-124214285D01*
X84216723Y-124214285D02*
X84026247Y-124261904D01*
X84026247Y-124261904D02*
X83883390Y-124261904D01*
X83883390Y-124261904D02*
X83692914Y-124214285D01*
X83692914Y-124214285D02*
X83597676Y-124166666D01*
X83597676Y-124166666D02*
X83502438Y-124071428D01*
X83502438Y-124071428D02*
X83454819Y-123928571D01*
X83454819Y-123928571D02*
X83454819Y-123833333D01*
X83454819Y-123833333D02*
X83502438Y-123690476D01*
X83502438Y-123690476D02*
X83550057Y-123642857D01*
X84454819Y-122690476D02*
X84454819Y-123261904D01*
X84454819Y-122976190D02*
X83454819Y-122976190D01*
X83454819Y-122976190D02*
X83597676Y-123071428D01*
X83597676Y-123071428D02*
X83692914Y-123166666D01*
X83692914Y-123166666D02*
X83740533Y-123261904D01*
X83454819Y-122357142D02*
X83454819Y-121738095D01*
X83454819Y-121738095D02*
X83835771Y-122071428D01*
X83835771Y-122071428D02*
X83835771Y-121928571D01*
X83835771Y-121928571D02*
X83883390Y-121833333D01*
X83883390Y-121833333D02*
X83931009Y-121785714D01*
X83931009Y-121785714D02*
X84026247Y-121738095D01*
X84026247Y-121738095D02*
X84264342Y-121738095D01*
X84264342Y-121738095D02*
X84359580Y-121785714D01*
X84359580Y-121785714D02*
X84407200Y-121833333D01*
X84407200Y-121833333D02*
X84454819Y-121928571D01*
X84454819Y-121928571D02*
X84454819Y-122214285D01*
X84454819Y-122214285D02*
X84407200Y-122309523D01*
X84407200Y-122309523D02*
X84359580Y-122357142D01*
X92607142Y-117359580D02*
X92559523Y-117407200D01*
X92559523Y-117407200D02*
X92416666Y-117454819D01*
X92416666Y-117454819D02*
X92321428Y-117454819D01*
X92321428Y-117454819D02*
X92178571Y-117407200D01*
X92178571Y-117407200D02*
X92083333Y-117311961D01*
X92083333Y-117311961D02*
X92035714Y-117216723D01*
X92035714Y-117216723D02*
X91988095Y-117026247D01*
X91988095Y-117026247D02*
X91988095Y-116883390D01*
X91988095Y-116883390D02*
X92035714Y-116692914D01*
X92035714Y-116692914D02*
X92083333Y-116597676D01*
X92083333Y-116597676D02*
X92178571Y-116502438D01*
X92178571Y-116502438D02*
X92321428Y-116454819D01*
X92321428Y-116454819D02*
X92416666Y-116454819D01*
X92416666Y-116454819D02*
X92559523Y-116502438D01*
X92559523Y-116502438D02*
X92607142Y-116550057D01*
X93559523Y-117454819D02*
X92988095Y-117454819D01*
X93273809Y-117454819D02*
X93273809Y-116454819D01*
X93273809Y-116454819D02*
X93178571Y-116597676D01*
X93178571Y-116597676D02*
X93083333Y-116692914D01*
X93083333Y-116692914D02*
X92988095Y-116740533D01*
X93940476Y-116550057D02*
X93988095Y-116502438D01*
X93988095Y-116502438D02*
X94083333Y-116454819D01*
X94083333Y-116454819D02*
X94321428Y-116454819D01*
X94321428Y-116454819D02*
X94416666Y-116502438D01*
X94416666Y-116502438D02*
X94464285Y-116550057D01*
X94464285Y-116550057D02*
X94511904Y-116645295D01*
X94511904Y-116645295D02*
X94511904Y-116740533D01*
X94511904Y-116740533D02*
X94464285Y-116883390D01*
X94464285Y-116883390D02*
X93892857Y-117454819D01*
X93892857Y-117454819D02*
X94511904Y-117454819D01*
X92557142Y-118759580D02*
X92509523Y-118807200D01*
X92509523Y-118807200D02*
X92366666Y-118854819D01*
X92366666Y-118854819D02*
X92271428Y-118854819D01*
X92271428Y-118854819D02*
X92128571Y-118807200D01*
X92128571Y-118807200D02*
X92033333Y-118711961D01*
X92033333Y-118711961D02*
X91985714Y-118616723D01*
X91985714Y-118616723D02*
X91938095Y-118426247D01*
X91938095Y-118426247D02*
X91938095Y-118283390D01*
X91938095Y-118283390D02*
X91985714Y-118092914D01*
X91985714Y-118092914D02*
X92033333Y-117997676D01*
X92033333Y-117997676D02*
X92128571Y-117902438D01*
X92128571Y-117902438D02*
X92271428Y-117854819D01*
X92271428Y-117854819D02*
X92366666Y-117854819D01*
X92366666Y-117854819D02*
X92509523Y-117902438D01*
X92509523Y-117902438D02*
X92557142Y-117950057D01*
X93509523Y-118854819D02*
X92938095Y-118854819D01*
X93223809Y-118854819D02*
X93223809Y-117854819D01*
X93223809Y-117854819D02*
X93128571Y-117997676D01*
X93128571Y-117997676D02*
X93033333Y-118092914D01*
X93033333Y-118092914D02*
X92938095Y-118140533D01*
X94461904Y-118854819D02*
X93890476Y-118854819D01*
X94176190Y-118854819D02*
X94176190Y-117854819D01*
X94176190Y-117854819D02*
X94080952Y-117997676D01*
X94080952Y-117997676D02*
X93985714Y-118092914D01*
X93985714Y-118092914D02*
X93890476Y-118140533D01*
X75359580Y-100166666D02*
X75407200Y-100214285D01*
X75407200Y-100214285D02*
X75454819Y-100357142D01*
X75454819Y-100357142D02*
X75454819Y-100452380D01*
X75454819Y-100452380D02*
X75407200Y-100595237D01*
X75407200Y-100595237D02*
X75311961Y-100690475D01*
X75311961Y-100690475D02*
X75216723Y-100738094D01*
X75216723Y-100738094D02*
X75026247Y-100785713D01*
X75026247Y-100785713D02*
X74883390Y-100785713D01*
X74883390Y-100785713D02*
X74692914Y-100738094D01*
X74692914Y-100738094D02*
X74597676Y-100690475D01*
X74597676Y-100690475D02*
X74502438Y-100595237D01*
X74502438Y-100595237D02*
X74454819Y-100452380D01*
X74454819Y-100452380D02*
X74454819Y-100357142D01*
X74454819Y-100357142D02*
X74502438Y-100214285D01*
X74502438Y-100214285D02*
X74550057Y-100166666D01*
X75454819Y-99690475D02*
X75454819Y-99499999D01*
X75454819Y-99499999D02*
X75407200Y-99404761D01*
X75407200Y-99404761D02*
X75359580Y-99357142D01*
X75359580Y-99357142D02*
X75216723Y-99261904D01*
X75216723Y-99261904D02*
X75026247Y-99214285D01*
X75026247Y-99214285D02*
X74645295Y-99214285D01*
X74645295Y-99214285D02*
X74550057Y-99261904D01*
X74550057Y-99261904D02*
X74502438Y-99309523D01*
X74502438Y-99309523D02*
X74454819Y-99404761D01*
X74454819Y-99404761D02*
X74454819Y-99595237D01*
X74454819Y-99595237D02*
X74502438Y-99690475D01*
X74502438Y-99690475D02*
X74550057Y-99738094D01*
X74550057Y-99738094D02*
X74645295Y-99785713D01*
X74645295Y-99785713D02*
X74883390Y-99785713D01*
X74883390Y-99785713D02*
X74978628Y-99738094D01*
X74978628Y-99738094D02*
X75026247Y-99690475D01*
X75026247Y-99690475D02*
X75073866Y-99595237D01*
X75073866Y-99595237D02*
X75073866Y-99404761D01*
X75073866Y-99404761D02*
X75026247Y-99309523D01*
X75026247Y-99309523D02*
X74978628Y-99261904D01*
X74978628Y-99261904D02*
X74883390Y-99214285D01*
X58809580Y-100666666D02*
X58857200Y-100714285D01*
X58857200Y-100714285D02*
X58904819Y-100857142D01*
X58904819Y-100857142D02*
X58904819Y-100952380D01*
X58904819Y-100952380D02*
X58857200Y-101095237D01*
X58857200Y-101095237D02*
X58761961Y-101190475D01*
X58761961Y-101190475D02*
X58666723Y-101238094D01*
X58666723Y-101238094D02*
X58476247Y-101285713D01*
X58476247Y-101285713D02*
X58333390Y-101285713D01*
X58333390Y-101285713D02*
X58142914Y-101238094D01*
X58142914Y-101238094D02*
X58047676Y-101190475D01*
X58047676Y-101190475D02*
X57952438Y-101095237D01*
X57952438Y-101095237D02*
X57904819Y-100952380D01*
X57904819Y-100952380D02*
X57904819Y-100857142D01*
X57904819Y-100857142D02*
X57952438Y-100714285D01*
X57952438Y-100714285D02*
X58000057Y-100666666D01*
X58238152Y-99809523D02*
X58904819Y-99809523D01*
X57857200Y-100047618D02*
X58571485Y-100285713D01*
X58571485Y-100285713D02*
X58571485Y-99666666D01*
X86759580Y-106966666D02*
X86807200Y-107014285D01*
X86807200Y-107014285D02*
X86854819Y-107157142D01*
X86854819Y-107157142D02*
X86854819Y-107252380D01*
X86854819Y-107252380D02*
X86807200Y-107395237D01*
X86807200Y-107395237D02*
X86711961Y-107490475D01*
X86711961Y-107490475D02*
X86616723Y-107538094D01*
X86616723Y-107538094D02*
X86426247Y-107585713D01*
X86426247Y-107585713D02*
X86283390Y-107585713D01*
X86283390Y-107585713D02*
X86092914Y-107538094D01*
X86092914Y-107538094D02*
X85997676Y-107490475D01*
X85997676Y-107490475D02*
X85902438Y-107395237D01*
X85902438Y-107395237D02*
X85854819Y-107252380D01*
X85854819Y-107252380D02*
X85854819Y-107157142D01*
X85854819Y-107157142D02*
X85902438Y-107014285D01*
X85902438Y-107014285D02*
X85950057Y-106966666D01*
X85854819Y-106633332D02*
X85854819Y-106014285D01*
X85854819Y-106014285D02*
X86235771Y-106347618D01*
X86235771Y-106347618D02*
X86235771Y-106204761D01*
X86235771Y-106204761D02*
X86283390Y-106109523D01*
X86283390Y-106109523D02*
X86331009Y-106061904D01*
X86331009Y-106061904D02*
X86426247Y-106014285D01*
X86426247Y-106014285D02*
X86664342Y-106014285D01*
X86664342Y-106014285D02*
X86759580Y-106061904D01*
X86759580Y-106061904D02*
X86807200Y-106109523D01*
X86807200Y-106109523D02*
X86854819Y-106204761D01*
X86854819Y-106204761D02*
X86854819Y-106490475D01*
X86854819Y-106490475D02*
X86807200Y-106585713D01*
X86807200Y-106585713D02*
X86759580Y-106633332D01*
X93433333Y-110439580D02*
X93385714Y-110487200D01*
X93385714Y-110487200D02*
X93242857Y-110534819D01*
X93242857Y-110534819D02*
X93147619Y-110534819D01*
X93147619Y-110534819D02*
X93004762Y-110487200D01*
X93004762Y-110487200D02*
X92909524Y-110391961D01*
X92909524Y-110391961D02*
X92861905Y-110296723D01*
X92861905Y-110296723D02*
X92814286Y-110106247D01*
X92814286Y-110106247D02*
X92814286Y-109963390D01*
X92814286Y-109963390D02*
X92861905Y-109772914D01*
X92861905Y-109772914D02*
X92909524Y-109677676D01*
X92909524Y-109677676D02*
X93004762Y-109582438D01*
X93004762Y-109582438D02*
X93147619Y-109534819D01*
X93147619Y-109534819D02*
X93242857Y-109534819D01*
X93242857Y-109534819D02*
X93385714Y-109582438D01*
X93385714Y-109582438D02*
X93433333Y-109630057D01*
X93814286Y-109630057D02*
X93861905Y-109582438D01*
X93861905Y-109582438D02*
X93957143Y-109534819D01*
X93957143Y-109534819D02*
X94195238Y-109534819D01*
X94195238Y-109534819D02*
X94290476Y-109582438D01*
X94290476Y-109582438D02*
X94338095Y-109630057D01*
X94338095Y-109630057D02*
X94385714Y-109725295D01*
X94385714Y-109725295D02*
X94385714Y-109820533D01*
X94385714Y-109820533D02*
X94338095Y-109963390D01*
X94338095Y-109963390D02*
X93766667Y-110534819D01*
X93766667Y-110534819D02*
X94385714Y-110534819D01*
D11*
%TO.C,J3*%
X62490000Y-129860000D02*
X62490000Y-121780000D01*
X69510000Y-129860000D02*
X62490000Y-129860000D01*
X69510000Y-121780000D02*
X69510000Y-122980000D01*
X62490000Y-121780000D02*
X69510000Y-121780000D01*
X67700000Y-120980000D02*
X67400000Y-121580000D01*
X69510000Y-128660000D02*
X69510000Y-129860000D01*
X67100000Y-120980000D02*
X67700000Y-120980000D01*
X71210000Y-122980000D02*
X71210000Y-128660000D01*
X71210000Y-128660000D02*
X69510000Y-128660000D01*
X67400000Y-121580000D02*
X67100000Y-120980000D01*
X69510000Y-122980000D02*
X71210000Y-122980000D01*
D12*
%TO.C,K1*%
X62200000Y-129950000D02*
X55300000Y-129950000D01*
X55300000Y-129950000D02*
X55300000Y-109350000D01*
X55300000Y-109350000D02*
X62200000Y-109350000D01*
X62200000Y-109350000D02*
X62200000Y-129950000D01*
D11*
%TO.C,L1*%
X82870000Y-104962500D02*
G75*
G03*
X82870000Y-104962500I-4470000J0D01*
G01*
%TO.C,C1*%
X89941651Y-94467000D02*
X89941651Y-86533000D01*
X87101651Y-92052000D02*
X87101651Y-88948000D01*
X87421651Y-92666000D02*
X87421651Y-91540000D01*
X89221651Y-89460000D02*
X89221651Y-86778000D01*
X88061651Y-93445000D02*
X88061651Y-91540000D01*
X90101651Y-94502000D02*
X90101651Y-86498000D01*
X88901651Y-89460000D02*
X88901651Y-86938000D01*
X89901651Y-94457000D02*
X89901651Y-86543000D01*
X88661651Y-89460000D02*
X88661651Y-87082000D01*
X89421651Y-94305000D02*
X89421651Y-91540000D01*
X88301651Y-89460000D02*
X88301651Y-87344000D01*
X87061651Y-91953000D02*
X87061651Y-89047000D01*
X90061651Y-94494000D02*
X90061651Y-86506000D01*
X90662651Y-94574000D02*
X90662651Y-86426000D01*
X87301651Y-92464000D02*
X87301651Y-88536000D01*
X90422651Y-94552000D02*
X90422651Y-86448000D01*
X87821651Y-89460000D02*
X87821651Y-87803000D01*
X87701651Y-89460000D02*
X87701651Y-87944000D01*
X86821651Y-91033000D02*
X86821651Y-89967000D01*
X88021651Y-89460000D02*
X88021651Y-87593000D01*
X88581651Y-89460000D02*
X88581651Y-87135000D01*
X90462651Y-94557000D02*
X90462651Y-86443000D01*
X90822651Y-94580000D02*
X90822651Y-86420000D01*
X88541651Y-89460000D02*
X88541651Y-87162000D01*
X88861651Y-94040000D02*
X88861651Y-91540000D01*
X87781651Y-93151000D02*
X87781651Y-91540000D01*
X87501651Y-92787000D02*
X87501651Y-91540000D01*
X87701651Y-93056000D02*
X87701651Y-91540000D01*
X88661651Y-93918000D02*
X88661651Y-91540000D01*
X88221651Y-89460000D02*
X88221651Y-87410000D01*
X87861651Y-93241000D02*
X87861651Y-91540000D01*
X89421651Y-89460000D02*
X89421651Y-86695000D01*
X86981651Y-91729000D02*
X86981651Y-89271000D01*
X89701651Y-94402000D02*
X89701651Y-86598000D01*
X89181651Y-94204000D02*
X89181651Y-91540000D01*
X88301651Y-93656000D02*
X88301651Y-91540000D01*
X95312349Y-92815000D02*
X94512349Y-92815000D01*
X90021651Y-94485000D02*
X90021651Y-86515000D01*
X89621651Y-94377000D02*
X89621651Y-86623000D01*
X90262651Y-94530000D02*
X90262651Y-86470000D01*
X89301651Y-94257000D02*
X89301651Y-91540000D01*
X88181651Y-93555000D02*
X88181651Y-91540000D01*
X87381651Y-92602000D02*
X87381651Y-91540000D01*
X89741651Y-94414000D02*
X89741651Y-86586000D01*
X88541651Y-93838000D02*
X88541651Y-91540000D01*
X86901651Y-91448000D02*
X86901651Y-89552000D01*
X89141651Y-94186000D02*
X89141651Y-91540000D01*
X87221651Y-92313000D02*
X87221651Y-88687000D01*
X88781651Y-89460000D02*
X88781651Y-87007000D01*
X89581651Y-94363000D02*
X89581651Y-86637000D01*
X89061651Y-94147000D02*
X89061651Y-91540000D01*
X88061651Y-89460000D02*
X88061651Y-87555000D01*
X87021651Y-91846000D02*
X87021651Y-89154000D01*
X88821651Y-89460000D02*
X88821651Y-86983000D01*
X94912349Y-93215000D02*
X94912349Y-92415000D01*
X88621651Y-93892000D02*
X88621651Y-91540000D01*
X89221651Y-94222000D02*
X89221651Y-91540000D01*
X89261651Y-89460000D02*
X89261651Y-86760000D01*
X89821651Y-94436000D02*
X89821651Y-86564000D01*
X88741651Y-89460000D02*
X88741651Y-87031000D01*
X88181651Y-89460000D02*
X88181651Y-87445000D01*
X88261651Y-93624000D02*
X88261651Y-91540000D01*
X90582651Y-94568000D02*
X90582651Y-86432000D01*
X89341651Y-89460000D02*
X89341651Y-86726000D01*
X87621651Y-92954000D02*
X87621651Y-91540000D01*
X87461651Y-89460000D02*
X87461651Y-88272000D01*
X89781651Y-94425000D02*
X89781651Y-86575000D01*
X87141651Y-92145000D02*
X87141651Y-88855000D01*
X88701651Y-93944000D02*
X88701651Y-91540000D01*
X90342651Y-94542000D02*
X90342651Y-86458000D01*
X88261651Y-89460000D02*
X88261651Y-87376000D01*
X87741651Y-93104000D02*
X87741651Y-91540000D01*
X87381651Y-89460000D02*
X87381651Y-88398000D01*
X86941651Y-91598000D02*
X86941651Y-89402000D01*
X88941651Y-94084000D02*
X88941651Y-91540000D01*
X88341651Y-93689000D02*
X88341651Y-91540000D01*
X89981651Y-94476000D02*
X89981651Y-86524000D01*
X87901651Y-93284000D02*
X87901651Y-91540000D01*
X89661651Y-94389000D02*
X89661651Y-86611000D01*
X86861651Y-91268000D02*
X86861651Y-89732000D01*
X89381651Y-89460000D02*
X89381651Y-86710000D01*
X88861651Y-89460000D02*
X88861651Y-86960000D01*
X88981651Y-94106000D02*
X88981651Y-91540000D01*
X88701651Y-89460000D02*
X88701651Y-87056000D01*
X89101651Y-89460000D02*
X89101651Y-86834000D01*
X88941651Y-89460000D02*
X88941651Y-86916000D01*
X88141651Y-89460000D02*
X88141651Y-87481000D01*
X87581651Y-89460000D02*
X87581651Y-88100000D01*
X90302651Y-94537000D02*
X90302651Y-86463000D01*
X89061651Y-89460000D02*
X89061651Y-86853000D01*
X89141651Y-89460000D02*
X89141651Y-86814000D01*
X89021651Y-89460000D02*
X89021651Y-86873000D01*
X90542651Y-94565000D02*
X90542651Y-86435000D01*
X90382651Y-94548000D02*
X90382651Y-86452000D01*
X87261651Y-92390000D02*
X87261651Y-88610000D01*
X90181651Y-94517000D02*
X90181651Y-86483000D01*
X89501651Y-94335000D02*
X89501651Y-86665000D01*
X88621651Y-89460000D02*
X88621651Y-87108000D01*
X88461651Y-89460000D02*
X88461651Y-87220000D01*
X88141651Y-93519000D02*
X88141651Y-91540000D01*
X89301651Y-89460000D02*
X89301651Y-86743000D01*
X87581651Y-92900000D02*
X87581651Y-91540000D01*
X88581651Y-93865000D02*
X88581651Y-91540000D01*
X89101651Y-94166000D02*
X89101651Y-91540000D01*
X90622651Y-94571000D02*
X90622651Y-86429000D01*
X88101651Y-93483000D02*
X88101651Y-91540000D01*
X87661651Y-89460000D02*
X87661651Y-87995000D01*
X89461651Y-94321000D02*
X89461651Y-86679000D01*
X90782651Y-94579000D02*
X90782651Y-86421000D01*
X87461651Y-92728000D02*
X87461651Y-91540000D01*
X87741651Y-89460000D02*
X87741651Y-87896000D01*
X88981651Y-89460000D02*
X88981651Y-86894000D01*
X90742651Y-94577000D02*
X90742651Y-86423000D01*
X88421651Y-89460000D02*
X88421651Y-87250000D01*
X89341651Y-94274000D02*
X89341651Y-91540000D01*
X88101651Y-89460000D02*
X88101651Y-87517000D01*
X88821651Y-94017000D02*
X88821651Y-91540000D01*
X87941651Y-93326000D02*
X87941651Y-91540000D01*
X89261651Y-94240000D02*
X89261651Y-91540000D01*
X87901651Y-89460000D02*
X87901651Y-87716000D01*
X87861651Y-89460000D02*
X87861651Y-87759000D01*
X90862651Y-94580000D02*
X90862651Y-86420000D01*
X90222651Y-94524000D02*
X90222651Y-86476000D01*
X89861651Y-94447000D02*
X89861651Y-86553000D01*
X87541651Y-89460000D02*
X87541651Y-88155000D01*
X88741651Y-93969000D02*
X88741651Y-91540000D01*
X90902651Y-94580000D02*
X90902651Y-86420000D01*
X88381651Y-93720000D02*
X88381651Y-91540000D01*
X87541651Y-92845000D02*
X87541651Y-91540000D01*
X88221651Y-93590000D02*
X88221651Y-91540000D01*
X87661651Y-93005000D02*
X87661651Y-91540000D01*
X87621651Y-89460000D02*
X87621651Y-88046000D01*
X88901651Y-94062000D02*
X88901651Y-91540000D01*
X89181651Y-89460000D02*
X89181651Y-86796000D01*
X87501651Y-89460000D02*
X87501651Y-88213000D01*
X90502651Y-94561000D02*
X90502651Y-86439000D01*
X87821651Y-93197000D02*
X87821651Y-91540000D01*
X87341651Y-92534000D02*
X87341651Y-88466000D01*
X88381651Y-89460000D02*
X88381651Y-87280000D01*
X88021651Y-93407000D02*
X88021651Y-91540000D01*
X88501651Y-89460000D02*
X88501651Y-87191000D01*
X89381651Y-94290000D02*
X89381651Y-91540000D01*
X87781651Y-89460000D02*
X87781651Y-87849000D01*
X90141651Y-94510000D02*
X90141651Y-86490000D01*
X87981651Y-89460000D02*
X87981651Y-87633000D01*
X88341651Y-89460000D02*
X88341651Y-87311000D01*
X87981651Y-93367000D02*
X87981651Y-91540000D01*
X87941651Y-89460000D02*
X87941651Y-87674000D01*
X88501651Y-93809000D02*
X88501651Y-91540000D01*
X88461651Y-93780000D02*
X88461651Y-91540000D01*
X90702651Y-94576000D02*
X90702651Y-86424000D01*
X88421651Y-93750000D02*
X88421651Y-91540000D01*
X89021651Y-94127000D02*
X89021651Y-91540000D01*
X88781651Y-93993000D02*
X88781651Y-91540000D01*
X87421651Y-89460000D02*
X87421651Y-88334000D01*
X87181651Y-92231000D02*
X87181651Y-88769000D01*
X89541651Y-94350000D02*
X89541651Y-86650000D01*
X95022651Y-90500000D02*
G75*
G03*
X95022651Y-90500000I-4120000J0D01*
G01*
%TO.C,U5*%
X84490000Y-118120000D02*
X84490000Y-120550000D01*
X87560000Y-119880000D02*
X87560000Y-118120000D01*
%TO.C,U3*%
X88460000Y-102200000D02*
G75*
G03*
X88460000Y-100200000I0J1000000D01*
G01*
X88460000Y-102200000D02*
X88460000Y-103650000D01*
X98740000Y-103650000D02*
X98740000Y-98750000D01*
X98740000Y-98750000D02*
X88460000Y-98750000D01*
X88460000Y-103650000D02*
X98740000Y-103650000D01*
X88460000Y-98750000D02*
X88460000Y-100200000D01*
%TO.C,U1*%
X75740000Y-121565000D02*
X74050000Y-121565000D01*
X81260000Y-128710000D02*
X81260000Y-128435000D01*
X78500000Y-121290000D02*
X81260000Y-121290000D01*
X75740000Y-121290000D02*
X75740000Y-121565000D01*
X81260000Y-121290000D02*
X81260000Y-121565000D01*
X78500000Y-128710000D02*
X81260000Y-128710000D01*
X78500000Y-128710000D02*
X75740000Y-128710000D01*
X78500000Y-121290000D02*
X75740000Y-121290000D01*
X75740000Y-128710000D02*
X75740000Y-128435000D01*
%TO.C,SW1*%
X96960000Y-119870000D02*
X95310000Y-119870000D01*
X91660000Y-119870000D02*
X91660000Y-130150000D01*
X96960000Y-130150000D02*
X96960000Y-119870000D01*
X93310000Y-119870000D02*
X91660000Y-119870000D01*
X91660000Y-130150000D02*
X96960000Y-130150000D01*
X93310000Y-119870000D02*
G75*
G03*
X95310000Y-119870000I1000000J0D01*
G01*
D10*
%TO.C,RV1*%
X80100000Y-74100000D02*
X80100000Y-77500000D01*
X73100000Y-74100000D02*
X73100000Y-77500000D01*
X73100000Y-74100000D02*
X80100000Y-74100000D01*
X73100000Y-77500000D02*
X80100000Y-77500000D01*
D11*
%TO.C,R19*%
X89738748Y-114735000D02*
X90261252Y-114735000D01*
X89738748Y-113265000D02*
X90261252Y-113265000D01*
%TO.C,R18*%
X85738748Y-113265000D02*
X86261252Y-113265000D01*
X85738748Y-114735000D02*
X86261252Y-114735000D01*
%TO.C,R17*%
X63838748Y-110165000D02*
X64361252Y-110165000D01*
X63838748Y-111635000D02*
X64361252Y-111635000D01*
%TO.C,R16*%
X82265000Y-115738748D02*
X82265000Y-116261252D01*
X83735000Y-115738748D02*
X83735000Y-116261252D01*
%TO.C,R11*%
X73265000Y-114261252D02*
X73265000Y-113738748D01*
X74735000Y-114261252D02*
X74735000Y-113738748D01*
%TO.C,R9*%
X59000000Y-80130000D02*
X59000000Y-80060000D01*
X60370000Y-81500000D02*
G75*
G03*
X60370000Y-81500000I-1370000J0D01*
G01*
%TO.C,R8*%
X90335000Y-109623752D02*
X90335000Y-109101248D01*
X88865000Y-109623752D02*
X88865000Y-109101248D01*
%TO.C,R7*%
X85461252Y-109965000D02*
X84938748Y-109965000D01*
X85461252Y-111435000D02*
X84938748Y-111435000D01*
%TO.C,R1*%
X60461252Y-134635000D02*
X59938748Y-134635000D01*
X60461252Y-133165000D02*
X59938748Y-133165000D01*
%TO.C,Q1*%
X62540000Y-114800000D02*
X62540000Y-116475000D01*
X62540000Y-114800000D02*
X62540000Y-114150000D01*
X65660000Y-114800000D02*
X65660000Y-115450000D01*
X65660000Y-114800000D02*
X65660000Y-114150000D01*
%TO.C,J2*%
X91000000Y-135540000D02*
X93060000Y-135540000D01*
X90000000Y-137660000D02*
X88940000Y-137660000D01*
X88940000Y-137660000D02*
X88940000Y-136600000D01*
X91000000Y-137660000D02*
X91000000Y-135540000D01*
X93060000Y-137660000D02*
X93060000Y-135540000D01*
X91000000Y-137660000D02*
X93060000Y-137660000D01*
%TO.C,J1*%
X57570000Y-138330000D02*
X70330000Y-138330000D01*
X56300000Y-138330000D02*
X54970000Y-138330000D01*
X54970000Y-138330000D02*
X54970000Y-137000000D01*
X57570000Y-138330000D02*
X57570000Y-135670000D01*
X70330000Y-138330000D02*
X70330000Y-135670000D01*
X57570000Y-135670000D02*
X70330000Y-135670000D01*
%TO.C,D5*%
X88450000Y-122990000D02*
X86750000Y-122990000D01*
X88450000Y-122990000D02*
X88450000Y-126250000D01*
X86750000Y-122990000D02*
X86750000Y-126250000D01*
%TO.C,D4*%
X79265000Y-114536000D02*
X79265000Y-114380000D01*
X79265000Y-112220000D02*
X79265000Y-112064000D01*
X76663871Y-114379836D02*
G75*
G03*
X78745960Y-114379999I1041129J1079836D01*
G01*
X79264999Y-112064485D02*
G75*
G03*
X76032666Y-112221392I-1559999J-1235515D01*
G01*
X78745960Y-112220001D02*
G75*
G03*
X76663871Y-112220164I-1040960J-1079999D01*
G01*
X76032666Y-114378608D02*
G75*
G03*
X79264999Y-114535515I1672334J1078608D01*
G01*
%TO.C,D2*%
X85910000Y-96350000D02*
X78900000Y-96350000D01*
X85910000Y-99650000D02*
X85910000Y-96350000D01*
X85910000Y-99650000D02*
X78900000Y-99650000D01*
%TO.C,C15*%
X82161252Y-134535000D02*
X81638748Y-134535000D01*
X82161252Y-133065000D02*
X81638748Y-133065000D01*
%TO.C,C14*%
X78761252Y-120735000D02*
X78238748Y-120735000D01*
X78761252Y-119265000D02*
X78238748Y-119265000D01*
%TO.C,C13*%
X84715000Y-124911252D02*
X84715000Y-124388748D01*
X86185000Y-124911252D02*
X86185000Y-124388748D01*
%TO.C,C12*%
X90261252Y-115265000D02*
X89738748Y-115265000D01*
X90261252Y-116735000D02*
X89738748Y-116735000D01*
%TO.C,C11*%
X90261252Y-118735000D02*
X89738748Y-118735000D01*
X90261252Y-117265000D02*
X89738748Y-117265000D01*
%TO.C,C9*%
X72745563Y-104010000D02*
X71460000Y-104010000D01*
X68054437Y-104010000D02*
X66990000Y-102945563D01*
X73810000Y-102945563D02*
X73810000Y-97190000D01*
X73810000Y-97190000D02*
X71460000Y-97190000D01*
X66990000Y-102945563D02*
X66990000Y-97190000D01*
X68054437Y-104010000D02*
X69340000Y-104010000D01*
X68158750Y-104643750D02*
X68946250Y-104643750D01*
X66990000Y-97190000D02*
X69340000Y-97190000D01*
X68552500Y-105037500D02*
X68552500Y-104250000D01*
X72745563Y-104010000D02*
X73810000Y-102945563D01*
%TO.C,C4*%
X65145563Y-103910000D02*
X63860000Y-103910000D01*
X60454437Y-103910000D02*
X59390000Y-102845563D01*
X66210000Y-102845563D02*
X66210000Y-97090000D01*
X66210000Y-97090000D02*
X63860000Y-97090000D01*
X59390000Y-102845563D02*
X59390000Y-97090000D01*
X60454437Y-103910000D02*
X61740000Y-103910000D01*
X60558750Y-104543750D02*
X61346250Y-104543750D01*
X59390000Y-97090000D02*
X61740000Y-97090000D01*
X60952500Y-104937500D02*
X60952500Y-104150000D01*
X65145563Y-103910000D02*
X66210000Y-102845563D01*
%TO.C,C3*%
X85310000Y-107873752D02*
X85310000Y-106451248D01*
X83490000Y-107873752D02*
X83490000Y-106451248D01*
%TO.C,C2*%
X93861252Y-107665000D02*
X93338748Y-107665000D01*
X93861252Y-109135000D02*
X93338748Y-109135000D01*
%TD*%
M02*
