%TF.GenerationSoftware,KiCad,Pcbnew,7.0.8*%
%TF.CreationDate,2024-01-29T20:53:27-05:00*%
%TF.ProjectId,lightlink,6c696768-746c-4696-9e6b-2e6b69636164,rev?*%
%TF.SameCoordinates,Original*%
%TF.FileFunction,Soldermask,Top*%
%TF.FilePolarity,Negative*%
%FSLAX46Y46*%
G04 Gerber Fmt 4.6, Leading zero omitted, Abs format (unit mm)*
G04 Created by KiCad (PCBNEW 7.0.8) date 2024-01-29 20:53:27*
%MOMM*%
%LPD*%
G01*
G04 APERTURE LIST*
G04 Aperture macros list*
%AMRoundRect*
0 Rectangle with rounded corners*
0 $1 Rounding radius*
0 $2 $3 $4 $5 $6 $7 $8 $9 X,Y pos of 4 corners*
0 Add a 4 corners polygon primitive as box body*
4,1,4,$2,$3,$4,$5,$6,$7,$8,$9,$2,$3,0*
0 Add four circle primitives for the rounded corners*
1,1,$1+$1,$2,$3*
1,1,$1+$1,$4,$5*
1,1,$1+$1,$6,$7*
1,1,$1+$1,$8,$9*
0 Add four rect primitives between the rounded corners*
20,1,$1+$1,$2,$3,$4,$5,0*
20,1,$1+$1,$4,$5,$6,$7,0*
20,1,$1+$1,$6,$7,$8,$9,0*
20,1,$1+$1,$8,$9,$2,$3,0*%
G04 Aperture macros list end*
%ADD10RoundRect,0.250000X0.550000X-1.500000X0.550000X1.500000X-0.550000X1.500000X-0.550000X-1.500000X0*%
%ADD11C,2.000000*%
%ADD12RoundRect,0.250000X0.475000X-0.337500X0.475000X0.337500X-0.475000X0.337500X-0.475000X-0.337500X0*%
%ADD13RoundRect,0.250000X0.337500X0.475000X-0.337500X0.475000X-0.337500X-0.475000X0.337500X-0.475000X0*%
%ADD14R,4.600000X5.700000*%
%ADD15R,1.800000X1.800000*%
%ADD16C,1.800000*%
%ADD17RoundRect,0.150000X0.150000X-0.587500X0.150000X0.587500X-0.150000X0.587500X-0.150000X-0.587500X0*%
%ADD18R,1.600000X1.600000*%
%ADD19O,1.600000X1.600000*%
%ADD20RoundRect,0.250000X-0.337500X-0.475000X0.337500X-0.475000X0.337500X0.475000X-0.337500X0.475000X0*%
%ADD21RoundRect,0.250000X0.650000X-0.412500X0.650000X0.412500X-0.650000X0.412500X-0.650000X-0.412500X0*%
%ADD22C,1.600000*%
%ADD23R,1.350000X1.350000*%
%ADD24O,1.350000X1.350000*%
%ADD25RoundRect,0.250000X-0.475000X0.337500X-0.475000X-0.337500X0.475000X-0.337500X0.475000X0.337500X0*%
%ADD26R,1.700000X1.700000*%
%ADD27O,1.700000X1.700000*%
%ADD28R,1.170000X2.000000*%
%ADD29R,1.520000X2.000000*%
%ADD30RoundRect,0.250001X-1.099999X1.099999X-1.099999X-1.099999X1.099999X-1.099999X1.099999X1.099999X0*%
%ADD31C,2.700000*%
%ADD32C,1.200000*%
%ADD33C,0.900000*%
%ADD34C,2.600000*%
%ADD35RoundRect,0.250000X-0.250000X0.250000X-0.250000X-0.250000X0.250000X-0.250000X0.250000X0.250000X0*%
%ADD36RoundRect,0.250000X1.500000X0.650000X-1.500000X0.650000X-1.500000X-0.650000X1.500000X-0.650000X0*%
%ADD37RoundRect,0.125000X-0.825000X-0.125000X0.825000X-0.125000X0.825000X0.125000X-0.825000X0.125000X0*%
%ADD38R,0.650000X2.000000*%
%ADD39C,1.000000*%
%ADD40C,0.500000*%
%ADD41C,1.500000*%
G04 APERTURE END LIST*
D10*
%TO.C,C4*%
X121640000Y-100600000D03*
X121640000Y-95200000D03*
%TD*%
D11*
%TO.C,F1*%
X140290000Y-88600000D03*
X117790000Y-88600000D03*
%TD*%
D12*
%TO.C,R11*%
X132840000Y-112437500D03*
X132840000Y-110362500D03*
%TD*%
D13*
%TO.C,C12*%
X149877500Y-113400000D03*
X147802500Y-113400000D03*
%TD*%
%TO.C,C11*%
X149877500Y-115400000D03*
X147802500Y-115400000D03*
%TD*%
D10*
%TO.C,C9*%
X129240000Y-100700000D03*
X129240000Y-95300000D03*
%TD*%
D14*
%TO.C,J4*%
X145465000Y-78850000D03*
%TD*%
D15*
%TO.C,D4*%
X138375000Y-109800000D03*
D16*
X135835000Y-109800000D03*
%TD*%
D17*
%TO.C,Q1*%
X122940000Y-111262500D03*
X121990000Y-113137500D03*
X123890000Y-113137500D03*
%TD*%
D18*
%TO.C,SW1*%
X149340000Y-118600000D03*
D19*
X149340000Y-121140000D03*
X149340000Y-123680000D03*
X149340000Y-126220000D03*
X156960000Y-126220000D03*
X156960000Y-123680000D03*
X156960000Y-121140000D03*
X156960000Y-118600000D03*
%TD*%
D20*
%TO.C,R19*%
X147802500Y-111400000D03*
X149877500Y-111400000D03*
%TD*%
D21*
%TO.C,C3*%
X143240000Y-106125000D03*
X143240000Y-103000000D03*
%TD*%
D18*
%TO.C,C1*%
X152242651Y-87900000D03*
D22*
X147242651Y-87900000D03*
%TD*%
D13*
%TO.C,C15*%
X141777500Y-131200000D03*
X139702500Y-131200000D03*
%TD*%
D23*
%TO.C,J2*%
X148840000Y-134000000D03*
D24*
X150840000Y-134000000D03*
%TD*%
D14*
%TO.C,J5*%
X125240000Y-79100000D03*
%TD*%
D20*
%TO.C,R18*%
X143802500Y-111400000D03*
X145877500Y-111400000D03*
%TD*%
D22*
%TO.C,RV1*%
X132940000Y-72550000D03*
X137940000Y-73850000D03*
%TD*%
D12*
%TO.C,R8*%
X148440000Y-107800000D03*
X148440000Y-105725000D03*
%TD*%
D25*
%TO.C,R16*%
X141840000Y-112362500D03*
X141840000Y-114437500D03*
%TD*%
D26*
%TO.C,J1*%
X115140000Y-134400000D03*
D27*
X117680000Y-134400000D03*
X120220000Y-134400000D03*
X122760000Y-134400000D03*
X125300000Y-134400000D03*
X127840000Y-134400000D03*
%TD*%
D28*
%TO.C,U3*%
X148630000Y-102900000D03*
D29*
X151170000Y-102900000D03*
X153710000Y-102900000D03*
D28*
X156250000Y-102900000D03*
X156250000Y-94300000D03*
D29*
X151170000Y-94300000D03*
D28*
X148630000Y-94300000D03*
%TD*%
D20*
%TO.C,R17*%
X121902500Y-108300000D03*
X123977500Y-108300000D03*
%TD*%
D30*
%TO.C,J3*%
X126240000Y-121240000D03*
D31*
X126240000Y-125200000D03*
%TD*%
D32*
%TO.C,SW2*%
X157840000Y-110075000D03*
X157840000Y-113275000D03*
D33*
X155640000Y-111100000D03*
X155640000Y-109950000D03*
X155640000Y-113400000D03*
X155640000Y-112250000D03*
%TD*%
D34*
%TO.C,L1*%
X139740000Y-102362500D03*
X134740000Y-102362500D03*
%TD*%
D35*
%TO.C,D5*%
X146440000Y-121150000D03*
X146440000Y-123650000D03*
%TD*%
D13*
%TO.C,C2*%
X153477500Y-105800000D03*
X151402500Y-105800000D03*
%TD*%
%TO.C,R1*%
X120077500Y-131300000D03*
X118002500Y-131300000D03*
%TD*%
%TO.C,R7*%
X145077500Y-108100000D03*
X143002500Y-108100000D03*
%TD*%
D22*
%TO.C,R9*%
X118900000Y-81645000D03*
D19*
X118900000Y-79105000D03*
%TD*%
D12*
%TO.C,C13*%
X144290000Y-123087500D03*
X144290000Y-121012500D03*
%TD*%
D36*
%TO.C,D2*%
X142740000Y-95400000D03*
X137740000Y-95400000D03*
%TD*%
D13*
%TO.C,C14*%
X138377500Y-117400000D03*
X136302500Y-117400000D03*
%TD*%
D16*
%TO.C,K1*%
X115290000Y-119300000D03*
X115290000Y-126300000D03*
X115290000Y-107800000D03*
X119990000Y-107800000D03*
%TD*%
D37*
%TO.C,U1*%
X133840000Y-119475000D03*
X133840000Y-120125000D03*
X133840000Y-120775000D03*
X133840000Y-121425000D03*
X133840000Y-122075000D03*
X133840000Y-122725000D03*
X133840000Y-123375000D03*
X133840000Y-124025000D03*
X133840000Y-124675000D03*
X133840000Y-125325000D03*
X140840000Y-125325000D03*
X140840000Y-124675000D03*
X140840000Y-124025000D03*
X140840000Y-123375000D03*
X140840000Y-122725000D03*
X140840000Y-122075000D03*
X140840000Y-121425000D03*
X140840000Y-120775000D03*
X140840000Y-120125000D03*
X140840000Y-119475000D03*
%TD*%
D38*
%TO.C,U5*%
X143890000Y-118110000D03*
X144840000Y-118110000D03*
X145790000Y-118110000D03*
X145790000Y-114690000D03*
X143890000Y-114690000D03*
%TD*%
D39*
X125940000Y-93600000D03*
X149840000Y-109800000D03*
X130840000Y-92600000D03*
X144340000Y-124900000D03*
X146440000Y-124800000D03*
D40*
X140690000Y-118500000D03*
X140090000Y-117906233D03*
D39*
X126340000Y-113775500D03*
X124740000Y-92400000D03*
X127240000Y-92400000D03*
X124740000Y-93600000D03*
X123540000Y-93600000D03*
X143840000Y-131400000D03*
X128440000Y-92400000D03*
X127240000Y-93600000D03*
X131600000Y-93700000D03*
D40*
X144840000Y-119900000D03*
D39*
X125940000Y-92400000D03*
X121040000Y-104200000D03*
X119840000Y-104200000D03*
X120440000Y-105300000D03*
X118640000Y-104200000D03*
X119240000Y-105300000D03*
X143890000Y-113050000D03*
X137840000Y-131200000D03*
X133440000Y-118100000D03*
X130640000Y-112200000D03*
X153840000Y-109900000D03*
X153877500Y-116650000D03*
X128340000Y-112200000D03*
X132440000Y-105200000D03*
X134793249Y-128346751D03*
X135340000Y-113400000D03*
X132440000Y-108200000D03*
X151340000Y-113050000D03*
D40*
X143240000Y-125600000D03*
X135240000Y-120800000D03*
X143440000Y-127800000D03*
X136440000Y-127800000D03*
D39*
X157440000Y-117000000D03*
D41*
X149240000Y-73800000D03*
D40*
X131490000Y-128400000D03*
X131490000Y-121500000D03*
X137040000Y-129050000D03*
X137240000Y-120950000D03*
X137640000Y-129850000D03*
X138090000Y-121000000D03*
X139264500Y-123350000D03*
X142290000Y-126250000D03*
X142690000Y-123600000D03*
X142740000Y-122700000D03*
X142740000Y-121800000D03*
X132090000Y-120250000D03*
X139340000Y-121900000D03*
X138990000Y-125350000D03*
X135140000Y-126475500D03*
X136090000Y-124650000D03*
X136540000Y-123950000D03*
D39*
X145122134Y-106158614D03*
X128690000Y-104250000D03*
X126740000Y-106200000D03*
M02*
