%TF.GenerationSoftware,KiCad,Pcbnew,7.0.8*%
%TF.CreationDate,2024-01-29T20:53:26-05:00*%
%TF.ProjectId,lightlink,6c696768-746c-4696-9e6b-2e6b69636164,rev?*%
%TF.SameCoordinates,Original*%
%TF.FileFunction,Copper,L1,Top*%
%TF.FilePolarity,Positive*%
%FSLAX46Y46*%
G04 Gerber Fmt 4.6, Leading zero omitted, Abs format (unit mm)*
G04 Created by KiCad (PCBNEW 7.0.8) date 2024-01-29 20:53:26*
%MOMM*%
%LPD*%
G01*
G04 APERTURE LIST*
G04 Aperture macros list*
%AMRoundRect*
0 Rectangle with rounded corners*
0 $1 Rounding radius*
0 $2 $3 $4 $5 $6 $7 $8 $9 X,Y pos of 4 corners*
0 Add a 4 corners polygon primitive as box body*
4,1,4,$2,$3,$4,$5,$6,$7,$8,$9,$2,$3,0*
0 Add four circle primitives for the rounded corners*
1,1,$1+$1,$2,$3*
1,1,$1+$1,$4,$5*
1,1,$1+$1,$6,$7*
1,1,$1+$1,$8,$9*
0 Add four rect primitives between the rounded corners*
20,1,$1+$1,$2,$3,$4,$5,0*
20,1,$1+$1,$4,$5,$6,$7,0*
20,1,$1+$1,$6,$7,$8,$9,0*
20,1,$1+$1,$8,$9,$2,$3,0*%
G04 Aperture macros list end*
%TA.AperFunction,SMDPad,CuDef*%
%ADD10RoundRect,0.250000X0.550000X-1.500000X0.550000X1.500000X-0.550000X1.500000X-0.550000X-1.500000X0*%
%TD*%
%TA.AperFunction,ComponentPad*%
%ADD11C,2.000000*%
%TD*%
%TA.AperFunction,SMDPad,CuDef*%
%ADD12RoundRect,0.250000X0.475000X-0.337500X0.475000X0.337500X-0.475000X0.337500X-0.475000X-0.337500X0*%
%TD*%
%TA.AperFunction,SMDPad,CuDef*%
%ADD13RoundRect,0.250000X0.337500X0.475000X-0.337500X0.475000X-0.337500X-0.475000X0.337500X-0.475000X0*%
%TD*%
%TA.AperFunction,SMDPad,CuDef*%
%ADD14R,4.600000X5.700000*%
%TD*%
%TA.AperFunction,ComponentPad*%
%ADD15R,1.800000X1.800000*%
%TD*%
%TA.AperFunction,ComponentPad*%
%ADD16C,1.800000*%
%TD*%
%TA.AperFunction,SMDPad,CuDef*%
%ADD17RoundRect,0.150000X0.150000X-0.587500X0.150000X0.587500X-0.150000X0.587500X-0.150000X-0.587500X0*%
%TD*%
%TA.AperFunction,ComponentPad*%
%ADD18R,1.600000X1.600000*%
%TD*%
%TA.AperFunction,ComponentPad*%
%ADD19O,1.600000X1.600000*%
%TD*%
%TA.AperFunction,SMDPad,CuDef*%
%ADD20RoundRect,0.250000X-0.337500X-0.475000X0.337500X-0.475000X0.337500X0.475000X-0.337500X0.475000X0*%
%TD*%
%TA.AperFunction,SMDPad,CuDef*%
%ADD21RoundRect,0.250000X0.650000X-0.412500X0.650000X0.412500X-0.650000X0.412500X-0.650000X-0.412500X0*%
%TD*%
%TA.AperFunction,ComponentPad*%
%ADD22C,1.600000*%
%TD*%
%TA.AperFunction,ComponentPad*%
%ADD23R,1.350000X1.350000*%
%TD*%
%TA.AperFunction,ComponentPad*%
%ADD24O,1.350000X1.350000*%
%TD*%
%TA.AperFunction,SMDPad,CuDef*%
%ADD25RoundRect,0.250000X-0.475000X0.337500X-0.475000X-0.337500X0.475000X-0.337500X0.475000X0.337500X0*%
%TD*%
%TA.AperFunction,ComponentPad*%
%ADD26R,1.700000X1.700000*%
%TD*%
%TA.AperFunction,ComponentPad*%
%ADD27O,1.700000X1.700000*%
%TD*%
%TA.AperFunction,SMDPad,CuDef*%
%ADD28R,1.170000X2.000000*%
%TD*%
%TA.AperFunction,SMDPad,CuDef*%
%ADD29R,1.520000X2.000000*%
%TD*%
%TA.AperFunction,ComponentPad*%
%ADD30RoundRect,0.250001X-1.099999X1.099999X-1.099999X-1.099999X1.099999X-1.099999X1.099999X1.099999X0*%
%TD*%
%TA.AperFunction,ComponentPad*%
%ADD31C,2.700000*%
%TD*%
%TA.AperFunction,ComponentPad*%
%ADD32C,1.200000*%
%TD*%
%TA.AperFunction,ComponentPad*%
%ADD33C,0.900000*%
%TD*%
%TA.AperFunction,ComponentPad*%
%ADD34C,2.600000*%
%TD*%
%TA.AperFunction,SMDPad,CuDef*%
%ADD35RoundRect,0.250000X-0.250000X0.250000X-0.250000X-0.250000X0.250000X-0.250000X0.250000X0.250000X0*%
%TD*%
%TA.AperFunction,SMDPad,CuDef*%
%ADD36RoundRect,0.250000X1.500000X0.650000X-1.500000X0.650000X-1.500000X-0.650000X1.500000X-0.650000X0*%
%TD*%
%TA.AperFunction,SMDPad,CuDef*%
%ADD37RoundRect,0.125000X-0.825000X-0.125000X0.825000X-0.125000X0.825000X0.125000X-0.825000X0.125000X0*%
%TD*%
%TA.AperFunction,SMDPad,CuDef*%
%ADD38R,0.650000X2.000000*%
%TD*%
%TA.AperFunction,ViaPad*%
%ADD39C,1.000000*%
%TD*%
%TA.AperFunction,ViaPad*%
%ADD40C,0.500000*%
%TD*%
%TA.AperFunction,ViaPad*%
%ADD41C,1.500000*%
%TD*%
%TA.AperFunction,Conductor*%
%ADD42C,1.500000*%
%TD*%
%TA.AperFunction,Conductor*%
%ADD43C,0.500000*%
%TD*%
%TA.AperFunction,Conductor*%
%ADD44C,1.000000*%
%TD*%
%TA.AperFunction,Conductor*%
%ADD45C,0.250000*%
%TD*%
%TA.AperFunction,Conductor*%
%ADD46C,2.000000*%
%TD*%
G04 APERTURE END LIST*
D10*
%TO.P,C4,1*%
%TO.N,+12V*%
X121640000Y-100600000D03*
%TO.P,C4,2*%
%TO.N,GND*%
X121640000Y-95200000D03*
%TD*%
D11*
%TO.P,F1,1*%
%TO.N,LIVE_IN*%
X140290000Y-88600000D03*
%TO.P,F1,2*%
%TO.N,LIVE_IN_FUSED*%
X117790000Y-88600000D03*
%TD*%
D12*
%TO.P,R11,1*%
%TO.N,/microcontroller_logic/DIAG_LED*%
X132840000Y-112437500D03*
%TO.P,R11,2*%
%TO.N,Net-(D4-A)*%
X132840000Y-110362500D03*
%TD*%
D13*
%TO.P,C12,1*%
%TO.N,GND*%
X149877500Y-113400000D03*
%TO.P,C12,2*%
%TO.N,/power/PLI_SENSE*%
X147802500Y-113400000D03*
%TD*%
%TO.P,C11,1*%
%TO.N,GND*%
X149877500Y-115400000D03*
%TO.P,C11,2*%
%TO.N,/power/PLI_VREF*%
X147802500Y-115400000D03*
%TD*%
D10*
%TO.P,C9,1*%
%TO.N,+12V*%
X129240000Y-100700000D03*
%TO.P,C9,2*%
%TO.N,GND*%
X129240000Y-95300000D03*
%TD*%
D14*
%TO.P,J4,1,Pin_1*%
%TO.N,LIVE_IN*%
X145465000Y-78850000D03*
%TD*%
D15*
%TO.P,D4,1,K*%
%TO.N,GND*%
X138375000Y-109800000D03*
D16*
%TO.P,D4,2,A*%
%TO.N,Net-(D4-A)*%
X135835000Y-109800000D03*
%TD*%
D17*
%TO.P,Q1,1,D*%
%TO.N,Net-(Q1-D)*%
X122940000Y-111262500D03*
%TO.P,Q1,2,G*%
%TO.N,/microcontroller_logic/LOAD_SW0*%
X121990000Y-113137500D03*
%TO.P,Q1,3,S*%
%TO.N,GND*%
X123890000Y-113137500D03*
%TD*%
D18*
%TO.P,SW1,1*%
%TO.N,/microcontroller_logic/CHAN_SEL0*%
X149340000Y-118600000D03*
D19*
%TO.P,SW1,2*%
%TO.N,/microcontroller_logic/CHAN_SEL1*%
X149340000Y-121140000D03*
%TO.P,SW1,3*%
%TO.N,/microcontroller_logic/CHAN_SEL2*%
X149340000Y-123680000D03*
%TO.P,SW1,4*%
%TO.N,/microcontroller_logic/CHAN_SEL3*%
X149340000Y-126220000D03*
%TO.P,SW1,5*%
%TO.N,GND*%
X156960000Y-126220000D03*
%TO.P,SW1,6*%
X156960000Y-123680000D03*
%TO.P,SW1,7*%
X156960000Y-121140000D03*
%TO.P,SW1,8*%
X156960000Y-118600000D03*
%TD*%
D20*
%TO.P,R19,1*%
%TO.N,/power/PLI_SENSE*%
X147802500Y-111400000D03*
%TO.P,R19,2*%
%TO.N,GND*%
X149877500Y-111400000D03*
%TD*%
D21*
%TO.P,C3,1*%
%TO.N,/power/12V_FB_DIODE*%
X143240000Y-106125000D03*
%TO.P,C3,2*%
%TO.N,/power/12V_SW*%
X143240000Y-103000000D03*
%TD*%
D18*
%TO.P,C1,1*%
%TO.N,/power/LNK_IN*%
X152242651Y-87900000D03*
D22*
%TO.P,C1,2*%
%TO.N,GND*%
X147242651Y-87900000D03*
%TD*%
D13*
%TO.P,C15,1*%
%TO.N,GND*%
X141777500Y-131200000D03*
%TO.P,C15,2*%
%TO.N,+3.3V*%
X139702500Y-131200000D03*
%TD*%
D23*
%TO.P,J2,1,Pin_1*%
%TO.N,/microcontroller_logic/RF_ANT*%
X148840000Y-134000000D03*
D24*
%TO.P,J2,2,Pin_2*%
%TO.N,GND*%
X150840000Y-134000000D03*
%TD*%
D14*
%TO.P,J5,1,Pin_1*%
%TO.N,NEUTRAL_IN*%
X125240000Y-79100000D03*
%TD*%
D20*
%TO.P,R18,1*%
%TO.N,+12V*%
X143802500Y-111400000D03*
%TO.P,R18,2*%
%TO.N,/power/PLI_SENSE*%
X145877500Y-111400000D03*
%TD*%
D22*
%TO.P,RV1,1*%
%TO.N,/power/live_fbr_in*%
X132940000Y-72550000D03*
%TO.P,RV1,2*%
%TO.N,NEUTRAL_IN*%
X137940000Y-73850000D03*
%TD*%
D12*
%TO.P,R8,1*%
%TO.N,/power/12V_FB*%
X148440000Y-107800000D03*
%TO.P,R8,2*%
%TO.N,/power/12V_SW*%
X148440000Y-105725000D03*
%TD*%
D25*
%TO.P,R16,1*%
%TO.N,+12V*%
X141840000Y-112362500D03*
%TO.P,R16,2*%
%TO.N,/power/PLI_VREF*%
X141840000Y-114437500D03*
%TD*%
D26*
%TO.P,J1,1,Pin_1*%
%TO.N,/microcontroller_logic/VPP*%
X115140000Y-134400000D03*
D27*
%TO.P,J1,2,Pin_2*%
%TO.N,+3.3V*%
X117680000Y-134400000D03*
%TO.P,J1,3,Pin_3*%
%TO.N,GND*%
X120220000Y-134400000D03*
%TO.P,J1,4,Pin_4*%
%TO.N,/microcontroller_logic/ICSPDAT*%
X122760000Y-134400000D03*
%TO.P,J1,5,Pin_5*%
%TO.N,/microcontroller_logic/ICSPCLK*%
X125300000Y-134400000D03*
%TO.P,J1,6,Pin_6*%
%TO.N,unconnected-(J1-Pin_6-Pad6)*%
X127840000Y-134400000D03*
%TD*%
D28*
%TO.P,U3,1,S*%
%TO.N,/power/12V_SW*%
X148630000Y-102900000D03*
D29*
%TO.P,U3,2,S*%
X151170000Y-102900000D03*
%TO.P,U3,3,BP*%
%TO.N,Net-(U3-BP)*%
X153710000Y-102900000D03*
D28*
%TO.P,U3,4,FB*%
%TO.N,/power/12V_FB*%
X156250000Y-102900000D03*
%TO.P,U3,5,D*%
%TO.N,/power/LNK_IN*%
X156250000Y-94300000D03*
D29*
%TO.P,U3,7,S*%
%TO.N,/power/12V_SW*%
X151170000Y-94300000D03*
D28*
%TO.P,U3,8,S*%
X148630000Y-94300000D03*
%TD*%
D20*
%TO.P,R17,1*%
%TO.N,Net-(D6-A)*%
X121902500Y-108300000D03*
%TO.P,R17,2*%
%TO.N,Net-(Q1-D)*%
X123977500Y-108300000D03*
%TD*%
D30*
%TO.P,J3,1,AC_P*%
%TO.N,LIVE_OUT*%
X126240000Y-121240000D03*
D31*
%TO.P,J3,2,AC_N*%
%TO.N,NEUTRAL_IN*%
X126240000Y-125200000D03*
%TD*%
D32*
%TO.P,SW2,*%
%TO.N,*%
X157840000Y-110075000D03*
X157840000Y-113275000D03*
D33*
%TO.P,SW2,1,S1*%
%TO.N,/microcontroller_logic/BUTTON_IN*%
X155640000Y-111100000D03*
%TO.P,SW2,2,L1*%
%TO.N,unconnected-(SW2-L1-Pad2)*%
X155640000Y-109950000D03*
%TO.P,SW2,3,L2*%
%TO.N,unconnected-(SW2-L2-Pad3)*%
X155640000Y-113400000D03*
%TO.P,SW2,4,S2*%
%TO.N,GND*%
X155640000Y-112250000D03*
%TD*%
D34*
%TO.P,L1,1,1*%
%TO.N,/power/12V_SW*%
X139740000Y-102362500D03*
%TO.P,L1,2,2*%
%TO.N,+12V*%
X134740000Y-102362500D03*
%TD*%
D35*
%TO.P,D5,1,K*%
%TO.N,/power/PLI_VREF*%
X146440000Y-121150000D03*
%TO.P,D5,2,A*%
%TO.N,GND*%
X146440000Y-123650000D03*
%TD*%
D13*
%TO.P,C2,1*%
%TO.N,Net-(U3-BP)*%
X153477500Y-105800000D03*
%TO.P,C2,2*%
%TO.N,/power/12V_SW*%
X151402500Y-105800000D03*
%TD*%
%TO.P,R1,1*%
%TO.N,+3.3V*%
X120077500Y-131300000D03*
%TO.P,R1,2*%
%TO.N,/microcontroller_logic/VPP*%
X118002500Y-131300000D03*
%TD*%
%TO.P,R7,1*%
%TO.N,/power/12V_FB*%
X145077500Y-108100000D03*
%TO.P,R7,2*%
%TO.N,/power/12V_FB_DIODE*%
X143002500Y-108100000D03*
%TD*%
D22*
%TO.P,R9,1*%
%TO.N,LIVE_IN_FUSED*%
X118900000Y-81645000D03*
D19*
%TO.P,R9,2*%
%TO.N,/power/live_fbr_in*%
X118900000Y-79105000D03*
%TD*%
D12*
%TO.P,C13,1*%
%TO.N,GND*%
X144290000Y-123087500D03*
%TO.P,C13,2*%
%TO.N,POWER_LOSS_INT*%
X144290000Y-121012500D03*
%TD*%
D36*
%TO.P,D2,1,K*%
%TO.N,/power/12V_SW*%
X142740000Y-95400000D03*
%TO.P,D2,2,A*%
%TO.N,GND*%
X137740000Y-95400000D03*
%TD*%
D13*
%TO.P,C14,1*%
%TO.N,GND*%
X138377500Y-117400000D03*
%TO.P,C14,2*%
%TO.N,+3.3V*%
X136302500Y-117400000D03*
%TD*%
D16*
%TO.P,K1,13*%
%TO.N,LIVE_IN_FUSED*%
X115290000Y-119300000D03*
%TO.P,K1,14*%
%TO.N,LIVE_OUT*%
X115290000Y-126300000D03*
%TO.P,K1,A1*%
%TO.N,+12V*%
X115290000Y-107800000D03*
%TO.P,K1,A2*%
%TO.N,Net-(D6-A)*%
X119990000Y-107800000D03*
%TD*%
D37*
%TO.P,U1,1,VDD*%
%TO.N,+3.3V*%
X133840000Y-119475000D03*
%TO.P,U1,2,RA5*%
%TO.N,/microcontroller_logic/RF_INT*%
X133840000Y-120125000D03*
%TO.P,U1,3,RA4*%
%TO.N,POWER_LOSS_INT*%
X133840000Y-120775000D03*
%TO.P,U1,4,RA3/~{MCLR}/VPP*%
%TO.N,/microcontroller_logic/VPP*%
X133840000Y-121425000D03*
%TO.P,U1,5,RC5*%
%TO.N,/microcontroller_logic/RF_RESET*%
X133840000Y-122075000D03*
%TO.P,U1,6,RC4*%
%TO.N,/microcontroller_logic/LOAD_SW0*%
X133840000Y-122725000D03*
%TO.P,U1,7,RC3*%
%TO.N,/microcontroller_logic/CHAN_SEL3*%
X133840000Y-123375000D03*
%TO.P,U1,8,RC6*%
%TO.N,unconnected-(U1-RC6-Pad8)*%
X133840000Y-124025000D03*
%TO.P,U1,9,RC7*%
%TO.N,/microcontroller_logic/BUTTON_IN*%
X133840000Y-124675000D03*
%TO.P,U1,10,RB7*%
%TO.N,/microcontroller_logic/SPI_CS*%
X133840000Y-125325000D03*
%TO.P,U1,11,RB6*%
%TO.N,/microcontroller_logic/SPI_MISO*%
X140840000Y-125325000D03*
%TO.P,U1,12,RB5*%
%TO.N,/microcontroller_logic/SPI_MOSI*%
X140840000Y-124675000D03*
%TO.P,U1,13,RB4*%
%TO.N,/microcontroller_logic/SPI_CLK*%
X140840000Y-124025000D03*
%TO.P,U1,14,RC2*%
%TO.N,/microcontroller_logic/CHAN_SEL2*%
X140840000Y-123375000D03*
%TO.P,U1,15,RC1*%
%TO.N,/microcontroller_logic/CHAN_SEL1*%
X140840000Y-122725000D03*
%TO.P,U1,16,RC0*%
%TO.N,/microcontroller_logic/CHAN_SEL0*%
X140840000Y-122075000D03*
%TO.P,U1,17,RA2*%
%TO.N,/microcontroller_logic/DIAG_LED*%
X140840000Y-121425000D03*
%TO.P,U1,18,RA1/ICSPCLK*%
%TO.N,/microcontroller_logic/ICSPCLK*%
X140840000Y-120775000D03*
%TO.P,U1,19,RA0/ICSPDAT*%
%TO.N,/microcontroller_logic/ICSPDAT*%
X140840000Y-120125000D03*
%TO.P,U1,20,VSS*%
%TO.N,GND*%
X140840000Y-119475000D03*
%TD*%
D38*
%TO.P,U5,1*%
%TO.N,POWER_LOSS_INT*%
X143890000Y-118110000D03*
%TO.P,U5,2,V-*%
%TO.N,GND*%
X144840000Y-118110000D03*
%TO.P,U5,3,+*%
%TO.N,/power/PLI_VREF*%
X145790000Y-118110000D03*
%TO.P,U5,4,-*%
%TO.N,/power/PLI_SENSE*%
X145790000Y-114690000D03*
%TO.P,U5,5,V+*%
%TO.N,+3.3V*%
X143890000Y-114690000D03*
%TD*%
D39*
%TO.N,GND*%
X125940000Y-93600000D03*
X149840000Y-109800000D03*
X130840000Y-92600000D03*
X144340000Y-124900000D03*
X146440000Y-124800000D03*
D40*
X140690000Y-118500000D03*
X140090000Y-117906233D03*
D39*
X126340000Y-113775500D03*
X124740000Y-92400000D03*
X127240000Y-92400000D03*
X124740000Y-93600000D03*
X123540000Y-93600000D03*
X143840000Y-131400000D03*
X128440000Y-92400000D03*
X127240000Y-93600000D03*
X131600000Y-93700000D03*
D40*
X144840000Y-119900000D03*
D39*
X125940000Y-92400000D03*
%TO.N,+12V*%
X121040000Y-104200000D03*
X119840000Y-104200000D03*
X120440000Y-105300000D03*
X118640000Y-104200000D03*
X119240000Y-105300000D03*
%TO.N,+3.3V*%
X143890000Y-113050000D03*
X137840000Y-131200000D03*
X133440000Y-118100000D03*
X130640000Y-112200000D03*
X153840000Y-109900000D03*
X153877500Y-116650000D03*
X128340000Y-112200000D03*
X132440000Y-105200000D03*
X134793249Y-128346751D03*
X135340000Y-113400000D03*
X132440000Y-108200000D03*
X151340000Y-113050000D03*
D40*
%TO.N,POWER_LOSS_INT*%
X143240000Y-125600000D03*
X135240000Y-120800000D03*
X143440000Y-127800000D03*
X136440000Y-127800000D03*
D39*
%TO.N,/microcontroller_logic/BUTTON_IN*%
X157440000Y-117000000D03*
D41*
%TO.N,NEUTRAL_IN*%
X149240000Y-73800000D03*
D40*
%TO.N,/microcontroller_logic/VPP*%
X131490000Y-128400000D03*
X131490000Y-121500000D03*
%TO.N,/microcontroller_logic/ICSPDAT*%
X137040000Y-129050000D03*
X137240000Y-120950000D03*
%TO.N,/microcontroller_logic/ICSPCLK*%
X137640000Y-129850000D03*
X138090000Y-121000000D03*
%TO.N,/microcontroller_logic/CHAN_SEL3*%
X139264500Y-123350000D03*
X142290000Y-126250000D03*
%TO.N,/microcontroller_logic/CHAN_SEL2*%
X142690000Y-123600000D03*
%TO.N,/microcontroller_logic/CHAN_SEL1*%
X142740000Y-122700000D03*
%TO.N,/microcontroller_logic/CHAN_SEL0*%
X142740000Y-121800000D03*
%TO.N,/microcontroller_logic/RF_INT*%
X132090000Y-120250000D03*
%TO.N,/microcontroller_logic/RF_RESET*%
X139340000Y-121900000D03*
%TO.N,/microcontroller_logic/SPI_CS*%
X138990000Y-125350000D03*
%TO.N,/microcontroller_logic/SPI_MISO*%
X135140000Y-126475500D03*
%TO.N,/microcontroller_logic/SPI_MOSI*%
X136090000Y-124650000D03*
%TO.N,/microcontroller_logic/SPI_CLK*%
X136540000Y-123950000D03*
D39*
%TO.N,/power/12V_FB_DIODE*%
X145122134Y-106158614D03*
%TO.N,/power/3v3_SW*%
X128690000Y-104250000D03*
X126740000Y-106200000D03*
%TD*%
D42*
%TO.N,GND*%
X147242651Y-87900000D02*
X142542651Y-92600000D01*
D43*
X149877500Y-115400000D02*
X149877500Y-109837500D01*
D44*
X144290000Y-123087500D02*
X144290000Y-124850000D01*
X141977500Y-131400000D02*
X141777500Y-131200000D01*
D45*
X139340000Y-117400000D02*
X138377500Y-117400000D01*
D44*
X143840000Y-131400000D02*
X141977500Y-131400000D01*
D43*
X123890000Y-113137500D02*
X125702000Y-113137500D01*
X125702000Y-113137500D02*
X126340000Y-113775500D01*
D44*
X146440000Y-124800000D02*
X146440000Y-123650000D01*
D42*
X129240000Y-93000000D02*
X129240000Y-95300000D01*
X142542651Y-92600000D02*
X129640000Y-92600000D01*
X128440000Y-92400000D02*
X129240000Y-93000000D01*
D45*
X140840000Y-118900000D02*
X139340000Y-117400000D01*
D43*
X144840000Y-118110000D02*
X144840000Y-119900000D01*
D45*
X140840000Y-119475000D02*
X140840000Y-118900000D01*
D43*
X149877500Y-109837500D02*
X149840000Y-109800000D01*
D44*
X144290000Y-124850000D02*
X144340000Y-124900000D01*
D42*
X129640000Y-92600000D02*
X128440000Y-92400000D01*
D44*
%TO.N,Net-(U3-BP)*%
X153477500Y-105800000D02*
X153477500Y-103132500D01*
X153477500Y-103132500D02*
X153710000Y-102900000D01*
D43*
%TO.N,+12V*%
X142802500Y-111400000D02*
X141840000Y-112362500D01*
X134900000Y-107700000D02*
X133840000Y-106640000D01*
X143802500Y-111400000D02*
X142802500Y-111400000D01*
X140940000Y-111462500D02*
X140940000Y-109640000D01*
X133840000Y-106640000D02*
X133840000Y-104400000D01*
X133840000Y-104400000D02*
X130140000Y-100700000D01*
X140940000Y-109640000D02*
X139000000Y-107700000D01*
X141840000Y-112362500D02*
X140940000Y-111462500D01*
X139000000Y-107700000D02*
X134900000Y-107700000D01*
X130140000Y-100700000D02*
X129240000Y-100700000D01*
%TO.N,+3.3V*%
X143940000Y-113000000D02*
X143890000Y-113050000D01*
X151490000Y-113050000D02*
X151340000Y-113050000D01*
D44*
X120927500Y-130450000D02*
X120077500Y-131300000D01*
X133440000Y-118100000D02*
X135602500Y-118100000D01*
D43*
X153877500Y-115437500D02*
X151490000Y-113050000D01*
D44*
X133402500Y-114500000D02*
X134071250Y-115168750D01*
X135602500Y-118100000D02*
X136302500Y-117400000D01*
X134071250Y-115168750D02*
X135821250Y-116918750D01*
D43*
X134071250Y-114668750D02*
X134071250Y-115168750D01*
D45*
X132440000Y-108200000D02*
X132440000Y-105200000D01*
D43*
X153877500Y-116650000D02*
X153877500Y-115437500D01*
X153840000Y-110550000D02*
X153840000Y-109900000D01*
D44*
X129590000Y-113450000D02*
X130640000Y-114500000D01*
X130640000Y-112400000D02*
X129590000Y-113450000D01*
X128340000Y-112200000D02*
X129590000Y-113450000D01*
D43*
X143890000Y-114690000D02*
X143890000Y-113050000D01*
X151340000Y-113050000D02*
X153840000Y-110550000D01*
D44*
X132690000Y-130450000D02*
X120927500Y-130450000D01*
X120077500Y-132002500D02*
X120077500Y-131300000D01*
X130640000Y-112200000D02*
X130640000Y-112400000D01*
X135821250Y-116918750D02*
X135821250Y-117881250D01*
D43*
X135340000Y-113400000D02*
X134071250Y-114668750D01*
D44*
X130640000Y-114500000D02*
X133402500Y-114500000D01*
X117680000Y-134400000D02*
X120077500Y-132002500D01*
X134793249Y-128346751D02*
X132690000Y-130450000D01*
X139702500Y-131200000D02*
X137840000Y-131200000D01*
D43*
%TO.N,POWER_LOSS_INT*%
X143840000Y-121362500D02*
X143840000Y-118160000D01*
D45*
X145440000Y-125100000D02*
X145440000Y-122162500D01*
X135215000Y-120775000D02*
X135240000Y-120800000D01*
X133840000Y-120775000D02*
X135215000Y-120775000D01*
X143340000Y-125700000D02*
X144840000Y-125700000D01*
X143240000Y-125600000D02*
X143340000Y-125700000D01*
X144840000Y-125700000D02*
X145440000Y-125100000D01*
X136440000Y-127800000D02*
X143440000Y-127800000D01*
D43*
X143840000Y-118160000D02*
X143890000Y-118110000D01*
D45*
X145440000Y-122162500D02*
X144290000Y-121012500D01*
%TO.N,/microcontroller_logic/BUTTON_IN*%
X154990000Y-127950000D02*
X155490000Y-127450000D01*
X132290000Y-127050000D02*
X147540000Y-127050000D01*
X133840000Y-124675000D02*
X132315000Y-124675000D01*
X131790000Y-125200000D02*
X131790000Y-126550000D01*
X156240000Y-117000000D02*
X157440000Y-117000000D01*
X147540000Y-127050000D02*
X148440000Y-127950000D01*
X155490000Y-127450000D02*
X155490000Y-117750000D01*
X148440000Y-127950000D02*
X154990000Y-127950000D01*
X132315000Y-124675000D02*
X131790000Y-125200000D01*
X131790000Y-126550000D02*
X132290000Y-127050000D01*
X155490000Y-117750000D02*
X156240000Y-117000000D01*
D42*
%TO.N,NEUTRAL_IN*%
X117640000Y-122400000D02*
X120440000Y-125200000D01*
X125240000Y-79100000D02*
X125240000Y-83400000D01*
X141440000Y-73800000D02*
X149240000Y-73800000D01*
X126540000Y-84700000D02*
X127840000Y-86000000D01*
X125240000Y-83400000D02*
X126540000Y-84700000D01*
X137940000Y-82700000D02*
X137940000Y-73850000D01*
X141290000Y-73850000D02*
X141340000Y-73900000D01*
X125340000Y-84700000D02*
X115640000Y-94400000D01*
X137940000Y-73850000D02*
X141290000Y-73850000D01*
X126540000Y-84700000D02*
X125340000Y-84700000D01*
X120440000Y-125200000D02*
X126240000Y-125200000D01*
X127840000Y-86000000D02*
X134640000Y-86000000D01*
X141340000Y-73900000D02*
X141440000Y-73800000D01*
X115640000Y-94400000D02*
X115640000Y-104800000D01*
X134640000Y-86000000D02*
X137940000Y-82700000D01*
X115640000Y-104800000D02*
X117640000Y-106800000D01*
X117640000Y-106800000D02*
X117640000Y-122400000D01*
D43*
%TO.N,Net-(D4-A)*%
X132840000Y-110362500D02*
X135272500Y-110362500D01*
X135272500Y-110362500D02*
X135835000Y-109800000D01*
%TO.N,Net-(D6-A)*%
X120290000Y-108300000D02*
X119640000Y-107650000D01*
X121902500Y-108300000D02*
X120490000Y-108300000D01*
X120490000Y-108300000D02*
X119990000Y-107800000D01*
D42*
%TO.N,LIVE_IN*%
X141100000Y-88600000D02*
X140290000Y-88600000D01*
X145465000Y-84235000D02*
X141100000Y-88600000D01*
X145465000Y-78850000D02*
X145465000Y-84235000D01*
D46*
%TO.N,LIVE_IN_FUSED*%
X117790000Y-88600000D02*
X118900000Y-87490000D01*
D42*
X117790000Y-88600000D02*
X114640000Y-88600000D01*
X114640000Y-88600000D02*
X113090000Y-90150000D01*
D46*
X118900000Y-87490000D02*
X118900000Y-81645000D01*
D42*
X113090000Y-90150000D02*
X113090000Y-117100000D01*
X113090000Y-117100000D02*
X115290000Y-119300000D01*
D45*
%TO.N,/microcontroller_logic/VPP*%
X131490000Y-128400000D02*
X131490000Y-128550000D01*
X118002500Y-131300000D02*
X118002500Y-131537500D01*
X133840000Y-121425000D02*
X131565000Y-121425000D01*
X131490000Y-128550000D02*
X130690000Y-129350000D01*
X130690000Y-129350000D02*
X119952500Y-129350000D01*
X119952500Y-129350000D02*
X118002500Y-131300000D01*
X118002500Y-131537500D02*
X115140000Y-134400000D01*
X131565000Y-121425000D02*
X131490000Y-121500000D01*
%TO.N,/microcontroller_logic/ICSPDAT*%
X137040000Y-129150000D02*
X134740000Y-131450000D01*
X137040000Y-129050000D02*
X137040000Y-129150000D01*
X134740000Y-131450000D02*
X125710000Y-131450000D01*
X125710000Y-131450000D02*
X122760000Y-134400000D01*
X138065000Y-120125000D02*
X137240000Y-120950000D01*
X140840000Y-120125000D02*
X138065000Y-120125000D01*
%TO.N,/microcontroller_logic/ICSPCLK*%
X137640000Y-129850000D02*
X137490000Y-129850000D01*
X128479946Y-132100000D02*
X127679946Y-132900000D01*
X125300000Y-133390000D02*
X125300000Y-134400000D01*
X138315000Y-120775000D02*
X138090000Y-121000000D01*
X125790000Y-132900000D02*
X125300000Y-133390000D01*
X127679946Y-132900000D02*
X125790000Y-132900000D01*
X137490000Y-129850000D02*
X135240000Y-132100000D01*
X135240000Y-132100000D02*
X128479946Y-132100000D01*
X140840000Y-120775000D02*
X138315000Y-120775000D01*
D43*
%TO.N,Net-(Q1-D)*%
X122940000Y-110350000D02*
X123977500Y-109312500D01*
X123977500Y-109312500D02*
X123977500Y-108300000D01*
X122940000Y-111262500D02*
X122940000Y-110350000D01*
D45*
X122940000Y-111262500D02*
X122940000Y-110600000D01*
%TO.N,/microcontroller_logic/LOAD_SW0*%
X131015000Y-122725000D02*
X130590000Y-122300000D01*
X130590000Y-116500000D02*
X128690000Y-114600000D01*
X123190000Y-114600000D02*
X121990000Y-113400000D01*
X128690000Y-114600000D02*
X123190000Y-114600000D01*
X133840000Y-122725000D02*
X131015000Y-122725000D01*
X130590000Y-122300000D02*
X130590000Y-116500000D01*
X121990000Y-113400000D02*
X121990000Y-113137500D01*
%TO.N,/microcontroller_logic/CHAN_SEL3*%
X142290000Y-126250000D02*
X142320000Y-126220000D01*
X133840000Y-123375000D02*
X139239500Y-123375000D01*
X139239500Y-123375000D02*
X139264500Y-123350000D01*
X142320000Y-126220000D02*
X149340000Y-126220000D01*
%TO.N,/microcontroller_logic/CHAN_SEL2*%
X142465000Y-123375000D02*
X142690000Y-123600000D01*
X140840000Y-123375000D02*
X142465000Y-123375000D01*
%TO.N,/microcontroller_logic/CHAN_SEL1*%
X142715000Y-122725000D02*
X142740000Y-122700000D01*
X140840000Y-122725000D02*
X142715000Y-122725000D01*
%TO.N,/microcontroller_logic/CHAN_SEL0*%
X142465000Y-122075000D02*
X142740000Y-121800000D01*
X140840000Y-122075000D02*
X142465000Y-122075000D01*
%TO.N,/microcontroller_logic/DIAG_LED*%
X142440000Y-117750000D02*
X137127500Y-112437500D01*
X140840000Y-121425000D02*
X141790000Y-121425000D01*
X141790000Y-121425000D02*
X142440000Y-120775000D01*
X137127500Y-112437500D02*
X132840000Y-112437500D01*
X142440000Y-120775000D02*
X142440000Y-117750000D01*
%TO.N,/microcontroller_logic/RF_INT*%
X133840000Y-120125000D02*
X132215000Y-120125000D01*
X132215000Y-120125000D02*
X132090000Y-120250000D01*
%TO.N,/microcontroller_logic/RF_RESET*%
X136465000Y-122075000D02*
X136640000Y-121900000D01*
X133840000Y-122075000D02*
X136465000Y-122075000D01*
X136640000Y-121900000D02*
X139340000Y-121900000D01*
%TO.N,/microcontroller_logic/SPI_CS*%
X133840000Y-125325000D02*
X138965000Y-125325000D01*
X138965000Y-125325000D02*
X138990000Y-125350000D01*
%TO.N,/microcontroller_logic/SPI_MISO*%
X140840000Y-125325000D02*
X139689500Y-126475500D01*
X139689500Y-126475500D02*
X135140000Y-126475500D01*
%TO.N,/microcontroller_logic/SPI_MOSI*%
X140840000Y-124675000D02*
X136115000Y-124675000D01*
X136115000Y-124675000D02*
X136090000Y-124650000D01*
%TO.N,/microcontroller_logic/SPI_CLK*%
X136615000Y-124025000D02*
X136540000Y-123950000D01*
X140840000Y-124025000D02*
X136615000Y-124025000D01*
D46*
%TO.N,/power/LNK_IN*%
X152242651Y-87900000D02*
X152340000Y-87900000D01*
X152340000Y-87900000D02*
X156250000Y-91810000D01*
X156250000Y-91810000D02*
X156250000Y-94300000D01*
D43*
%TO.N,/power/12V_SW*%
X147467500Y-95462500D02*
X148630000Y-94300000D01*
X147405000Y-95400000D02*
X142740000Y-95400000D01*
X142840000Y-103000000D02*
X139877500Y-103000000D01*
X139877500Y-103000000D02*
X139240000Y-102362500D01*
X142977500Y-102862500D02*
X142840000Y-103000000D01*
X147467500Y-95462500D02*
X147405000Y-95400000D01*
X148802500Y-103302500D02*
X148400000Y-102900000D01*
X148400000Y-94300000D02*
X148400000Y-102900000D01*
D44*
X150877500Y-102962500D02*
X150940000Y-102900000D01*
D43*
X148802500Y-105800000D02*
X148802500Y-103302500D01*
D44*
%TO.N,/power/12V_FB_DIODE*%
X143002500Y-106362500D02*
X143240000Y-106125000D01*
X142873614Y-106158614D02*
X142840000Y-106125000D01*
X145122134Y-106158614D02*
X142873614Y-106158614D01*
X143002500Y-108100000D02*
X143002500Y-106362500D01*
D45*
%TO.N,/power/3v3_SW*%
X128690000Y-104250000D02*
X126740000Y-106200000D01*
D43*
%TO.N,/power/PLI_VREF*%
X141840000Y-115500000D02*
X142740000Y-116400000D01*
X147802500Y-115400000D02*
X147802500Y-116937500D01*
X145091396Y-116400000D02*
X145790000Y-117098604D01*
X141840000Y-114437500D02*
X141840000Y-115500000D01*
X146630000Y-118110000D02*
X145790000Y-118110000D01*
X146440000Y-121150000D02*
X146440000Y-120300000D01*
X145790000Y-119650000D02*
X145790000Y-118110000D01*
X146440000Y-120300000D02*
X145790000Y-119650000D01*
X145790000Y-117098604D02*
X145790000Y-118110000D01*
X142740000Y-116400000D02*
X145091396Y-116400000D01*
X147802500Y-116937500D02*
X146630000Y-118110000D01*
%TO.N,/power/PLI_SENSE*%
X146540000Y-113400000D02*
X145790000Y-114150000D01*
X145790000Y-114150000D02*
X145790000Y-114690000D01*
X146540000Y-113400000D02*
X147802500Y-113400000D01*
X145877500Y-111400000D02*
X147802500Y-111400000D01*
X147802500Y-113400000D02*
X147802500Y-111400000D01*
D44*
%TO.N,/power/12V_FB*%
X148440000Y-107800000D02*
X154240000Y-107800000D01*
X156250000Y-105790000D02*
X156250000Y-102900000D01*
X145077500Y-108100000D02*
X148140000Y-108100000D01*
X148140000Y-108100000D02*
X148440000Y-107800000D01*
X154240000Y-107800000D02*
X156250000Y-105790000D01*
%TD*%
%TA.AperFunction,Conductor*%
%TO.N,/power/12V_SW*%
G36*
X150144833Y-93019685D02*
G01*
X150190588Y-93072489D01*
X150200532Y-93141647D01*
X150180896Y-93192891D01*
X150174504Y-93202455D01*
X150174503Y-93202459D01*
X150160000Y-93275371D01*
X150160000Y-94050000D01*
X151296000Y-94050000D01*
X151363039Y-94069685D01*
X151408794Y-94122489D01*
X151420000Y-94174000D01*
X151420000Y-95550000D01*
X151954626Y-95550000D01*
X151954628Y-95549999D01*
X152027540Y-95535496D01*
X152027541Y-95535496D01*
X152047108Y-95522422D01*
X152113786Y-95501544D01*
X152181166Y-95520028D01*
X152227856Y-95572006D01*
X152240000Y-95625524D01*
X152240000Y-101574475D01*
X152220315Y-101641514D01*
X152167511Y-101687269D01*
X152098353Y-101697213D01*
X152047111Y-101677578D01*
X152027546Y-101664505D01*
X152027540Y-101664503D01*
X151954627Y-101650000D01*
X151420000Y-101650000D01*
X151420000Y-104150000D01*
X151954626Y-104150000D01*
X151954628Y-104149999D01*
X152027540Y-104135496D01*
X152027541Y-104135496D01*
X152047108Y-104122422D01*
X152113786Y-104101544D01*
X152181166Y-104120028D01*
X152227856Y-104172006D01*
X152240000Y-104225524D01*
X152240000Y-104826997D01*
X152220315Y-104894036D01*
X152167511Y-104939791D01*
X152098353Y-104949735D01*
X152041689Y-104926263D01*
X151982093Y-104881649D01*
X151982086Y-104881645D01*
X151847379Y-104831403D01*
X151847372Y-104831401D01*
X151787844Y-104825000D01*
X151652500Y-104825000D01*
X151652500Y-105926000D01*
X151632815Y-105993039D01*
X151580011Y-106038794D01*
X151528500Y-106050000D01*
X150565000Y-106050000D01*
X150565000Y-106276000D01*
X150545315Y-106343039D01*
X150492511Y-106388794D01*
X150441000Y-106400000D01*
X149501360Y-106400000D01*
X149434321Y-106380315D01*
X149388566Y-106327511D01*
X149378622Y-106258353D01*
X149385178Y-106232666D01*
X149408597Y-106169876D01*
X149408598Y-106169872D01*
X149414999Y-106110344D01*
X149415000Y-106110327D01*
X149415000Y-105975000D01*
X147465000Y-105975000D01*
X147465000Y-106110344D01*
X147471401Y-106169872D01*
X147471402Y-106169876D01*
X147494822Y-106232666D01*
X147499806Y-106302358D01*
X147466322Y-106363681D01*
X147404999Y-106397166D01*
X147378640Y-106400000D01*
X146791362Y-106400000D01*
X146724323Y-106380315D01*
X146703681Y-106363681D01*
X146276319Y-105936319D01*
X146242834Y-105874996D01*
X146240000Y-105848638D01*
X146240000Y-105550000D01*
X150565000Y-105550000D01*
X151152500Y-105550000D01*
X151152500Y-104825000D01*
X151017155Y-104825000D01*
X150957627Y-104831401D01*
X150957620Y-104831403D01*
X150822913Y-104881645D01*
X150822906Y-104881649D01*
X150707812Y-104967809D01*
X150707809Y-104967812D01*
X150621649Y-105082906D01*
X150621645Y-105082913D01*
X150571403Y-105217620D01*
X150571401Y-105217627D01*
X150565000Y-105277155D01*
X150565000Y-105550000D01*
X146240000Y-105550000D01*
X146240000Y-105475000D01*
X147465000Y-105475000D01*
X148190000Y-105475000D01*
X148190000Y-104887500D01*
X148690000Y-104887500D01*
X148690000Y-105475000D01*
X149415000Y-105475000D01*
X149415000Y-105339672D01*
X149414999Y-105339655D01*
X149408598Y-105280127D01*
X149408596Y-105280120D01*
X149358354Y-105145413D01*
X149358350Y-105145406D01*
X149272190Y-105030312D01*
X149272187Y-105030309D01*
X149157093Y-104944149D01*
X149157086Y-104944145D01*
X149022379Y-104893903D01*
X149022372Y-104893901D01*
X148962844Y-104887500D01*
X148690000Y-104887500D01*
X148190000Y-104887500D01*
X147917155Y-104887500D01*
X147857627Y-104893901D01*
X147857620Y-104893903D01*
X147722913Y-104944145D01*
X147722906Y-104944149D01*
X147607812Y-105030309D01*
X147607809Y-105030312D01*
X147521649Y-105145406D01*
X147521645Y-105145413D01*
X147471403Y-105280120D01*
X147471401Y-105280127D01*
X147465000Y-105339655D01*
X147465000Y-105475000D01*
X146240000Y-105475000D01*
X146240000Y-104300000D01*
X146240000Y-103800000D01*
X145740000Y-103800000D01*
X144457712Y-103800000D01*
X144390673Y-103780315D01*
X144344918Y-103727511D01*
X144334974Y-103658353D01*
X144341530Y-103632667D01*
X144383596Y-103519879D01*
X144383598Y-103519872D01*
X144389999Y-103460344D01*
X144390000Y-103460327D01*
X144390000Y-103250000D01*
X142090000Y-103250000D01*
X142090000Y-103460344D01*
X142096401Y-103519872D01*
X142096403Y-103519879D01*
X142138470Y-103632667D01*
X142143454Y-103702359D01*
X142109969Y-103763682D01*
X142048645Y-103797166D01*
X142022288Y-103800000D01*
X140766652Y-103800000D01*
X140699613Y-103780315D01*
X140653858Y-103727511D01*
X140643512Y-103661425D01*
X140647942Y-103623994D01*
X139987534Y-102963586D01*
X140055629Y-102936626D01*
X140188492Y-102840095D01*
X140293175Y-102713555D01*
X140341631Y-102610579D01*
X141001494Y-103270442D01*
X141075302Y-103150000D01*
X147795000Y-103150000D01*
X147795000Y-103924628D01*
X147809503Y-103997540D01*
X147809505Y-103997544D01*
X147864760Y-104080239D01*
X147947455Y-104135494D01*
X147947459Y-104135496D01*
X148020371Y-104149999D01*
X148020374Y-104150000D01*
X148380000Y-104150000D01*
X148380000Y-103150000D01*
X148880000Y-103150000D01*
X148880000Y-104150000D01*
X149239626Y-104150000D01*
X149239628Y-104149999D01*
X149312540Y-104135496D01*
X149312544Y-104135494D01*
X149395239Y-104080239D01*
X149450494Y-103997544D01*
X149450496Y-103997540D01*
X149464999Y-103924628D01*
X149465000Y-103924626D01*
X149465000Y-103150000D01*
X150160000Y-103150000D01*
X150160000Y-103924628D01*
X150174503Y-103997540D01*
X150174505Y-103997544D01*
X150229760Y-104080239D01*
X150312455Y-104135494D01*
X150312459Y-104135496D01*
X150385371Y-104149999D01*
X150385374Y-104150000D01*
X150920000Y-104150000D01*
X150920000Y-103150000D01*
X150160000Y-103150000D01*
X149465000Y-103150000D01*
X148880000Y-103150000D01*
X148380000Y-103150000D01*
X147795000Y-103150000D01*
X141075302Y-103150000D01*
X141125331Y-103068361D01*
X141218696Y-102842957D01*
X141241013Y-102750000D01*
X142090000Y-102750000D01*
X142990000Y-102750000D01*
X142990000Y-102087500D01*
X143490000Y-102087500D01*
X143490000Y-102750000D01*
X144390000Y-102750000D01*
X144390000Y-102650000D01*
X147795000Y-102650000D01*
X148380000Y-102650000D01*
X148380000Y-101650000D01*
X148880000Y-101650000D01*
X148880000Y-102650000D01*
X149465000Y-102650000D01*
X150160000Y-102650000D01*
X150920000Y-102650000D01*
X150920000Y-101650000D01*
X150385373Y-101650000D01*
X150312459Y-101664503D01*
X150312455Y-101664505D01*
X150229760Y-101719760D01*
X150174505Y-101802455D01*
X150174503Y-101802459D01*
X150160000Y-101875371D01*
X150160000Y-102650000D01*
X149465000Y-102650000D01*
X149465000Y-101875373D01*
X149464999Y-101875371D01*
X149450496Y-101802459D01*
X149450494Y-101802455D01*
X149395239Y-101719760D01*
X149312544Y-101664505D01*
X149312540Y-101664503D01*
X149239627Y-101650000D01*
X148880000Y-101650000D01*
X148380000Y-101650000D01*
X148020373Y-101650000D01*
X147947459Y-101664503D01*
X147947455Y-101664505D01*
X147864760Y-101719760D01*
X147809505Y-101802455D01*
X147809503Y-101802459D01*
X147795000Y-101875371D01*
X147795000Y-102650000D01*
X144390000Y-102650000D01*
X144390000Y-102539672D01*
X144389999Y-102539655D01*
X144383598Y-102480127D01*
X144383596Y-102480120D01*
X144333354Y-102345413D01*
X144333350Y-102345406D01*
X144247190Y-102230312D01*
X144247187Y-102230309D01*
X144132093Y-102144149D01*
X144132086Y-102144145D01*
X143997379Y-102093903D01*
X143997372Y-102093901D01*
X143937844Y-102087500D01*
X143490000Y-102087500D01*
X142990000Y-102087500D01*
X142542155Y-102087500D01*
X142482627Y-102093901D01*
X142482620Y-102093903D01*
X142347913Y-102144145D01*
X142347906Y-102144149D01*
X142232812Y-102230309D01*
X142232809Y-102230312D01*
X142146649Y-102345406D01*
X142146645Y-102345413D01*
X142096403Y-102480120D01*
X142096401Y-102480127D01*
X142090000Y-102539655D01*
X142090000Y-102750000D01*
X141241013Y-102750000D01*
X141275651Y-102605719D01*
X141294792Y-102362500D01*
X141275651Y-102119280D01*
X141218696Y-101882042D01*
X141125331Y-101656638D01*
X141001494Y-101454556D01*
X140342546Y-102113504D01*
X140332812Y-102083544D01*
X140244814Y-101944881D01*
X140125097Y-101832460D01*
X139990488Y-101758457D01*
X140647942Y-101101004D01*
X140445861Y-100977168D01*
X140220457Y-100883803D01*
X139983219Y-100826848D01*
X139983220Y-100826848D01*
X139740000Y-100807707D01*
X139496779Y-100826848D01*
X139392947Y-100851776D01*
X139323164Y-100848285D01*
X139266347Y-100807621D01*
X139240534Y-100742694D01*
X139240000Y-100731202D01*
X139240000Y-99929272D01*
X139253091Y-99873818D01*
X139626910Y-99126179D01*
X139663414Y-99082439D01*
X140440000Y-98500000D01*
X140840000Y-98200000D01*
X140840000Y-96613049D01*
X140859685Y-96546010D01*
X140912489Y-96500255D01*
X140981647Y-96490311D01*
X141007334Y-96496867D01*
X141132623Y-96543597D01*
X141132627Y-96543598D01*
X141192155Y-96549999D01*
X141192172Y-96550000D01*
X142490000Y-96550000D01*
X142490000Y-95650000D01*
X142990000Y-95650000D01*
X142990000Y-96550000D01*
X144287828Y-96550000D01*
X144287844Y-96549999D01*
X144347372Y-96543598D01*
X144347379Y-96543596D01*
X144482086Y-96493354D01*
X144482093Y-96493350D01*
X144597187Y-96407190D01*
X144597190Y-96407187D01*
X144683350Y-96292093D01*
X144683354Y-96292086D01*
X144733596Y-96157379D01*
X144733598Y-96157372D01*
X144739999Y-96097844D01*
X144740000Y-96097827D01*
X144740000Y-95650000D01*
X142990000Y-95650000D01*
X142490000Y-95650000D01*
X142490000Y-95274000D01*
X142509685Y-95206961D01*
X142562489Y-95161206D01*
X142614000Y-95150000D01*
X144740000Y-95150000D01*
X144740000Y-94702172D01*
X144739999Y-94702155D01*
X144733598Y-94642627D01*
X144733597Y-94642623D01*
X144705516Y-94567334D01*
X144704276Y-94550000D01*
X147795000Y-94550000D01*
X147795000Y-95324628D01*
X147809503Y-95397540D01*
X147809505Y-95397544D01*
X147864760Y-95480239D01*
X147947455Y-95535494D01*
X147947459Y-95535496D01*
X148020371Y-95549999D01*
X148020374Y-95550000D01*
X148380000Y-95550000D01*
X148380000Y-94550000D01*
X148880000Y-94550000D01*
X148880000Y-95550000D01*
X149239626Y-95550000D01*
X149239628Y-95549999D01*
X149312540Y-95535496D01*
X149312544Y-95535494D01*
X149395239Y-95480239D01*
X149450494Y-95397544D01*
X149450496Y-95397540D01*
X149464999Y-95324628D01*
X149465000Y-95324626D01*
X149465000Y-94550000D01*
X150160000Y-94550000D01*
X150160000Y-95324628D01*
X150174503Y-95397540D01*
X150174505Y-95397544D01*
X150229760Y-95480239D01*
X150312455Y-95535494D01*
X150312459Y-95535496D01*
X150385371Y-95549999D01*
X150385374Y-95550000D01*
X150920000Y-95550000D01*
X150920000Y-94550000D01*
X150160000Y-94550000D01*
X149465000Y-94550000D01*
X148880000Y-94550000D01*
X148380000Y-94550000D01*
X147795000Y-94550000D01*
X144704276Y-94550000D01*
X144700532Y-94497642D01*
X144734017Y-94436319D01*
X144795340Y-94402834D01*
X144821698Y-94400000D01*
X146139998Y-94400000D01*
X146140000Y-94400000D01*
X146640000Y-94400000D01*
X147589347Y-93569320D01*
X147652760Y-93539991D01*
X147721966Y-93549600D01*
X147774990Y-93595099D01*
X147794999Y-93662043D01*
X147795000Y-93662642D01*
X147795000Y-94050000D01*
X149465000Y-94050000D01*
X149465000Y-93275373D01*
X149464999Y-93275371D01*
X149450496Y-93202459D01*
X149450495Y-93202455D01*
X149444104Y-93192891D01*
X149423226Y-93126214D01*
X149441710Y-93058834D01*
X149493689Y-93012143D01*
X149547206Y-93000000D01*
X150077794Y-93000000D01*
X150144833Y-93019685D01*
G37*
%TD.AperFunction*%
%TD*%
%TA.AperFunction,Conductor*%
%TO.N,LIVE_IN*%
G36*
X144145000Y-80175000D02*
G01*
X144649651Y-80186958D01*
X144716204Y-80208225D01*
X144735420Y-80224281D01*
X145164716Y-80663870D01*
X145197470Y-80725582D01*
X145200000Y-80750503D01*
X145200000Y-84975763D01*
X145190875Y-85022451D01*
X144860316Y-85835785D01*
X144834284Y-85875597D01*
X143356538Y-87393284D01*
X141696574Y-89098112D01*
X141696570Y-89098116D01*
X141500000Y-89300000D01*
X141376773Y-89536974D01*
X141348549Y-89563023D01*
X140987876Y-89781995D01*
X140923524Y-89800000D01*
X139192648Y-89800000D01*
X139125609Y-89780315D01*
X139103434Y-89762121D01*
X138694202Y-89338190D01*
X138661804Y-89276286D01*
X138659493Y-89247695D01*
X138681521Y-88623573D01*
X138692024Y-88577828D01*
X139047934Y-87772394D01*
X139074686Y-87733830D01*
X141872093Y-85000000D01*
X143100000Y-83800000D01*
X143091513Y-80702320D01*
X143111014Y-80635229D01*
X143128750Y-80613392D01*
X143552475Y-80198454D01*
X143614146Y-80165613D01*
X143642165Y-80163084D01*
X144145000Y-80175000D01*
G37*
%TD.AperFunction*%
%TD*%
%TA.AperFunction,Conductor*%
%TO.N,+3.3V*%
G36*
X134255677Y-114019685D02*
G01*
X134276319Y-114036319D01*
X136503319Y-116263319D01*
X136536804Y-116324642D01*
X136531820Y-116394334D01*
X136489948Y-116450267D01*
X136469669Y-116457830D01*
X136452500Y-116475000D01*
X136452500Y-117426000D01*
X136432815Y-117493039D01*
X136380011Y-117538794D01*
X136328500Y-117550000D01*
X135515001Y-117550000D01*
X135515001Y-117929196D01*
X135517852Y-117959607D01*
X135517852Y-117959608D01*
X135534251Y-118006475D01*
X135537812Y-118076253D01*
X135504890Y-118135109D01*
X134840000Y-118799999D01*
X134840000Y-118901630D01*
X134820315Y-118968669D01*
X134767511Y-119014424D01*
X134707255Y-119023464D01*
X134707137Y-119025266D01*
X134703078Y-119025000D01*
X133990000Y-119025000D01*
X133990000Y-119501000D01*
X133970315Y-119568039D01*
X133917511Y-119613794D01*
X133866000Y-119625000D01*
X132690001Y-119625000D01*
X132653682Y-119661319D01*
X132651610Y-119659247D01*
X132617512Y-119688794D01*
X132566001Y-119700000D01*
X132364000Y-119700000D01*
X132296961Y-119680315D01*
X132251206Y-119627511D01*
X132240000Y-119576000D01*
X132240000Y-119325000D01*
X132690000Y-119325000D01*
X133690000Y-119325000D01*
X133690000Y-119025000D01*
X132976913Y-119025000D01*
X132929589Y-119031230D01*
X132929582Y-119031232D01*
X132825711Y-119079668D01*
X132744668Y-119160711D01*
X132696232Y-119264582D01*
X132696230Y-119264590D01*
X132690001Y-119311904D01*
X132690000Y-119311921D01*
X132690000Y-119325000D01*
X132240000Y-119325000D01*
X132240000Y-117250000D01*
X135515000Y-117250000D01*
X136152500Y-117250000D01*
X136152500Y-116475000D01*
X135910804Y-116475000D01*
X135880393Y-116477851D01*
X135752354Y-116522653D01*
X135643207Y-116603207D01*
X135562653Y-116712354D01*
X135517850Y-116840395D01*
X135517850Y-116840399D01*
X135515000Y-116870793D01*
X135515000Y-117250000D01*
X132240000Y-117250000D01*
X132240000Y-114124000D01*
X132259685Y-114056961D01*
X132312489Y-114011206D01*
X132364000Y-114000000D01*
X134188638Y-114000000D01*
X134255677Y-114019685D01*
G37*
%TD.AperFunction*%
%TD*%
%TA.AperFunction,Conductor*%
%TO.N,+3.3V*%
G36*
X131183039Y-111219685D02*
G01*
X131228794Y-111272489D01*
X131240000Y-111324000D01*
X131240000Y-114076000D01*
X131220315Y-114143039D01*
X131167511Y-114188794D01*
X131116000Y-114200000D01*
X129591362Y-114200000D01*
X129524323Y-114180315D01*
X129503681Y-114163681D01*
X127676319Y-112336319D01*
X127642834Y-112274996D01*
X127640000Y-112248638D01*
X127640000Y-111324000D01*
X127659685Y-111256961D01*
X127712489Y-111211206D01*
X127764000Y-111200000D01*
X131116000Y-111200000D01*
X131183039Y-111219685D01*
G37*
%TD.AperFunction*%
%TD*%
%TA.AperFunction,Conductor*%
%TO.N,GND*%
G36*
X139306107Y-116630501D02*
G01*
X139348093Y-116658093D01*
X139640000Y-116950000D01*
X141338544Y-118648544D01*
X141341349Y-118651543D01*
X141488176Y-118819345D01*
X141517508Y-118882760D01*
X141507899Y-118951966D01*
X141462400Y-119004990D01*
X141395456Y-119024999D01*
X141394857Y-119025000D01*
X141090000Y-119025000D01*
X141090000Y-119601000D01*
X141075612Y-119650000D01*
X139214000Y-119650000D01*
X139146961Y-119630315D01*
X139101206Y-119577511D01*
X139090000Y-119526000D01*
X139090000Y-119225000D01*
X139714690Y-119225000D01*
X140590000Y-119225000D01*
X140590000Y-119025000D01*
X139976913Y-119025000D01*
X139929589Y-119031230D01*
X139929582Y-119031232D01*
X139825711Y-119079668D01*
X139744668Y-119160711D01*
X139714690Y-119224999D01*
X139714690Y-119225000D01*
X139090000Y-119225000D01*
X139090000Y-118900000D01*
X138840000Y-118650000D01*
X137864000Y-118650000D01*
X137796961Y-118630315D01*
X137751206Y-118577511D01*
X137740000Y-118526000D01*
X137740000Y-118421540D01*
X137759685Y-118354501D01*
X137812489Y-118308746D01*
X137881647Y-118298802D01*
X137904955Y-118304499D01*
X137955395Y-118322149D01*
X137977499Y-118324221D01*
X137977500Y-118324220D01*
X137977500Y-117800000D01*
X138777500Y-117800000D01*
X138777500Y-118324221D01*
X138799602Y-118322149D01*
X138927645Y-118277346D01*
X139036792Y-118196792D01*
X139117346Y-118087645D01*
X139162149Y-117959604D01*
X139162149Y-117959600D01*
X139165000Y-117929206D01*
X139165000Y-117800000D01*
X138777500Y-117800000D01*
X137977500Y-117800000D01*
X137977500Y-117124000D01*
X137997185Y-117056961D01*
X138049989Y-117011206D01*
X138101500Y-117000000D01*
X139164999Y-117000000D01*
X139164999Y-116870803D01*
X139162148Y-116840393D01*
X139143370Y-116786728D01*
X139139809Y-116716949D01*
X139174538Y-116656322D01*
X139236532Y-116624095D01*
X139306107Y-116630501D01*
G37*
%TD.AperFunction*%
%TD*%
%TA.AperFunction,Conductor*%
%TO.N,LIVE_IN_FUSED*%
G36*
X119783039Y-86219685D02*
G01*
X119828794Y-86272489D01*
X119840000Y-86324000D01*
X119840000Y-87144775D01*
X119820315Y-87211814D01*
X119798954Y-87236940D01*
X119186557Y-87788099D01*
X118985792Y-87968787D01*
X118922793Y-87999002D01*
X118853460Y-87990362D01*
X118803886Y-87951345D01*
X118680608Y-87788099D01*
X118516261Y-87638278D01*
X118327179Y-87521202D01*
X118327177Y-87521201D01*
X118119799Y-87440864D01*
X118040000Y-87425946D01*
X118040000Y-87995689D01*
X118031183Y-87990842D01*
X117872114Y-87950000D01*
X117749106Y-87950000D01*
X117627067Y-87965417D01*
X117540000Y-87999889D01*
X117540000Y-87425946D01*
X117460200Y-87440864D01*
X117252822Y-87521201D01*
X117252820Y-87521202D01*
X117063738Y-87638278D01*
X116899391Y-87788099D01*
X116765368Y-87965574D01*
X116666239Y-88164650D01*
X116613505Y-88350000D01*
X117189272Y-88350000D01*
X117166900Y-88397543D01*
X117136127Y-88558862D01*
X117146439Y-88722766D01*
X117187780Y-88850000D01*
X116613505Y-88850000D01*
X116666239Y-89035349D01*
X116765368Y-89234425D01*
X116899391Y-89411899D01*
X117038145Y-89538390D01*
X117074427Y-89598101D01*
X117072666Y-89667948D01*
X117037559Y-89722195D01*
X113875369Y-92568168D01*
X113812370Y-92598384D01*
X113792417Y-92600000D01*
X112464000Y-92600000D01*
X112396961Y-92580315D01*
X112351206Y-92527511D01*
X112340000Y-92476000D01*
X112340000Y-87454291D01*
X112359685Y-87387252D01*
X112379890Y-87363178D01*
X113505667Y-86324000D01*
X113604376Y-86232884D01*
X113666989Y-86201877D01*
X113688483Y-86200000D01*
X119716000Y-86200000D01*
X119783039Y-86219685D01*
G37*
%TD.AperFunction*%
%TD*%
%TA.AperFunction,Conductor*%
%TO.N,GND*%
G36*
X148555677Y-86219685D02*
G01*
X148576319Y-86236319D01*
X149003681Y-86663681D01*
X149037166Y-86725004D01*
X149040000Y-86751362D01*
X149040000Y-89074548D01*
X149029974Y-89123394D01*
X148687956Y-89921434D01*
X148659499Y-89962381D01*
X145217817Y-93240173D01*
X145182158Y-93263915D01*
X144361016Y-93624516D01*
X144319407Y-93634705D01*
X143931375Y-93660574D01*
X140088893Y-93916739D01*
X140088892Y-93916740D01*
X139590000Y-93950000D01*
X139597349Y-94368893D01*
X139575386Y-94368249D01*
X139539485Y-94349614D01*
X139482089Y-94306647D01*
X139482086Y-94306645D01*
X139347379Y-94256403D01*
X139347372Y-94256401D01*
X139287844Y-94250000D01*
X138115000Y-94250000D01*
X138115000Y-96550000D01*
X139089964Y-96550000D01*
X139157003Y-96569685D01*
X139202758Y-96622489D01*
X139212702Y-96691647D01*
X139183677Y-96755203D01*
X139178416Y-96760904D01*
X139176451Y-96762904D01*
X139115426Y-96796929D01*
X139087999Y-96800000D01*
X130414000Y-96800000D01*
X130346961Y-96780315D01*
X130301206Y-96727511D01*
X130290000Y-96676000D01*
X130290000Y-95775000D01*
X135740000Y-95775000D01*
X135740000Y-96097844D01*
X135746401Y-96157372D01*
X135746403Y-96157379D01*
X135796645Y-96292086D01*
X135796649Y-96292093D01*
X135882809Y-96407187D01*
X135882812Y-96407190D01*
X135997906Y-96493350D01*
X135997913Y-96493354D01*
X136132620Y-96543596D01*
X136132627Y-96543598D01*
X136192155Y-96549999D01*
X136192172Y-96550000D01*
X137365000Y-96550000D01*
X137365000Y-95775000D01*
X135740000Y-95775000D01*
X130290000Y-95775000D01*
X130290000Y-95675000D01*
X128190000Y-95675000D01*
X128190000Y-96676000D01*
X128170315Y-96743039D01*
X128117511Y-96788794D01*
X128066000Y-96800000D01*
X122814000Y-96800000D01*
X122746961Y-96780315D01*
X122701206Y-96727511D01*
X122690000Y-96676000D01*
X122690000Y-95575000D01*
X121389000Y-95575000D01*
X121321961Y-95555315D01*
X121276206Y-95502511D01*
X121265000Y-95451000D01*
X121265000Y-95025000D01*
X135740000Y-95025000D01*
X137365000Y-95025000D01*
X137365000Y-94250000D01*
X136192155Y-94250000D01*
X136132627Y-94256401D01*
X136132620Y-94256403D01*
X135997913Y-94306645D01*
X135997906Y-94306649D01*
X135882812Y-94392809D01*
X135882809Y-94392812D01*
X135796649Y-94507906D01*
X135796645Y-94507913D01*
X135746403Y-94642620D01*
X135746401Y-94642627D01*
X135740000Y-94702155D01*
X135740000Y-95025000D01*
X121265000Y-95025000D01*
X121265000Y-94925000D01*
X128190000Y-94925000D01*
X128865000Y-94925000D01*
X128865000Y-93300000D01*
X129615000Y-93300000D01*
X129615000Y-94925000D01*
X130290000Y-94925000D01*
X130290000Y-93752172D01*
X130289999Y-93752155D01*
X130283598Y-93692627D01*
X130283596Y-93692620D01*
X130233354Y-93557913D01*
X130233350Y-93557906D01*
X130147190Y-93442812D01*
X130147187Y-93442809D01*
X130032093Y-93356649D01*
X130032086Y-93356645D01*
X129897379Y-93306403D01*
X129897372Y-93306401D01*
X129837844Y-93300000D01*
X129615000Y-93300000D01*
X128865000Y-93300000D01*
X128642155Y-93300000D01*
X128582627Y-93306401D01*
X128582620Y-93306403D01*
X128447913Y-93356645D01*
X128447906Y-93356649D01*
X128332812Y-93442809D01*
X128332809Y-93442812D01*
X128246649Y-93557906D01*
X128246645Y-93557913D01*
X128196403Y-93692620D01*
X128196401Y-93692627D01*
X128190000Y-93752155D01*
X128190000Y-94925000D01*
X121265000Y-94925000D01*
X121265000Y-93200000D01*
X122015000Y-93200000D01*
X122015000Y-94825000D01*
X122690000Y-94825000D01*
X122690000Y-93652172D01*
X122689999Y-93652155D01*
X122683598Y-93592627D01*
X122683596Y-93592620D01*
X122633354Y-93457913D01*
X122633350Y-93457906D01*
X122547190Y-93342812D01*
X122547187Y-93342809D01*
X122432093Y-93256649D01*
X122432086Y-93256645D01*
X122297379Y-93206403D01*
X122297372Y-93206401D01*
X122237844Y-93200000D01*
X122015000Y-93200000D01*
X121265000Y-93200000D01*
X121042155Y-93200000D01*
X120982627Y-93206401D01*
X120982620Y-93206403D01*
X120847913Y-93256645D01*
X120847906Y-93256649D01*
X120732812Y-93342809D01*
X120663266Y-93435710D01*
X120607332Y-93477580D01*
X120537640Y-93482564D01*
X120476318Y-93449078D01*
X120442833Y-93387754D01*
X120440000Y-93361398D01*
X120440000Y-93151362D01*
X120459685Y-93084323D01*
X120476319Y-93063681D01*
X120903681Y-92636319D01*
X120965004Y-92602834D01*
X120991362Y-92600000D01*
X122139996Y-92600000D01*
X122140000Y-92600000D01*
X122640000Y-92600000D01*
X124008701Y-91687532D01*
X124041546Y-91672029D01*
X124922426Y-91405321D01*
X124958359Y-91400000D01*
X141139998Y-91400000D01*
X141140000Y-91400000D01*
X141640000Y-91400000D01*
X144277070Y-88860599D01*
X146812380Y-88860599D01*
X146838886Y-88874766D01*
X147036816Y-88934808D01*
X147242651Y-88955080D01*
X147448485Y-88934808D01*
X147646414Y-88874767D01*
X147672919Y-88860598D01*
X147672920Y-88860598D01*
X147242652Y-88430330D01*
X147242651Y-88430330D01*
X146812380Y-88860599D01*
X144277070Y-88860599D01*
X145274615Y-87900000D01*
X146187570Y-87900000D01*
X146207842Y-88105833D01*
X146267885Y-88303765D01*
X146282051Y-88330268D01*
X146282052Y-88330269D01*
X146712321Y-87900000D01*
X146837665Y-87900000D01*
X146857486Y-88025148D01*
X146915010Y-88138045D01*
X147004606Y-88227641D01*
X147117503Y-88285165D01*
X147211170Y-88300000D01*
X147274132Y-88300000D01*
X147367799Y-88285165D01*
X147480696Y-88227641D01*
X147570292Y-88138045D01*
X147627816Y-88025148D01*
X147647637Y-87900001D01*
X147772981Y-87900001D01*
X148203249Y-88330269D01*
X148203249Y-88330268D01*
X148217418Y-88303763D01*
X148277459Y-88105834D01*
X148297731Y-87900000D01*
X148277459Y-87694165D01*
X148217417Y-87496235D01*
X148203250Y-87469730D01*
X147772981Y-87899999D01*
X147772981Y-87900001D01*
X147647637Y-87900001D01*
X147647637Y-87900000D01*
X147627816Y-87774852D01*
X147570292Y-87661955D01*
X147480696Y-87572359D01*
X147367799Y-87514835D01*
X147274132Y-87500000D01*
X147211170Y-87500000D01*
X147117503Y-87514835D01*
X147004606Y-87572359D01*
X146915010Y-87661955D01*
X146857486Y-87774852D01*
X146837665Y-87900000D01*
X146712321Y-87900000D01*
X146712321Y-87899999D01*
X146282052Y-87469730D01*
X146282051Y-87469730D01*
X146267882Y-87496239D01*
X146207842Y-87694165D01*
X146187570Y-87900000D01*
X145274615Y-87900000D01*
X146272160Y-86939401D01*
X146812381Y-86939401D01*
X147242651Y-87369670D01*
X147242652Y-87369670D01*
X147672920Y-86939401D01*
X147672919Y-86939400D01*
X147646416Y-86925234D01*
X147448484Y-86865191D01*
X147242651Y-86844919D01*
X147036816Y-86865191D01*
X146838890Y-86925231D01*
X146812381Y-86939400D01*
X146812381Y-86939401D01*
X146272160Y-86939401D01*
X146662513Y-86563505D01*
X146702149Y-86537825D01*
X147517689Y-86208996D01*
X147564059Y-86200000D01*
X148488638Y-86200000D01*
X148555677Y-86219685D01*
G37*
%TD.AperFunction*%
%TD*%
%TA.AperFunction,Conductor*%
%TO.N,NEUTRAL_IN*%
G36*
X138155677Y-73919685D02*
G01*
X138176319Y-73936319D01*
X138603681Y-74363681D01*
X138637166Y-74425004D01*
X138640000Y-74451362D01*
X138640000Y-82374905D01*
X138630242Y-82423120D01*
X138291521Y-83225688D01*
X138263783Y-83266315D01*
X135215210Y-86234663D01*
X135176366Y-86260296D01*
X134361942Y-86599367D01*
X134316383Y-86608874D01*
X127505888Y-86724306D01*
X123591896Y-86790645D01*
X123524536Y-86772101D01*
X123502863Y-86755085D01*
X123077065Y-86336442D01*
X123043061Y-86275405D01*
X123040000Y-86248021D01*
X123040000Y-81951362D01*
X123059685Y-81884323D01*
X123076319Y-81863681D01*
X123503681Y-81436319D01*
X123565004Y-81402834D01*
X123591362Y-81400000D01*
X125538638Y-81400000D01*
X125605677Y-81419685D01*
X125626319Y-81436319D01*
X126053681Y-81863681D01*
X126087166Y-81925004D01*
X126090000Y-81951362D01*
X126090000Y-83400000D01*
X127090000Y-84400000D01*
X132590000Y-84400000D01*
X133090000Y-84400000D01*
X134840000Y-82400000D01*
X134840000Y-75674665D01*
X134849439Y-75627212D01*
X135184115Y-74819230D01*
X135210991Y-74779008D01*
X135719008Y-74270991D01*
X135759230Y-74244115D01*
X136567212Y-73909438D01*
X136614665Y-73900000D01*
X138088638Y-73900000D01*
X138155677Y-73919685D01*
G37*
%TD.AperFunction*%
%TD*%
%TA.AperFunction,Conductor*%
%TO.N,+12V*%
G36*
X120915761Y-98419685D02*
G01*
X120961516Y-98472489D01*
X120971460Y-98541647D01*
X120942435Y-98605203D01*
X120892055Y-98640182D01*
X120847913Y-98656645D01*
X120847906Y-98656649D01*
X120732812Y-98742809D01*
X120732809Y-98742812D01*
X120646649Y-98857906D01*
X120646645Y-98857913D01*
X120596403Y-98992620D01*
X120596401Y-98992627D01*
X120590000Y-99052155D01*
X120590000Y-100225000D01*
X122690000Y-100225000D01*
X122690000Y-99052172D01*
X122689999Y-99052155D01*
X122683598Y-98992627D01*
X122683596Y-98992620D01*
X122633354Y-98857913D01*
X122633350Y-98857906D01*
X122547190Y-98742812D01*
X122547187Y-98742809D01*
X122432093Y-98656649D01*
X122432086Y-98656645D01*
X122387945Y-98640182D01*
X122332011Y-98598311D01*
X122307594Y-98532847D01*
X122322445Y-98464574D01*
X122371851Y-98415168D01*
X122431278Y-98400000D01*
X135488638Y-98400000D01*
X135555677Y-98419685D01*
X135576319Y-98436319D01*
X136003681Y-98863681D01*
X136037166Y-98925004D01*
X136040000Y-98951362D01*
X136040000Y-101592830D01*
X135384125Y-102248704D01*
X135383561Y-102239734D01*
X135332812Y-102083544D01*
X135244814Y-101944881D01*
X135125097Y-101832460D01*
X134981183Y-101753342D01*
X134851997Y-101720172D01*
X135538333Y-101033836D01*
X135445861Y-100977168D01*
X135220457Y-100883803D01*
X134983219Y-100826848D01*
X134983220Y-100826848D01*
X134740000Y-100807707D01*
X134496780Y-100826848D01*
X134259542Y-100883803D01*
X134034146Y-100977165D01*
X134034141Y-100977168D01*
X133941665Y-101033836D01*
X134629165Y-101721335D01*
X134577067Y-101727917D01*
X134424371Y-101788374D01*
X134291508Y-101884905D01*
X134186825Y-102011445D01*
X134116900Y-102160043D01*
X134099328Y-102252157D01*
X133411336Y-101564165D01*
X133354668Y-101656641D01*
X133354665Y-101656646D01*
X133261303Y-101882042D01*
X133204348Y-102119280D01*
X133185207Y-102362500D01*
X133204348Y-102605719D01*
X133261303Y-102842957D01*
X133354668Y-103068361D01*
X133411336Y-103160833D01*
X134095874Y-102476295D01*
X134096439Y-102485266D01*
X134147188Y-102641456D01*
X134235186Y-102780119D01*
X134354903Y-102892540D01*
X134498817Y-102971658D01*
X134628002Y-103004827D01*
X133941665Y-103691162D01*
X133941665Y-103691163D01*
X134034138Y-103747831D01*
X134259542Y-103841196D01*
X134496780Y-103898151D01*
X134496779Y-103898151D01*
X134740000Y-103917292D01*
X134983219Y-103898151D01*
X135220457Y-103841196D01*
X135445857Y-103747832D01*
X135538332Y-103691162D01*
X134850834Y-103003664D01*
X134902933Y-102997083D01*
X135055629Y-102936626D01*
X135188492Y-102840095D01*
X135293175Y-102713555D01*
X135363100Y-102564957D01*
X135380671Y-102472841D01*
X136040000Y-103132170D01*
X136040000Y-103311099D01*
X136040000Y-103848638D01*
X136020315Y-103915677D01*
X136003681Y-103936319D01*
X135576319Y-104363681D01*
X135514996Y-104397166D01*
X135488638Y-104400000D01*
X133086662Y-104400000D01*
X133019623Y-104380315D01*
X133007995Y-104371851D01*
X132998540Y-104364091D01*
X132998532Y-104364086D01*
X132824733Y-104271188D01*
X132824727Y-104271186D01*
X132636132Y-104213976D01*
X132636129Y-104213975D01*
X132440000Y-104194659D01*
X132243870Y-104213975D01*
X132055266Y-104271188D01*
X131881467Y-104364086D01*
X131881459Y-104364091D01*
X131872005Y-104371851D01*
X131807696Y-104399166D01*
X131793338Y-104400000D01*
X129817380Y-104400000D01*
X129750341Y-104380315D01*
X129704586Y-104327511D01*
X129693977Y-104263845D01*
X129695341Y-104250000D01*
X129676024Y-104053868D01*
X129618814Y-103865273D01*
X129618811Y-103865269D01*
X129618811Y-103865266D01*
X129525913Y-103691467D01*
X129525909Y-103691460D01*
X129400883Y-103539116D01*
X129248539Y-103414090D01*
X129248532Y-103414086D01*
X129074733Y-103321188D01*
X129074727Y-103321186D01*
X128886132Y-103263976D01*
X128886129Y-103263975D01*
X128690000Y-103244659D01*
X128493870Y-103263975D01*
X128305266Y-103321188D01*
X128131467Y-103414086D01*
X128131460Y-103414090D01*
X127979116Y-103539116D01*
X127854090Y-103691460D01*
X127854086Y-103691467D01*
X127761188Y-103865266D01*
X127703975Y-104053870D01*
X127684659Y-104249998D01*
X127686023Y-104263845D01*
X127673005Y-104332491D01*
X127624940Y-104383202D01*
X127562620Y-104400000D01*
X122440000Y-104400000D01*
X119840000Y-102400000D01*
X119840000Y-100975000D01*
X120590000Y-100975000D01*
X120590000Y-102147844D01*
X120596401Y-102207372D01*
X120596403Y-102207379D01*
X120646645Y-102342086D01*
X120646649Y-102342093D01*
X120732809Y-102457187D01*
X120732812Y-102457190D01*
X120847906Y-102543350D01*
X120847913Y-102543354D01*
X120982620Y-102593596D01*
X120982627Y-102593598D01*
X121042155Y-102599999D01*
X121042172Y-102600000D01*
X121265000Y-102600000D01*
X121265000Y-100975000D01*
X122015000Y-100975000D01*
X122015000Y-102600000D01*
X122237828Y-102600000D01*
X122237844Y-102599999D01*
X122297372Y-102593598D01*
X122297379Y-102593596D01*
X122432086Y-102543354D01*
X122432093Y-102543350D01*
X122547187Y-102457190D01*
X122547190Y-102457187D01*
X122633350Y-102342093D01*
X122633354Y-102342086D01*
X122683596Y-102207379D01*
X122683598Y-102207372D01*
X122689999Y-102147844D01*
X122690000Y-102147827D01*
X122690000Y-101075000D01*
X128190000Y-101075000D01*
X128190000Y-102247844D01*
X128196401Y-102307372D01*
X128196403Y-102307379D01*
X128246645Y-102442086D01*
X128246649Y-102442093D01*
X128332809Y-102557187D01*
X128332812Y-102557190D01*
X128447906Y-102643350D01*
X128447913Y-102643354D01*
X128582620Y-102693596D01*
X128582627Y-102693598D01*
X128642155Y-102699999D01*
X128642172Y-102700000D01*
X128865000Y-102700000D01*
X128865000Y-101075000D01*
X129615000Y-101075000D01*
X129615000Y-102700000D01*
X129837828Y-102700000D01*
X129837844Y-102699999D01*
X129897372Y-102693598D01*
X129897379Y-102693596D01*
X130032086Y-102643354D01*
X130032093Y-102643350D01*
X130147187Y-102557190D01*
X130147190Y-102557187D01*
X130233350Y-102442093D01*
X130233354Y-102442086D01*
X130283596Y-102307379D01*
X130283598Y-102307372D01*
X130289999Y-102247844D01*
X130290000Y-102247827D01*
X130290000Y-101075000D01*
X129615000Y-101075000D01*
X128865000Y-101075000D01*
X128190000Y-101075000D01*
X122690000Y-101075000D01*
X122690000Y-100975000D01*
X122015000Y-100975000D01*
X121265000Y-100975000D01*
X120590000Y-100975000D01*
X119840000Y-100975000D01*
X119840000Y-100400000D01*
X119840000Y-100325000D01*
X128190000Y-100325000D01*
X128865000Y-100325000D01*
X128865000Y-98700000D01*
X129615000Y-98700000D01*
X129615000Y-100325000D01*
X130290000Y-100325000D01*
X130290000Y-99152172D01*
X130289999Y-99152155D01*
X130283598Y-99092627D01*
X130283596Y-99092620D01*
X130233354Y-98957913D01*
X130233350Y-98957906D01*
X130147190Y-98842812D01*
X130147187Y-98842809D01*
X130032093Y-98756649D01*
X130032086Y-98756645D01*
X129897379Y-98706403D01*
X129897372Y-98706401D01*
X129837844Y-98700000D01*
X129615000Y-98700000D01*
X128865000Y-98700000D01*
X128642155Y-98700000D01*
X128582627Y-98706401D01*
X128582620Y-98706403D01*
X128447913Y-98756645D01*
X128447906Y-98756649D01*
X128332812Y-98842809D01*
X128332809Y-98842812D01*
X128246649Y-98957906D01*
X128246645Y-98957913D01*
X128196403Y-99092620D01*
X128196401Y-99092627D01*
X128190000Y-99152155D01*
X128190000Y-100325000D01*
X119840000Y-100325000D01*
X119840000Y-98951362D01*
X119859685Y-98884323D01*
X119876319Y-98863681D01*
X120303681Y-98436319D01*
X120365004Y-98402834D01*
X120391362Y-98400000D01*
X120848722Y-98400000D01*
X120915761Y-98419685D01*
G37*
%TD.AperFunction*%
%TD*%
%TA.AperFunction,Conductor*%
%TO.N,+12V*%
G36*
X119840000Y-102400000D02*
G01*
X122440000Y-104400000D01*
X120885592Y-105760107D01*
X120875063Y-105769320D01*
X120811648Y-105798651D01*
X120793408Y-105800000D01*
X119094292Y-105800000D01*
X119027253Y-105780315D01*
X119003176Y-105760107D01*
X117872884Y-104535624D01*
X117841877Y-104473011D01*
X117840000Y-104451517D01*
X117840000Y-102844893D01*
X117859685Y-102777854D01*
X117868736Y-102765516D01*
X119840000Y-100400000D01*
X119840000Y-102400000D01*
G37*
%TD.AperFunction*%
%TD*%
M02*
