%TF.GenerationSoftware,KiCad,Pcbnew,7.0.8*%
%TF.CreationDate,2024-01-23T00:11:49-05:00*%
%TF.ProjectId,RemoteOutlet,52656d6f-7465-44f7-9574-6c65742e6b69,rev?*%
%TF.SameCoordinates,Original*%
%TF.FileFunction,Copper,L2,Bot*%
%TF.FilePolarity,Positive*%
%FSLAX46Y46*%
G04 Gerber Fmt 4.6, Leading zero omitted, Abs format (unit mm)*
G04 Created by KiCad (PCBNEW 7.0.8) date 2024-01-23 00:11:49*
%MOMM*%
%LPD*%
G01*
G04 APERTURE LIST*
G04 Aperture macros list*
%AMRoundRect*
0 Rectangle with rounded corners*
0 $1 Rounding radius*
0 $2 $3 $4 $5 $6 $7 $8 $9 X,Y pos of 4 corners*
0 Add a 4 corners polygon primitive as box body*
4,1,4,$2,$3,$4,$5,$6,$7,$8,$9,$2,$3,0*
0 Add four circle primitives for the rounded corners*
1,1,$1+$1,$2,$3*
1,1,$1+$1,$4,$5*
1,1,$1+$1,$6,$7*
1,1,$1+$1,$8,$9*
0 Add four rect primitives between the rounded corners*
20,1,$1+$1,$2,$3,$4,$5,0*
20,1,$1+$1,$4,$5,$6,$7,0*
20,1,$1+$1,$6,$7,$8,$9,0*
20,1,$1+$1,$8,$9,$2,$3,0*%
G04 Aperture macros list end*
%TA.AperFunction,NonConductor*%
%ADD10C,3.250000*%
%TD*%
%TA.AperFunction,ComponentPad*%
%ADD11C,1.200000*%
%TD*%
%TA.AperFunction,ComponentPad*%
%ADD12C,0.900000*%
%TD*%
%TA.AperFunction,ComponentPad*%
%ADD13RoundRect,0.250001X-1.099999X1.099999X-1.099999X-1.099999X1.099999X-1.099999X1.099999X1.099999X0*%
%TD*%
%TA.AperFunction,ComponentPad*%
%ADD14C,2.700000*%
%TD*%
%TA.AperFunction,ComponentPad*%
%ADD15C,1.800000*%
%TD*%
%TA.AperFunction,ComponentPad*%
%ADD16C,2.000000*%
%TD*%
%TA.AperFunction,ComponentPad*%
%ADD17C,2.600000*%
%TD*%
%TA.AperFunction,ComponentPad*%
%ADD18R,1.600000X1.600000*%
%TD*%
%TA.AperFunction,ComponentPad*%
%ADD19C,1.600000*%
%TD*%
%TA.AperFunction,SMDPad,CuDef*%
%ADD20RoundRect,0.150000X0.150000X-0.512500X0.150000X0.512500X-0.150000X0.512500X-0.150000X-0.512500X0*%
%TD*%
%TA.AperFunction,SMDPad,CuDef*%
%ADD21R,1.000000X2.500000*%
%TD*%
%TA.AperFunction,ComponentPad*%
%ADD22O,1.600000X1.600000*%
%TD*%
%TA.AperFunction,SMDPad,CuDef*%
%ADD23RoundRect,0.250000X0.475000X-0.337500X0.475000X0.337500X-0.475000X0.337500X-0.475000X-0.337500X0*%
%TD*%
%TA.AperFunction,SMDPad,CuDef*%
%ADD24RoundRect,0.250000X0.337500X0.475000X-0.337500X0.475000X-0.337500X-0.475000X0.337500X-0.475000X0*%
%TD*%
%TA.AperFunction,SMDPad,CuDef*%
%ADD25RoundRect,0.250000X-0.337500X-0.475000X0.337500X-0.475000X0.337500X0.475000X-0.337500X0.475000X0*%
%TD*%
%TA.AperFunction,SMDPad,CuDef*%
%ADD26R,4.000000X2.000000*%
%TD*%
%TA.AperFunction,ComponentPad*%
%ADD27R,1.350000X1.350000*%
%TD*%
%TA.AperFunction,ComponentPad*%
%ADD28O,1.350000X1.350000*%
%TD*%
%TA.AperFunction,ComponentPad*%
%ADD29R,1.700000X1.700000*%
%TD*%
%TA.AperFunction,ComponentPad*%
%ADD30O,1.700000X1.700000*%
%TD*%
%TA.AperFunction,SMDPad,CuDef*%
%ADD31RoundRect,0.250000X-1.500000X-0.650000X1.500000X-0.650000X1.500000X0.650000X-1.500000X0.650000X0*%
%TD*%
%TA.AperFunction,ComponentPad*%
%ADD32R,1.800000X1.800000*%
%TD*%
%TA.AperFunction,SMDPad,CuDef*%
%ADD33RoundRect,0.250000X1.500000X0.650000X-1.500000X0.650000X-1.500000X-0.650000X1.500000X-0.650000X0*%
%TD*%
%TA.AperFunction,SMDPad,CuDef*%
%ADD34R,1.450000X1.000000*%
%TD*%
%TA.AperFunction,SMDPad,CuDef*%
%ADD35RoundRect,0.250000X0.650000X-0.412500X0.650000X0.412500X-0.650000X0.412500X-0.650000X-0.412500X0*%
%TD*%
%TA.AperFunction,ViaPad*%
%ADD36C,1.000000*%
%TD*%
%TA.AperFunction,ViaPad*%
%ADD37C,0.500000*%
%TD*%
%TA.AperFunction,ViaPad*%
%ADD38C,1.500000*%
%TD*%
%TA.AperFunction,Conductor*%
%ADD39C,0.500000*%
%TD*%
%TA.AperFunction,Conductor*%
%ADD40C,0.250000*%
%TD*%
%TA.AperFunction,Conductor*%
%ADD41C,1.000000*%
%TD*%
%TA.AperFunction,Conductor*%
%ADD42C,2.000000*%
%TD*%
%TA.AperFunction,Conductor*%
%ADD43C,1.500000*%
%TD*%
G04 APERTURE END LIST*
D10*
X78125000Y-93600000D02*
G75*
G03*
X78125000Y-93600000I-1625000J0D01*
G01*
D11*
%TO.P,SW2,*%
%TO.N,*%
X99000000Y-112675000D03*
X99000000Y-115875000D03*
D12*
%TO.P,SW2,1,S1*%
%TO.N,/microcontroller_logic/BUTTON_IN*%
X96800000Y-113700000D03*
%TO.P,SW2,2,L1*%
%TO.N,unconnected-(SW2-L1-Pad2)*%
X96800000Y-112550000D03*
%TO.P,SW2,3,L2*%
%TO.N,unconnected-(SW2-L2-Pad3)*%
X96800000Y-116000000D03*
%TO.P,SW2,4,S2*%
%TO.N,GND*%
X96800000Y-114850000D03*
%TD*%
D13*
%TO.P,J3,1,AC_P*%
%TO.N,LIVE_OUT*%
X67400000Y-123840000D03*
D14*
%TO.P,J3,2,AC_N*%
%TO.N,NEUTRAL_IN*%
X67400000Y-127800000D03*
%TD*%
D15*
%TO.P,K1,13*%
%TO.N,LIVE_IN_FUSED*%
X56450000Y-121900000D03*
%TO.P,K1,14*%
%TO.N,LIVE_OUT*%
X56450000Y-128900000D03*
%TO.P,K1,A1*%
%TO.N,+12V*%
X56450000Y-110400000D03*
%TO.P,K1,A2*%
%TO.N,Net-(D6-A)*%
X61150000Y-110400000D03*
%TD*%
D16*
%TO.P,F1,1*%
%TO.N,LIVE_IN*%
X81450000Y-91200000D03*
%TO.P,F1,2*%
%TO.N,LIVE_IN_FUSED*%
X58950000Y-91200000D03*
%TD*%
D17*
%TO.P,L1,1,1*%
%TO.N,/power/12V_SW*%
X80900000Y-104962500D03*
%TO.P,L1,2,2*%
%TO.N,+12V*%
X75900000Y-104962500D03*
%TD*%
D18*
%TO.P,C1,1*%
%TO.N,/power/LNK_IN*%
X93402651Y-90500000D03*
D19*
%TO.P,C1,2*%
%TO.N,GND*%
X88402651Y-90500000D03*
%TD*%
D20*
%TO.P,U4,6,BOOT*%
%TO.N,Net-(U4-BOOT)*%
X67650000Y-103775000D03*
%TO.P,U4,5,EN*%
%TO.N,unconnected-(U4-EN-Pad5)*%
X66700000Y-103775000D03*
%TO.P,U4,4,FB*%
%TO.N,/power/3v3_FB*%
X65750000Y-103775000D03*
%TO.P,U4,3,VIN*%
%TO.N,+12V*%
X65750000Y-106050000D03*
%TO.P,U4,2,SW*%
%TO.N,/power/3v3_SW*%
X66700000Y-106050000D03*
%TO.P,U4,1,GND*%
%TO.N,GND*%
X67650000Y-106050000D03*
%TD*%
D21*
%TO.P,U2,16,DIO2*%
%TO.N,unconnected-(U2-DIO2-Pad16)*%
X73000000Y-136600000D03*
%TO.P,U2,15,DIO1*%
%TO.N,unconnected-(U2-DIO1-Pad15)*%
X75000000Y-136600000D03*
%TO.P,U2,14,DIO0*%
%TO.N,/microcontroller_logic/RF_INT*%
X77000000Y-136600000D03*
%TO.P,U2,13,3.3V*%
%TO.N,+3.3V*%
X79000000Y-136600000D03*
%TO.P,U2,12,DIO4*%
%TO.N,unconnected-(U2-DIO4-Pad12)*%
X81000000Y-136600000D03*
%TO.P,U2,11,DIO3*%
%TO.N,unconnected-(U2-DIO3-Pad11)*%
X83000000Y-136600000D03*
%TO.P,U2,10,GND*%
%TO.N,GND*%
X85000000Y-136600000D03*
%TO.P,U2,9,ANT*%
%TO.N,/microcontroller_logic/RF_ANT*%
X87000000Y-136600000D03*
%TO.P,U2,8,GND*%
%TO.N,GND*%
X87000000Y-118400000D03*
%TO.P,U2,7,DIO5*%
%TO.N,unconnected-(U2-DIO5-Pad7)*%
X85000000Y-118400000D03*
%TO.P,U2,6,RESET*%
%TO.N,/microcontroller_logic/RF_RESET*%
X83000000Y-118400000D03*
%TO.P,U2,5,NSS*%
%TO.N,/microcontroller_logic/SPI_CS*%
X81000000Y-118400000D03*
%TO.P,U2,4,SCK*%
%TO.N,/microcontroller_logic/SPI_CLK*%
X79000000Y-118400000D03*
%TO.P,U2,3,MOSI*%
%TO.N,/microcontroller_logic/SPI_MOSI*%
X77000000Y-118400000D03*
%TO.P,U2,2,MISO*%
%TO.N,/microcontroller_logic/SPI_MISO*%
X75000000Y-118400000D03*
%TO.P,U2,1,GND*%
%TO.N,GND*%
X73000000Y-118400000D03*
%TD*%
D18*
%TO.P,SW1,1*%
%TO.N,/microcontroller_logic/CHAN_SEL0*%
X90500000Y-121200000D03*
D22*
%TO.P,SW1,2*%
%TO.N,/microcontroller_logic/CHAN_SEL1*%
X90500000Y-123740000D03*
%TO.P,SW1,3*%
%TO.N,/microcontroller_logic/CHAN_SEL2*%
X90500000Y-126280000D03*
%TO.P,SW1,4*%
%TO.N,/microcontroller_logic/CHAN_SEL3*%
X90500000Y-128820000D03*
%TO.P,SW1,5*%
%TO.N,GND*%
X98120000Y-128820000D03*
%TO.P,SW1,6*%
X98120000Y-126280000D03*
%TO.P,SW1,7*%
X98120000Y-123740000D03*
%TO.P,SW1,8*%
X98120000Y-121200000D03*
%TD*%
D19*
%TO.P,RV1,1*%
%TO.N,/power/live_fbr_in*%
X74100000Y-75150000D03*
%TO.P,RV1,2*%
%TO.N,NEUTRAL_IN*%
X79100000Y-76450000D03*
%TD*%
D23*
%TO.P,R15,2*%
%TO.N,GND*%
X65200000Y-98962500D03*
%TO.P,R15,1*%
%TO.N,/power/3v3_FB*%
X65200000Y-101037500D03*
%TD*%
D24*
%TO.P,R14,2*%
%TO.N,/power/3v3_FB*%
X67762500Y-100650000D03*
%TO.P,R14,1*%
%TO.N,+3.3V*%
X69837500Y-100650000D03*
%TD*%
D25*
%TO.P,R13,2*%
%TO.N,Net-(C7-Pad1)*%
X71837500Y-103150000D03*
%TO.P,R13,1*%
%TO.N,Net-(U4-BOOT)*%
X69762500Y-103150000D03*
%TD*%
%TO.P,R12,2*%
%TO.N,/microcontroller_logic/BUTTON_IN*%
X98400000Y-110600000D03*
%TO.P,R12,1*%
%TO.N,+3.3V*%
X96325000Y-110600000D03*
%TD*%
D23*
%TO.P,R10,2*%
%TO.N,GND*%
X59000000Y-103062500D03*
%TO.P,R10,1*%
%TO.N,+12V*%
X59000000Y-105137500D03*
%TD*%
D19*
%TO.P,R9,1*%
%TO.N,LIVE_IN_FUSED*%
X59000000Y-81500000D03*
D22*
%TO.P,R9,2*%
%TO.N,/power/live_fbr_in*%
X59000000Y-78960000D03*
%TD*%
D24*
%TO.P,R6,1*%
%TO.N,+3.3V*%
X95037500Y-121300000D03*
%TO.P,R6,2*%
%TO.N,/microcontroller_logic/CHAN_SEL0*%
X92962500Y-121300000D03*
%TD*%
%TO.P,R5,1*%
%TO.N,+3.3V*%
X95037500Y-123800000D03*
%TO.P,R5,2*%
%TO.N,/microcontroller_logic/CHAN_SEL1*%
X92962500Y-123800000D03*
%TD*%
%TO.P,R4,1*%
%TO.N,+3.3V*%
X95037500Y-126300000D03*
%TO.P,R4,2*%
%TO.N,/microcontroller_logic/CHAN_SEL2*%
X92962500Y-126300000D03*
%TD*%
%TO.P,R3,1*%
%TO.N,+3.3V*%
X95037500Y-128800000D03*
%TO.P,R3,2*%
%TO.N,/microcontroller_logic/CHAN_SEL3*%
X92962500Y-128800000D03*
%TD*%
D26*
%TO.P,L2,2,2*%
%TO.N,+3.3V*%
X65400000Y-112500000D03*
%TO.P,L2,1,1*%
%TO.N,/power/3v3_SW*%
X65400000Y-109000000D03*
%TD*%
D27*
%TO.P,J2,1,Pin_1*%
%TO.N,/microcontroller_logic/RF_ANT*%
X90000000Y-136600000D03*
D28*
%TO.P,J2,2,Pin_2*%
%TO.N,GND*%
X92000000Y-136600000D03*
%TD*%
D29*
%TO.P,J1,1,Pin_1*%
%TO.N,/microcontroller_logic/VPP*%
X56300000Y-137000000D03*
D30*
%TO.P,J1,2,Pin_2*%
%TO.N,+3.3V*%
X58840000Y-137000000D03*
%TO.P,J1,3,Pin_3*%
%TO.N,GND*%
X61380000Y-137000000D03*
%TO.P,J1,4,Pin_4*%
%TO.N,/microcontroller_logic/ICSPDAT*%
X63920000Y-137000000D03*
%TO.P,J1,5,Pin_5*%
%TO.N,/microcontroller_logic/ICSPCLK*%
X66460000Y-137000000D03*
%TO.P,J1,6,Pin_6*%
%TO.N,unconnected-(J1-Pin_6-Pad6)*%
X69000000Y-137000000D03*
%TD*%
D31*
%TO.P,D6,1,K*%
%TO.N,+12V*%
X55700000Y-116600000D03*
%TO.P,D6,2,A*%
%TO.N,Net-(D6-A)*%
X60700000Y-116600000D03*
%TD*%
D32*
%TO.P,D4,1,K*%
%TO.N,GND*%
X78975000Y-113300000D03*
D15*
%TO.P,D4,2,A*%
%TO.N,Net-(D4-A)*%
X76435000Y-113300000D03*
%TD*%
D33*
%TO.P,D3,1,K*%
%TO.N,/power/12V_FB_DIODE*%
X83100000Y-110000000D03*
%TO.P,D3,2,A*%
%TO.N,+12V*%
X78100000Y-110000000D03*
%TD*%
D34*
%TO.P,D1,1,+*%
%TO.N,/power/LNK_IN*%
X92737500Y-81887500D03*
%TO.P,D1,2*%
%TO.N,NEUTRAL_IN*%
X92737500Y-77887500D03*
%TO.P,D1,3,-*%
%TO.N,GND*%
X87287500Y-81887500D03*
%TO.P,D1,4*%
%TO.N,/power/live_fbr_in*%
X87287500Y-77887500D03*
%TD*%
D25*
%TO.P,C16,1*%
%TO.N,GND*%
X96400000Y-118200000D03*
%TO.P,C16,2*%
%TO.N,/microcontroller_logic/BUTTON_IN*%
X98475000Y-118200000D03*
%TD*%
D23*
%TO.P,C10,2*%
%TO.N,GND*%
X69500000Y-109612500D03*
%TO.P,C10,1*%
%TO.N,+3.3V*%
X69500000Y-111687500D03*
%TD*%
%TO.P,C8,2*%
%TO.N,GND*%
X71800000Y-109612500D03*
%TO.P,C8,1*%
%TO.N,+3.3V*%
X71800000Y-111687500D03*
%TD*%
D24*
%TO.P,C7,2*%
%TO.N,/power/3v3_SW*%
X69800000Y-105400000D03*
%TO.P,C7,1*%
%TO.N,Net-(C7-Pad1)*%
X71875000Y-105400000D03*
%TD*%
D23*
%TO.P,C6,2*%
%TO.N,GND*%
X63600000Y-103362500D03*
%TO.P,C6,1*%
%TO.N,+12V*%
X63600000Y-105437500D03*
%TD*%
D35*
%TO.P,C5,2*%
%TO.N,GND*%
X61300000Y-102237500D03*
%TO.P,C5,1*%
%TO.N,+12V*%
X61300000Y-105362500D03*
%TD*%
D36*
%TO.N,+12V*%
X60400000Y-107900000D03*
X61600000Y-107900000D03*
D37*
%TO.N,/microcontroller_logic/RF_RESET*%
X80500000Y-124500000D03*
%TO.N,POWER_LOSS_INT*%
X84400000Y-128200000D03*
X84600000Y-130400000D03*
X77600000Y-130400000D03*
X76400000Y-123400000D03*
D36*
%TO.N,GND*%
X91000000Y-112400000D03*
%TO.N,+3.3V*%
X71800000Y-114800000D03*
%TO.N,/microcontroller_logic/BUTTON_IN*%
X98600000Y-119600000D03*
%TO.N,GND*%
X67500000Y-116375500D03*
X87600000Y-127400000D03*
X85500000Y-127500000D03*
%TO.N,+3.3V*%
X95037500Y-119250000D03*
X95000000Y-112500000D03*
X92500000Y-115650000D03*
X76500000Y-116000000D03*
X85050000Y-115650000D03*
D37*
%TO.N,/microcontroller_logic/SPI_MISO*%
X76300000Y-129075500D03*
%TO.N,/microcontroller_logic/SPI_CLK*%
X77700000Y-126550000D03*
%TO.N,/microcontroller_logic/SPI_MOSI*%
X77250000Y-127250000D03*
%TO.N,/microcontroller_logic/CHAN_SEL3*%
X83450000Y-128850000D03*
X80424500Y-125950000D03*
%TO.N,/microcontroller_logic/CHAN_SEL2*%
X83850000Y-126200000D03*
%TO.N,/microcontroller_logic/CHAN_SEL1*%
X83900000Y-125300000D03*
%TO.N,/microcontroller_logic/CHAN_SEL0*%
X83900000Y-124400000D03*
%TO.N,GND*%
X81250000Y-120506233D03*
X81850000Y-121100000D03*
%TO.N,/microcontroller_logic/SPI_CS*%
X80150000Y-127950000D03*
D36*
%TO.N,+3.3V*%
X75953249Y-130946751D03*
D37*
%TO.N,/microcontroller_logic/VPP*%
X72650000Y-131000000D03*
X72650000Y-124100000D03*
%TO.N,/microcontroller_logic/ICSPDAT*%
X78400000Y-123550000D03*
X78200000Y-131650000D03*
%TO.N,/microcontroller_logic/ICSPCLK*%
X78800000Y-132450000D03*
X79250000Y-123600000D03*
%TO.N,/microcontroller_logic/RF_INT*%
X73250000Y-122850000D03*
%TO.N,GND*%
X86000000Y-122500000D03*
D36*
%TO.N,+12V*%
X61000000Y-106800000D03*
X62200000Y-106800000D03*
X59800000Y-106800000D03*
%TO.N,GND*%
X85000000Y-134000000D03*
%TO.N,+3.3V*%
X79000000Y-133800000D03*
X74600000Y-120700000D03*
X79000000Y-133800000D03*
X69500000Y-114800000D03*
%TO.N,GND*%
X72000000Y-95200000D03*
X72800000Y-96800000D03*
X69600000Y-95000000D03*
X65900000Y-95000000D03*
X67100000Y-95000000D03*
X68400000Y-95000000D03*
X68400000Y-96200000D03*
X67100000Y-96200000D03*
X65900000Y-96200000D03*
X64700000Y-96200000D03*
%TO.N,+3.3V*%
X73600000Y-107800000D03*
X73600000Y-110800000D03*
%TO.N,/power/3v3_SW*%
X67900000Y-108800000D03*
X69850000Y-106850000D03*
%TO.N,/power/12V_FB_DIODE*%
X86282134Y-108758614D03*
D38*
%TO.N,NEUTRAL_IN*%
X90400000Y-76400000D03*
%TO.N,/power/live_fbr_in*%
X82625000Y-74375000D03*
%TD*%
D39*
%TO.N,+3.3V*%
X95037500Y-119187500D02*
X95037500Y-119250000D01*
X95037500Y-119250000D02*
X95037500Y-121300000D01*
X95000000Y-111925000D02*
X96325000Y-110600000D01*
X95000000Y-112500000D02*
X95000000Y-111925000D01*
X85050000Y-115650000D02*
X78850000Y-115650000D01*
X78850000Y-115650000D02*
X78500000Y-116000000D01*
X91400000Y-115650000D02*
X85050000Y-115650000D01*
X92500000Y-115650000D02*
X91400000Y-115650000D01*
X78500000Y-116000000D02*
X76500000Y-116000000D01*
D40*
%TO.N,/power/3v3_SW*%
X67900000Y-108800000D02*
X67700000Y-109000000D01*
X67700000Y-109000000D02*
X65400000Y-109000000D01*
D41*
%TO.N,+12V*%
X59800000Y-106800000D02*
X59800000Y-107050000D01*
X59800000Y-107050000D02*
X56450000Y-110400000D01*
D40*
%TO.N,/microcontroller_logic/BUTTON_IN*%
X97000000Y-113700000D02*
X96800000Y-113700000D01*
X97900000Y-114600000D02*
X97000000Y-113700000D01*
X97900000Y-117625000D02*
X97900000Y-114600000D01*
X98475000Y-118200000D02*
X97900000Y-117625000D01*
%TO.N,/microcontroller_logic/RF_RESET*%
X83000000Y-122000000D02*
X83000000Y-118400000D01*
X80500000Y-124500000D02*
X83000000Y-122000000D01*
%TO.N,POWER_LOSS_INT*%
X84600000Y-128400000D02*
X84400000Y-128200000D01*
X84600000Y-130400000D02*
X84600000Y-128400000D01*
X77600000Y-129562327D02*
X77600000Y-130400000D01*
X76400000Y-128362327D02*
X77600000Y-129562327D01*
X76400000Y-123400000D02*
X76400000Y-128362327D01*
%TO.N,/microcontroller_logic/SPI_MISO*%
X75500000Y-119650000D02*
X75000000Y-119150000D01*
X75500000Y-128275500D02*
X75500000Y-119650000D01*
X75000000Y-119150000D02*
X75000000Y-118400000D01*
X76300000Y-129075500D02*
X75500000Y-128275500D01*
%TO.N,/microcontroller_logic/BUTTON_IN*%
X98600000Y-119600000D02*
X98600000Y-118325000D01*
X98600000Y-118325000D02*
X98475000Y-118200000D01*
D39*
X97950000Y-112672792D02*
X97950000Y-111050000D01*
X97950000Y-111050000D02*
X98400000Y-110600000D01*
X96922792Y-113700000D02*
X97950000Y-112672792D01*
X96800000Y-113700000D02*
X96922792Y-113700000D01*
D42*
%TO.N,LIVE_OUT*%
X67360000Y-123800000D02*
X67400000Y-123840000D01*
X56450000Y-128900000D02*
X61550000Y-123800000D01*
X61550000Y-123800000D02*
X67360000Y-123800000D01*
D43*
%TO.N,GND*%
X87287500Y-89384849D02*
X88402651Y-90500000D01*
X87287500Y-81887500D02*
X87287500Y-89384849D01*
D40*
%TO.N,/microcontroller_logic/RF_INT*%
X77000000Y-135000000D02*
X77000000Y-136600000D01*
X76500000Y-134500000D02*
X77000000Y-135000000D01*
X75100000Y-134500000D02*
X76500000Y-134500000D01*
X73250000Y-132650000D02*
X75100000Y-134500000D01*
X73250000Y-122850000D02*
X73250000Y-132650000D01*
D39*
%TO.N,Net-(D6-A)*%
X60250000Y-111300000D02*
X61150000Y-110400000D01*
X60250000Y-116150000D02*
X60250000Y-111300000D01*
X60700000Y-116600000D02*
X60250000Y-116150000D01*
D41*
%TO.N,+12V*%
X56450000Y-115850000D02*
X55700000Y-116600000D01*
X56450000Y-110400000D02*
X56450000Y-115850000D01*
D43*
%TO.N,/power/live_fbr_in*%
X83775000Y-74375000D02*
X87287500Y-77887500D01*
X82625000Y-74375000D02*
X83775000Y-74375000D01*
D39*
%TO.N,+3.3V*%
X96325000Y-110725000D02*
X96325000Y-110600000D01*
%TO.N,/microcontroller_logic/RF_ANT*%
X87000000Y-136600000D02*
X90000000Y-136600000D01*
D41*
%TO.N,+12V*%
X75962500Y-104962500D02*
X75400000Y-104962500D01*
X77700000Y-106700000D02*
X75962500Y-104962500D01*
X77700000Y-109962500D02*
X77700000Y-106700000D01*
D39*
%TO.N,+3.3V*%
X95037500Y-126300000D02*
X95037500Y-128800000D01*
X95037500Y-123800000D02*
X95037500Y-126300000D01*
X95037500Y-121300000D02*
X95037500Y-123800000D01*
D40*
X96325000Y-110600000D02*
X96325000Y-110775000D01*
%TO.N,/microcontroller_logic/SPI_CLK*%
X79000000Y-120050000D02*
X79000000Y-118400000D01*
X77700000Y-121350000D02*
X79000000Y-120050000D01*
X77700000Y-126550000D02*
X77700000Y-121350000D01*
%TO.N,GND*%
X96350000Y-118012500D02*
X96362500Y-118000000D01*
%TO.N,/microcontroller_logic/SPI_MOSI*%
X77000000Y-127000000D02*
X77000000Y-118400000D01*
X77250000Y-127250000D02*
X77000000Y-127000000D01*
%TO.N,/microcontroller_logic/CHAN_SEL3*%
X80424500Y-125950000D02*
X83324500Y-128850000D01*
X83324500Y-128850000D02*
X83450000Y-128850000D01*
X90520000Y-128800000D02*
X90500000Y-128820000D01*
X92962500Y-128800000D02*
X90520000Y-128800000D01*
%TO.N,/microcontroller_logic/CHAN_SEL0*%
X92962500Y-121300000D02*
X90600000Y-121300000D01*
X90600000Y-121300000D02*
X90500000Y-121200000D01*
%TO.N,/microcontroller_logic/CHAN_SEL1*%
X90560000Y-123800000D02*
X90500000Y-123740000D01*
X92962500Y-123800000D02*
X90560000Y-123800000D01*
%TO.N,/microcontroller_logic/CHAN_SEL2*%
X90520000Y-126300000D02*
X90500000Y-126280000D01*
X92962500Y-126300000D02*
X90520000Y-126300000D01*
X83850000Y-126200000D02*
X83930000Y-126280000D01*
X83930000Y-126280000D02*
X90500000Y-126280000D01*
%TO.N,/microcontroller_logic/CHAN_SEL1*%
X83900000Y-125300000D02*
X88940000Y-125300000D01*
X88940000Y-125300000D02*
X90500000Y-123740000D01*
%TO.N,/microcontroller_logic/CHAN_SEL0*%
X87300000Y-124400000D02*
X90500000Y-121200000D01*
X83900000Y-124400000D02*
X87300000Y-124400000D01*
%TO.N,/microcontroller_logic/SPI_CS*%
X81100000Y-118500000D02*
X81000000Y-118400000D01*
X81100000Y-119800000D02*
X81100000Y-118500000D01*
X79850000Y-127650000D02*
X79850000Y-121050000D01*
X80150000Y-127950000D02*
X79850000Y-127650000D01*
X79850000Y-121050000D02*
X81100000Y-119800000D01*
D41*
%TO.N,+3.3V*%
X75953249Y-130946751D02*
X76128249Y-131121751D01*
X75953249Y-130946751D02*
X74600000Y-129593503D01*
X78806497Y-133800000D02*
X75953249Y-130946751D01*
D40*
%TO.N,/microcontroller_logic/VPP*%
X72650000Y-131000000D02*
X72650000Y-124100000D01*
%TO.N,/microcontroller_logic/ICSPDAT*%
X78400000Y-131450000D02*
X78200000Y-131650000D01*
X78400000Y-123550000D02*
X78400000Y-131450000D01*
D41*
%TO.N,+3.3V*%
X74600000Y-129593503D02*
X74600000Y-120700000D01*
X79000000Y-133800000D02*
X78806497Y-133800000D01*
D40*
%TO.N,/microcontroller_logic/ICSPCLK*%
X79250000Y-132000000D02*
X78800000Y-132450000D01*
X79250000Y-123600000D02*
X79250000Y-132000000D01*
D39*
%TO.N,GND*%
X87000000Y-120800000D02*
X87000000Y-118400000D01*
X87100000Y-120900000D02*
X87000000Y-120800000D01*
X87100000Y-121400000D02*
X87100000Y-120900000D01*
X86000000Y-122500000D02*
X87100000Y-121400000D01*
%TO.N,Net-(D6-A)*%
X60700000Y-110350000D02*
X60800000Y-110250000D01*
D41*
%TO.N,GND*%
X85000000Y-136600000D02*
X85000000Y-134000000D01*
%TO.N,+3.3V*%
X79000000Y-136600000D02*
X79000000Y-133800000D01*
X71800000Y-111687500D02*
X71800000Y-114800000D01*
X69500000Y-111687500D02*
X69500000Y-114800000D01*
D40*
%TO.N,/power/3v3_SW*%
X69850000Y-106850000D02*
X69800000Y-106800000D01*
X69800000Y-106800000D02*
X69800000Y-105400000D01*
%TO.N,+3.3V*%
X72350000Y-100650000D02*
X69837500Y-100650000D01*
X73600000Y-101900000D02*
X72350000Y-100650000D01*
X73600000Y-107800000D02*
X73600000Y-101900000D01*
X72712500Y-111687500D02*
X73600000Y-110800000D01*
X71800000Y-111687500D02*
X72712500Y-111687500D01*
%TO.N,GND*%
X69500000Y-109612500D02*
X71800000Y-109612500D01*
X67650000Y-107050000D02*
X69500000Y-108900000D01*
X67650000Y-106050000D02*
X67650000Y-107050000D01*
X69500000Y-108900000D02*
X69500000Y-109612500D01*
%TO.N,Net-(C7-Pad1)*%
X71837500Y-105362500D02*
X71875000Y-105400000D01*
X71837500Y-103150000D02*
X71837500Y-105362500D01*
%TO.N,Net-(U4-BOOT)*%
X69137500Y-103775000D02*
X69762500Y-103150000D01*
X67650000Y-103775000D02*
X69137500Y-103775000D01*
%TO.N,/power/3v3_FB*%
X65200000Y-102300000D02*
X65200000Y-101037500D01*
X65750000Y-102850000D02*
X65200000Y-102300000D01*
X65750000Y-103775000D02*
X65750000Y-102850000D01*
X65587500Y-100650000D02*
X65200000Y-101037500D01*
X67762500Y-100650000D02*
X65587500Y-100650000D01*
D41*
%TO.N,/power/12V_FB_DIODE*%
X84000000Y-109962500D02*
X82700000Y-109962500D01*
X86282134Y-108758614D02*
X85203886Y-108758614D01*
X85203886Y-108758614D02*
X84000000Y-109962500D01*
D43*
%TO.N,/power/LNK_IN*%
X92737500Y-89834849D02*
X93402651Y-90500000D01*
X92737500Y-81887500D02*
X92737500Y-89834849D01*
%TO.N,NEUTRAL_IN*%
X91250000Y-76400000D02*
X92737500Y-77887500D01*
X90400000Y-76400000D02*
X91250000Y-76400000D01*
%TD*%
%TA.AperFunction,Conductor*%
%TO.N,/power/3v3_SW*%
G36*
X66943039Y-105419685D02*
G01*
X66988794Y-105472489D01*
X67000000Y-105524000D01*
X67000000Y-107000000D01*
X67400000Y-107400000D01*
X67548638Y-107400000D01*
X67615677Y-107419685D01*
X67636319Y-107436319D01*
X68163681Y-107963681D01*
X68197166Y-108025004D01*
X68200000Y-108051362D01*
X68200000Y-109876000D01*
X68180315Y-109943039D01*
X68127511Y-109988794D01*
X68076000Y-110000000D01*
X63124000Y-110000000D01*
X63056961Y-109980315D01*
X63011206Y-109927511D01*
X63000000Y-109876000D01*
X63000000Y-107524000D01*
X63019685Y-107456961D01*
X63072489Y-107411206D01*
X63124000Y-107400000D01*
X66000000Y-107400000D01*
X66400000Y-107000000D01*
X66400000Y-106728669D01*
X66400128Y-106724687D01*
X66406438Y-106626613D01*
X66406437Y-106626609D01*
X66406438Y-106626604D01*
X66405191Y-106610759D01*
X66405000Y-106605894D01*
X66405000Y-105524000D01*
X66424685Y-105456961D01*
X66477489Y-105411206D01*
X66529000Y-105400000D01*
X66876000Y-105400000D01*
X66943039Y-105419685D01*
G37*
%TD.AperFunction*%
%TD*%
%TA.AperFunction,Conductor*%
%TO.N,+12V*%
G36*
X63815677Y-104919685D02*
G01*
X63836319Y-104936319D01*
X64300000Y-105400000D01*
X65775500Y-105400000D01*
X65842539Y-105419685D01*
X65888294Y-105472489D01*
X65899500Y-105524000D01*
X65899500Y-106628196D01*
X65902497Y-106666271D01*
X65888133Y-106734648D01*
X65839082Y-106784405D01*
X65778879Y-106800000D01*
X62799999Y-106800000D01*
X61236319Y-108363681D01*
X61174996Y-108397166D01*
X61148638Y-108400000D01*
X59351362Y-108400000D01*
X59284323Y-108380315D01*
X59263681Y-108363681D01*
X58036319Y-107136319D01*
X58002834Y-107074996D01*
X58000000Y-107048638D01*
X58000000Y-105024000D01*
X58019685Y-104956961D01*
X58072489Y-104911206D01*
X58124000Y-104900000D01*
X63748638Y-104900000D01*
X63815677Y-104919685D01*
G37*
%TD.AperFunction*%
%TD*%
%TA.AperFunction,Conductor*%
%TO.N,+3.3V*%
G36*
X73143039Y-111019685D02*
G01*
X73188794Y-111072489D01*
X73200000Y-111124000D01*
X73200000Y-115476000D01*
X73180315Y-115543039D01*
X73127511Y-115588794D01*
X73076000Y-115600000D01*
X63124000Y-115600000D01*
X63056961Y-115580315D01*
X63011206Y-115527511D01*
X63000000Y-115476000D01*
X63000000Y-111624000D01*
X63019685Y-111556961D01*
X63072489Y-111511206D01*
X63124000Y-111500000D01*
X68500000Y-111500000D01*
X68500000Y-111124000D01*
X68519685Y-111056961D01*
X68572489Y-111011206D01*
X68624000Y-111000000D01*
X73076000Y-111000000D01*
X73143039Y-111019685D01*
G37*
%TD.AperFunction*%
%TD*%
%TA.AperFunction,Conductor*%
%TO.N,GND*%
G36*
X71751811Y-93519685D02*
G01*
X71786953Y-93553750D01*
X74500000Y-97500000D01*
X76956503Y-97500000D01*
X77023542Y-97519685D01*
X77033965Y-97527172D01*
X79453462Y-99462770D01*
X79493514Y-99520020D01*
X79500000Y-99559597D01*
X79500000Y-104392760D01*
X79489557Y-104442569D01*
X79475935Y-104473623D01*
X79414892Y-104714675D01*
X79414890Y-104714687D01*
X79394357Y-104962494D01*
X79394357Y-104962505D01*
X79414890Y-105210312D01*
X79414892Y-105210324D01*
X79470220Y-105428805D01*
X79475937Y-105451381D01*
X79489556Y-105482430D01*
X79500000Y-105532239D01*
X79500000Y-108775500D01*
X79480315Y-108842539D01*
X79427511Y-108888294D01*
X79376000Y-108899500D01*
X78524500Y-108899500D01*
X78457461Y-108879815D01*
X78411706Y-108827011D01*
X78400500Y-108775500D01*
X78400500Y-106723047D01*
X78400613Y-106719302D01*
X78403973Y-106663751D01*
X78404358Y-106657394D01*
X78393175Y-106596370D01*
X78392613Y-106592673D01*
X78385140Y-106531127D01*
X78381548Y-106521656D01*
X78375522Y-106500042D01*
X78373695Y-106490068D01*
X78348234Y-106433496D01*
X78346806Y-106430049D01*
X78343781Y-106422072D01*
X78324818Y-106372070D01*
X78319063Y-106363733D01*
X78308036Y-106344182D01*
X78303879Y-106334946D01*
X78303878Y-106334943D01*
X78286287Y-106312490D01*
X78265630Y-106286122D01*
X78263410Y-106283106D01*
X78259742Y-106277792D01*
X78228183Y-106232071D01*
X78181750Y-106190935D01*
X78179056Y-106188399D01*
X77397722Y-105407065D01*
X77364237Y-105345742D01*
X77365198Y-105288942D01*
X77385106Y-105210329D01*
X77385107Y-105210324D01*
X77385108Y-105210321D01*
X77386218Y-105196926D01*
X77405643Y-104962505D01*
X77405643Y-104962494D01*
X77385109Y-104714687D01*
X77385107Y-104714675D01*
X77324063Y-104473618D01*
X77224173Y-104245893D01*
X77088166Y-104037717D01*
X77004792Y-103947149D01*
X76919744Y-103854762D01*
X76723509Y-103702026D01*
X76723507Y-103702025D01*
X76723506Y-103702024D01*
X76504811Y-103583672D01*
X76504802Y-103583669D01*
X76269616Y-103502929D01*
X76024335Y-103462000D01*
X75775665Y-103462000D01*
X75530383Y-103502929D01*
X75295197Y-103583669D01*
X75295188Y-103583672D01*
X75076493Y-103702024D01*
X74880257Y-103854761D01*
X74711833Y-104037717D01*
X74575826Y-104245893D01*
X74475936Y-104473618D01*
X74414892Y-104714675D01*
X74414890Y-104714687D01*
X74394357Y-104962494D01*
X74394357Y-104962505D01*
X74414890Y-105210312D01*
X74414892Y-105210324D01*
X74475936Y-105451381D01*
X74575826Y-105679106D01*
X74711833Y-105887282D01*
X74711836Y-105887285D01*
X74880256Y-106070238D01*
X75076491Y-106222974D01*
X75076493Y-106222975D01*
X75283391Y-106334943D01*
X75295190Y-106341328D01*
X75530386Y-106422071D01*
X75775665Y-106463000D01*
X76024335Y-106463000D01*
X76211316Y-106431799D01*
X76269614Y-106422071D01*
X76316855Y-106405852D01*
X76386649Y-106402703D01*
X76444796Y-106435453D01*
X76963181Y-106953838D01*
X76996666Y-107015161D01*
X76999500Y-107041519D01*
X76999500Y-108775500D01*
X76979815Y-108842539D01*
X76927011Y-108888294D01*
X76875500Y-108899500D01*
X76545730Y-108899500D01*
X76515300Y-108902353D01*
X76515298Y-108902353D01*
X76387119Y-108947206D01*
X76387117Y-108947207D01*
X76277850Y-109027850D01*
X76197207Y-109137117D01*
X76197206Y-109137119D01*
X76152353Y-109265298D01*
X76152353Y-109265300D01*
X76149500Y-109295730D01*
X76149500Y-110704269D01*
X76152353Y-110734699D01*
X76152353Y-110734701D01*
X76197206Y-110862880D01*
X76197207Y-110862882D01*
X76277850Y-110972150D01*
X76387118Y-111052793D01*
X76429845Y-111067744D01*
X76515299Y-111097646D01*
X76545730Y-111100500D01*
X76545734Y-111100500D01*
X79654270Y-111100500D01*
X79684699Y-111097646D01*
X79684701Y-111097646D01*
X79748790Y-111075219D01*
X79812882Y-111052793D01*
X79922150Y-110972150D01*
X80002793Y-110862882D01*
X80036493Y-110766573D01*
X80047646Y-110734701D01*
X80047646Y-110734699D01*
X80050500Y-110704269D01*
X80050500Y-109624000D01*
X80070185Y-109556961D01*
X80122989Y-109511206D01*
X80174500Y-109500000D01*
X81025500Y-109500000D01*
X81092539Y-109519685D01*
X81138294Y-109572489D01*
X81149500Y-109624000D01*
X81149500Y-110704269D01*
X81152353Y-110734699D01*
X81152353Y-110734701D01*
X81197206Y-110862880D01*
X81197207Y-110862882D01*
X81277850Y-110972150D01*
X81387118Y-111052793D01*
X81429845Y-111067744D01*
X81515299Y-111097646D01*
X81545730Y-111100500D01*
X81545734Y-111100500D01*
X84654270Y-111100500D01*
X84684699Y-111097646D01*
X84684701Y-111097646D01*
X84748790Y-111075219D01*
X84812882Y-111052793D01*
X84922150Y-110972150D01*
X85002793Y-110862882D01*
X85036493Y-110766573D01*
X85047646Y-110734701D01*
X85047646Y-110734699D01*
X85050500Y-110704269D01*
X85050500Y-109954019D01*
X85070185Y-109886980D01*
X85086819Y-109866338D01*
X85416838Y-109536319D01*
X85478161Y-109502834D01*
X85504519Y-109500000D01*
X95698867Y-109500000D01*
X95765906Y-109519685D01*
X95811661Y-109572489D01*
X95821605Y-109641647D01*
X95792580Y-109705203D01*
X95772500Y-109723770D01*
X95665351Y-109802848D01*
X95584707Y-109912117D01*
X95584706Y-109912119D01*
X95539853Y-110040298D01*
X95539853Y-110040300D01*
X95537000Y-110070730D01*
X95537000Y-110699534D01*
X95517315Y-110766573D01*
X95500681Y-110787215D01*
X94701804Y-111586092D01*
X94696617Y-111590727D01*
X94666033Y-111615117D01*
X94666029Y-111615121D01*
X94632519Y-111664271D01*
X94597206Y-111712118D01*
X94593216Y-111719667D01*
X94589528Y-111727326D01*
X94571992Y-111784177D01*
X94552353Y-111840301D01*
X94550771Y-111848659D01*
X94549500Y-111857100D01*
X94549500Y-111907441D01*
X94529815Y-111974480D01*
X94507729Y-112000255D01*
X94471818Y-112032069D01*
X94471815Y-112032073D01*
X94375182Y-112172068D01*
X94314860Y-112331125D01*
X94314859Y-112331130D01*
X94294355Y-112500000D01*
X94314859Y-112668869D01*
X94314860Y-112668874D01*
X94375182Y-112827931D01*
X94400863Y-112865135D01*
X94471817Y-112967929D01*
X94577505Y-113061560D01*
X94599150Y-113080736D01*
X94700141Y-113133740D01*
X94749775Y-113159790D01*
X94914944Y-113200500D01*
X95085056Y-113200500D01*
X95250225Y-113159790D01*
X95343912Y-113110619D01*
X95400849Y-113080736D01*
X95400850Y-113080734D01*
X95400852Y-113080734D01*
X95528183Y-112967929D01*
X95624818Y-112827930D01*
X95685140Y-112668872D01*
X95705645Y-112500000D01*
X95685140Y-112331128D01*
X95624818Y-112172070D01*
X95587641Y-112118210D01*
X95565759Y-112051858D01*
X95583224Y-111984207D01*
X95602007Y-111960095D01*
X96000284Y-111561819D01*
X96061607Y-111528334D01*
X96087965Y-111525500D01*
X96716770Y-111525500D01*
X96747199Y-111522646D01*
X96747201Y-111522646D01*
X96814593Y-111499064D01*
X96875382Y-111477793D01*
X96984650Y-111397150D01*
X97065293Y-111287882D01*
X97090690Y-111215301D01*
X97110146Y-111159701D01*
X97110146Y-111159699D01*
X97113000Y-111129269D01*
X97113000Y-110070730D01*
X97110146Y-110040300D01*
X97110146Y-110040298D01*
X97065293Y-109912119D01*
X97065292Y-109912117D01*
X96984650Y-109802850D01*
X96984648Y-109802849D01*
X96984648Y-109802848D01*
X96877500Y-109723770D01*
X96835249Y-109668123D01*
X96829790Y-109598467D01*
X96862857Y-109536917D01*
X96923951Y-109503016D01*
X96951133Y-109500000D01*
X97773867Y-109500000D01*
X97840906Y-109519685D01*
X97886661Y-109572489D01*
X97896605Y-109641647D01*
X97867580Y-109705203D01*
X97847500Y-109723770D01*
X97740351Y-109802848D01*
X97659707Y-109912117D01*
X97659706Y-109912119D01*
X97614853Y-110040298D01*
X97614853Y-110040300D01*
X97612000Y-110070730D01*
X97612000Y-110707781D01*
X97592315Y-110774820D01*
X97590455Y-110777630D01*
X97585975Y-110784201D01*
X97582519Y-110789271D01*
X97575147Y-110799260D01*
X97547206Y-110837119D01*
X97543216Y-110844667D01*
X97539528Y-110852326D01*
X97521992Y-110909177D01*
X97502353Y-110965301D01*
X97500771Y-110973659D01*
X97499500Y-110982100D01*
X97499500Y-111041573D01*
X97497275Y-111101009D01*
X97498316Y-111110243D01*
X97497485Y-111110336D01*
X97499500Y-111125635D01*
X97499500Y-112025126D01*
X97479815Y-112092165D01*
X97427011Y-112137920D01*
X97357853Y-112147864D01*
X97294297Y-112118839D01*
X97293273Y-112117941D01*
X97238403Y-112069331D01*
X97207424Y-112040240D01*
X97185393Y-112019552D01*
X97185389Y-112019550D01*
X97179081Y-112014967D01*
X97179271Y-112014704D01*
X97178820Y-112014388D01*
X97178413Y-112014978D01*
X97172240Y-112010717D01*
X97107851Y-111976922D01*
X97041367Y-111940372D01*
X97040974Y-111940216D01*
X97035328Y-111938427D01*
X97032368Y-111937305D01*
X97032365Y-111937304D01*
X96958695Y-111919146D01*
X96948674Y-111916573D01*
X96882182Y-111899500D01*
X96882177Y-111899500D01*
X96878985Y-111899500D01*
X96721015Y-111899500D01*
X96721010Y-111899500D01*
X96684487Y-111908501D01*
X96677419Y-111909814D01*
X96636941Y-111914929D01*
X96636939Y-111914929D01*
X96605440Y-111927401D01*
X96597447Y-111929955D01*
X96567637Y-111937302D01*
X96567633Y-111937304D01*
X96531270Y-111956389D01*
X96525279Y-111959137D01*
X96484130Y-111975431D01*
X96484129Y-111975432D01*
X96463150Y-111990673D01*
X96447898Y-112000147D01*
X96427761Y-112010716D01*
X96394432Y-112040240D01*
X96389762Y-112043991D01*
X96351161Y-112072037D01*
X96337033Y-112089115D01*
X96323725Y-112102881D01*
X96309517Y-112115468D01*
X96309517Y-112115469D01*
X96282262Y-112154952D01*
X96279011Y-112159250D01*
X96246398Y-112198674D01*
X96238565Y-112215320D01*
X96228425Y-112232951D01*
X96219779Y-112245477D01*
X96201541Y-112293565D01*
X96199670Y-112297977D01*
X96176421Y-112347385D01*
X96176419Y-112347394D01*
X96173679Y-112361754D01*
X96167823Y-112382472D01*
X96163763Y-112393180D01*
X96163761Y-112393186D01*
X96157145Y-112447669D01*
X96156499Y-112451811D01*
X96145624Y-112508822D01*
X96145624Y-112508829D01*
X96146305Y-112519658D01*
X96145646Y-112542387D01*
X96144722Y-112549998D01*
X96144722Y-112550000D01*
X96151753Y-112607907D01*
X96152082Y-112611487D01*
X96155944Y-112672863D01*
X96155944Y-112672864D01*
X96158131Y-112679595D01*
X96163293Y-112702950D01*
X96163762Y-112706816D01*
X96185664Y-112764567D01*
X96186656Y-112767385D01*
X96206732Y-112829171D01*
X96206733Y-112829172D01*
X96206734Y-112829176D01*
X96208500Y-112831958D01*
X96219739Y-112854417D01*
X96219778Y-112854521D01*
X96257515Y-112909192D01*
X96294800Y-112967943D01*
X96296534Y-112970040D01*
X96304329Y-112979099D01*
X96304540Y-112978913D01*
X96309514Y-112984527D01*
X96360010Y-113029263D01*
X96397136Y-113088453D01*
X96396368Y-113158318D01*
X96357950Y-113216678D01*
X96351355Y-113221855D01*
X96351161Y-113222037D01*
X96337033Y-113239115D01*
X96323725Y-113252881D01*
X96309517Y-113265468D01*
X96309517Y-113265469D01*
X96282262Y-113304952D01*
X96279011Y-113309250D01*
X96246398Y-113348674D01*
X96238565Y-113365320D01*
X96228425Y-113382951D01*
X96219779Y-113395477D01*
X96201541Y-113443565D01*
X96199670Y-113447977D01*
X96176421Y-113497385D01*
X96176419Y-113497394D01*
X96173679Y-113511754D01*
X96167823Y-113532472D01*
X96163763Y-113543180D01*
X96163761Y-113543186D01*
X96157145Y-113597669D01*
X96156499Y-113601811D01*
X96145624Y-113658822D01*
X96145624Y-113658829D01*
X96146305Y-113669658D01*
X96145646Y-113692387D01*
X96144722Y-113700000D01*
X96150766Y-113749784D01*
X96151753Y-113757907D01*
X96152082Y-113761487D01*
X96155944Y-113822863D01*
X96155944Y-113822864D01*
X96158131Y-113829595D01*
X96163293Y-113852950D01*
X96163762Y-113856816D01*
X96185664Y-113914567D01*
X96186656Y-113917385D01*
X96206732Y-113979171D01*
X96206733Y-113979172D01*
X96206734Y-113979176D01*
X96208500Y-113981958D01*
X96219739Y-114004417D01*
X96219778Y-114004521D01*
X96257515Y-114059192D01*
X96294800Y-114117943D01*
X96296534Y-114120040D01*
X96304329Y-114129099D01*
X96304540Y-114128913D01*
X96309517Y-114134530D01*
X96361596Y-114180668D01*
X96364907Y-114183777D01*
X96366245Y-114185034D01*
X96401638Y-114245276D01*
X96398842Y-114315090D01*
X96363586Y-114368237D01*
X96309896Y-114415803D01*
X96309895Y-114415804D01*
X96220228Y-114545706D01*
X96220227Y-114545707D01*
X96199636Y-114599999D01*
X96199637Y-114600000D01*
X96554419Y-114600000D01*
X96502940Y-114655921D01*
X96456018Y-114762892D01*
X96446372Y-114879302D01*
X96475047Y-114992538D01*
X96538936Y-115090327D01*
X96551364Y-115100000D01*
X96199637Y-115100000D01*
X96220227Y-115154292D01*
X96220228Y-115154293D01*
X96309893Y-115284193D01*
X96360425Y-115328961D01*
X96397551Y-115388151D01*
X96396783Y-115458016D01*
X96358365Y-115516376D01*
X96351194Y-115522006D01*
X96351161Y-115522037D01*
X96337033Y-115539115D01*
X96323725Y-115552881D01*
X96309517Y-115565468D01*
X96309517Y-115565469D01*
X96282262Y-115604952D01*
X96279011Y-115609250D01*
X96246398Y-115648674D01*
X96238565Y-115665320D01*
X96228425Y-115682951D01*
X96219779Y-115695477D01*
X96201541Y-115743565D01*
X96199670Y-115747977D01*
X96176421Y-115797385D01*
X96176419Y-115797394D01*
X96173679Y-115811754D01*
X96167823Y-115832472D01*
X96163763Y-115843180D01*
X96163761Y-115843186D01*
X96157145Y-115897669D01*
X96156499Y-115901811D01*
X96145624Y-115958822D01*
X96145624Y-115958829D01*
X96146305Y-115969658D01*
X96145646Y-115992387D01*
X96144722Y-116000000D01*
X96149720Y-116041170D01*
X96151753Y-116057907D01*
X96152082Y-116061487D01*
X96155944Y-116122863D01*
X96155944Y-116122864D01*
X96158131Y-116129595D01*
X96163293Y-116152950D01*
X96163762Y-116156816D01*
X96185664Y-116214567D01*
X96186656Y-116217385D01*
X96206732Y-116279171D01*
X96206733Y-116279172D01*
X96206734Y-116279176D01*
X96208500Y-116281958D01*
X96219739Y-116304417D01*
X96219778Y-116304521D01*
X96257515Y-116359192D01*
X96294800Y-116417943D01*
X96296534Y-116420040D01*
X96304329Y-116429099D01*
X96304540Y-116428913D01*
X96309517Y-116434530D01*
X96361596Y-116480668D01*
X96414607Y-116530448D01*
X96414609Y-116530449D01*
X96414610Y-116530450D01*
X96420919Y-116535034D01*
X96420728Y-116535296D01*
X96421179Y-116535612D01*
X96421587Y-116535022D01*
X96427756Y-116539280D01*
X96427757Y-116539280D01*
X96427760Y-116539283D01*
X96492148Y-116573077D01*
X96558632Y-116609627D01*
X96558639Y-116609628D01*
X96559040Y-116609788D01*
X96564677Y-116611574D01*
X96567633Y-116612695D01*
X96567635Y-116612696D01*
X96641304Y-116630853D01*
X96717823Y-116650500D01*
X96717826Y-116650500D01*
X96878987Y-116650500D01*
X96878987Y-116650499D01*
X96915511Y-116641497D01*
X96922560Y-116640186D01*
X96963058Y-116635071D01*
X96963062Y-116635069D01*
X96963064Y-116635069D01*
X96994554Y-116622600D01*
X97002554Y-116620043D01*
X97012343Y-116617630D01*
X97032365Y-116612696D01*
X97068739Y-116593604D01*
X97074719Y-116590860D01*
X97115871Y-116574568D01*
X97136845Y-116559328D01*
X97152109Y-116549848D01*
X97172240Y-116539283D01*
X97205578Y-116509748D01*
X97210233Y-116506010D01*
X97248837Y-116477963D01*
X97262969Y-116460878D01*
X97276272Y-116447118D01*
X97290483Y-116434530D01*
X97317752Y-116395023D01*
X97320982Y-116390753D01*
X97353600Y-116351326D01*
X97353600Y-116351324D01*
X97354958Y-116349684D01*
X97412859Y-116310578D01*
X97482710Y-116308984D01*
X97542335Y-116345406D01*
X97572803Y-116408283D01*
X97574500Y-116428727D01*
X97574500Y-117608078D01*
X97574264Y-117613485D01*
X97570735Y-117653808D01*
X97581212Y-117692910D01*
X97582383Y-117698190D01*
X97589411Y-117738043D01*
X97591235Y-117743055D01*
X97598197Y-117759861D01*
X97600445Y-117764681D01*
X97600446Y-117764684D01*
X97614452Y-117784687D01*
X97623655Y-117797831D01*
X97626561Y-117802392D01*
X97646807Y-117837456D01*
X97653779Y-117845765D01*
X97651689Y-117847518D01*
X97681405Y-117892175D01*
X97687000Y-117929003D01*
X97687000Y-118729269D01*
X97689853Y-118759699D01*
X97689853Y-118759701D01*
X97734624Y-118887645D01*
X97734707Y-118887882D01*
X97815350Y-118997150D01*
X97924618Y-119077793D01*
X97924620Y-119077793D01*
X97932831Y-119082133D01*
X97931573Y-119084512D01*
X97976677Y-119116851D01*
X98002435Y-119181799D01*
X97988990Y-119250363D01*
X97981011Y-119263624D01*
X97975184Y-119272066D01*
X97975182Y-119272068D01*
X97914860Y-119431125D01*
X97914859Y-119431130D01*
X97894355Y-119600000D01*
X97914859Y-119768869D01*
X97914860Y-119768874D01*
X97975181Y-119927929D01*
X97983295Y-119939684D01*
X98037555Y-120018293D01*
X98059438Y-120084646D01*
X98041973Y-120152298D01*
X97990705Y-120199768D01*
X97947660Y-120212135D01*
X97923967Y-120214468D01*
X97735460Y-120271651D01*
X97561746Y-120364503D01*
X97561739Y-120364507D01*
X97409471Y-120489471D01*
X97284507Y-120641739D01*
X97284503Y-120641746D01*
X97191652Y-120815458D01*
X97150839Y-120949999D01*
X97150840Y-120950000D01*
X97804314Y-120950000D01*
X97792359Y-120961955D01*
X97734835Y-121074852D01*
X97715014Y-121200000D01*
X97734835Y-121325148D01*
X97792359Y-121438045D01*
X97804314Y-121450000D01*
X97150840Y-121450000D01*
X97191652Y-121584541D01*
X97284503Y-121758253D01*
X97284507Y-121758260D01*
X97409471Y-121910528D01*
X97561739Y-122035491D01*
X97735465Y-122128349D01*
X97870000Y-122169159D01*
X97870000Y-121515686D01*
X97881955Y-121527641D01*
X97994852Y-121585165D01*
X98088519Y-121600000D01*
X98151481Y-121600000D01*
X98245148Y-121585165D01*
X98358045Y-121527641D01*
X98370000Y-121515686D01*
X98370000Y-122169159D01*
X98504534Y-122128349D01*
X98678260Y-122035491D01*
X98830528Y-121910528D01*
X98955492Y-121758260D01*
X98955496Y-121758253D01*
X99048347Y-121584541D01*
X99089160Y-121450000D01*
X98435686Y-121450000D01*
X98447641Y-121438045D01*
X98505165Y-121325148D01*
X98524986Y-121200000D01*
X98505165Y-121074852D01*
X98447641Y-120961955D01*
X98435686Y-120950000D01*
X99089160Y-120950000D01*
X99089160Y-120949999D01*
X99048347Y-120815458D01*
X98955496Y-120641746D01*
X98955492Y-120641739D01*
X98830530Y-120489474D01*
X98810881Y-120473348D01*
X98771547Y-120415601D01*
X98769678Y-120345757D01*
X98805865Y-120285989D01*
X98845578Y-120261552D01*
X98850216Y-120259792D01*
X98850225Y-120259790D01*
X98942936Y-120211131D01*
X99000849Y-120180736D01*
X99000850Y-120180734D01*
X99000852Y-120180734D01*
X99128183Y-120067929D01*
X99224818Y-119927930D01*
X99285140Y-119768872D01*
X99305645Y-119600000D01*
X99285140Y-119431128D01*
X99224818Y-119272070D01*
X99224815Y-119272066D01*
X99133471Y-119139732D01*
X99111588Y-119073378D01*
X99129053Y-119005726D01*
X99135751Y-118995659D01*
X99215290Y-118887886D01*
X99215289Y-118887886D01*
X99215293Y-118887882D01*
X99237719Y-118823790D01*
X99260146Y-118759701D01*
X99260146Y-118759699D01*
X99263000Y-118729269D01*
X99263000Y-117670730D01*
X99260146Y-117640300D01*
X99260146Y-117640298D01*
X99226506Y-117544163D01*
X99215293Y-117512118D01*
X99134650Y-117402850D01*
X99025382Y-117322207D01*
X99025380Y-117322206D01*
X98897200Y-117277353D01*
X98866770Y-117274500D01*
X98866766Y-117274500D01*
X98349500Y-117274500D01*
X98282461Y-117254815D01*
X98236706Y-117202011D01*
X98225500Y-117150500D01*
X98225500Y-116531940D01*
X98245185Y-116464901D01*
X98297989Y-116419146D01*
X98367147Y-116409202D01*
X98430703Y-116438227D01*
X98437181Y-116444259D01*
X98497738Y-116504816D01*
X98569406Y-116549848D01*
X98639052Y-116593610D01*
X98650478Y-116600789D01*
X98763057Y-116640182D01*
X98820745Y-116660368D01*
X98820750Y-116660369D01*
X98999996Y-116680565D01*
X99000000Y-116680565D01*
X99000004Y-116680565D01*
X99179249Y-116660369D01*
X99179252Y-116660368D01*
X99179255Y-116660368D01*
X99349522Y-116600789D01*
X99502262Y-116504816D01*
X99502262Y-116504815D01*
X99508158Y-116501111D01*
X99509602Y-116503409D01*
X99562849Y-116481659D01*
X99631547Y-116494401D01*
X99682450Y-116542261D01*
X99699500Y-116605012D01*
X99699500Y-138575500D01*
X99679815Y-138642539D01*
X99627011Y-138688294D01*
X99575500Y-138699500D01*
X53424500Y-138699500D01*
X53357461Y-138679815D01*
X53311706Y-138627011D01*
X53300500Y-138575500D01*
X53300500Y-137869752D01*
X55249500Y-137869752D01*
X55261131Y-137928229D01*
X55261132Y-137928230D01*
X55305447Y-137994552D01*
X55371769Y-138038867D01*
X55371770Y-138038868D01*
X55430247Y-138050499D01*
X55430250Y-138050500D01*
X55430252Y-138050500D01*
X57169750Y-138050500D01*
X57169751Y-138050499D01*
X57184568Y-138047552D01*
X57228229Y-138038868D01*
X57228229Y-138038867D01*
X57228231Y-138038867D01*
X57294552Y-137994552D01*
X57338867Y-137928231D01*
X57338867Y-137928229D01*
X57338868Y-137928229D01*
X57348922Y-137877682D01*
X57350500Y-137869748D01*
X57350500Y-137000000D01*
X57784417Y-137000000D01*
X57804699Y-137205932D01*
X57819230Y-137253835D01*
X57864768Y-137403954D01*
X57962315Y-137586450D01*
X57962317Y-137586452D01*
X58093589Y-137746410D01*
X58190209Y-137825702D01*
X58253550Y-137877685D01*
X58436046Y-137975232D01*
X58634066Y-138035300D01*
X58634065Y-138035300D01*
X58652529Y-138037118D01*
X58840000Y-138055583D01*
X59045934Y-138035300D01*
X59243954Y-137975232D01*
X59426450Y-137877685D01*
X59586410Y-137746410D01*
X59717685Y-137586450D01*
X59815232Y-137403954D01*
X59861933Y-137250000D01*
X60358590Y-137250000D01*
X60405233Y-137403766D01*
X60502728Y-137586166D01*
X60502732Y-137586173D01*
X60633944Y-137746055D01*
X60793826Y-137877267D01*
X60793833Y-137877271D01*
X60976233Y-137974766D01*
X61130000Y-138021410D01*
X61130000Y-137435501D01*
X61237685Y-137484680D01*
X61344237Y-137500000D01*
X61415763Y-137500000D01*
X61522315Y-137484680D01*
X61630000Y-137435501D01*
X61630000Y-138021410D01*
X61783766Y-137974766D01*
X61966166Y-137877271D01*
X61966173Y-137877267D01*
X62126055Y-137746055D01*
X62257267Y-137586173D01*
X62257271Y-137586166D01*
X62354766Y-137403766D01*
X62401410Y-137250000D01*
X61813686Y-137250000D01*
X61839493Y-137209844D01*
X61880000Y-137071889D01*
X61880000Y-137000000D01*
X62864417Y-137000000D01*
X62884699Y-137205932D01*
X62899230Y-137253835D01*
X62944768Y-137403954D01*
X63042315Y-137586450D01*
X63042317Y-137586452D01*
X63173589Y-137746410D01*
X63270209Y-137825702D01*
X63333550Y-137877685D01*
X63516046Y-137975232D01*
X63714066Y-138035300D01*
X63714065Y-138035300D01*
X63732529Y-138037118D01*
X63920000Y-138055583D01*
X64125934Y-138035300D01*
X64323954Y-137975232D01*
X64506450Y-137877685D01*
X64666410Y-137746410D01*
X64797685Y-137586450D01*
X64895232Y-137403954D01*
X64955300Y-137205934D01*
X64975583Y-137000000D01*
X65404417Y-137000000D01*
X65424699Y-137205932D01*
X65439230Y-137253835D01*
X65484768Y-137403954D01*
X65582315Y-137586450D01*
X65582317Y-137586452D01*
X65713589Y-137746410D01*
X65810209Y-137825702D01*
X65873550Y-137877685D01*
X66056046Y-137975232D01*
X66254066Y-138035300D01*
X66254065Y-138035300D01*
X66272529Y-138037118D01*
X66460000Y-138055583D01*
X66665934Y-138035300D01*
X66863954Y-137975232D01*
X67046450Y-137877685D01*
X67206410Y-137746410D01*
X67337685Y-137586450D01*
X67435232Y-137403954D01*
X67495300Y-137205934D01*
X67515583Y-137000000D01*
X67944417Y-137000000D01*
X67964699Y-137205932D01*
X67979230Y-137253835D01*
X68024768Y-137403954D01*
X68122315Y-137586450D01*
X68122317Y-137586452D01*
X68253589Y-137746410D01*
X68350209Y-137825702D01*
X68413550Y-137877685D01*
X68596046Y-137975232D01*
X68794066Y-138035300D01*
X68794065Y-138035300D01*
X68812529Y-138037118D01*
X69000000Y-138055583D01*
X69205934Y-138035300D01*
X69403954Y-137975232D01*
X69586450Y-137877685D01*
X69596116Y-137869752D01*
X72299500Y-137869752D01*
X72311131Y-137928229D01*
X72311132Y-137928230D01*
X72355447Y-137994552D01*
X72421769Y-138038867D01*
X72421770Y-138038868D01*
X72480247Y-138050499D01*
X72480250Y-138050500D01*
X72480252Y-138050500D01*
X73519750Y-138050500D01*
X73519751Y-138050499D01*
X73534568Y-138047552D01*
X73578229Y-138038868D01*
X73578229Y-138038867D01*
X73578231Y-138038867D01*
X73644552Y-137994552D01*
X73688867Y-137928231D01*
X73688867Y-137928229D01*
X73688868Y-137928229D01*
X73698922Y-137877682D01*
X73700499Y-137869752D01*
X74299500Y-137869752D01*
X74311131Y-137928229D01*
X74311132Y-137928230D01*
X74355447Y-137994552D01*
X74421769Y-138038867D01*
X74421770Y-138038868D01*
X74480247Y-138050499D01*
X74480250Y-138050500D01*
X74480252Y-138050500D01*
X75519750Y-138050500D01*
X75519751Y-138050499D01*
X75534568Y-138047552D01*
X75578229Y-138038868D01*
X75578229Y-138038867D01*
X75578231Y-138038867D01*
X75644552Y-137994552D01*
X75688867Y-137928231D01*
X75688867Y-137928229D01*
X75688868Y-137928229D01*
X75698922Y-137877682D01*
X75700500Y-137869748D01*
X75700500Y-135330252D01*
X75700500Y-135330249D01*
X75700499Y-135330247D01*
X75688868Y-135271770D01*
X75688867Y-135271769D01*
X75644552Y-135205447D01*
X75578230Y-135161132D01*
X75578229Y-135161131D01*
X75519752Y-135149500D01*
X75519748Y-135149500D01*
X74480252Y-135149500D01*
X74480247Y-135149500D01*
X74421770Y-135161131D01*
X74421769Y-135161132D01*
X74355447Y-135205447D01*
X74311132Y-135271769D01*
X74311131Y-135271770D01*
X74299500Y-135330247D01*
X74299500Y-137869752D01*
X73700499Y-137869752D01*
X73700500Y-137869748D01*
X73700500Y-135330252D01*
X73700500Y-135330249D01*
X73700499Y-135330247D01*
X73688868Y-135271770D01*
X73688867Y-135271769D01*
X73644552Y-135205447D01*
X73578230Y-135161132D01*
X73578229Y-135161131D01*
X73519752Y-135149500D01*
X73519748Y-135149500D01*
X72480252Y-135149500D01*
X72480247Y-135149500D01*
X72421770Y-135161131D01*
X72421769Y-135161132D01*
X72355447Y-135205447D01*
X72311132Y-135271769D01*
X72311131Y-135271770D01*
X72299500Y-135330247D01*
X72299500Y-137869752D01*
X69596116Y-137869752D01*
X69746410Y-137746410D01*
X69877685Y-137586450D01*
X69975232Y-137403954D01*
X70035300Y-137205934D01*
X70055583Y-137000000D01*
X70035300Y-136794066D01*
X69975232Y-136596046D01*
X69877685Y-136413550D01*
X69825530Y-136349999D01*
X69746410Y-136253589D01*
X69619575Y-136149500D01*
X69586450Y-136122315D01*
X69416554Y-136031502D01*
X69403956Y-136024769D01*
X69403955Y-136024768D01*
X69403954Y-136024768D01*
X69205934Y-135964700D01*
X69205932Y-135964699D01*
X69205934Y-135964699D01*
X69000000Y-135944417D01*
X68794067Y-135964699D01*
X68596043Y-136024769D01*
X68508114Y-136071769D01*
X68413550Y-136122315D01*
X68413548Y-136122316D01*
X68413547Y-136122317D01*
X68253589Y-136253589D01*
X68122317Y-136413547D01*
X68122315Y-136413550D01*
X68122164Y-136413833D01*
X68024769Y-136596043D01*
X67964699Y-136794067D01*
X67944417Y-137000000D01*
X67515583Y-137000000D01*
X67495300Y-136794066D01*
X67435232Y-136596046D01*
X67337685Y-136413550D01*
X67285530Y-136349999D01*
X67206410Y-136253589D01*
X67079575Y-136149500D01*
X67046450Y-136122315D01*
X66876554Y-136031502D01*
X66863956Y-136024769D01*
X66863955Y-136024768D01*
X66863954Y-136024768D01*
X66665934Y-135964700D01*
X66665932Y-135964699D01*
X66665934Y-135964699D01*
X66460000Y-135944417D01*
X66254067Y-135964699D01*
X66056043Y-136024769D01*
X65968114Y-136071769D01*
X65873550Y-136122315D01*
X65873548Y-136122316D01*
X65873547Y-136122317D01*
X65713589Y-136253589D01*
X65582317Y-136413547D01*
X65582315Y-136413550D01*
X65582164Y-136413833D01*
X65484769Y-136596043D01*
X65424699Y-136794067D01*
X65404417Y-137000000D01*
X64975583Y-137000000D01*
X64955300Y-136794066D01*
X64895232Y-136596046D01*
X64797685Y-136413550D01*
X64745530Y-136349999D01*
X64666410Y-136253589D01*
X64539575Y-136149500D01*
X64506450Y-136122315D01*
X64336554Y-136031502D01*
X64323956Y-136024769D01*
X64323955Y-136024768D01*
X64323954Y-136024768D01*
X64125934Y-135964700D01*
X64125932Y-135964699D01*
X64125934Y-135964699D01*
X63920000Y-135944417D01*
X63714067Y-135964699D01*
X63516043Y-136024769D01*
X63428114Y-136071769D01*
X63333550Y-136122315D01*
X63333548Y-136122316D01*
X63333547Y-136122317D01*
X63173589Y-136253589D01*
X63042317Y-136413547D01*
X63042315Y-136413550D01*
X63042164Y-136413833D01*
X62944769Y-136596043D01*
X62884699Y-136794067D01*
X62864417Y-137000000D01*
X61880000Y-137000000D01*
X61880000Y-136928111D01*
X61839493Y-136790156D01*
X61813686Y-136750000D01*
X62401410Y-136750000D01*
X62354766Y-136596233D01*
X62257271Y-136413833D01*
X62257267Y-136413826D01*
X62126055Y-136253944D01*
X61966173Y-136122732D01*
X61966166Y-136122728D01*
X61783763Y-136025232D01*
X61630000Y-135978587D01*
X61630000Y-136564498D01*
X61522315Y-136515320D01*
X61415763Y-136500000D01*
X61344237Y-136500000D01*
X61237685Y-136515320D01*
X61130000Y-136564498D01*
X61130000Y-135978587D01*
X60976236Y-136025232D01*
X60793833Y-136122728D01*
X60793826Y-136122732D01*
X60633944Y-136253944D01*
X60502732Y-136413826D01*
X60502728Y-136413833D01*
X60405233Y-136596233D01*
X60358590Y-136750000D01*
X60946314Y-136750000D01*
X60920507Y-136790156D01*
X60880000Y-136928111D01*
X60880000Y-137071889D01*
X60920507Y-137209844D01*
X60946314Y-137250000D01*
X60358590Y-137250000D01*
X59861933Y-137250000D01*
X59875300Y-137205934D01*
X59895583Y-137000000D01*
X59875300Y-136794066D01*
X59815232Y-136596046D01*
X59717685Y-136413550D01*
X59665530Y-136349999D01*
X59586410Y-136253589D01*
X59459575Y-136149500D01*
X59426450Y-136122315D01*
X59256554Y-136031502D01*
X59243956Y-136024769D01*
X59243955Y-136024768D01*
X59243954Y-136024768D01*
X59045934Y-135964700D01*
X59045932Y-135964699D01*
X59045934Y-135964699D01*
X58840000Y-135944417D01*
X58634067Y-135964699D01*
X58436043Y-136024769D01*
X58348114Y-136071769D01*
X58253550Y-136122315D01*
X58253548Y-136122316D01*
X58253547Y-136122317D01*
X58093589Y-136253589D01*
X57962317Y-136413547D01*
X57962315Y-136413550D01*
X57962164Y-136413833D01*
X57864769Y-136596043D01*
X57804699Y-136794067D01*
X57784417Y-137000000D01*
X57350500Y-137000000D01*
X57350500Y-136130252D01*
X57350500Y-136130249D01*
X57350499Y-136130247D01*
X57338868Y-136071770D01*
X57338867Y-136071769D01*
X57294552Y-136005447D01*
X57228230Y-135961132D01*
X57228229Y-135961131D01*
X57169752Y-135949500D01*
X57169748Y-135949500D01*
X55430252Y-135949500D01*
X55430247Y-135949500D01*
X55371770Y-135961131D01*
X55371769Y-135961132D01*
X55305447Y-136005447D01*
X55261132Y-136071769D01*
X55261131Y-136071770D01*
X55249500Y-136130247D01*
X55249500Y-137869752D01*
X53300500Y-137869752D01*
X53300500Y-131624000D01*
X53320185Y-131556961D01*
X53372989Y-131511206D01*
X53424500Y-131500000D01*
X54312924Y-131500000D01*
X54379963Y-131519685D01*
X54425718Y-131572489D01*
X54435662Y-131641647D01*
X54406637Y-131705203D01*
X54400605Y-131711681D01*
X54360038Y-131752247D01*
X54360028Y-131752259D01*
X54197110Y-131969891D01*
X54197109Y-131969892D01*
X54066830Y-132208480D01*
X54054279Y-132242131D01*
X53971825Y-132463199D01*
X53971824Y-132463202D01*
X53971823Y-132463206D01*
X53914040Y-132728832D01*
X53914039Y-132728839D01*
X53894645Y-132999998D01*
X53894645Y-133000001D01*
X53914039Y-133271160D01*
X53914040Y-133271167D01*
X53965662Y-133508469D01*
X53971825Y-133536801D01*
X54022811Y-133673498D01*
X54066830Y-133791519D01*
X54197109Y-134030107D01*
X54197110Y-134030108D01*
X54197113Y-134030113D01*
X54360029Y-134247742D01*
X54360033Y-134247746D01*
X54360038Y-134247752D01*
X54552247Y-134439961D01*
X54552253Y-134439966D01*
X54552258Y-134439971D01*
X54769887Y-134602887D01*
X54769891Y-134602889D01*
X54769892Y-134602890D01*
X55008481Y-134733169D01*
X55008480Y-134733169D01*
X55008484Y-134733170D01*
X55008487Y-134733172D01*
X55263199Y-134828175D01*
X55528840Y-134885961D01*
X55780605Y-134903967D01*
X55799999Y-134905355D01*
X55800000Y-134905355D01*
X55800001Y-134905355D01*
X55818100Y-134904060D01*
X56071160Y-134885961D01*
X56336801Y-134828175D01*
X56591513Y-134733172D01*
X56591517Y-134733169D01*
X56591519Y-134733169D01*
X56710813Y-134668029D01*
X56830113Y-134602887D01*
X57047742Y-134439971D01*
X57239971Y-134247742D01*
X57402887Y-134030113D01*
X57528538Y-133800000D01*
X57533169Y-133791519D01*
X57533169Y-133791517D01*
X57533172Y-133791513D01*
X57628175Y-133536801D01*
X57685961Y-133271160D01*
X57705355Y-133000000D01*
X57685961Y-132728840D01*
X57628175Y-132463199D01*
X57533172Y-132208487D01*
X57533170Y-132208484D01*
X57533169Y-132208480D01*
X57402890Y-131969892D01*
X57402889Y-131969891D01*
X57402887Y-131969887D01*
X57239971Y-131752258D01*
X57239966Y-131752253D01*
X57239961Y-131752247D01*
X57199395Y-131711681D01*
X57165910Y-131650358D01*
X57170894Y-131580666D01*
X57212766Y-131524733D01*
X57278230Y-131500316D01*
X57287076Y-131500000D01*
X70500000Y-131500000D01*
X70500000Y-131000000D01*
X72194867Y-131000000D01*
X72213302Y-131128225D01*
X72267117Y-131246061D01*
X72267118Y-131246063D01*
X72351951Y-131343967D01*
X72460931Y-131414004D01*
X72535102Y-131435782D01*
X72585225Y-131450499D01*
X72585227Y-131450500D01*
X72585228Y-131450500D01*
X72714772Y-131450500D01*
X72765566Y-131435586D01*
X72835435Y-131435586D01*
X72894213Y-131473360D01*
X72923238Y-131536916D01*
X72924500Y-131554563D01*
X72924500Y-132633078D01*
X72924264Y-132638485D01*
X72920735Y-132678808D01*
X72931212Y-132717910D01*
X72932383Y-132723190D01*
X72939411Y-132763043D01*
X72941235Y-132768055D01*
X72948197Y-132784861D01*
X72950445Y-132789681D01*
X72950446Y-132789684D01*
X72953445Y-132793967D01*
X72973655Y-132822831D01*
X72976561Y-132827392D01*
X72996806Y-132862455D01*
X73027815Y-132888475D01*
X73031805Y-132892131D01*
X74857863Y-134718189D01*
X74861518Y-134722178D01*
X74887541Y-134753190D01*
X74887543Y-134753191D01*
X74887545Y-134753194D01*
X74887547Y-134753195D01*
X74887548Y-134753196D01*
X74922599Y-134773433D01*
X74927162Y-134776339D01*
X74960316Y-134799554D01*
X74960319Y-134799554D01*
X74965176Y-134801820D01*
X74981933Y-134808760D01*
X74986950Y-134810586D01*
X74986952Y-134810586D01*
X74986955Y-134810588D01*
X75026818Y-134817616D01*
X75032076Y-134818782D01*
X75071193Y-134829264D01*
X75111518Y-134825735D01*
X75116922Y-134825500D01*
X76313812Y-134825500D01*
X76380851Y-134845185D01*
X76401493Y-134861819D01*
X76490471Y-134950797D01*
X76523956Y-135012120D01*
X76518972Y-135081812D01*
X76477100Y-135137745D01*
X76426985Y-135160095D01*
X76421769Y-135161132D01*
X76355447Y-135205447D01*
X76311132Y-135271769D01*
X76311131Y-135271770D01*
X76299500Y-135330247D01*
X76299500Y-137869752D01*
X76311131Y-137928229D01*
X76311132Y-137928230D01*
X76355447Y-137994552D01*
X76421769Y-138038867D01*
X76421770Y-138038868D01*
X76480247Y-138050499D01*
X76480250Y-138050500D01*
X76480252Y-138050500D01*
X77519750Y-138050500D01*
X77519751Y-138050499D01*
X77534568Y-138047552D01*
X77578229Y-138038868D01*
X77578229Y-138038867D01*
X77578231Y-138038867D01*
X77644552Y-137994552D01*
X77688867Y-137928231D01*
X77688867Y-137928229D01*
X77688868Y-137928229D01*
X77698922Y-137877682D01*
X77700500Y-137869748D01*
X77700500Y-135330252D01*
X77700500Y-135330249D01*
X77700499Y-135330247D01*
X77688868Y-135271770D01*
X77688867Y-135271769D01*
X77644552Y-135205447D01*
X77578230Y-135161132D01*
X77578229Y-135161131D01*
X77519752Y-135149500D01*
X77519748Y-135149500D01*
X77449500Y-135149500D01*
X77382461Y-135129815D01*
X77336706Y-135077011D01*
X77325500Y-135025500D01*
X77325500Y-135016920D01*
X77325736Y-135011513D01*
X77329264Y-134971193D01*
X77318782Y-134932076D01*
X77317616Y-134926818D01*
X77310588Y-134886955D01*
X77310586Y-134886952D01*
X77310586Y-134886950D01*
X77308760Y-134881933D01*
X77301820Y-134865176D01*
X77299554Y-134860319D01*
X77299554Y-134860316D01*
X77276339Y-134827162D01*
X77273433Y-134822599D01*
X77253196Y-134787548D01*
X77253195Y-134787547D01*
X77253194Y-134787545D01*
X77222177Y-134761518D01*
X77218193Y-134757867D01*
X77063213Y-134602887D01*
X76742119Y-134281793D01*
X76738474Y-134277814D01*
X76712456Y-134246807D01*
X76712455Y-134246806D01*
X76701058Y-134240226D01*
X76677392Y-134226561D01*
X76672831Y-134223655D01*
X76659687Y-134214452D01*
X76639684Y-134200446D01*
X76639681Y-134200445D01*
X76634861Y-134198197D01*
X76618055Y-134191235D01*
X76613043Y-134189411D01*
X76573190Y-134182383D01*
X76567910Y-134181212D01*
X76528808Y-134170735D01*
X76493892Y-134173790D01*
X76488481Y-134174264D01*
X76483078Y-134174500D01*
X75286188Y-134174500D01*
X75219149Y-134154815D01*
X75198507Y-134138181D01*
X73611819Y-132551493D01*
X73578334Y-132490170D01*
X73575500Y-132463812D01*
X73575500Y-123208535D01*
X73595185Y-123141496D01*
X73605783Y-123127336D01*
X73632882Y-123096063D01*
X73662706Y-123030757D01*
X73708461Y-122977954D01*
X73775500Y-122958270D01*
X73842540Y-122977955D01*
X73888294Y-123030759D01*
X73899500Y-123082270D01*
X73899500Y-129570454D01*
X73899387Y-129574199D01*
X73895642Y-129636109D01*
X73899271Y-129655913D01*
X73906820Y-129697110D01*
X73907383Y-129700811D01*
X73914860Y-129762376D01*
X73918452Y-129771849D01*
X73924477Y-129793460D01*
X73926305Y-129803433D01*
X73951759Y-129859991D01*
X73953191Y-129863448D01*
X73975182Y-129921433D01*
X73975183Y-129921434D01*
X73975184Y-129921436D01*
X73980939Y-129929774D01*
X73991961Y-129949316D01*
X73996122Y-129958560D01*
X73996124Y-129958563D01*
X73996125Y-129958564D01*
X74034371Y-130007382D01*
X74036590Y-130010398D01*
X74071817Y-130061432D01*
X74118250Y-130102567D01*
X74120941Y-130105101D01*
X74769183Y-130753342D01*
X75404941Y-131389100D01*
X75419305Y-131406335D01*
X75425066Y-131414680D01*
X75425069Y-131414682D01*
X75425071Y-131414685D01*
X75471487Y-131455806D01*
X75474198Y-131458357D01*
X78263182Y-134247342D01*
X78296666Y-134308663D01*
X78299500Y-134335021D01*
X78299500Y-137869752D01*
X78311131Y-137928229D01*
X78311132Y-137928230D01*
X78355447Y-137994552D01*
X78421769Y-138038867D01*
X78421770Y-138038868D01*
X78480247Y-138050499D01*
X78480250Y-138050500D01*
X78480252Y-138050500D01*
X79519750Y-138050500D01*
X79519751Y-138050499D01*
X79534568Y-138047552D01*
X79578229Y-138038868D01*
X79578229Y-138038867D01*
X79578231Y-138038867D01*
X79644552Y-137994552D01*
X79688867Y-137928231D01*
X79688867Y-137928229D01*
X79688868Y-137928229D01*
X79698922Y-137877682D01*
X79700499Y-137869752D01*
X80299500Y-137869752D01*
X80311131Y-137928229D01*
X80311132Y-137928230D01*
X80355447Y-137994552D01*
X80421769Y-138038867D01*
X80421770Y-138038868D01*
X80480247Y-138050499D01*
X80480250Y-138050500D01*
X80480252Y-138050500D01*
X81519750Y-138050500D01*
X81519751Y-138050499D01*
X81534568Y-138047552D01*
X81578229Y-138038868D01*
X81578229Y-138038867D01*
X81578231Y-138038867D01*
X81644552Y-137994552D01*
X81688867Y-137928231D01*
X81688867Y-137928229D01*
X81688868Y-137928229D01*
X81698922Y-137877682D01*
X81700499Y-137869752D01*
X82299500Y-137869752D01*
X82311131Y-137928229D01*
X82311132Y-137928230D01*
X82355447Y-137994552D01*
X82421769Y-138038867D01*
X82421770Y-138038868D01*
X82480247Y-138050499D01*
X82480250Y-138050500D01*
X82480252Y-138050500D01*
X83519750Y-138050500D01*
X83519751Y-138050499D01*
X83534568Y-138047552D01*
X83578229Y-138038868D01*
X83578229Y-138038867D01*
X83578231Y-138038867D01*
X83644552Y-137994552D01*
X83688867Y-137928231D01*
X83688867Y-137928229D01*
X83688868Y-137928229D01*
X83698922Y-137877682D01*
X83700500Y-137869748D01*
X83700500Y-136850000D01*
X84300000Y-136850000D01*
X84300000Y-137869702D01*
X84311602Y-137928033D01*
X84311603Y-137928034D01*
X84355808Y-137994191D01*
X84421965Y-138038396D01*
X84421966Y-138038397D01*
X84480297Y-138049999D01*
X84480301Y-138050000D01*
X84750000Y-138050000D01*
X84750000Y-136850000D01*
X85250000Y-136850000D01*
X85250000Y-138050000D01*
X85519699Y-138050000D01*
X85519702Y-138049999D01*
X85578033Y-138038397D01*
X85578034Y-138038396D01*
X85644191Y-137994191D01*
X85688396Y-137928034D01*
X85688397Y-137928033D01*
X85699989Y-137869752D01*
X86299500Y-137869752D01*
X86311131Y-137928229D01*
X86311132Y-137928230D01*
X86355447Y-137994552D01*
X86421769Y-138038867D01*
X86421770Y-138038868D01*
X86480247Y-138050499D01*
X86480250Y-138050500D01*
X86480252Y-138050500D01*
X87519750Y-138050500D01*
X87519751Y-138050499D01*
X87534568Y-138047552D01*
X87578229Y-138038868D01*
X87578229Y-138038867D01*
X87578231Y-138038867D01*
X87644552Y-137994552D01*
X87688867Y-137928231D01*
X87688867Y-137928229D01*
X87688868Y-137928229D01*
X87698922Y-137877682D01*
X87700500Y-137869748D01*
X87700500Y-137174500D01*
X87720185Y-137107461D01*
X87772989Y-137061706D01*
X87824500Y-137050500D01*
X89000500Y-137050500D01*
X89067539Y-137070185D01*
X89113294Y-137122989D01*
X89124500Y-137174500D01*
X89124500Y-137294752D01*
X89136131Y-137353229D01*
X89136132Y-137353230D01*
X89180447Y-137419552D01*
X89246769Y-137463867D01*
X89246770Y-137463868D01*
X89305247Y-137475499D01*
X89305250Y-137475500D01*
X89305252Y-137475500D01*
X90694750Y-137475500D01*
X90694751Y-137475499D01*
X90709568Y-137472552D01*
X90753229Y-137463868D01*
X90753229Y-137463867D01*
X90753231Y-137463867D01*
X90819552Y-137419552D01*
X90863867Y-137353231D01*
X90863867Y-137353229D01*
X90863868Y-137353229D01*
X90875499Y-137294752D01*
X90875500Y-137294750D01*
X90875500Y-136850000D01*
X91161200Y-136850000D01*
X91196241Y-136957849D01*
X91196244Y-136957855D01*
X91288210Y-137117143D01*
X91411280Y-137253829D01*
X91411287Y-137253835D01*
X91560085Y-137361943D01*
X91560090Y-137361946D01*
X91728122Y-137436759D01*
X91749999Y-137441409D01*
X91750000Y-137441409D01*
X91750000Y-136915686D01*
X91761955Y-136927641D01*
X91874852Y-136985165D01*
X91968519Y-137000000D01*
X92031481Y-137000000D01*
X92125148Y-136985165D01*
X92238045Y-136927641D01*
X92250000Y-136915686D01*
X92250000Y-137441409D01*
X92271876Y-137436759D01*
X92271878Y-137436759D01*
X92439909Y-137361946D01*
X92439914Y-137361943D01*
X92588712Y-137253835D01*
X92588719Y-137253829D01*
X92711789Y-137117143D01*
X92803755Y-136957855D01*
X92803758Y-136957849D01*
X92838800Y-136850000D01*
X92315686Y-136850000D01*
X92327641Y-136838045D01*
X92385165Y-136725148D01*
X92404986Y-136600000D01*
X92385165Y-136474852D01*
X92327641Y-136361955D01*
X92315686Y-136350000D01*
X92838800Y-136350000D01*
X92838799Y-136349999D01*
X92803758Y-136242150D01*
X92803755Y-136242144D01*
X92711789Y-136082856D01*
X92588719Y-135946170D01*
X92588712Y-135946164D01*
X92439914Y-135838056D01*
X92439909Y-135838054D01*
X92271877Y-135763240D01*
X92271878Y-135763240D01*
X92250000Y-135758589D01*
X92250000Y-136284314D01*
X92238045Y-136272359D01*
X92125148Y-136214835D01*
X92031481Y-136200000D01*
X91968519Y-136200000D01*
X91874852Y-136214835D01*
X91761955Y-136272359D01*
X91750000Y-136284314D01*
X91750000Y-135758589D01*
X91728122Y-135763240D01*
X91560090Y-135838054D01*
X91560085Y-135838056D01*
X91411287Y-135946164D01*
X91411280Y-135946170D01*
X91288210Y-136082856D01*
X91196244Y-136242144D01*
X91196241Y-136242150D01*
X91161200Y-136349999D01*
X91161200Y-136350000D01*
X91684314Y-136350000D01*
X91672359Y-136361955D01*
X91614835Y-136474852D01*
X91595014Y-136600000D01*
X91614835Y-136725148D01*
X91672359Y-136838045D01*
X91684314Y-136850000D01*
X91161200Y-136850000D01*
X90875500Y-136850000D01*
X90875500Y-135905249D01*
X90875499Y-135905247D01*
X90863868Y-135846770D01*
X90863867Y-135846769D01*
X90819552Y-135780447D01*
X90753230Y-135736132D01*
X90753229Y-135736131D01*
X90694752Y-135724500D01*
X90694748Y-135724500D01*
X89305252Y-135724500D01*
X89305247Y-135724500D01*
X89246770Y-135736131D01*
X89246769Y-135736132D01*
X89180447Y-135780447D01*
X89136132Y-135846769D01*
X89136131Y-135846770D01*
X89124500Y-135905247D01*
X89124500Y-136025500D01*
X89104815Y-136092539D01*
X89052011Y-136138294D01*
X89000500Y-136149500D01*
X87824500Y-136149500D01*
X87757461Y-136129815D01*
X87711706Y-136077011D01*
X87700500Y-136025500D01*
X87700500Y-135330249D01*
X87700499Y-135330247D01*
X87688868Y-135271770D01*
X87688867Y-135271769D01*
X87644552Y-135205447D01*
X87578230Y-135161132D01*
X87578229Y-135161131D01*
X87519752Y-135149500D01*
X87519748Y-135149500D01*
X86480252Y-135149500D01*
X86480247Y-135149500D01*
X86421770Y-135161131D01*
X86421769Y-135161132D01*
X86355447Y-135205447D01*
X86311132Y-135271769D01*
X86311131Y-135271770D01*
X86299500Y-135330247D01*
X86299500Y-137869752D01*
X85699989Y-137869752D01*
X85699999Y-137869702D01*
X85700000Y-137869699D01*
X85700000Y-136850000D01*
X85250000Y-136850000D01*
X84750000Y-136850000D01*
X84300000Y-136850000D01*
X83700500Y-136850000D01*
X83700500Y-136350000D01*
X84300000Y-136350000D01*
X84750000Y-136350000D01*
X84750000Y-135150000D01*
X85250000Y-135150000D01*
X85250000Y-136350000D01*
X85700000Y-136350000D01*
X85700000Y-135330301D01*
X85699999Y-135330297D01*
X85688397Y-135271966D01*
X85688396Y-135271965D01*
X85644191Y-135205808D01*
X85578034Y-135161603D01*
X85578033Y-135161602D01*
X85519702Y-135150000D01*
X85250000Y-135150000D01*
X84750000Y-135150000D01*
X84480297Y-135150000D01*
X84421966Y-135161602D01*
X84421965Y-135161603D01*
X84355808Y-135205808D01*
X84311603Y-135271965D01*
X84311602Y-135271966D01*
X84300000Y-135330297D01*
X84300000Y-136350000D01*
X83700500Y-136350000D01*
X83700500Y-135330252D01*
X83700500Y-135330249D01*
X83700499Y-135330247D01*
X83688868Y-135271770D01*
X83688867Y-135271769D01*
X83644552Y-135205447D01*
X83578230Y-135161132D01*
X83578229Y-135161131D01*
X83519752Y-135149500D01*
X83519748Y-135149500D01*
X82480252Y-135149500D01*
X82480247Y-135149500D01*
X82421770Y-135161131D01*
X82421769Y-135161132D01*
X82355447Y-135205447D01*
X82311132Y-135271769D01*
X82311131Y-135271770D01*
X82299500Y-135330247D01*
X82299500Y-137869752D01*
X81700499Y-137869752D01*
X81700500Y-137869748D01*
X81700500Y-135330252D01*
X81700500Y-135330249D01*
X81700499Y-135330247D01*
X81688868Y-135271770D01*
X81688867Y-135271769D01*
X81644552Y-135205447D01*
X81578230Y-135161132D01*
X81578229Y-135161131D01*
X81519752Y-135149500D01*
X81519748Y-135149500D01*
X80480252Y-135149500D01*
X80480247Y-135149500D01*
X80421770Y-135161131D01*
X80421769Y-135161132D01*
X80355447Y-135205447D01*
X80311132Y-135271769D01*
X80311131Y-135271770D01*
X80299500Y-135330247D01*
X80299500Y-137869752D01*
X79700499Y-137869752D01*
X79700500Y-137869748D01*
X79700500Y-135330252D01*
X79700500Y-133846126D01*
X79700952Y-133838646D01*
X79705645Y-133800000D01*
X79700951Y-133761347D01*
X79700500Y-133753872D01*
X79700500Y-133714943D01*
X79691183Y-133677147D01*
X79689832Y-133669773D01*
X79685140Y-133631130D01*
X79685140Y-133631128D01*
X79671329Y-133594712D01*
X79669110Y-133587590D01*
X79659790Y-133549775D01*
X79641687Y-133515283D01*
X79638627Y-133508484D01*
X79624818Y-133472070D01*
X79602694Y-133440018D01*
X79598823Y-133433614D01*
X79580736Y-133399151D01*
X79580732Y-133399145D01*
X79566150Y-133382685D01*
X79554916Y-133370005D01*
X79550299Y-133364111D01*
X79528185Y-133332073D01*
X79528183Y-133332071D01*
X79499037Y-133306250D01*
X79493743Y-133300955D01*
X79467933Y-133271821D01*
X79467930Y-133271819D01*
X79467929Y-133271817D01*
X79467925Y-133271814D01*
X79435882Y-133249695D01*
X79429986Y-133245075D01*
X79400851Y-133219265D01*
X79400848Y-133219263D01*
X79366387Y-133201177D01*
X79359974Y-133197300D01*
X79327933Y-133175183D01*
X79327931Y-133175182D01*
X79291524Y-133161374D01*
X79284693Y-133158299D01*
X79250226Y-133140210D01*
X79250221Y-133140209D01*
X79248601Y-133139809D01*
X79212424Y-133130892D01*
X79205276Y-133128665D01*
X79168876Y-133114861D01*
X79168869Y-133114859D01*
X79146630Y-133112159D01*
X79082452Y-133084536D01*
X79073896Y-133076743D01*
X79020005Y-133022851D01*
X79007528Y-133000001D01*
X95194645Y-133000001D01*
X95214039Y-133271160D01*
X95214040Y-133271167D01*
X95265662Y-133508469D01*
X95271825Y-133536801D01*
X95322811Y-133673498D01*
X95366830Y-133791519D01*
X95497109Y-134030107D01*
X95497110Y-134030108D01*
X95497113Y-134030113D01*
X95660029Y-134247742D01*
X95660033Y-134247746D01*
X95660038Y-134247752D01*
X95852247Y-134439961D01*
X95852253Y-134439966D01*
X95852258Y-134439971D01*
X96069887Y-134602887D01*
X96069891Y-134602889D01*
X96069892Y-134602890D01*
X96308481Y-134733169D01*
X96308480Y-134733169D01*
X96308484Y-134733170D01*
X96308487Y-134733172D01*
X96563199Y-134828175D01*
X96828840Y-134885961D01*
X97080605Y-134903967D01*
X97099999Y-134905355D01*
X97100000Y-134905355D01*
X97100001Y-134905355D01*
X97118100Y-134904060D01*
X97371160Y-134885961D01*
X97636801Y-134828175D01*
X97891513Y-134733172D01*
X97891517Y-134733169D01*
X97891519Y-134733169D01*
X98010813Y-134668029D01*
X98130113Y-134602887D01*
X98347742Y-134439971D01*
X98539971Y-134247742D01*
X98702887Y-134030113D01*
X98828538Y-133800000D01*
X98833169Y-133791519D01*
X98833169Y-133791517D01*
X98833172Y-133791513D01*
X98928175Y-133536801D01*
X98985961Y-133271160D01*
X99005355Y-133000000D01*
X98985961Y-132728840D01*
X98928175Y-132463199D01*
X98833172Y-132208487D01*
X98833170Y-132208484D01*
X98833169Y-132208480D01*
X98702890Y-131969892D01*
X98702889Y-131969891D01*
X98702887Y-131969887D01*
X98539971Y-131752258D01*
X98539966Y-131752253D01*
X98539961Y-131752247D01*
X98347752Y-131560038D01*
X98347746Y-131560033D01*
X98347742Y-131560029D01*
X98130113Y-131397113D01*
X98130108Y-131397110D01*
X98130107Y-131397109D01*
X97891518Y-131266830D01*
X97891519Y-131266830D01*
X97835835Y-131246061D01*
X97636801Y-131171825D01*
X97636794Y-131171823D01*
X97636793Y-131171823D01*
X97371167Y-131114040D01*
X97371160Y-131114039D01*
X97100001Y-131094645D01*
X97099999Y-131094645D01*
X96828839Y-131114039D01*
X96828832Y-131114040D01*
X96563206Y-131171823D01*
X96563202Y-131171824D01*
X96563199Y-131171825D01*
X96441196Y-131217330D01*
X96308480Y-131266830D01*
X96069892Y-131397109D01*
X96069891Y-131397110D01*
X95852259Y-131560028D01*
X95852247Y-131560038D01*
X95660038Y-131752247D01*
X95660028Y-131752259D01*
X95497110Y-131969891D01*
X95497109Y-131969892D01*
X95366830Y-132208480D01*
X95354279Y-132242131D01*
X95271825Y-132463199D01*
X95271824Y-132463202D01*
X95271823Y-132463206D01*
X95214040Y-132728832D01*
X95214039Y-132728839D01*
X95194645Y-132999998D01*
X95194645Y-133000001D01*
X79007528Y-133000001D01*
X78986521Y-132961528D01*
X78991506Y-132891836D01*
X79033377Y-132835903D01*
X79040636Y-132830863D01*
X79098049Y-132793967D01*
X79182882Y-132696063D01*
X79236697Y-132578226D01*
X79248387Y-132496914D01*
X79277409Y-132433361D01*
X79283429Y-132426895D01*
X79468204Y-132242120D01*
X79472166Y-132238489D01*
X79503194Y-132212455D01*
X79523438Y-132177390D01*
X79526335Y-132172841D01*
X79549554Y-132139684D01*
X79549554Y-132139681D01*
X79551819Y-132134824D01*
X79558747Y-132118099D01*
X79560587Y-132113046D01*
X79560588Y-132113045D01*
X79567621Y-132073150D01*
X79568777Y-132067937D01*
X79579263Y-132028807D01*
X79575735Y-131988489D01*
X79575500Y-131983086D01*
X79575500Y-128307381D01*
X79595185Y-128240342D01*
X79647989Y-128194587D01*
X79717147Y-128184643D01*
X79780703Y-128213668D01*
X79793214Y-128226180D01*
X79851948Y-128293965D01*
X79851950Y-128293966D01*
X79851951Y-128293967D01*
X79960931Y-128364004D01*
X80085225Y-128400499D01*
X80085227Y-128400500D01*
X80085228Y-128400500D01*
X80214773Y-128400500D01*
X80214773Y-128400499D01*
X80339069Y-128364004D01*
X80448049Y-128293967D01*
X80532882Y-128196063D01*
X80586697Y-128078226D01*
X80605133Y-127950000D01*
X80586697Y-127821774D01*
X80532882Y-127703937D01*
X80448049Y-127606033D01*
X80339069Y-127535996D01*
X80339067Y-127535995D01*
X80339065Y-127535994D01*
X80264565Y-127514119D01*
X80205787Y-127476345D01*
X80176762Y-127412789D01*
X80175500Y-127395142D01*
X80175500Y-126512050D01*
X80195185Y-126445011D01*
X80247989Y-126399256D01*
X80317147Y-126389312D01*
X80334422Y-126393069D01*
X80359728Y-126400500D01*
X80363312Y-126400500D01*
X80366751Y-126401509D01*
X80368505Y-126401762D01*
X80368468Y-126402014D01*
X80430351Y-126420185D01*
X80450993Y-126436819D01*
X83015054Y-129000881D01*
X83040167Y-129037050D01*
X83067118Y-129096063D01*
X83151951Y-129193967D01*
X83260931Y-129264004D01*
X83385225Y-129300499D01*
X83385227Y-129300500D01*
X83385228Y-129300500D01*
X83514773Y-129300500D01*
X83514773Y-129300499D01*
X83639069Y-129264004D01*
X83748049Y-129193967D01*
X83832882Y-129096063D01*
X83886697Y-128978226D01*
X83905133Y-128850000D01*
X83886697Y-128721774D01*
X83841985Y-128623870D01*
X83833407Y-128605086D01*
X83831431Y-128591346D01*
X83810085Y-128577628D01*
X83748049Y-128506033D01*
X83639069Y-128435996D01*
X83639065Y-128435994D01*
X83639064Y-128435994D01*
X83514774Y-128399500D01*
X83514772Y-128399500D01*
X83385689Y-128399500D01*
X83318650Y-128379815D01*
X83298008Y-128363181D01*
X83134827Y-128200000D01*
X83944867Y-128200000D01*
X83963302Y-128328226D01*
X83963303Y-128328227D01*
X84016592Y-128444914D01*
X84018567Y-128458652D01*
X84039913Y-128472370D01*
X84101951Y-128543967D01*
X84210931Y-128614004D01*
X84210933Y-128614004D01*
X84217538Y-128618249D01*
X84263294Y-128671052D01*
X84274500Y-128722565D01*
X84274500Y-130041464D01*
X84254815Y-130108503D01*
X84244215Y-130122664D01*
X84217119Y-130153935D01*
X84217116Y-130153939D01*
X84163302Y-130271774D01*
X84144867Y-130400000D01*
X84163302Y-130528225D01*
X84215018Y-130641464D01*
X84217118Y-130646063D01*
X84301951Y-130743967D01*
X84410931Y-130814004D01*
X84535225Y-130850499D01*
X84535227Y-130850500D01*
X84535228Y-130850500D01*
X84664773Y-130850500D01*
X84664773Y-130850499D01*
X84789069Y-130814004D01*
X84898049Y-130743967D01*
X84982882Y-130646063D01*
X85036697Y-130528226D01*
X85055133Y-130400000D01*
X85036697Y-130271774D01*
X84982882Y-130153937D01*
X84973880Y-130143548D01*
X84955785Y-130122664D01*
X84926762Y-130059108D01*
X84925500Y-130041464D01*
X84925500Y-128820000D01*
X89494659Y-128820000D01*
X89513975Y-129016129D01*
X89513976Y-129016132D01*
X89570882Y-129203726D01*
X89571188Y-129204733D01*
X89664086Y-129378532D01*
X89664090Y-129378539D01*
X89789116Y-129530883D01*
X89941460Y-129655909D01*
X89941467Y-129655913D01*
X90115266Y-129748811D01*
X90115269Y-129748811D01*
X90115273Y-129748814D01*
X90303868Y-129806024D01*
X90500000Y-129825341D01*
X90696132Y-129806024D01*
X90884727Y-129748814D01*
X90885287Y-129748515D01*
X91017598Y-129677793D01*
X91058538Y-129655910D01*
X91210883Y-129530883D01*
X91335910Y-129378538D01*
X91428814Y-129204727D01*
X91428815Y-129204723D01*
X91429923Y-129202051D01*
X91430879Y-129200864D01*
X91431686Y-129199355D01*
X91431972Y-129199507D01*
X91473762Y-129147646D01*
X91540056Y-129125579D01*
X91544485Y-129125500D01*
X92050500Y-129125500D01*
X92117539Y-129145185D01*
X92163294Y-129197989D01*
X92174500Y-129249500D01*
X92174500Y-129329269D01*
X92177353Y-129359699D01*
X92177353Y-129359701D01*
X92208700Y-129449282D01*
X92222207Y-129487882D01*
X92302850Y-129597150D01*
X92412118Y-129677793D01*
X92454845Y-129692744D01*
X92540299Y-129722646D01*
X92570730Y-129725500D01*
X92570734Y-129725500D01*
X93354270Y-129725500D01*
X93384699Y-129722646D01*
X93384701Y-129722646D01*
X93457677Y-129697110D01*
X93512882Y-129677793D01*
X93622150Y-129597150D01*
X93702793Y-129487882D01*
X93726733Y-129419466D01*
X93747646Y-129359701D01*
X93747646Y-129359699D01*
X93750500Y-129329269D01*
X94249500Y-129329269D01*
X94252353Y-129359699D01*
X94252353Y-129359701D01*
X94283700Y-129449282D01*
X94297207Y-129487882D01*
X94377850Y-129597150D01*
X94487118Y-129677793D01*
X94529845Y-129692744D01*
X94615299Y-129722646D01*
X94645730Y-129725500D01*
X94645734Y-129725500D01*
X95429270Y-129725500D01*
X95459699Y-129722646D01*
X95459701Y-129722646D01*
X95532677Y-129697110D01*
X95587882Y-129677793D01*
X95697150Y-129597150D01*
X95777793Y-129487882D01*
X95801733Y-129419466D01*
X95822646Y-129359701D01*
X95822646Y-129359699D01*
X95825500Y-129329269D01*
X95825500Y-128569999D01*
X97150839Y-128569999D01*
X97150840Y-128570000D01*
X97804314Y-128570000D01*
X97792359Y-128581955D01*
X97734835Y-128694852D01*
X97715014Y-128820000D01*
X97734835Y-128945148D01*
X97792359Y-129058045D01*
X97804314Y-129070000D01*
X97150840Y-129070000D01*
X97191652Y-129204541D01*
X97284503Y-129378253D01*
X97284507Y-129378260D01*
X97409471Y-129530528D01*
X97561739Y-129655491D01*
X97735465Y-129748349D01*
X97870000Y-129789159D01*
X97870000Y-129135686D01*
X97881955Y-129147641D01*
X97994852Y-129205165D01*
X98088519Y-129220000D01*
X98151481Y-129220000D01*
X98245148Y-129205165D01*
X98358045Y-129147641D01*
X98370000Y-129135686D01*
X98370000Y-129789159D01*
X98504534Y-129748349D01*
X98678260Y-129655491D01*
X98830528Y-129530528D01*
X98955492Y-129378260D01*
X98955496Y-129378253D01*
X99048347Y-129204541D01*
X99089160Y-129070000D01*
X98435686Y-129070000D01*
X98447641Y-129058045D01*
X98505165Y-128945148D01*
X98524986Y-128820000D01*
X98505165Y-128694852D01*
X98447641Y-128581955D01*
X98435686Y-128570000D01*
X99089160Y-128570000D01*
X99089160Y-128569999D01*
X99048347Y-128435458D01*
X98955496Y-128261746D01*
X98955492Y-128261739D01*
X98830528Y-128109471D01*
X98678260Y-127984507D01*
X98678253Y-127984503D01*
X98504541Y-127891652D01*
X98370000Y-127850839D01*
X98370000Y-128504314D01*
X98358045Y-128492359D01*
X98245148Y-128434835D01*
X98151481Y-128420000D01*
X98088519Y-128420000D01*
X97994852Y-128434835D01*
X97881955Y-128492359D01*
X97870000Y-128504314D01*
X97870000Y-127850839D01*
X97869999Y-127850839D01*
X97735458Y-127891652D01*
X97561746Y-127984503D01*
X97561739Y-127984507D01*
X97409471Y-128109471D01*
X97284507Y-128261739D01*
X97284503Y-128261746D01*
X97191652Y-128435458D01*
X97150839Y-128569999D01*
X95825500Y-128569999D01*
X95825500Y-128270730D01*
X95822646Y-128240300D01*
X95822646Y-128240298D01*
X95777793Y-128112119D01*
X95777792Y-128112117D01*
X95775577Y-128109116D01*
X95697150Y-128002850D01*
X95587882Y-127922207D01*
X95587881Y-127922206D01*
X95571044Y-127916315D01*
X95514268Y-127875593D01*
X95488522Y-127810640D01*
X95488000Y-127799274D01*
X95488000Y-127300726D01*
X95507685Y-127233687D01*
X95560489Y-127187932D01*
X95571047Y-127183684D01*
X95587879Y-127177794D01*
X95587878Y-127177794D01*
X95587882Y-127177793D01*
X95697150Y-127097150D01*
X95777793Y-126987882D01*
X95813506Y-126885821D01*
X95822646Y-126859701D01*
X95822646Y-126859699D01*
X95825500Y-126829269D01*
X95825500Y-126029999D01*
X97150839Y-126029999D01*
X97150840Y-126030000D01*
X97804314Y-126030000D01*
X97792359Y-126041955D01*
X97734835Y-126154852D01*
X97715014Y-126280000D01*
X97734835Y-126405148D01*
X97792359Y-126518045D01*
X97804314Y-126530000D01*
X97150840Y-126530000D01*
X97191652Y-126664541D01*
X97284503Y-126838253D01*
X97284507Y-126838260D01*
X97409471Y-126990528D01*
X97561739Y-127115491D01*
X97735465Y-127208349D01*
X97870000Y-127249159D01*
X97870000Y-126595686D01*
X97881955Y-126607641D01*
X97994852Y-126665165D01*
X98088519Y-126680000D01*
X98151481Y-126680000D01*
X98245148Y-126665165D01*
X98358045Y-126607641D01*
X98370000Y-126595686D01*
X98370000Y-127249159D01*
X98504534Y-127208349D01*
X98678260Y-127115491D01*
X98830528Y-126990528D01*
X98955492Y-126838260D01*
X98955496Y-126838253D01*
X99048347Y-126664541D01*
X99089160Y-126530000D01*
X98435686Y-126530000D01*
X98447641Y-126518045D01*
X98505165Y-126405148D01*
X98524986Y-126280000D01*
X98505165Y-126154852D01*
X98447641Y-126041955D01*
X98435686Y-126030000D01*
X99089160Y-126030000D01*
X99089160Y-126029999D01*
X99048347Y-125895458D01*
X98955496Y-125721746D01*
X98955492Y-125721739D01*
X98830528Y-125569471D01*
X98678260Y-125444507D01*
X98678253Y-125444503D01*
X98504541Y-125351652D01*
X98370000Y-125310839D01*
X98370000Y-125964314D01*
X98358045Y-125952359D01*
X98245148Y-125894835D01*
X98151481Y-125880000D01*
X98088519Y-125880000D01*
X97994852Y-125894835D01*
X97881955Y-125952359D01*
X97870000Y-125964314D01*
X97870000Y-125310839D01*
X97869999Y-125310839D01*
X97735458Y-125351652D01*
X97561746Y-125444503D01*
X97561739Y-125444507D01*
X97409471Y-125569471D01*
X97284507Y-125721739D01*
X97284503Y-125721746D01*
X97191652Y-125895458D01*
X97150839Y-126029999D01*
X95825500Y-126029999D01*
X95825500Y-125770730D01*
X95822646Y-125740300D01*
X95822646Y-125740298D01*
X95788937Y-125643967D01*
X95777793Y-125612118D01*
X95697150Y-125502850D01*
X95587882Y-125422207D01*
X95587881Y-125422206D01*
X95571044Y-125416315D01*
X95514268Y-125375593D01*
X95488522Y-125310640D01*
X95488000Y-125299274D01*
X95488000Y-124800726D01*
X95507685Y-124733687D01*
X95560489Y-124687932D01*
X95571047Y-124683684D01*
X95587879Y-124677794D01*
X95587878Y-124677794D01*
X95587882Y-124677793D01*
X95697150Y-124597150D01*
X95777793Y-124487882D01*
X95816476Y-124377332D01*
X95822646Y-124359701D01*
X95822646Y-124359699D01*
X95825500Y-124329269D01*
X95825500Y-123489999D01*
X97150839Y-123489999D01*
X97150840Y-123490000D01*
X97804314Y-123490000D01*
X97792359Y-123501955D01*
X97734835Y-123614852D01*
X97715014Y-123740000D01*
X97734835Y-123865148D01*
X97792359Y-123978045D01*
X97804314Y-123990000D01*
X97150840Y-123990000D01*
X97191652Y-124124541D01*
X97284503Y-124298253D01*
X97284507Y-124298260D01*
X97409471Y-124450528D01*
X97561739Y-124575491D01*
X97735465Y-124668349D01*
X97870000Y-124709159D01*
X97870000Y-124055686D01*
X97881955Y-124067641D01*
X97994852Y-124125165D01*
X98088519Y-124140000D01*
X98151481Y-124140000D01*
X98245148Y-124125165D01*
X98358045Y-124067641D01*
X98370000Y-124055686D01*
X98370000Y-124709159D01*
X98504534Y-124668349D01*
X98678260Y-124575491D01*
X98830528Y-124450528D01*
X98955492Y-124298260D01*
X98955496Y-124298253D01*
X99048347Y-124124541D01*
X99089160Y-123990000D01*
X98435686Y-123990000D01*
X98447641Y-123978045D01*
X98505165Y-123865148D01*
X98524986Y-123740000D01*
X98505165Y-123614852D01*
X98447641Y-123501955D01*
X98435686Y-123490000D01*
X99089160Y-123490000D01*
X99089160Y-123489999D01*
X99048347Y-123355458D01*
X98955496Y-123181746D01*
X98955492Y-123181739D01*
X98830528Y-123029471D01*
X98678260Y-122904507D01*
X98678253Y-122904503D01*
X98504541Y-122811652D01*
X98370000Y-122770839D01*
X98370000Y-123424314D01*
X98358045Y-123412359D01*
X98245148Y-123354835D01*
X98151481Y-123340000D01*
X98088519Y-123340000D01*
X97994852Y-123354835D01*
X97881955Y-123412359D01*
X97870000Y-123424314D01*
X97870000Y-122770839D01*
X97869999Y-122770839D01*
X97735458Y-122811652D01*
X97561746Y-122904503D01*
X97561739Y-122904507D01*
X97409471Y-123029471D01*
X97284507Y-123181739D01*
X97284503Y-123181746D01*
X97191652Y-123355458D01*
X97150839Y-123489999D01*
X95825500Y-123489999D01*
X95825500Y-123270730D01*
X95822646Y-123240300D01*
X95822646Y-123240298D01*
X95786148Y-123135996D01*
X95777793Y-123112118D01*
X95697150Y-123002850D01*
X95587882Y-122922207D01*
X95587881Y-122922206D01*
X95571044Y-122916315D01*
X95514268Y-122875593D01*
X95488522Y-122810640D01*
X95488000Y-122799274D01*
X95488000Y-122300726D01*
X95507685Y-122233687D01*
X95560489Y-122187932D01*
X95571047Y-122183684D01*
X95587879Y-122177794D01*
X95587878Y-122177794D01*
X95587882Y-122177793D01*
X95697150Y-122097150D01*
X95777793Y-121987882D01*
X95815245Y-121880851D01*
X95822646Y-121859701D01*
X95822646Y-121859699D01*
X95825500Y-121829269D01*
X95825500Y-120770730D01*
X95822646Y-120740300D01*
X95822646Y-120740298D01*
X95777793Y-120612119D01*
X95777792Y-120612117D01*
X95718021Y-120531130D01*
X95697150Y-120502850D01*
X95587882Y-120422207D01*
X95587881Y-120422206D01*
X95571044Y-120416315D01*
X95514268Y-120375593D01*
X95488522Y-120310640D01*
X95488000Y-120299274D01*
X95488000Y-119842557D01*
X95507685Y-119775518D01*
X95529770Y-119749744D01*
X95565683Y-119717929D01*
X95662318Y-119577930D01*
X95722640Y-119418872D01*
X95743145Y-119250000D01*
X95740532Y-119228484D01*
X95751992Y-119159563D01*
X95798894Y-119107776D01*
X95866350Y-119089568D01*
X95904582Y-119096496D01*
X95977897Y-119122149D01*
X96008278Y-119124998D01*
X96008306Y-119124999D01*
X96149999Y-119124999D01*
X96150000Y-119124998D01*
X96150000Y-118450000D01*
X96650000Y-118450000D01*
X96650000Y-119124999D01*
X96791696Y-119124999D01*
X96822106Y-119122148D01*
X96950145Y-119077346D01*
X97059292Y-118996792D01*
X97139846Y-118887645D01*
X97184649Y-118759604D01*
X97184649Y-118759600D01*
X97187500Y-118729206D01*
X97187500Y-118450000D01*
X96650000Y-118450000D01*
X96150000Y-118450000D01*
X95612501Y-118450000D01*
X95612501Y-118555545D01*
X95592816Y-118622584D01*
X95540012Y-118668339D01*
X95470854Y-118678283D01*
X95430875Y-118665341D01*
X95287726Y-118590210D01*
X95122556Y-118549500D01*
X94952444Y-118549500D01*
X94787273Y-118590210D01*
X94636650Y-118669263D01*
X94509316Y-118782072D01*
X94412682Y-118922068D01*
X94352360Y-119081125D01*
X94352359Y-119081130D01*
X94331855Y-119250000D01*
X94352359Y-119418869D01*
X94352360Y-119418874D01*
X94412682Y-119577931D01*
X94509315Y-119717927D01*
X94509316Y-119717928D01*
X94509317Y-119717929D01*
X94545227Y-119749742D01*
X94582353Y-119808929D01*
X94587000Y-119842557D01*
X94587000Y-120299274D01*
X94567315Y-120366313D01*
X94514511Y-120412068D01*
X94503956Y-120416315D01*
X94487118Y-120422206D01*
X94377850Y-120502850D01*
X94297207Y-120612117D01*
X94297206Y-120612119D01*
X94252353Y-120740298D01*
X94252353Y-120740300D01*
X94249500Y-120770730D01*
X94249500Y-121829269D01*
X94252353Y-121859699D01*
X94252353Y-121859701D01*
X94297206Y-121987880D01*
X94297207Y-121987882D01*
X94377850Y-122097150D01*
X94435482Y-122139684D01*
X94487118Y-122177793D01*
X94487120Y-122177794D01*
X94503953Y-122183684D01*
X94560730Y-122224405D01*
X94586478Y-122289358D01*
X94587000Y-122300726D01*
X94587000Y-122799274D01*
X94567315Y-122866313D01*
X94514511Y-122912068D01*
X94503956Y-122916315D01*
X94487118Y-122922206D01*
X94377850Y-123002850D01*
X94297207Y-123112117D01*
X94297206Y-123112119D01*
X94252353Y-123240298D01*
X94252353Y-123240300D01*
X94249500Y-123270730D01*
X94249500Y-124329269D01*
X94252353Y-124359699D01*
X94252353Y-124359701D01*
X94295625Y-124483361D01*
X94297207Y-124487882D01*
X94377850Y-124597150D01*
X94474322Y-124668349D01*
X94487118Y-124677793D01*
X94487120Y-124677794D01*
X94503953Y-124683684D01*
X94560730Y-124724405D01*
X94586478Y-124789358D01*
X94587000Y-124800726D01*
X94587000Y-125299274D01*
X94567315Y-125366313D01*
X94514511Y-125412068D01*
X94503956Y-125416315D01*
X94487118Y-125422206D01*
X94377850Y-125502850D01*
X94297207Y-125612117D01*
X94297206Y-125612119D01*
X94252353Y-125740298D01*
X94252353Y-125740300D01*
X94249500Y-125770730D01*
X94249500Y-126829269D01*
X94252353Y-126859699D01*
X94252353Y-126859701D01*
X94290111Y-126967604D01*
X94297207Y-126987882D01*
X94377850Y-127097150D01*
X94484080Y-127175551D01*
X94487118Y-127177793D01*
X94487120Y-127177794D01*
X94503953Y-127183684D01*
X94560730Y-127224405D01*
X94586478Y-127289358D01*
X94587000Y-127300726D01*
X94587000Y-127799274D01*
X94567315Y-127866313D01*
X94514511Y-127912068D01*
X94503956Y-127916315D01*
X94487118Y-127922206D01*
X94377850Y-128002850D01*
X94297207Y-128112117D01*
X94297206Y-128112119D01*
X94252353Y-128240298D01*
X94252353Y-128240300D01*
X94249500Y-128270730D01*
X94249500Y-129329269D01*
X93750500Y-129329269D01*
X93750500Y-128270730D01*
X93747646Y-128240300D01*
X93747646Y-128240298D01*
X93702793Y-128112119D01*
X93702792Y-128112117D01*
X93700577Y-128109116D01*
X93622150Y-128002850D01*
X93512882Y-127922207D01*
X93512880Y-127922206D01*
X93384700Y-127877353D01*
X93354270Y-127874500D01*
X93354266Y-127874500D01*
X92570734Y-127874500D01*
X92570730Y-127874500D01*
X92540300Y-127877353D01*
X92540298Y-127877353D01*
X92412119Y-127922206D01*
X92412117Y-127922207D01*
X92302850Y-128002850D01*
X92222207Y-128112117D01*
X92222206Y-128112119D01*
X92177353Y-128240298D01*
X92177353Y-128240300D01*
X92174500Y-128270730D01*
X92174500Y-128350500D01*
X92154815Y-128417539D01*
X92102011Y-128463294D01*
X92050500Y-128474500D01*
X91524104Y-128474500D01*
X91457065Y-128454815D01*
X91414746Y-128408953D01*
X91335913Y-128261467D01*
X91335909Y-128261460D01*
X91210883Y-128109116D01*
X91058539Y-127984090D01*
X91058532Y-127984086D01*
X90884733Y-127891188D01*
X90884727Y-127891186D01*
X90696132Y-127833976D01*
X90696129Y-127833975D01*
X90500000Y-127814659D01*
X90303870Y-127833975D01*
X90115266Y-127891188D01*
X89941467Y-127984086D01*
X89941460Y-127984090D01*
X89789116Y-128109116D01*
X89664090Y-128261460D01*
X89664086Y-128261467D01*
X89571188Y-128435266D01*
X89513975Y-128623870D01*
X89494659Y-128820000D01*
X84925500Y-128820000D01*
X84925500Y-128416920D01*
X84925736Y-128411513D01*
X84929264Y-128371193D01*
X84927338Y-128364005D01*
X84918782Y-128332076D01*
X84917616Y-128326818D01*
X84910588Y-128286955D01*
X84910586Y-128286952D01*
X84910586Y-128286950D01*
X84908760Y-128281933D01*
X84901820Y-128265176D01*
X84899554Y-128260319D01*
X84899554Y-128260316D01*
X84876339Y-128227162D01*
X84873433Y-128222600D01*
X84865342Y-128208585D01*
X84849990Y-128164231D01*
X84836697Y-128071774D01*
X84796841Y-127984503D01*
X84782882Y-127953937D01*
X84698049Y-127856033D01*
X84589069Y-127785996D01*
X84589065Y-127785994D01*
X84589064Y-127785994D01*
X84464774Y-127749500D01*
X84464772Y-127749500D01*
X84335228Y-127749500D01*
X84335226Y-127749500D01*
X84210935Y-127785994D01*
X84210932Y-127785995D01*
X84210931Y-127785996D01*
X84172584Y-127810640D01*
X84101950Y-127856033D01*
X84017118Y-127953937D01*
X84017117Y-127953938D01*
X83963302Y-128071774D01*
X83944867Y-128200000D01*
X83134827Y-128200000D01*
X81134826Y-126200000D01*
X83394867Y-126200000D01*
X83413302Y-126328225D01*
X83467117Y-126446061D01*
X83467118Y-126446063D01*
X83551951Y-126543967D01*
X83660931Y-126614004D01*
X83785225Y-126650499D01*
X83785227Y-126650500D01*
X83785228Y-126650500D01*
X83914773Y-126650500D01*
X83914773Y-126650499D01*
X83981662Y-126630859D01*
X84047578Y-126611506D01*
X84048146Y-126613442D01*
X84084665Y-126605500D01*
X89465205Y-126605500D01*
X89532244Y-126625185D01*
X89574563Y-126671047D01*
X89664085Y-126838532D01*
X89664090Y-126838539D01*
X89789116Y-126990883D01*
X89941460Y-127115909D01*
X89941467Y-127115913D01*
X90115266Y-127208811D01*
X90115269Y-127208811D01*
X90115273Y-127208814D01*
X90303868Y-127266024D01*
X90500000Y-127285341D01*
X90696132Y-127266024D01*
X90884727Y-127208814D01*
X90923795Y-127187932D01*
X91058532Y-127115913D01*
X91058538Y-127115910D01*
X91210883Y-126990883D01*
X91335910Y-126838538D01*
X91383502Y-126749500D01*
X91414746Y-126691047D01*
X91463708Y-126641203D01*
X91524104Y-126625500D01*
X92050500Y-126625500D01*
X92117539Y-126645185D01*
X92163294Y-126697989D01*
X92174500Y-126749500D01*
X92174500Y-126829269D01*
X92177353Y-126859699D01*
X92177353Y-126859701D01*
X92215111Y-126967604D01*
X92222207Y-126987882D01*
X92302850Y-127097150D01*
X92412118Y-127177793D01*
X92428954Y-127183684D01*
X92540299Y-127222646D01*
X92570730Y-127225500D01*
X92570734Y-127225500D01*
X93354270Y-127225500D01*
X93384699Y-127222646D01*
X93384701Y-127222646D01*
X93448790Y-127200219D01*
X93512882Y-127177793D01*
X93622150Y-127097150D01*
X93702793Y-126987882D01*
X93738506Y-126885821D01*
X93747646Y-126859701D01*
X93747646Y-126859699D01*
X93750500Y-126829269D01*
X93750500Y-125770730D01*
X93747646Y-125740300D01*
X93747646Y-125740298D01*
X93713937Y-125643967D01*
X93702793Y-125612118D01*
X93622150Y-125502850D01*
X93512882Y-125422207D01*
X93512880Y-125422206D01*
X93384700Y-125377353D01*
X93354270Y-125374500D01*
X93354266Y-125374500D01*
X92570734Y-125374500D01*
X92570730Y-125374500D01*
X92540300Y-125377353D01*
X92540298Y-125377353D01*
X92412119Y-125422206D01*
X92412117Y-125422207D01*
X92302850Y-125502850D01*
X92222207Y-125612117D01*
X92222206Y-125612119D01*
X92177353Y-125740298D01*
X92177353Y-125740300D01*
X92174500Y-125770730D01*
X92174500Y-125850500D01*
X92154815Y-125917539D01*
X92102011Y-125963294D01*
X92050500Y-125974500D01*
X91544485Y-125974500D01*
X91477446Y-125954815D01*
X91431691Y-125902011D01*
X91429923Y-125897949D01*
X91428814Y-125895273D01*
X91335913Y-125721467D01*
X91335909Y-125721460D01*
X91210883Y-125569116D01*
X91058539Y-125444090D01*
X91058532Y-125444086D01*
X90884733Y-125351188D01*
X90884727Y-125351186D01*
X90751066Y-125310640D01*
X90696129Y-125293975D01*
X90500000Y-125274659D01*
X90303870Y-125293975D01*
X90115266Y-125351188D01*
X89941467Y-125444086D01*
X89941460Y-125444090D01*
X89789116Y-125569116D01*
X89664090Y-125721460D01*
X89664085Y-125721467D01*
X89574563Y-125888953D01*
X89525601Y-125938798D01*
X89465205Y-125954500D01*
X84289999Y-125954500D01*
X84222960Y-125934815D01*
X84196285Y-125911701D01*
X84142241Y-125849329D01*
X84144897Y-125847027D01*
X84116225Y-125802389D01*
X84116242Y-125732519D01*
X84154031Y-125673750D01*
X84168173Y-125663167D01*
X84196156Y-125645184D01*
X84263194Y-125625500D01*
X88923078Y-125625500D01*
X88928481Y-125625735D01*
X88968807Y-125629264D01*
X89007940Y-125618777D01*
X89013162Y-125617619D01*
X89053045Y-125610588D01*
X89053050Y-125610584D01*
X89058099Y-125608747D01*
X89074824Y-125601819D01*
X89079681Y-125599554D01*
X89079684Y-125599554D01*
X89112841Y-125576335D01*
X89117390Y-125573438D01*
X89152455Y-125553194D01*
X89158439Y-125546063D01*
X89178476Y-125522182D01*
X89182122Y-125518202D01*
X89998454Y-124701870D01*
X90059775Y-124668387D01*
X90122126Y-124670892D01*
X90303868Y-124726024D01*
X90500000Y-124745341D01*
X90696132Y-124726024D01*
X90884727Y-124668814D01*
X90960666Y-124628224D01*
X91018801Y-124597150D01*
X91058538Y-124575910D01*
X91210883Y-124450883D01*
X91335910Y-124298538D01*
X91350216Y-124271774D01*
X91393366Y-124191047D01*
X91442328Y-124141203D01*
X91502724Y-124125500D01*
X92050500Y-124125500D01*
X92117539Y-124145185D01*
X92163294Y-124197989D01*
X92174500Y-124249500D01*
X92174500Y-124329269D01*
X92177353Y-124359699D01*
X92177353Y-124359701D01*
X92220625Y-124483361D01*
X92222207Y-124487882D01*
X92302850Y-124597150D01*
X92412118Y-124677793D01*
X92428954Y-124683684D01*
X92540299Y-124722646D01*
X92570730Y-124725500D01*
X92570734Y-124725500D01*
X93354270Y-124725500D01*
X93384699Y-124722646D01*
X93384701Y-124722646D01*
X93450692Y-124699554D01*
X93512882Y-124677793D01*
X93622150Y-124597150D01*
X93702793Y-124487882D01*
X93741476Y-124377332D01*
X93747646Y-124359701D01*
X93747646Y-124359699D01*
X93750500Y-124329269D01*
X93750500Y-123270730D01*
X93747646Y-123240300D01*
X93747646Y-123240298D01*
X93711148Y-123135996D01*
X93702793Y-123112118D01*
X93622150Y-123002850D01*
X93512882Y-122922207D01*
X93512880Y-122922206D01*
X93384700Y-122877353D01*
X93354270Y-122874500D01*
X93354266Y-122874500D01*
X92570734Y-122874500D01*
X92570730Y-122874500D01*
X92540300Y-122877353D01*
X92540298Y-122877353D01*
X92412119Y-122922206D01*
X92412117Y-122922207D01*
X92302850Y-123002850D01*
X92222207Y-123112117D01*
X92222206Y-123112119D01*
X92177353Y-123240298D01*
X92177353Y-123240300D01*
X92174500Y-123270730D01*
X92174500Y-123350500D01*
X92154815Y-123417539D01*
X92102011Y-123463294D01*
X92050500Y-123474500D01*
X91556946Y-123474500D01*
X91489907Y-123454815D01*
X91444152Y-123402011D01*
X91438286Y-123386496D01*
X91428813Y-123355271D01*
X91335913Y-123181467D01*
X91335909Y-123181460D01*
X91210883Y-123029116D01*
X91058539Y-122904090D01*
X91058532Y-122904086D01*
X90884733Y-122811188D01*
X90884727Y-122811186D01*
X90696132Y-122753976D01*
X90696129Y-122753975D01*
X90500000Y-122734659D01*
X90303870Y-122753975D01*
X90115266Y-122811188D01*
X89941467Y-122904086D01*
X89941460Y-122904090D01*
X89789116Y-123029116D01*
X89664090Y-123181460D01*
X89664086Y-123181467D01*
X89571188Y-123355266D01*
X89513975Y-123543870D01*
X89494659Y-123740000D01*
X89513975Y-123936130D01*
X89569106Y-124117870D01*
X89569729Y-124187736D01*
X89538126Y-124241546D01*
X88841493Y-124938181D01*
X88780170Y-124971666D01*
X88753812Y-124974500D01*
X87355446Y-124974500D01*
X87327319Y-124966241D01*
X87316232Y-124972069D01*
X87291801Y-124974500D01*
X84263194Y-124974500D01*
X84196155Y-124954815D01*
X84196154Y-124954815D01*
X84195376Y-124954315D01*
X84149621Y-124901510D01*
X84139678Y-124832352D01*
X84168704Y-124768796D01*
X84195376Y-124745685D01*
X84196154Y-124745185D01*
X84263193Y-124725500D01*
X87283078Y-124725500D01*
X87288481Y-124725735D01*
X87296138Y-124726405D01*
X87302609Y-124726972D01*
X87318139Y-124733047D01*
X87320511Y-124731523D01*
X87323349Y-124730726D01*
X87328805Y-124729263D01*
X87328807Y-124729264D01*
X87367940Y-124718777D01*
X87373158Y-124717620D01*
X87413045Y-124710588D01*
X87413050Y-124710584D01*
X87418099Y-124708747D01*
X87434824Y-124701819D01*
X87439681Y-124699554D01*
X87439684Y-124699554D01*
X87472841Y-124676335D01*
X87477390Y-124673438D01*
X87512455Y-124653194D01*
X87518439Y-124646063D01*
X87533405Y-124628226D01*
X87538481Y-124622176D01*
X87542122Y-124618202D01*
X89923508Y-122236819D01*
X89984831Y-122203334D01*
X90011189Y-122200500D01*
X91319750Y-122200500D01*
X91319751Y-122200499D01*
X91334568Y-122197552D01*
X91378229Y-122188868D01*
X91378229Y-122188867D01*
X91378231Y-122188867D01*
X91444552Y-122144552D01*
X91488867Y-122078231D01*
X91488867Y-122078229D01*
X91488868Y-122078229D01*
X91500499Y-122019752D01*
X91500500Y-122019750D01*
X91500500Y-121749500D01*
X91520185Y-121682461D01*
X91572989Y-121636706D01*
X91624500Y-121625500D01*
X92050500Y-121625500D01*
X92117539Y-121645185D01*
X92163294Y-121697989D01*
X92174500Y-121749500D01*
X92174500Y-121829269D01*
X92177353Y-121859699D01*
X92177353Y-121859701D01*
X92222206Y-121987880D01*
X92222207Y-121987882D01*
X92302850Y-122097150D01*
X92412118Y-122177793D01*
X92428954Y-122183684D01*
X92540299Y-122222646D01*
X92570730Y-122225500D01*
X92570734Y-122225500D01*
X93354270Y-122225500D01*
X93384699Y-122222646D01*
X93384701Y-122222646D01*
X93448790Y-122200219D01*
X93512882Y-122177793D01*
X93622150Y-122097150D01*
X93702793Y-121987882D01*
X93740245Y-121880851D01*
X93747646Y-121859701D01*
X93747646Y-121859699D01*
X93750500Y-121829269D01*
X93750500Y-120770730D01*
X93747646Y-120740300D01*
X93747646Y-120740298D01*
X93702793Y-120612119D01*
X93702792Y-120612117D01*
X93643021Y-120531130D01*
X93622150Y-120502850D01*
X93512882Y-120422207D01*
X93512880Y-120422206D01*
X93384700Y-120377353D01*
X93354270Y-120374500D01*
X93354266Y-120374500D01*
X92570734Y-120374500D01*
X92570730Y-120374500D01*
X92540300Y-120377353D01*
X92540298Y-120377353D01*
X92412119Y-120422206D01*
X92412117Y-120422207D01*
X92302850Y-120502850D01*
X92222207Y-120612117D01*
X92222206Y-120612119D01*
X92177353Y-120740298D01*
X92177353Y-120740300D01*
X92174500Y-120770730D01*
X92174500Y-120850500D01*
X92154815Y-120917539D01*
X92102011Y-120963294D01*
X92050500Y-120974500D01*
X91624500Y-120974500D01*
X91557461Y-120954815D01*
X91511706Y-120902011D01*
X91500500Y-120850500D01*
X91500500Y-120380249D01*
X91500499Y-120380247D01*
X91488868Y-120321770D01*
X91488867Y-120321769D01*
X91444552Y-120255447D01*
X91378230Y-120211132D01*
X91378229Y-120211131D01*
X91319752Y-120199500D01*
X91319748Y-120199500D01*
X89680252Y-120199500D01*
X89680247Y-120199500D01*
X89621770Y-120211131D01*
X89621769Y-120211132D01*
X89555447Y-120255447D01*
X89511132Y-120321769D01*
X89511131Y-120321770D01*
X89499500Y-120380247D01*
X89499500Y-121688811D01*
X89479815Y-121755850D01*
X89463181Y-121776492D01*
X87201493Y-124038181D01*
X87140170Y-124071666D01*
X87113812Y-124074500D01*
X84263194Y-124074500D01*
X84196155Y-124054816D01*
X84187883Y-124049500D01*
X84089069Y-123985996D01*
X84089065Y-123985994D01*
X84089064Y-123985994D01*
X83964774Y-123949500D01*
X83964772Y-123949500D01*
X83835228Y-123949500D01*
X83835226Y-123949500D01*
X83710935Y-123985994D01*
X83710932Y-123985995D01*
X83710931Y-123985996D01*
X83704701Y-123990000D01*
X83601950Y-124056033D01*
X83517118Y-124153937D01*
X83517117Y-124153938D01*
X83463302Y-124271774D01*
X83444867Y-124400000D01*
X83463302Y-124528225D01*
X83506212Y-124622182D01*
X83517118Y-124646063D01*
X83601951Y-124743967D01*
X83604627Y-124745687D01*
X83606710Y-124748091D01*
X83608652Y-124749774D01*
X83608410Y-124750053D01*
X83650379Y-124798493D01*
X83660320Y-124867652D01*
X83631293Y-124931206D01*
X83604627Y-124954313D01*
X83601951Y-124956032D01*
X83517118Y-125053937D01*
X83517117Y-125053938D01*
X83463302Y-125171774D01*
X83444867Y-125300000D01*
X83463302Y-125428225D01*
X83517117Y-125546061D01*
X83517118Y-125546063D01*
X83586154Y-125625736D01*
X83607759Y-125650670D01*
X83605100Y-125652973D01*
X83633770Y-125697598D01*
X83633760Y-125767468D01*
X83595977Y-125826241D01*
X83581829Y-125836830D01*
X83551952Y-125856031D01*
X83467118Y-125953937D01*
X83467117Y-125953938D01*
X83413302Y-126071774D01*
X83394867Y-126200000D01*
X81134826Y-126200000D01*
X80907943Y-125973117D01*
X80874458Y-125911794D01*
X80872888Y-125903095D01*
X80861197Y-125821774D01*
X80807382Y-125703937D01*
X80722549Y-125606033D01*
X80613569Y-125535996D01*
X80613565Y-125535994D01*
X80613564Y-125535994D01*
X80489274Y-125499500D01*
X80489272Y-125499500D01*
X80359728Y-125499500D01*
X80334433Y-125506927D01*
X80264564Y-125506926D01*
X80205786Y-125469151D01*
X80176762Y-125405595D01*
X80175500Y-125387949D01*
X80175500Y-125039882D01*
X80195185Y-124972843D01*
X80247989Y-124927088D01*
X80317147Y-124917144D01*
X80334431Y-124920904D01*
X80369517Y-124931206D01*
X80435227Y-124950500D01*
X80435228Y-124950500D01*
X80564773Y-124950500D01*
X80564773Y-124950499D01*
X80689069Y-124914004D01*
X80798049Y-124843967D01*
X80882882Y-124746063D01*
X80936697Y-124628226D01*
X80948387Y-124546914D01*
X80977409Y-124483361D01*
X80983429Y-124476895D01*
X83218204Y-122242120D01*
X83222166Y-122238489D01*
X83253194Y-122212455D01*
X83273438Y-122177390D01*
X83276335Y-122172841D01*
X83299554Y-122139684D01*
X83299554Y-122139681D01*
X83301819Y-122134824D01*
X83308747Y-122118099D01*
X83310584Y-122113050D01*
X83310588Y-122113045D01*
X83317619Y-122073162D01*
X83318777Y-122067940D01*
X83329264Y-122028807D01*
X83325735Y-121988481D01*
X83325500Y-121983078D01*
X83325500Y-119974500D01*
X83345185Y-119907461D01*
X83397989Y-119861706D01*
X83449500Y-119850500D01*
X83519750Y-119850500D01*
X83519751Y-119850499D01*
X83534568Y-119847552D01*
X83578229Y-119838868D01*
X83578229Y-119838867D01*
X83578231Y-119838867D01*
X83644552Y-119794552D01*
X83688867Y-119728231D01*
X83688867Y-119728229D01*
X83688868Y-119728229D01*
X83700499Y-119669752D01*
X84299500Y-119669752D01*
X84311131Y-119728229D01*
X84311132Y-119728230D01*
X84355447Y-119794552D01*
X84421769Y-119838867D01*
X84421770Y-119838868D01*
X84480247Y-119850499D01*
X84480250Y-119850500D01*
X84480252Y-119850500D01*
X85519750Y-119850500D01*
X85519751Y-119850499D01*
X85534568Y-119847552D01*
X85578229Y-119838868D01*
X85578229Y-119838867D01*
X85578231Y-119838867D01*
X85644552Y-119794552D01*
X85688867Y-119728231D01*
X85688867Y-119728229D01*
X85688868Y-119728229D01*
X85700499Y-119669752D01*
X85700500Y-119669750D01*
X85700500Y-118650000D01*
X86300000Y-118650000D01*
X86300000Y-119669702D01*
X86311602Y-119728033D01*
X86311603Y-119728034D01*
X86355808Y-119794191D01*
X86421965Y-119838396D01*
X86421966Y-119838397D01*
X86480297Y-119849999D01*
X86480301Y-119850000D01*
X86750000Y-119850000D01*
X86750000Y-118650000D01*
X87250000Y-118650000D01*
X87250000Y-119850000D01*
X87519699Y-119850000D01*
X87519702Y-119849999D01*
X87578033Y-119838397D01*
X87578034Y-119838396D01*
X87644191Y-119794191D01*
X87688396Y-119728034D01*
X87688397Y-119728033D01*
X87699999Y-119669702D01*
X87700000Y-119669699D01*
X87700000Y-118650000D01*
X87250000Y-118650000D01*
X86750000Y-118650000D01*
X86300000Y-118650000D01*
X85700500Y-118650000D01*
X85700500Y-118150000D01*
X86300000Y-118150000D01*
X86750000Y-118150000D01*
X86750000Y-116950000D01*
X87250000Y-116950000D01*
X87250000Y-118150000D01*
X87700000Y-118150000D01*
X87700000Y-117950000D01*
X95612500Y-117950000D01*
X96150000Y-117950000D01*
X96150000Y-117275000D01*
X96650000Y-117275000D01*
X96650000Y-117950000D01*
X97187499Y-117950000D01*
X97187499Y-117670803D01*
X97184648Y-117640393D01*
X97139846Y-117512354D01*
X97059292Y-117403207D01*
X96950145Y-117322653D01*
X96822102Y-117277850D01*
X96791707Y-117275000D01*
X96650000Y-117275000D01*
X96150000Y-117275000D01*
X96008304Y-117275000D01*
X95977893Y-117277851D01*
X95849854Y-117322653D01*
X95740707Y-117403207D01*
X95660153Y-117512354D01*
X95615350Y-117640395D01*
X95615350Y-117640399D01*
X95612500Y-117670793D01*
X95612500Y-117950000D01*
X87700000Y-117950000D01*
X87700000Y-117130301D01*
X87699999Y-117130297D01*
X87688397Y-117071966D01*
X87688396Y-117071965D01*
X87644191Y-117005808D01*
X87578034Y-116961603D01*
X87578033Y-116961602D01*
X87519702Y-116950000D01*
X87250000Y-116950000D01*
X86750000Y-116950000D01*
X86480297Y-116950000D01*
X86421966Y-116961602D01*
X86421965Y-116961603D01*
X86355808Y-117005808D01*
X86311603Y-117071965D01*
X86311602Y-117071966D01*
X86300000Y-117130297D01*
X86300000Y-118150000D01*
X85700500Y-118150000D01*
X85700500Y-117130249D01*
X85700499Y-117130247D01*
X85688868Y-117071770D01*
X85688867Y-117071769D01*
X85644552Y-117005447D01*
X85578230Y-116961132D01*
X85578229Y-116961131D01*
X85519752Y-116949500D01*
X85519748Y-116949500D01*
X84480252Y-116949500D01*
X84480247Y-116949500D01*
X84421770Y-116961131D01*
X84421769Y-116961132D01*
X84355447Y-117005447D01*
X84311132Y-117071769D01*
X84311131Y-117071770D01*
X84299500Y-117130247D01*
X84299500Y-119669752D01*
X83700499Y-119669752D01*
X83700500Y-119669750D01*
X83700500Y-117130249D01*
X83700499Y-117130247D01*
X83688868Y-117071770D01*
X83688867Y-117071769D01*
X83644552Y-117005447D01*
X83578230Y-116961132D01*
X83578229Y-116961131D01*
X83519752Y-116949500D01*
X83519748Y-116949500D01*
X82480252Y-116949500D01*
X82480247Y-116949500D01*
X82421770Y-116961131D01*
X82421769Y-116961132D01*
X82355447Y-117005447D01*
X82311132Y-117071769D01*
X82311131Y-117071770D01*
X82299500Y-117130247D01*
X82299500Y-119669752D01*
X82311131Y-119728229D01*
X82311132Y-119728230D01*
X82355447Y-119794552D01*
X82421769Y-119838867D01*
X82421770Y-119838868D01*
X82480247Y-119850499D01*
X82480250Y-119850500D01*
X82480252Y-119850500D01*
X82550500Y-119850500D01*
X82617539Y-119870185D01*
X82663294Y-119922989D01*
X82674500Y-119974500D01*
X82674500Y-121813812D01*
X82654815Y-121880851D01*
X82638181Y-121901493D01*
X80526493Y-124013181D01*
X80465170Y-124046666D01*
X80438812Y-124049500D01*
X80435226Y-124049500D01*
X80334434Y-124079094D01*
X80264564Y-124079094D01*
X80205786Y-124041319D01*
X80176762Y-123977763D01*
X80175500Y-123960117D01*
X80175500Y-121236187D01*
X80195185Y-121169148D01*
X80211814Y-121148510D01*
X81318205Y-120042119D01*
X81322166Y-120038489D01*
X81353194Y-120012455D01*
X81373438Y-119977390D01*
X81376335Y-119972841D01*
X81399554Y-119939684D01*
X81399554Y-119939681D01*
X81404140Y-119929849D01*
X81405962Y-119930698D01*
X81435189Y-119882747D01*
X81498035Y-119852217D01*
X81518600Y-119850500D01*
X81519750Y-119850500D01*
X81519751Y-119850499D01*
X81534568Y-119847552D01*
X81578229Y-119838868D01*
X81578229Y-119838867D01*
X81578231Y-119838867D01*
X81644552Y-119794552D01*
X81688867Y-119728231D01*
X81688867Y-119728229D01*
X81688868Y-119728229D01*
X81700499Y-119669752D01*
X81700500Y-119669750D01*
X81700500Y-117130249D01*
X81700499Y-117130247D01*
X81688868Y-117071770D01*
X81688867Y-117071769D01*
X81644552Y-117005447D01*
X81578230Y-116961132D01*
X81578229Y-116961131D01*
X81519752Y-116949500D01*
X81519748Y-116949500D01*
X80480252Y-116949500D01*
X80480247Y-116949500D01*
X80421770Y-116961131D01*
X80421769Y-116961132D01*
X80355447Y-117005447D01*
X80311132Y-117071769D01*
X80311131Y-117071770D01*
X80299500Y-117130247D01*
X80299500Y-119669752D01*
X80311131Y-119728229D01*
X80311132Y-119728230D01*
X80355447Y-119794552D01*
X80403464Y-119826636D01*
X80448269Y-119880249D01*
X80456976Y-119949574D01*
X80426821Y-120012601D01*
X80422254Y-120017419D01*
X79631803Y-120807870D01*
X79627814Y-120811525D01*
X79596805Y-120837545D01*
X79576562Y-120872606D01*
X79573656Y-120877166D01*
X79550446Y-120910313D01*
X79548206Y-120915117D01*
X79541229Y-120931961D01*
X79539410Y-120936959D01*
X79532383Y-120976811D01*
X79531212Y-120982091D01*
X79520735Y-121021191D01*
X79524264Y-121061513D01*
X79524500Y-121066920D01*
X79524500Y-123045436D01*
X79504815Y-123112475D01*
X79452011Y-123158230D01*
X79382853Y-123168174D01*
X79365567Y-123164414D01*
X79314772Y-123149500D01*
X79185228Y-123149500D01*
X79185226Y-123149500D01*
X79060935Y-123185994D01*
X79060932Y-123185995D01*
X79060931Y-123185996D01*
X79029753Y-123206033D01*
X78951949Y-123256033D01*
X78940375Y-123269392D01*
X78881597Y-123307166D01*
X78811727Y-123307166D01*
X78752949Y-123269392D01*
X78752948Y-123269391D01*
X78741373Y-123256033D01*
X78698049Y-123206033D01*
X78589069Y-123135996D01*
X78589065Y-123135994D01*
X78589064Y-123135994D01*
X78464774Y-123099500D01*
X78464772Y-123099500D01*
X78335228Y-123099500D01*
X78335226Y-123099500D01*
X78210933Y-123135994D01*
X78202869Y-123139678D01*
X78201553Y-123136798D01*
X78149460Y-123152076D01*
X78082427Y-123132370D01*
X78036689Y-123079551D01*
X78025500Y-123028076D01*
X78025500Y-121536187D01*
X78045185Y-121469148D01*
X78061814Y-121448510D01*
X79218205Y-120292120D01*
X79222166Y-120288489D01*
X79253194Y-120262455D01*
X79273438Y-120227390D01*
X79276335Y-120222841D01*
X79299554Y-120189684D01*
X79299554Y-120189681D01*
X79301819Y-120184824D01*
X79308747Y-120168099D01*
X79310584Y-120163050D01*
X79310588Y-120163045D01*
X79317619Y-120123162D01*
X79318777Y-120117940D01*
X79329264Y-120078807D01*
X79325736Y-120038474D01*
X79325500Y-120033075D01*
X79325500Y-119974500D01*
X79345185Y-119907461D01*
X79397989Y-119861706D01*
X79449500Y-119850500D01*
X79519750Y-119850500D01*
X79519751Y-119850499D01*
X79534568Y-119847552D01*
X79578229Y-119838868D01*
X79578229Y-119838867D01*
X79578231Y-119838867D01*
X79644552Y-119794552D01*
X79688867Y-119728231D01*
X79688867Y-119728229D01*
X79688868Y-119728229D01*
X79700499Y-119669752D01*
X79700500Y-119669750D01*
X79700500Y-117130249D01*
X79700499Y-117130247D01*
X79688868Y-117071770D01*
X79688867Y-117071769D01*
X79644552Y-117005447D01*
X79578230Y-116961132D01*
X79578229Y-116961131D01*
X79519752Y-116949500D01*
X79519748Y-116949500D01*
X78480252Y-116949500D01*
X78480247Y-116949500D01*
X78421770Y-116961131D01*
X78421769Y-116961132D01*
X78355447Y-117005447D01*
X78311132Y-117071769D01*
X78311131Y-117071770D01*
X78299500Y-117130247D01*
X78299500Y-119669752D01*
X78311131Y-119728229D01*
X78311132Y-119728230D01*
X78355447Y-119794552D01*
X78421769Y-119838867D01*
X78421770Y-119838868D01*
X78468685Y-119848200D01*
X78530596Y-119880585D01*
X78565170Y-119941301D01*
X78561431Y-120011070D01*
X78532175Y-120057498D01*
X77537181Y-121052492D01*
X77475858Y-121085977D01*
X77406166Y-121080993D01*
X77350233Y-121039121D01*
X77325816Y-120973657D01*
X77325500Y-120964811D01*
X77325500Y-119974500D01*
X77345185Y-119907461D01*
X77397989Y-119861706D01*
X77449500Y-119850500D01*
X77519750Y-119850500D01*
X77519751Y-119850499D01*
X77534568Y-119847552D01*
X77578229Y-119838868D01*
X77578229Y-119838867D01*
X77578231Y-119838867D01*
X77644552Y-119794552D01*
X77688867Y-119728231D01*
X77688867Y-119728229D01*
X77688868Y-119728229D01*
X77700499Y-119669752D01*
X77700500Y-119669750D01*
X77700500Y-117130249D01*
X77700499Y-117130247D01*
X77688868Y-117071770D01*
X77688867Y-117071769D01*
X77644552Y-117005447D01*
X77578230Y-116961132D01*
X77578229Y-116961131D01*
X77519752Y-116949500D01*
X77519748Y-116949500D01*
X76480252Y-116949500D01*
X76480247Y-116949500D01*
X76421770Y-116961131D01*
X76421769Y-116961132D01*
X76355447Y-117005447D01*
X76311132Y-117071769D01*
X76311131Y-117071770D01*
X76299500Y-117130247D01*
X76299500Y-119669752D01*
X76311131Y-119728229D01*
X76311132Y-119728230D01*
X76355447Y-119794552D01*
X76421769Y-119838867D01*
X76421770Y-119838868D01*
X76480247Y-119850499D01*
X76480250Y-119850500D01*
X76480252Y-119850500D01*
X76550500Y-119850500D01*
X76617539Y-119870185D01*
X76663294Y-119922989D01*
X76674500Y-119974500D01*
X76674500Y-122845436D01*
X76654815Y-122912475D01*
X76602011Y-122958230D01*
X76532853Y-122968174D01*
X76515567Y-122964414D01*
X76464772Y-122949500D01*
X76335228Y-122949500D01*
X76335226Y-122949500D01*
X76210935Y-122985994D01*
X76210932Y-122985995D01*
X76210931Y-122985996D01*
X76184706Y-123002850D01*
X76101950Y-123056033D01*
X76043214Y-123123820D01*
X75984436Y-123161595D01*
X75914566Y-123161595D01*
X75855788Y-123123821D01*
X75826762Y-123060266D01*
X75825500Y-123042618D01*
X75825500Y-119666920D01*
X75825736Y-119661513D01*
X75829264Y-119621193D01*
X75823585Y-119600000D01*
X75818782Y-119582076D01*
X75817616Y-119576818D01*
X75810588Y-119536955D01*
X75810586Y-119536952D01*
X75810586Y-119536950D01*
X75808760Y-119531933D01*
X75801820Y-119515176D01*
X75799554Y-119510319D01*
X75799554Y-119510316D01*
X75776339Y-119477162D01*
X75773433Y-119472599D01*
X75753196Y-119437548D01*
X75753195Y-119437547D01*
X75753194Y-119437545D01*
X75744791Y-119430494D01*
X75706091Y-119372322D01*
X75700500Y-119335507D01*
X75700500Y-117130249D01*
X75700499Y-117130247D01*
X75688868Y-117071770D01*
X75688867Y-117071769D01*
X75644552Y-117005447D01*
X75578230Y-116961132D01*
X75578229Y-116961131D01*
X75519752Y-116949500D01*
X75519748Y-116949500D01*
X74480252Y-116949500D01*
X74480247Y-116949500D01*
X74421770Y-116961131D01*
X74421769Y-116961132D01*
X74355447Y-117005447D01*
X74311132Y-117071769D01*
X74311131Y-117071770D01*
X74299500Y-117130247D01*
X74299500Y-119669752D01*
X74311131Y-119728229D01*
X74311132Y-119728230D01*
X74355447Y-119794552D01*
X74388712Y-119816779D01*
X74433517Y-119870392D01*
X74442224Y-119939717D01*
X74412069Y-120002744D01*
X74356587Y-120037015D01*
X74356790Y-120037549D01*
X74354029Y-120038595D01*
X74352626Y-120039463D01*
X74349811Y-120040195D01*
X74349774Y-120040209D01*
X74199150Y-120119263D01*
X74095453Y-120211131D01*
X74077090Y-120227400D01*
X74071816Y-120232072D01*
X73975182Y-120372068D01*
X73914860Y-120531125D01*
X73914859Y-120531130D01*
X73894355Y-120699999D01*
X73899048Y-120738646D01*
X73899500Y-120746126D01*
X73899500Y-122617729D01*
X73879815Y-122684768D01*
X73827011Y-122730523D01*
X73757853Y-122740467D01*
X73694297Y-122711442D01*
X73662706Y-122669241D01*
X73641371Y-122622526D01*
X73632882Y-122603937D01*
X73548049Y-122506033D01*
X73439069Y-122435996D01*
X73439065Y-122435994D01*
X73439064Y-122435994D01*
X73314774Y-122399500D01*
X73314772Y-122399500D01*
X73185228Y-122399500D01*
X73185226Y-122399500D01*
X73060935Y-122435994D01*
X73060932Y-122435995D01*
X73060931Y-122435996D01*
X73009677Y-122468934D01*
X72951950Y-122506033D01*
X72867118Y-122603937D01*
X72867117Y-122603938D01*
X72813302Y-122721774D01*
X72794867Y-122850000D01*
X72813302Y-122978225D01*
X72850770Y-123060266D01*
X72867118Y-123096063D01*
X72894213Y-123127333D01*
X72923238Y-123190888D01*
X72924500Y-123208535D01*
X72924500Y-123545436D01*
X72904815Y-123612475D01*
X72852011Y-123658230D01*
X72782853Y-123668174D01*
X72765567Y-123664414D01*
X72714772Y-123649500D01*
X72585228Y-123649500D01*
X72585226Y-123649500D01*
X72460935Y-123685994D01*
X72460932Y-123685995D01*
X72460931Y-123685996D01*
X72420023Y-123712286D01*
X72351950Y-123756033D01*
X72267118Y-123853937D01*
X72267117Y-123853938D01*
X72213302Y-123971774D01*
X72194867Y-124100000D01*
X72213302Y-124228225D01*
X72245287Y-124298260D01*
X72267118Y-124346063D01*
X72294213Y-124377333D01*
X72323238Y-124440888D01*
X72324500Y-124458535D01*
X72324500Y-130641464D01*
X72304815Y-130708503D01*
X72294215Y-130722664D01*
X72267119Y-130753935D01*
X72267116Y-130753939D01*
X72213302Y-130871774D01*
X72194867Y-131000000D01*
X70500000Y-131000000D01*
X70500000Y-118650000D01*
X72300000Y-118650000D01*
X72300000Y-119669702D01*
X72311602Y-119728033D01*
X72311603Y-119728034D01*
X72355808Y-119794191D01*
X72421965Y-119838396D01*
X72421966Y-119838397D01*
X72480297Y-119849999D01*
X72480301Y-119850000D01*
X72750000Y-119850000D01*
X72750000Y-118650000D01*
X73250000Y-118650000D01*
X73250000Y-119850000D01*
X73519699Y-119850000D01*
X73519702Y-119849999D01*
X73578033Y-119838397D01*
X73578034Y-119838396D01*
X73644191Y-119794191D01*
X73688396Y-119728034D01*
X73688397Y-119728033D01*
X73699999Y-119669702D01*
X73700000Y-119669699D01*
X73700000Y-118650000D01*
X73250000Y-118650000D01*
X72750000Y-118650000D01*
X72300000Y-118650000D01*
X70500000Y-118650000D01*
X70500000Y-118500000D01*
X61124000Y-118500000D01*
X61056961Y-118480315D01*
X61011206Y-118427511D01*
X61000000Y-118376000D01*
X61000000Y-118150000D01*
X72300000Y-118150000D01*
X72750000Y-118150000D01*
X72750000Y-116950000D01*
X73250000Y-116950000D01*
X73250000Y-118150000D01*
X73700000Y-118150000D01*
X73700000Y-117130301D01*
X73699999Y-117130297D01*
X73688397Y-117071966D01*
X73688396Y-117071965D01*
X73644191Y-117005808D01*
X73578034Y-116961603D01*
X73578033Y-116961602D01*
X73519702Y-116950000D01*
X73250000Y-116950000D01*
X72750000Y-116950000D01*
X72480297Y-116950000D01*
X72421966Y-116961602D01*
X72421965Y-116961603D01*
X72355808Y-117005808D01*
X72311603Y-117071965D01*
X72311602Y-117071966D01*
X72300000Y-117130297D01*
X72300000Y-118150000D01*
X61000000Y-118150000D01*
X61000000Y-117824500D01*
X61019685Y-117757461D01*
X61072489Y-117711706D01*
X61124000Y-117700500D01*
X62254270Y-117700500D01*
X62284699Y-117697646D01*
X62284701Y-117697646D01*
X62361412Y-117670803D01*
X62412882Y-117652793D01*
X62522150Y-117572150D01*
X62602793Y-117462882D01*
X62625219Y-117398790D01*
X62647646Y-117334701D01*
X62647646Y-117334699D01*
X62650500Y-117304269D01*
X62650500Y-116000000D01*
X75794355Y-116000000D01*
X75814859Y-116168869D01*
X75814860Y-116168874D01*
X75875182Y-116327931D01*
X75921509Y-116395046D01*
X75971817Y-116467929D01*
X76055721Y-116542261D01*
X76099150Y-116580736D01*
X76249773Y-116659789D01*
X76249775Y-116659790D01*
X76414944Y-116700500D01*
X76585056Y-116700500D01*
X76750225Y-116659790D01*
X76900852Y-116580734D01*
X77012656Y-116481685D01*
X77075889Y-116451963D01*
X77094883Y-116450500D01*
X78471217Y-116450500D01*
X78478155Y-116450889D01*
X78510050Y-116454483D01*
X78517034Y-116455270D01*
X78517034Y-116455269D01*
X78517035Y-116455270D01*
X78575479Y-116444211D01*
X78634287Y-116435348D01*
X78634290Y-116435346D01*
X78642447Y-116432830D01*
X78650469Y-116430023D01*
X78650472Y-116430023D01*
X78703072Y-116402222D01*
X78756642Y-116376425D01*
X78756642Y-116376424D01*
X78756644Y-116376424D01*
X78763695Y-116371616D01*
X78770538Y-116366566D01*
X78812598Y-116324505D01*
X78828457Y-116309790D01*
X78856194Y-116284055D01*
X78856196Y-116284050D01*
X78861987Y-116276790D01*
X78862643Y-116277313D01*
X78872029Y-116265073D01*
X79000286Y-116136816D01*
X79061607Y-116103334D01*
X79087965Y-116100500D01*
X84455117Y-116100500D01*
X84522156Y-116120185D01*
X84537344Y-116131685D01*
X84649147Y-116230733D01*
X84649149Y-116230735D01*
X84767051Y-116292615D01*
X84799775Y-116309790D01*
X84964944Y-116350500D01*
X85135056Y-116350500D01*
X85300225Y-116309790D01*
X85450852Y-116230734D01*
X85538652Y-116152950D01*
X85562656Y-116131685D01*
X85625889Y-116101963D01*
X85644883Y-116100500D01*
X91332098Y-116100500D01*
X91905117Y-116100500D01*
X91972156Y-116120185D01*
X91987344Y-116131685D01*
X92099147Y-116230733D01*
X92099149Y-116230735D01*
X92217051Y-116292615D01*
X92249775Y-116309790D01*
X92414944Y-116350500D01*
X92585056Y-116350500D01*
X92750225Y-116309790D01*
X92832973Y-116266360D01*
X92900849Y-116230736D01*
X92900850Y-116230734D01*
X92900852Y-116230734D01*
X93028183Y-116117929D01*
X93124818Y-115977930D01*
X93185140Y-115818872D01*
X93205645Y-115650000D01*
X93185140Y-115481128D01*
X93124818Y-115322070D01*
X93104317Y-115292370D01*
X93067557Y-115239114D01*
X93028183Y-115182071D01*
X92923841Y-115089632D01*
X92900849Y-115069263D01*
X92750226Y-114990210D01*
X92585056Y-114949500D01*
X92414944Y-114949500D01*
X92249773Y-114990210D01*
X92099149Y-115069264D01*
X92099147Y-115069266D01*
X91987344Y-115168315D01*
X91924111Y-115198037D01*
X91905117Y-115199500D01*
X85644883Y-115199500D01*
X85577844Y-115179815D01*
X85562656Y-115168315D01*
X85450852Y-115069266D01*
X85450850Y-115069264D01*
X85300226Y-114990210D01*
X85135056Y-114949500D01*
X84964944Y-114949500D01*
X84799773Y-114990210D01*
X84649149Y-115069264D01*
X84649147Y-115069266D01*
X84537344Y-115168315D01*
X84474111Y-115198037D01*
X84455117Y-115199500D01*
X78878783Y-115199500D01*
X78871844Y-115199110D01*
X78857569Y-115197502D01*
X78832964Y-115194729D01*
X78774511Y-115205789D01*
X78715711Y-115214652D01*
X78707556Y-115217167D01*
X78699530Y-115219975D01*
X78699529Y-115219976D01*
X78699527Y-115219976D01*
X78699524Y-115219978D01*
X78646926Y-115247777D01*
X78593358Y-115273575D01*
X78586308Y-115278380D01*
X78579461Y-115283435D01*
X78558437Y-115304458D01*
X78537413Y-115325483D01*
X78513770Y-115347420D01*
X78493803Y-115365947D01*
X78488013Y-115373208D01*
X78487363Y-115372690D01*
X78477966Y-115384929D01*
X78349714Y-115513182D01*
X78288394Y-115546666D01*
X78262035Y-115549500D01*
X77094883Y-115549500D01*
X77027844Y-115529815D01*
X77012656Y-115518315D01*
X76900852Y-115419266D01*
X76900850Y-115419264D01*
X76750226Y-115340210D01*
X76585056Y-115299500D01*
X76414944Y-115299500D01*
X76249773Y-115340210D01*
X76099150Y-115419263D01*
X75971816Y-115532072D01*
X75875182Y-115672068D01*
X75814860Y-115831125D01*
X75814859Y-115831130D01*
X75794355Y-116000000D01*
X62650500Y-116000000D01*
X62650500Y-115895730D01*
X62647646Y-115865300D01*
X62647646Y-115865298D01*
X62614006Y-115769163D01*
X62602793Y-115737118D01*
X62522150Y-115627850D01*
X62412882Y-115547207D01*
X62412880Y-115547206D01*
X62284700Y-115502353D01*
X62254270Y-115499500D01*
X62254266Y-115499500D01*
X61124000Y-115499500D01*
X61056961Y-115479815D01*
X61011206Y-115427011D01*
X61000000Y-115375500D01*
X61000000Y-111624500D01*
X61019685Y-111557461D01*
X61072489Y-111511706D01*
X61124000Y-111500500D01*
X61251974Y-111500500D01*
X61251976Y-111500500D01*
X61452456Y-111463024D01*
X61642637Y-111389348D01*
X61816041Y-111281981D01*
X61966764Y-111144579D01*
X62089673Y-110981821D01*
X62180582Y-110799250D01*
X62236397Y-110603083D01*
X62255215Y-110400000D01*
X62236397Y-110196917D01*
X62180582Y-110000750D01*
X62170934Y-109981375D01*
X62131738Y-109902657D01*
X62089673Y-109818179D01*
X61966764Y-109655421D01*
X61966762Y-109655418D01*
X61816041Y-109518019D01*
X61816039Y-109518017D01*
X61642642Y-109410655D01*
X61642635Y-109410651D01*
X61509774Y-109359181D01*
X61452456Y-109336976D01*
X61251976Y-109299500D01*
X61124000Y-109299500D01*
X61056961Y-109279815D01*
X61011206Y-109227011D01*
X61000000Y-109175500D01*
X61000000Y-109029500D01*
X61019685Y-108962461D01*
X61072489Y-108916706D01*
X61124000Y-108905500D01*
X61162173Y-108905500D01*
X61162177Y-108905500D01*
X61189216Y-108904051D01*
X61189223Y-108904050D01*
X61189227Y-108904050D01*
X61189228Y-108904050D01*
X61229036Y-108899769D01*
X61230696Y-108899500D01*
X61282448Y-108891114D01*
X61417257Y-108840832D01*
X61478580Y-108807347D01*
X61593762Y-108721123D01*
X61699534Y-108615349D01*
X61757540Y-108582633D01*
X61850225Y-108559790D01*
X62000852Y-108480734D01*
X62128183Y-108367929D01*
X62224818Y-108227930D01*
X62285140Y-108068872D01*
X62285388Y-108066823D01*
X62285988Y-108065429D01*
X62286935Y-108061589D01*
X62287573Y-108061746D01*
X62313003Y-108002644D01*
X62320793Y-107994089D01*
X62582819Y-107732064D01*
X62644142Y-107698579D01*
X62713834Y-107703563D01*
X62769767Y-107745435D01*
X62794184Y-107810899D01*
X62794500Y-107819745D01*
X62794500Y-109876007D01*
X62799197Y-109919686D01*
X62810402Y-109971193D01*
X62812889Y-109981370D01*
X62812890Y-109981373D01*
X62855900Y-110062085D01*
X62901655Y-110114889D01*
X62919246Y-110132843D01*
X62936534Y-110142513D01*
X62985432Y-110192419D01*
X63000000Y-110250733D01*
X63000000Y-111248386D01*
X62980315Y-111315425D01*
X62942501Y-111350276D01*
X62943656Y-111351957D01*
X62937917Y-111355898D01*
X62909255Y-111380734D01*
X62885111Y-111401655D01*
X62867159Y-111419243D01*
X62867154Y-111419249D01*
X62822511Y-111499059D01*
X62822509Y-111499064D01*
X62802826Y-111566096D01*
X62802825Y-111566101D01*
X62802825Y-111566102D01*
X62795778Y-111615117D01*
X62794500Y-111624003D01*
X62794500Y-115476007D01*
X62799197Y-115519686D01*
X62810402Y-115571193D01*
X62812889Y-115581370D01*
X62812890Y-115581373D01*
X62855900Y-115662085D01*
X62901655Y-115714889D01*
X62919246Y-115732843D01*
X62919247Y-115732844D01*
X62919249Y-115732845D01*
X62999059Y-115777488D01*
X62999063Y-115777490D01*
X63066102Y-115797175D01*
X63124000Y-115805500D01*
X63124004Y-115805500D01*
X73075991Y-115805500D01*
X73076000Y-115805500D01*
X73119684Y-115800803D01*
X73145439Y-115795200D01*
X73171193Y-115789598D01*
X73175374Y-115788575D01*
X73181373Y-115787110D01*
X73262085Y-115744100D01*
X73314889Y-115698345D01*
X73332843Y-115680754D01*
X73377490Y-115600937D01*
X73397175Y-115533898D01*
X73405500Y-115476000D01*
X73405500Y-113300000D01*
X75329785Y-113300000D01*
X75348602Y-113503082D01*
X75404417Y-113699247D01*
X75404422Y-113699260D01*
X75495327Y-113881821D01*
X75618237Y-114044581D01*
X75768958Y-114181980D01*
X75768960Y-114181982D01*
X75847236Y-114230448D01*
X75942363Y-114289348D01*
X76132544Y-114363024D01*
X76333024Y-114400500D01*
X76333026Y-114400500D01*
X76536974Y-114400500D01*
X76536976Y-114400500D01*
X76737456Y-114363024D01*
X76927637Y-114289348D01*
X77040119Y-114219702D01*
X77875000Y-114219702D01*
X77886602Y-114278033D01*
X77886603Y-114278034D01*
X77930808Y-114344191D01*
X77996965Y-114388396D01*
X77996966Y-114388397D01*
X78055297Y-114399999D01*
X78055301Y-114400000D01*
X78725000Y-114400000D01*
X78725000Y-113674189D01*
X78777547Y-113710016D01*
X78907173Y-113750000D01*
X79008724Y-113750000D01*
X79109138Y-113734865D01*
X79225000Y-113679068D01*
X79225000Y-114400000D01*
X79894699Y-114400000D01*
X79894702Y-114399999D01*
X79953033Y-114388397D01*
X79953034Y-114388396D01*
X80019191Y-114344191D01*
X80063396Y-114278034D01*
X80063397Y-114278033D01*
X80074999Y-114219702D01*
X80075000Y-114219699D01*
X80075000Y-113550000D01*
X79350278Y-113550000D01*
X79398625Y-113466260D01*
X79428810Y-113334008D01*
X79418673Y-113198735D01*
X79369113Y-113072459D01*
X79351203Y-113050000D01*
X80075000Y-113050000D01*
X80075000Y-112380301D01*
X80074999Y-112380297D01*
X80063397Y-112321966D01*
X80063396Y-112321965D01*
X80019191Y-112255808D01*
X79953034Y-112211603D01*
X79953033Y-112211602D01*
X79894702Y-112200000D01*
X79225000Y-112200000D01*
X79225000Y-112925810D01*
X79172453Y-112889984D01*
X79042827Y-112850000D01*
X78941276Y-112850000D01*
X78840862Y-112865135D01*
X78725000Y-112920931D01*
X78725000Y-112200000D01*
X78055297Y-112200000D01*
X77996966Y-112211602D01*
X77996965Y-112211603D01*
X77930808Y-112255808D01*
X77886603Y-112321965D01*
X77886602Y-112321966D01*
X77875000Y-112380297D01*
X77875000Y-113050000D01*
X78599722Y-113050000D01*
X78551375Y-113133740D01*
X78521190Y-113265992D01*
X78531327Y-113401265D01*
X78580887Y-113527541D01*
X78598797Y-113550000D01*
X77875000Y-113550000D01*
X77875000Y-114219702D01*
X77040119Y-114219702D01*
X77101041Y-114181981D01*
X77251764Y-114044579D01*
X77374673Y-113881821D01*
X77465582Y-113699250D01*
X77521397Y-113503083D01*
X77540215Y-113300000D01*
X77538515Y-113281659D01*
X77521397Y-113096917D01*
X77502547Y-113030668D01*
X77465582Y-112900750D01*
X77460221Y-112889984D01*
X77421272Y-112811764D01*
X77374673Y-112718179D01*
X77251764Y-112555421D01*
X77251762Y-112555418D01*
X77101041Y-112418019D01*
X77101039Y-112418017D01*
X76927642Y-112310655D01*
X76927635Y-112310651D01*
X76786067Y-112255808D01*
X76737456Y-112236976D01*
X76536976Y-112199500D01*
X76333024Y-112199500D01*
X76132544Y-112236976D01*
X76132541Y-112236976D01*
X76132541Y-112236977D01*
X75942364Y-112310651D01*
X75942357Y-112310655D01*
X75768960Y-112418017D01*
X75768958Y-112418019D01*
X75618237Y-112555418D01*
X75495327Y-112718178D01*
X75404422Y-112900739D01*
X75404417Y-112900752D01*
X75348602Y-113096917D01*
X75329785Y-113299999D01*
X75329785Y-113300000D01*
X73405500Y-113300000D01*
X73405500Y-111624500D01*
X73425185Y-111557461D01*
X73477989Y-111511706D01*
X73529500Y-111500500D01*
X73685056Y-111500500D01*
X73850225Y-111459790D01*
X73960991Y-111401655D01*
X74000849Y-111380736D01*
X74000850Y-111380734D01*
X74000852Y-111380734D01*
X74128183Y-111267929D01*
X74224818Y-111127930D01*
X74285140Y-110968872D01*
X74305645Y-110800000D01*
X74285140Y-110631128D01*
X74224818Y-110472070D01*
X74128183Y-110332071D01*
X74000852Y-110219266D01*
X74000849Y-110219263D01*
X73850226Y-110140210D01*
X73685056Y-110099500D01*
X73514944Y-110099500D01*
X73349773Y-110140210D01*
X73199150Y-110219263D01*
X73071816Y-110332072D01*
X72975182Y-110472068D01*
X72914860Y-110631125D01*
X72914859Y-110631130D01*
X72908264Y-110685448D01*
X72880642Y-110749625D01*
X72822707Y-110788681D01*
X72785168Y-110794500D01*
X68624000Y-110794500D01*
X68556961Y-110774815D01*
X68511206Y-110722011D01*
X68500000Y-110670500D01*
X68500000Y-110367448D01*
X68519685Y-110300409D01*
X68572489Y-110254654D01*
X68641647Y-110244710D01*
X68697634Y-110267678D01*
X68812355Y-110352346D01*
X68812354Y-110352346D01*
X68940397Y-110397149D01*
X68970792Y-110399999D01*
X69249999Y-110399999D01*
X69250000Y-110399998D01*
X69250000Y-109862500D01*
X69750000Y-109862500D01*
X69750000Y-110399999D01*
X70029196Y-110399999D01*
X70059606Y-110397148D01*
X70187645Y-110352346D01*
X70296792Y-110271792D01*
X70377346Y-110162645D01*
X70422149Y-110034604D01*
X70422149Y-110034600D01*
X70425000Y-110004206D01*
X70425000Y-109862500D01*
X70875001Y-109862500D01*
X70875001Y-110004196D01*
X70877851Y-110034606D01*
X70922653Y-110162645D01*
X71003207Y-110271792D01*
X71112354Y-110352346D01*
X71240397Y-110397149D01*
X71270792Y-110399999D01*
X71549999Y-110399999D01*
X71550000Y-110399998D01*
X71550000Y-109862500D01*
X72050000Y-109862500D01*
X72050000Y-110399999D01*
X72329196Y-110399999D01*
X72359606Y-110397148D01*
X72487645Y-110352346D01*
X72596792Y-110271792D01*
X72677346Y-110162645D01*
X72722149Y-110034604D01*
X72722149Y-110034600D01*
X72725000Y-110004206D01*
X72725000Y-109862500D01*
X72050000Y-109862500D01*
X71550000Y-109862500D01*
X70875001Y-109862500D01*
X70425000Y-109862500D01*
X69750000Y-109862500D01*
X69250000Y-109862500D01*
X69250000Y-108825000D01*
X69750000Y-108825000D01*
X69750000Y-109362500D01*
X70424999Y-109362500D01*
X70875000Y-109362500D01*
X71550000Y-109362500D01*
X71550000Y-108825000D01*
X72050000Y-108825000D01*
X72050000Y-109362500D01*
X72724999Y-109362500D01*
X72724999Y-109220803D01*
X72722148Y-109190393D01*
X72677346Y-109062354D01*
X72596792Y-108953207D01*
X72487645Y-108872653D01*
X72359602Y-108827850D01*
X72329207Y-108825000D01*
X72050000Y-108825000D01*
X71550000Y-108825000D01*
X71270804Y-108825000D01*
X71240393Y-108827851D01*
X71112354Y-108872653D01*
X71003207Y-108953207D01*
X70922653Y-109062354D01*
X70877850Y-109190395D01*
X70877850Y-109190399D01*
X70875000Y-109220793D01*
X70875000Y-109362500D01*
X70424999Y-109362500D01*
X70424999Y-109220803D01*
X70422148Y-109190393D01*
X70377346Y-109062354D01*
X70296792Y-108953207D01*
X70187645Y-108872653D01*
X70059602Y-108827850D01*
X70029207Y-108825000D01*
X69750000Y-108825000D01*
X69250000Y-108825000D01*
X68970804Y-108825000D01*
X68940393Y-108827851D01*
X68812354Y-108872653D01*
X68812352Y-108872654D01*
X68801836Y-108880416D01*
X68736207Y-108904386D01*
X68668037Y-108889068D01*
X68618970Y-108839327D01*
X68605109Y-108795592D01*
X68585140Y-108631128D01*
X68566748Y-108582633D01*
X68524817Y-108472068D01*
X68427450Y-108331009D01*
X68405567Y-108264655D01*
X68405500Y-108260569D01*
X68405500Y-108045862D01*
X68404910Y-108034856D01*
X68404910Y-108034855D01*
X68401488Y-108003038D01*
X68401488Y-108003035D01*
X68377529Y-107926518D01*
X68344044Y-107865195D01*
X68344039Y-107865188D01*
X68309001Y-107818384D01*
X68308998Y-107818381D01*
X68308991Y-107818371D01*
X67777737Y-107287117D01*
X67774485Y-107284196D01*
X67769552Y-107279763D01*
X67769554Y-107279764D01*
X67744623Y-107259674D01*
X67673575Y-107222509D01*
X67606543Y-107202826D01*
X67605894Y-107202732D01*
X67548638Y-107194500D01*
X67548634Y-107194500D01*
X67536482Y-107194500D01*
X67469443Y-107174815D01*
X67448801Y-107158181D01*
X67383477Y-107092857D01*
X67349992Y-107031534D01*
X67354976Y-106961842D01*
X67390008Y-106911418D01*
X67400000Y-106902769D01*
X67400000Y-106300000D01*
X67900000Y-106300000D01*
X67900000Y-106902768D01*
X67901244Y-106902589D01*
X68006191Y-106851284D01*
X68088787Y-106768688D01*
X68140087Y-106663751D01*
X68140088Y-106663748D01*
X68150000Y-106595719D01*
X68150000Y-106300000D01*
X67900000Y-106300000D01*
X67400000Y-106300000D01*
X67400000Y-105929269D01*
X69012000Y-105929269D01*
X69014853Y-105959699D01*
X69014853Y-105959701D01*
X69053533Y-106070238D01*
X69059707Y-106087882D01*
X69140349Y-106197149D01*
X69140351Y-106197151D01*
X69248473Y-106276948D01*
X69290724Y-106332595D01*
X69296183Y-106402251D01*
X69276890Y-106447158D01*
X69225183Y-106522068D01*
X69225182Y-106522068D01*
X69164860Y-106681125D01*
X69164859Y-106681130D01*
X69144355Y-106850000D01*
X69164859Y-107018869D01*
X69164860Y-107018874D01*
X69225182Y-107177931D01*
X69281606Y-107259674D01*
X69321817Y-107317929D01*
X69427505Y-107411560D01*
X69449150Y-107430736D01*
X69599773Y-107509789D01*
X69599775Y-107509790D01*
X69764944Y-107550500D01*
X69935056Y-107550500D01*
X70100225Y-107509790D01*
X70179692Y-107468081D01*
X70250849Y-107430736D01*
X70250850Y-107430734D01*
X70250852Y-107430734D01*
X70378183Y-107317929D01*
X70474818Y-107177930D01*
X70535140Y-107018872D01*
X70555645Y-106850000D01*
X70535140Y-106681128D01*
X70474818Y-106522070D01*
X70474817Y-106522068D01*
X70389360Y-106398263D01*
X70367477Y-106331909D01*
X70384942Y-106264257D01*
X70417775Y-106228054D01*
X70459650Y-106197150D01*
X70540293Y-106087882D01*
X70562719Y-106023790D01*
X70585146Y-105959701D01*
X70585146Y-105959699D01*
X70588000Y-105929269D01*
X70588000Y-104870730D01*
X70585146Y-104840300D01*
X70585146Y-104840298D01*
X70541189Y-104714679D01*
X70540293Y-104712118D01*
X70459650Y-104602850D01*
X70350382Y-104522207D01*
X70350380Y-104522206D01*
X70222200Y-104477353D01*
X70191770Y-104474500D01*
X70191766Y-104474500D01*
X69408234Y-104474500D01*
X69408230Y-104474500D01*
X69377800Y-104477353D01*
X69377798Y-104477353D01*
X69249619Y-104522206D01*
X69249617Y-104522207D01*
X69140350Y-104602850D01*
X69059707Y-104712117D01*
X69059706Y-104712119D01*
X69014853Y-104840298D01*
X69014853Y-104840300D01*
X69012000Y-104870730D01*
X69012000Y-105929269D01*
X67400000Y-105929269D01*
X67400000Y-105197230D01*
X67399999Y-105197229D01*
X67900000Y-105197229D01*
X67900000Y-105800000D01*
X68149999Y-105800000D01*
X68149999Y-105504282D01*
X68140087Y-105436250D01*
X68088784Y-105331308D01*
X68006188Y-105248712D01*
X67901249Y-105197411D01*
X67901250Y-105197411D01*
X67900000Y-105197229D01*
X67399999Y-105197229D01*
X67398750Y-105197411D01*
X67293811Y-105248712D01*
X67293809Y-105248714D01*
X67265648Y-105276876D01*
X67204325Y-105310361D01*
X67134633Y-105305377D01*
X67089393Y-105275974D01*
X67080755Y-105267157D01*
X67073714Y-105261774D01*
X67073944Y-105261472D01*
X67057455Y-105248995D01*
X67056486Y-105248304D01*
X67056484Y-105248303D01*
X67056483Y-105248302D01*
X66951393Y-105196927D01*
X66951391Y-105196926D01*
X66883261Y-105187000D01*
X66883260Y-105187000D01*
X66516740Y-105187000D01*
X66516739Y-105187000D01*
X66448607Y-105196926D01*
X66439192Y-105201529D01*
X66370318Y-105213285D01*
X66306022Y-105185939D01*
X66280422Y-105157167D01*
X66270328Y-105141461D01*
X66270319Y-105141450D01*
X66224576Y-105088659D01*
X66224572Y-105088656D01*
X66224570Y-105088653D01*
X66115836Y-104994433D01*
X66115833Y-104994431D01*
X66115831Y-104994430D01*
X65984965Y-104934664D01*
X65984960Y-104934662D01*
X65984959Y-104934662D01*
X65962358Y-104928025D01*
X65917925Y-104914978D01*
X65917919Y-104914976D01*
X65832466Y-104902690D01*
X65775500Y-104894500D01*
X65775498Y-104894500D01*
X64560746Y-104894500D01*
X64493707Y-104874815D01*
X64473065Y-104858181D01*
X64416163Y-104801279D01*
X64404074Y-104787232D01*
X64403408Y-104786330D01*
X64397150Y-104777850D01*
X64387762Y-104770922D01*
X64373720Y-104758836D01*
X64184181Y-104569296D01*
X64184180Y-104569296D01*
X64164044Y-104551209D01*
X64164045Y-104551209D01*
X64132861Y-104526080D01*
X64088974Y-104494433D01*
X63958100Y-104434663D01*
X63891063Y-104414978D01*
X63891057Y-104414976D01*
X63764197Y-104396737D01*
X63700641Y-104367712D01*
X63662867Y-104308934D01*
X63662867Y-104239064D01*
X63700641Y-104180286D01*
X63764197Y-104151261D01*
X63781844Y-104149999D01*
X64129196Y-104149999D01*
X64159606Y-104147148D01*
X64287645Y-104102346D01*
X64396792Y-104021792D01*
X64477346Y-103912645D01*
X64522149Y-103784604D01*
X64522149Y-103784600D01*
X64525000Y-103754206D01*
X64525000Y-103612500D01*
X62675001Y-103612500D01*
X62675001Y-103754196D01*
X62677851Y-103784606D01*
X62722653Y-103912645D01*
X62803207Y-104021792D01*
X62912354Y-104102346D01*
X63040395Y-104147149D01*
X63047766Y-104148759D01*
X63047429Y-104150300D01*
X63104158Y-104172900D01*
X63144782Y-104229745D01*
X63148225Y-104299530D01*
X63113393Y-104360098D01*
X63051344Y-104392219D01*
X63027671Y-104394500D01*
X59701215Y-104394500D01*
X59660262Y-104387542D01*
X59559699Y-104352354D01*
X59559698Y-104352353D01*
X59559696Y-104352353D01*
X59529270Y-104349500D01*
X59529266Y-104349500D01*
X58470734Y-104349500D01*
X58470730Y-104349500D01*
X58440303Y-104352353D01*
X58396410Y-104367712D01*
X58339737Y-104387542D01*
X58298785Y-104394500D01*
X58124000Y-104394500D01*
X58056961Y-104374815D01*
X58011206Y-104322011D01*
X58000000Y-104270500D01*
X58000000Y-103817448D01*
X58019685Y-103750409D01*
X58072489Y-103704654D01*
X58141647Y-103694710D01*
X58197634Y-103717678D01*
X58312355Y-103802346D01*
X58312354Y-103802346D01*
X58440397Y-103847149D01*
X58470792Y-103849999D01*
X58749999Y-103849999D01*
X58750000Y-103849998D01*
X58750000Y-103312500D01*
X59250000Y-103312500D01*
X59250000Y-103849999D01*
X59529196Y-103849999D01*
X59559606Y-103847148D01*
X59687645Y-103802346D01*
X59796792Y-103721792D01*
X59877346Y-103612645D01*
X59922149Y-103484604D01*
X59922149Y-103484600D01*
X59925000Y-103454206D01*
X59925000Y-103312500D01*
X59250000Y-103312500D01*
X58750000Y-103312500D01*
X58750000Y-103112500D01*
X62675000Y-103112500D01*
X63350000Y-103112500D01*
X63350000Y-102575000D01*
X63850000Y-102575000D01*
X63850000Y-103112500D01*
X64524999Y-103112500D01*
X64524999Y-102970803D01*
X64522148Y-102940393D01*
X64477346Y-102812354D01*
X64396792Y-102703207D01*
X64287645Y-102622653D01*
X64159602Y-102577850D01*
X64129207Y-102575000D01*
X63850000Y-102575000D01*
X63350000Y-102575000D01*
X63070804Y-102575000D01*
X63040393Y-102577851D01*
X62912354Y-102622653D01*
X62803207Y-102703207D01*
X62722653Y-102812354D01*
X62677850Y-102940395D01*
X62677850Y-102940399D01*
X62675000Y-102970793D01*
X62675000Y-103112500D01*
X58750000Y-103112500D01*
X58750000Y-102275000D01*
X59250000Y-102275000D01*
X59250000Y-102812500D01*
X59924999Y-102812500D01*
X59924999Y-102670803D01*
X59922148Y-102640393D01*
X59877346Y-102512354D01*
X59859003Y-102487500D01*
X60200001Y-102487500D01*
X60200001Y-102704196D01*
X60202851Y-102734606D01*
X60247653Y-102862645D01*
X60328207Y-102971792D01*
X60437354Y-103052346D01*
X60565397Y-103097149D01*
X60595792Y-103099999D01*
X61049999Y-103099999D01*
X61050000Y-103099998D01*
X61050000Y-102487500D01*
X61550000Y-102487500D01*
X61550000Y-103099999D01*
X62004196Y-103099999D01*
X62034606Y-103097148D01*
X62162645Y-103052346D01*
X62271792Y-102971792D01*
X62352346Y-102862645D01*
X62397149Y-102734604D01*
X62397149Y-102734600D01*
X62400000Y-102704206D01*
X62400000Y-102487500D01*
X61550000Y-102487500D01*
X61050000Y-102487500D01*
X60200001Y-102487500D01*
X59859003Y-102487500D01*
X59796792Y-102403207D01*
X59687645Y-102322653D01*
X59559602Y-102277850D01*
X59529207Y-102275000D01*
X59250000Y-102275000D01*
X58750000Y-102275000D01*
X58470804Y-102275000D01*
X58440393Y-102277851D01*
X58312354Y-102322653D01*
X58312351Y-102322655D01*
X58197633Y-102407321D01*
X58132004Y-102431292D01*
X58063834Y-102415976D01*
X58014766Y-102366236D01*
X58000000Y-102307551D01*
X58000000Y-101987500D01*
X60200000Y-101987500D01*
X61050000Y-101987500D01*
X61050000Y-101375000D01*
X61550000Y-101375000D01*
X61550000Y-101987500D01*
X62399999Y-101987500D01*
X62399999Y-101770803D01*
X62397148Y-101740393D01*
X62352346Y-101612354D01*
X62271792Y-101503207D01*
X62171609Y-101429269D01*
X64274500Y-101429269D01*
X64277353Y-101459699D01*
X64277353Y-101459701D01*
X64317874Y-101575500D01*
X64322207Y-101587882D01*
X64402850Y-101697150D01*
X64512118Y-101777793D01*
X64538302Y-101786955D01*
X64640299Y-101822646D01*
X64670730Y-101825500D01*
X64670734Y-101825500D01*
X64750500Y-101825500D01*
X64817539Y-101845185D01*
X64863294Y-101897989D01*
X64874500Y-101949500D01*
X64874500Y-102283078D01*
X64874264Y-102288485D01*
X64870735Y-102328808D01*
X64881212Y-102367910D01*
X64882383Y-102373190D01*
X64889411Y-102413043D01*
X64891235Y-102418055D01*
X64898197Y-102434861D01*
X64900445Y-102439681D01*
X64900446Y-102439684D01*
X64914452Y-102459687D01*
X64923655Y-102472831D01*
X64926561Y-102477392D01*
X64946806Y-102512455D01*
X64977815Y-102538475D01*
X64981805Y-102542131D01*
X65315565Y-102875891D01*
X65349050Y-102937214D01*
X65344066Y-103006906D01*
X65315565Y-103051253D01*
X65310803Y-103056014D01*
X65259426Y-103161108D01*
X65249500Y-103229239D01*
X65249500Y-104320760D01*
X65259426Y-104388891D01*
X65310803Y-104493985D01*
X65393514Y-104576696D01*
X65393515Y-104576696D01*
X65393517Y-104576698D01*
X65498607Y-104628073D01*
X65532673Y-104633036D01*
X65566739Y-104638000D01*
X65566740Y-104638000D01*
X65933261Y-104638000D01*
X65955971Y-104634691D01*
X66001393Y-104628073D01*
X66106483Y-104576698D01*
X66113885Y-104569296D01*
X66137319Y-104545863D01*
X66198642Y-104512378D01*
X66268334Y-104517362D01*
X66312681Y-104545863D01*
X66343514Y-104576696D01*
X66343515Y-104576696D01*
X66343517Y-104576698D01*
X66448607Y-104628073D01*
X66482673Y-104633036D01*
X66516739Y-104638000D01*
X66516740Y-104638000D01*
X66883261Y-104638000D01*
X66905971Y-104634691D01*
X66951393Y-104628073D01*
X67056483Y-104576698D01*
X67063885Y-104569296D01*
X67087319Y-104545863D01*
X67148642Y-104512378D01*
X67218334Y-104517362D01*
X67262681Y-104545863D01*
X67293514Y-104576696D01*
X67293515Y-104576696D01*
X67293517Y-104576698D01*
X67398607Y-104628073D01*
X67432673Y-104633036D01*
X67466739Y-104638000D01*
X67466740Y-104638000D01*
X67833261Y-104638000D01*
X67855971Y-104634691D01*
X67901393Y-104628073D01*
X68006483Y-104576698D01*
X68089198Y-104493983D01*
X68140573Y-104388893D01*
X68150500Y-104320760D01*
X68150500Y-104224500D01*
X68170185Y-104157461D01*
X68222989Y-104111706D01*
X68274500Y-104100500D01*
X69120578Y-104100500D01*
X69125981Y-104100735D01*
X69166307Y-104104264D01*
X69205440Y-104093777D01*
X69210662Y-104092619D01*
X69250545Y-104085588D01*
X69250550Y-104085584D01*
X69255572Y-104083757D01*
X69278871Y-104074102D01*
X69280310Y-104073716D01*
X69332736Y-104072486D01*
X69332788Y-104071942D01*
X69337425Y-104072376D01*
X69338914Y-104072342D01*
X69340292Y-104072642D01*
X69340301Y-104072646D01*
X69340310Y-104072646D01*
X69340311Y-104072647D01*
X69370730Y-104075500D01*
X69370734Y-104075500D01*
X70154270Y-104075500D01*
X70184699Y-104072646D01*
X70184701Y-104072646D01*
X70248790Y-104050219D01*
X70312882Y-104027793D01*
X70422150Y-103947150D01*
X70502793Y-103837882D01*
X70525219Y-103773790D01*
X70547646Y-103709701D01*
X70547646Y-103709699D01*
X70550500Y-103679269D01*
X71049500Y-103679269D01*
X71052353Y-103709699D01*
X71052353Y-103709701D01*
X71097206Y-103837880D01*
X71097207Y-103837882D01*
X71177850Y-103947150D01*
X71287118Y-104027793D01*
X71324579Y-104040901D01*
X71422423Y-104075139D01*
X71421928Y-104076551D01*
X71475746Y-104105990D01*
X71509186Y-104167337D01*
X71512000Y-104193606D01*
X71512000Y-104368656D01*
X71492315Y-104435695D01*
X71439511Y-104481450D01*
X71428956Y-104485697D01*
X71324617Y-104522207D01*
X71215350Y-104602850D01*
X71134707Y-104712117D01*
X71134706Y-104712119D01*
X71089853Y-104840298D01*
X71089853Y-104840300D01*
X71087000Y-104870730D01*
X71087000Y-105929269D01*
X71089853Y-105959699D01*
X71089853Y-105959701D01*
X71128533Y-106070238D01*
X71134707Y-106087882D01*
X71215350Y-106197150D01*
X71324618Y-106277793D01*
X71348421Y-106286122D01*
X71452799Y-106322646D01*
X71483230Y-106325500D01*
X71483234Y-106325500D01*
X72266770Y-106325500D01*
X72297199Y-106322646D01*
X72297201Y-106322646D01*
X72361918Y-106300000D01*
X72425382Y-106277793D01*
X72534650Y-106197150D01*
X72615293Y-106087882D01*
X72637719Y-106023790D01*
X72660146Y-105959701D01*
X72660146Y-105959699D01*
X72663000Y-105929269D01*
X72663000Y-104870730D01*
X72660146Y-104840300D01*
X72660146Y-104840298D01*
X72616189Y-104714679D01*
X72615293Y-104712118D01*
X72534650Y-104602850D01*
X72425382Y-104522207D01*
X72425380Y-104522206D01*
X72297200Y-104477353D01*
X72275421Y-104475311D01*
X72210513Y-104449453D01*
X72169888Y-104392607D01*
X72163000Y-104351853D01*
X72163000Y-104193606D01*
X72182685Y-104126567D01*
X72235489Y-104080812D01*
X72253904Y-104074674D01*
X72299969Y-104058555D01*
X72387882Y-104027793D01*
X72497150Y-103947150D01*
X72577793Y-103837882D01*
X72600219Y-103773790D01*
X72622646Y-103709701D01*
X72622646Y-103709699D01*
X72625500Y-103679269D01*
X72625500Y-102620730D01*
X72622646Y-102590300D01*
X72622646Y-102590298D01*
X72589006Y-102494163D01*
X72577793Y-102462118D01*
X72497150Y-102352850D01*
X72387882Y-102272207D01*
X72387880Y-102272206D01*
X72259700Y-102227353D01*
X72229270Y-102224500D01*
X72229266Y-102224500D01*
X71445734Y-102224500D01*
X71445730Y-102224500D01*
X71415300Y-102227353D01*
X71415298Y-102227353D01*
X71287119Y-102272206D01*
X71287117Y-102272207D01*
X71177850Y-102352850D01*
X71097207Y-102462117D01*
X71097206Y-102462119D01*
X71052353Y-102590298D01*
X71052353Y-102590300D01*
X71049500Y-102620730D01*
X71049500Y-103679269D01*
X70550500Y-103679269D01*
X70550500Y-102620730D01*
X70547646Y-102590300D01*
X70547646Y-102590298D01*
X70514006Y-102494163D01*
X70502793Y-102462118D01*
X70422150Y-102352850D01*
X70312882Y-102272207D01*
X70312880Y-102272206D01*
X70184700Y-102227353D01*
X70154270Y-102224500D01*
X70154266Y-102224500D01*
X69370734Y-102224500D01*
X69370730Y-102224500D01*
X69340300Y-102227353D01*
X69340298Y-102227353D01*
X69212119Y-102272206D01*
X69212117Y-102272207D01*
X69102850Y-102352850D01*
X69022207Y-102462117D01*
X69022206Y-102462119D01*
X68977353Y-102590298D01*
X68977353Y-102590300D01*
X68974500Y-102620730D01*
X68974500Y-103325500D01*
X68954815Y-103392539D01*
X68902011Y-103438294D01*
X68850500Y-103449500D01*
X68274500Y-103449500D01*
X68207461Y-103429815D01*
X68161706Y-103377011D01*
X68150500Y-103325500D01*
X68150500Y-103229239D01*
X68140573Y-103161108D01*
X68140573Y-103161107D01*
X68089198Y-103056017D01*
X68089196Y-103056015D01*
X68089196Y-103056014D01*
X68006485Y-102973303D01*
X67901391Y-102921926D01*
X67833261Y-102912000D01*
X67833260Y-102912000D01*
X67466740Y-102912000D01*
X67466739Y-102912000D01*
X67398608Y-102921926D01*
X67293514Y-102973303D01*
X67262681Y-103004137D01*
X67201358Y-103037622D01*
X67131666Y-103032638D01*
X67087319Y-103004137D01*
X67056485Y-102973303D01*
X66951391Y-102921926D01*
X66883261Y-102912000D01*
X66883260Y-102912000D01*
X66516740Y-102912000D01*
X66516739Y-102912000D01*
X66448608Y-102921926D01*
X66343514Y-102973303D01*
X66312681Y-103004137D01*
X66251358Y-103037622D01*
X66181666Y-103032638D01*
X66137319Y-103004137D01*
X66111819Y-102978637D01*
X66078334Y-102917314D01*
X66075500Y-102890956D01*
X66075500Y-102866909D01*
X66075736Y-102861502D01*
X66079263Y-102821191D01*
X66068786Y-102782092D01*
X66067617Y-102776824D01*
X66060588Y-102736955D01*
X66060587Y-102736954D01*
X66060587Y-102736951D01*
X66058765Y-102731947D01*
X66051815Y-102715168D01*
X66049554Y-102710319D01*
X66049553Y-102710318D01*
X66049553Y-102710316D01*
X66026333Y-102677154D01*
X66023435Y-102672604D01*
X66004838Y-102640393D01*
X66003194Y-102637545D01*
X66003191Y-102637542D01*
X66003190Y-102637541D01*
X65985447Y-102622653D01*
X65972182Y-102611522D01*
X65968210Y-102607883D01*
X65561819Y-102201492D01*
X65528334Y-102140169D01*
X65525500Y-102113811D01*
X65525500Y-101949500D01*
X65545185Y-101882461D01*
X65597989Y-101836706D01*
X65649500Y-101825500D01*
X65729270Y-101825500D01*
X65759699Y-101822646D01*
X65759701Y-101822646D01*
X65823790Y-101800219D01*
X65887882Y-101777793D01*
X65997150Y-101697150D01*
X66077793Y-101587882D01*
X66107422Y-101503207D01*
X66122646Y-101459701D01*
X66122646Y-101459699D01*
X66125500Y-101429269D01*
X66125500Y-101099500D01*
X66145185Y-101032461D01*
X66197989Y-100986706D01*
X66249500Y-100975500D01*
X66850500Y-100975500D01*
X66917539Y-100995185D01*
X66963294Y-101047989D01*
X66974500Y-101099500D01*
X66974500Y-101179269D01*
X66977353Y-101209699D01*
X66977353Y-101209701D01*
X67022206Y-101337880D01*
X67022207Y-101337882D01*
X67102850Y-101447150D01*
X67212118Y-101527793D01*
X67254845Y-101542744D01*
X67340299Y-101572646D01*
X67370730Y-101575500D01*
X67370734Y-101575500D01*
X68154270Y-101575500D01*
X68184699Y-101572646D01*
X68184701Y-101572646D01*
X68248790Y-101550219D01*
X68312882Y-101527793D01*
X68422150Y-101447150D01*
X68502793Y-101337882D01*
X68525219Y-101273790D01*
X68547646Y-101209701D01*
X68547646Y-101209699D01*
X68550500Y-101179269D01*
X69049500Y-101179269D01*
X69052353Y-101209699D01*
X69052353Y-101209701D01*
X69097206Y-101337880D01*
X69097207Y-101337882D01*
X69177850Y-101447150D01*
X69287118Y-101527793D01*
X69329845Y-101542744D01*
X69415299Y-101572646D01*
X69445730Y-101575500D01*
X69445734Y-101575500D01*
X70229270Y-101575500D01*
X70259699Y-101572646D01*
X70259701Y-101572646D01*
X70323790Y-101550219D01*
X70387882Y-101527793D01*
X70497150Y-101447150D01*
X70577793Y-101337882D01*
X70600219Y-101273790D01*
X70622646Y-101209701D01*
X70622646Y-101209699D01*
X70625500Y-101179269D01*
X70625500Y-101099500D01*
X70645185Y-101032461D01*
X70697989Y-100986706D01*
X70749500Y-100975500D01*
X72163812Y-100975500D01*
X72230851Y-100995185D01*
X72251493Y-101011819D01*
X73238181Y-101998507D01*
X73271666Y-102059830D01*
X73274500Y-102086188D01*
X73274500Y-107104757D01*
X73254815Y-107171796D01*
X73208131Y-107214551D01*
X73199149Y-107219265D01*
X73199148Y-107219266D01*
X73071816Y-107332072D01*
X72975182Y-107472068D01*
X72914860Y-107631125D01*
X72914859Y-107631130D01*
X72894355Y-107800000D01*
X72914859Y-107968869D01*
X72914860Y-107968874D01*
X72975182Y-108127931D01*
X73009660Y-108177880D01*
X73071817Y-108267929D01*
X73143020Y-108331009D01*
X73199150Y-108380736D01*
X73349773Y-108459789D01*
X73349775Y-108459790D01*
X73514944Y-108500500D01*
X73685056Y-108500500D01*
X73850225Y-108459790D01*
X73972621Y-108395551D01*
X74000849Y-108380736D01*
X74000850Y-108380734D01*
X74000852Y-108380734D01*
X74128183Y-108267929D01*
X74224818Y-108127930D01*
X74285140Y-107968872D01*
X74305645Y-107800000D01*
X74285140Y-107631128D01*
X74224818Y-107472070D01*
X74128183Y-107332071D01*
X74000852Y-107219266D01*
X73991869Y-107214551D01*
X73941659Y-107165964D01*
X73925500Y-107104757D01*
X73925500Y-101916920D01*
X73925736Y-101911513D01*
X73926920Y-101897989D01*
X73929264Y-101871193D01*
X73918782Y-101832076D01*
X73917616Y-101826818D01*
X73910588Y-101786955D01*
X73910586Y-101786952D01*
X73910586Y-101786950D01*
X73908760Y-101781933D01*
X73901820Y-101765176D01*
X73899554Y-101760319D01*
X73899554Y-101760316D01*
X73876339Y-101727162D01*
X73873433Y-101722599D01*
X73853196Y-101687548D01*
X73853195Y-101687547D01*
X73853194Y-101687545D01*
X73822177Y-101661518D01*
X73818193Y-101657867D01*
X73208315Y-101047989D01*
X72592119Y-100431793D01*
X72588474Y-100427814D01*
X72562456Y-100396807D01*
X72562455Y-100396806D01*
X72551058Y-100390226D01*
X72527392Y-100376561D01*
X72522831Y-100373655D01*
X72509687Y-100364452D01*
X72489684Y-100350446D01*
X72489681Y-100350445D01*
X72484861Y-100348197D01*
X72468055Y-100341235D01*
X72463043Y-100339411D01*
X72423190Y-100332383D01*
X72417910Y-100331212D01*
X72378808Y-100320735D01*
X72343892Y-100323790D01*
X72338481Y-100324264D01*
X72333078Y-100324500D01*
X70749500Y-100324500D01*
X70682461Y-100304815D01*
X70636706Y-100252011D01*
X70625500Y-100200500D01*
X70625500Y-100120730D01*
X70622646Y-100090300D01*
X70622646Y-100090298D01*
X70577793Y-99962119D01*
X70577792Y-99962117D01*
X70497150Y-99852850D01*
X70387882Y-99772207D01*
X70387880Y-99772206D01*
X70259700Y-99727353D01*
X70229270Y-99724500D01*
X70229266Y-99724500D01*
X69445734Y-99724500D01*
X69445730Y-99724500D01*
X69415300Y-99727353D01*
X69415298Y-99727353D01*
X69287119Y-99772206D01*
X69287117Y-99772207D01*
X69177850Y-99852850D01*
X69097207Y-99962117D01*
X69097206Y-99962119D01*
X69052353Y-100090298D01*
X69052353Y-100090300D01*
X69049500Y-100120730D01*
X69049500Y-101179269D01*
X68550500Y-101179269D01*
X68550500Y-100120730D01*
X68547646Y-100090300D01*
X68547646Y-100090298D01*
X68502793Y-99962119D01*
X68502792Y-99962117D01*
X68422150Y-99852850D01*
X68312882Y-99772207D01*
X68312880Y-99772206D01*
X68184700Y-99727353D01*
X68154270Y-99724500D01*
X68154266Y-99724500D01*
X67370734Y-99724500D01*
X67370730Y-99724500D01*
X67340300Y-99727353D01*
X67340298Y-99727353D01*
X67212119Y-99772206D01*
X67212117Y-99772207D01*
X67102850Y-99852850D01*
X67022207Y-99962117D01*
X67022206Y-99962119D01*
X66977353Y-100090298D01*
X66977353Y-100090300D01*
X66974500Y-100120730D01*
X66974500Y-100200500D01*
X66954815Y-100267539D01*
X66902011Y-100313294D01*
X66850500Y-100324500D01*
X65965666Y-100324500D01*
X65898627Y-100304815D01*
X65892042Y-100300277D01*
X65887882Y-100297207D01*
X65887880Y-100297206D01*
X65759700Y-100252353D01*
X65729270Y-100249500D01*
X65729266Y-100249500D01*
X64670734Y-100249500D01*
X64670730Y-100249500D01*
X64640300Y-100252353D01*
X64640298Y-100252353D01*
X64512119Y-100297206D01*
X64512117Y-100297207D01*
X64402850Y-100377850D01*
X64322207Y-100487117D01*
X64322206Y-100487119D01*
X64277353Y-100615298D01*
X64277353Y-100615300D01*
X64274500Y-100645730D01*
X64274500Y-101429269D01*
X62171609Y-101429269D01*
X62162645Y-101422653D01*
X62034602Y-101377850D01*
X62004207Y-101375000D01*
X61550000Y-101375000D01*
X61050000Y-101375000D01*
X60595803Y-101375000D01*
X60565393Y-101377851D01*
X60437354Y-101422653D01*
X60328207Y-101503207D01*
X60247653Y-101612354D01*
X60202850Y-101740395D01*
X60202850Y-101740399D01*
X60200000Y-101770793D01*
X60200000Y-101987500D01*
X58000000Y-101987500D01*
X58000000Y-99212500D01*
X64275001Y-99212500D01*
X64275001Y-99354196D01*
X64277851Y-99384606D01*
X64322653Y-99512645D01*
X64403207Y-99621792D01*
X64512354Y-99702346D01*
X64640397Y-99747149D01*
X64670792Y-99749999D01*
X64949999Y-99749999D01*
X64950000Y-99749998D01*
X64950000Y-99212500D01*
X65450000Y-99212500D01*
X65450000Y-99749999D01*
X65729196Y-99749999D01*
X65759606Y-99747148D01*
X65887645Y-99702346D01*
X65996792Y-99621792D01*
X66077346Y-99512645D01*
X66122149Y-99384604D01*
X66122149Y-99384600D01*
X66125000Y-99354206D01*
X66125000Y-99212500D01*
X65450000Y-99212500D01*
X64950000Y-99212500D01*
X64275001Y-99212500D01*
X58000000Y-99212500D01*
X58000000Y-99051362D01*
X58019685Y-98984323D01*
X58036319Y-98963681D01*
X58287500Y-98712500D01*
X64275000Y-98712500D01*
X64950000Y-98712500D01*
X64950000Y-98175000D01*
X65450000Y-98175000D01*
X65450000Y-98712500D01*
X66124999Y-98712500D01*
X66124999Y-98570803D01*
X66122148Y-98540393D01*
X66077346Y-98412354D01*
X65996792Y-98303207D01*
X65887645Y-98222653D01*
X65759602Y-98177850D01*
X65729207Y-98175000D01*
X65450000Y-98175000D01*
X64950000Y-98175000D01*
X64670804Y-98175000D01*
X64640393Y-98177851D01*
X64512354Y-98222653D01*
X64403207Y-98303207D01*
X64322653Y-98412354D01*
X64277850Y-98540395D01*
X64277850Y-98540399D01*
X64275000Y-98570793D01*
X64275000Y-98712500D01*
X58287500Y-98712500D01*
X63463681Y-93536319D01*
X63525004Y-93502834D01*
X63551362Y-93500000D01*
X71684772Y-93500000D01*
X71751811Y-93519685D01*
G37*
%TD.AperFunction*%
%TD*%
M02*
