M48
; DRILL file {KiCad 7.0.8} date Mon Jan 29 20:53:31 2024
; FORMAT={-:-/ absolute / inch / decimal}
; #@! TF.CreationDate,2024-01-29T20:53:31-05:00
; #@! TF.GenerationSoftware,Kicad,Pcbnew,7.0.8
; #@! TF.FileFunction,Plated,1,2,PTH
FMAT,2
INCH
; #@! TA.AperFunction,Plated,PTH,ViaDrill
T1C0.0118
; #@! TA.AperFunction,Plated,PTH,ViaDrill
T2C0.0197
; #@! TA.AperFunction,Plated,PTH,ComponentDrill
T3C0.0236
; #@! TA.AperFunction,Plated,PTH,ComponentDrill
T4C0.0276
; #@! TA.AperFunction,Plated,PTH,ViaDrill
T5C0.0295
; #@! TA.AperFunction,Plated,PTH,ComponentDrill
T6C0.0315
; #@! TA.AperFunction,Plated,PTH,ComponentDrill
T7C0.0354
; #@! TA.AperFunction,Plated,PTH,ComponentDrill
T8C0.0394
; #@! TA.AperFunction,Plated,PTH,ComponentDrill
T9C0.0433
; #@! TA.AperFunction,Plated,PTH,ComponentDrill
T10C0.0512
; #@! TA.AperFunction,Plated,PTH,ComponentDrill
T11C0.0669
%
G90
G05
T1
X5.1768Y-4.7835
X5.1768Y-5.0551
X5.2004Y-4.7343
X5.3205Y-4.9794
X5.3244Y-4.7559
X5.3579Y-4.9075
X5.3717Y-5.0315
X5.3756Y-4.8799
X5.3953Y-5.0807
X5.4031Y-4.7618
X5.4189Y-5.1122
X5.4366Y-4.7638
X5.472Y-4.935
X5.4829Y-4.8563
X5.4858Y-4.7992
X5.5154Y-4.642
X5.539Y-4.6654
X5.602Y-4.9705
X5.6177Y-4.8661
X5.6197Y-4.7953
X5.6197Y-4.8307
X5.6394Y-4.9449
X5.6472Y-5.0315
X5.7024Y-4.7205
T2
X4.6709Y-4.1024
X4.6945Y-4.1457
X4.7181Y-4.1024
X4.7417Y-4.1457
X4.7654Y-4.1024
X4.8638Y-3.685
X4.911Y-3.6378
X4.911Y-3.685
X4.9583Y-3.6378
X4.9583Y-3.685
X4.974Y-4.4794
X4.9898Y-4.1811
X5.0094Y-3.6378
X5.0094Y-3.685
X5.0528Y-4.4173
X5.0567Y-3.6378
X5.0665Y-4.1043
X5.1433Y-4.4173
X5.1512Y-3.6457
X5.1811Y-3.689
X5.2142Y-4.1417
X5.2142Y-4.2598
X5.2535Y-4.6496
X5.3068Y-5.053
X5.3283Y-4.4646
X5.4268Y-5.1654
X5.663Y-5.1732
X5.665Y-4.4508
X5.6827Y-4.9173
X5.7135Y-4.1795
X5.7654Y-4.9134
X5.8992Y-4.3228
X5.9583Y-4.4508
X6.0567Y-4.3268
X6.0582Y-4.5925
X6.1984Y-4.6063
T3
X5.2339Y-2.8563
X5.4307Y-2.9075
T4
X6.1276Y-4.3287
X6.1276Y-4.374
X6.1276Y-4.4193
X6.1276Y-4.4646
T5
X5.8756Y-2.9055
T6
X4.6811Y-3.1144
X4.6811Y-3.2144
X5.797Y-3.4606
X5.8598Y-5.2756
X5.8795Y-4.6693
X5.8795Y-4.7693
X5.8795Y-4.8693
X5.8795Y-4.9693
X5.9386Y-5.2756
X5.9938Y-3.4606
X6.1795Y-4.6693
X6.1795Y-4.7693
X6.1795Y-4.8693
X6.1795Y-4.9693
T7
X5.3478Y-4.3228
X5.4478Y-4.3228
T8
X4.5331Y-5.2913
X4.6331Y-5.2913
X4.7331Y-5.2913
X4.8331Y-5.2913
X4.9331Y-5.2913
X5.0331Y-5.2913
X6.2142Y-4.3337
X6.2142Y-4.4596
T9
X4.539Y-4.2441
X4.539Y-4.6969
X4.539Y-4.9724
X4.724Y-4.2441
T10
X4.6374Y-3.4882
X5.3047Y-4.03
X5.5016Y-4.03
X5.5232Y-3.4882
T11
X4.9701Y-4.7732
X4.9701Y-4.9291
T0
M30
